G04 DipTrace 3.2.0.1*
G04 SiC_V3_BM.GL3*
%MOMM*%
G04 #@! TF.FileFunction,Copper,L3,Inr*
G04 #@! TF.Part,Single*
%ADD33C,1.05*%
%ADD55C,1.75*%
%ADD74C,5.0*%
G04 #@! TA.AperFunction,Conductor*
%ADD16C,0.4*%
%ADD17C,0.6*%
%ADD18C,0.5*%
%ADD19C,1.0*%
G04 #@! TA.AperFunction,ViaPad*
%ADD20C,0.87*%
G04 #@! TA.AperFunction,CopperBalancing*
%ADD25C,0.635*%
G04 #@! TA.AperFunction,ViaPad*
%ADD75C,0.57*%
%ADD76C,0.8636*%
%FSLAX35Y35*%
G04*
G71*
G90*
G75*
G01*
G04 Inner2_Plane*
%LPD*%
X8821000Y8775000D2*
D16*
Y8929500D1*
X8654097Y9096403D1*
X7104557D1*
X6887893Y8879740D1*
Y8771893D1*
X6891000Y8775000D1*
X9792827Y9239623D2*
D17*
X5277187D1*
X4961000Y8923437D1*
Y8775000D1*
X4258023Y6108220D2*
D18*
Y6172367D1*
X4271630Y6185973D1*
X6929737Y7372553D2*
X6901940D1*
X6886973Y7387520D1*
X8321000Y8775000D2*
D19*
Y8760360D1*
X8191753Y8631113D1*
X8080653D1*
X7692260Y8242720D1*
Y7932713D1*
D20*
X7682863Y7923317D1*
X7016000Y8775000D2*
D18*
X6992257D1*
Y8875517D1*
X7153813Y9037073D1*
X8557920D1*
X8696000Y8898993D1*
Y8775000D1*
X9196000D2*
D17*
Y8928857D1*
X8964677Y9160180D1*
X5313340D1*
X5076747Y8923587D1*
Y8784253D1*
X5086000Y8775000D1*
X8571000D2*
D19*
Y8835320D1*
X8470007Y8936313D1*
X7973413D1*
X7556430Y8519330D1*
X6665597D1*
X6601153Y8583773D1*
Y8735153D1*
X6641000Y8775000D1*
X6282730Y8174370D2*
Y8265350D1*
X6601153Y8583773D1*
X6552833Y3941830D2*
D16*
X6572267D1*
X6892220Y4806047D2*
X6926337D1*
X7553293Y4530603D2*
X7586893D1*
X7597503Y4541213D1*
X7158193Y3975420D2*
Y4008370D1*
X3681880Y4899623D2*
Y5043823D1*
X3606263D1*
X3596743Y5034303D1*
D75*
X2058207Y5462600D3*
X6035727Y5002173D3*
X6462167Y5384063D3*
X8981240Y8166497D3*
X7903920Y8232020D3*
X4258023Y6108220D3*
X6929737Y7372553D3*
X7578667Y1818363D3*
X5818397Y3027273D3*
X4633397Y2896273D3*
X6732587D3*
X2222463Y6527303D3*
X5802523Y5428867D3*
X5397027Y5549727D3*
X5564997Y5652617D3*
X4970557Y5868920D3*
X4047840Y4756393D3*
X3338073Y4929583D3*
X3931523Y5669930D3*
X6042193Y6536357D3*
X7658717Y7269973D3*
X6855067Y6835447D3*
X5703507Y7150353D3*
X7907053Y6942697D3*
X7896997Y2314373D3*
D20*
X10132803Y4288360D3*
D75*
X9485233Y2091543D3*
X10163457Y3597503D3*
D20*
X9622973Y4403313D3*
D75*
X9817313Y5191597D3*
D20*
X7516143Y3653053D3*
X9186063Y4107437D3*
X3767490Y8191430D3*
X3358870Y7654257D3*
X2539143Y7431260D3*
X2770040Y7698527D3*
Y7298523D3*
X4171603Y7808760D3*
X3493723Y6948243D3*
X2866950Y8170400D3*
X3184210Y7654690D3*
X3699990Y6957923D3*
X2474720Y8144373D3*
X2866950Y8170400D3*
X2275247Y7316100D3*
X3505703Y7639910D3*
D75*
X7493397Y4207590D3*
X8638987Y3332100D3*
D3*
X6959720Y4304193D3*
X8273410Y4233927D3*
D3*
X6791310Y5135163D3*
X5376667Y4240430D3*
X7211803Y8052177D3*
X5710397Y5597583D3*
X8973607Y1805670D3*
X9943037Y2775100D3*
X7959213Y1822373D3*
X8973607Y1805670D3*
X4398397Y3247273D3*
X6974370Y2527800D3*
X6734390Y1415357D3*
X4163397Y3082273D3*
X7906250Y2441373D3*
X7689073Y4023907D3*
D3*
X9830403Y5010623D3*
X2076493Y2032210D3*
X2718397Y4051273D3*
X1974907Y3375477D3*
X2973397Y3642273D3*
X3563413Y1639590D3*
X1974907Y3375477D3*
X7452013Y6947537D3*
X7308063Y7367717D3*
X7433113Y7436853D3*
X7537367Y7198027D3*
X6039703Y6427260D3*
X7734320Y8902583D3*
X6170333Y6335320D3*
X4938053Y4955877D3*
X5187233Y6349443D3*
X5000393Y6130187D3*
X4862267Y5394143D3*
X7020130Y5345480D3*
X6886483Y5211833D3*
X4938443Y5178373D3*
X8305767Y5558683D3*
X5325180Y5477047D3*
D20*
X8110260Y7029087D3*
X4323667Y6552927D3*
X1956983Y5412333D3*
D75*
X7276490Y3656980D3*
X7348650Y3489080D3*
X5547440Y1823917D3*
X5259103Y1262440D3*
X2775627Y1250330D3*
X2526433Y1389017D3*
X7157777Y4108187D3*
X6938167Y4044300D3*
X6257410Y4875447D3*
X5770613Y2097453D3*
X6989173Y4585423D3*
X6257410Y4875447D3*
X6606040Y2737853D3*
X6910997D3*
X7435460Y3070807D3*
X7845100Y2741757D3*
X6372057Y4787557D3*
X6688397Y3147273D3*
X6937587Y3112467D3*
X7584270Y1299450D3*
X3212803Y1190990D3*
X3138327Y1416103D3*
X6688397Y3147273D3*
X6131897Y4286123D3*
X6121217Y4065893D3*
X3160560Y2765477D3*
X6153397Y4917273D3*
X6324047Y4969480D3*
X6552833Y3941830D3*
X6892220Y4806047D3*
X7553293Y4530603D3*
X7158193Y3975420D3*
X6098790Y4567020D3*
X3935400Y3573510D3*
X6763397Y4407273D3*
X8731997Y2441373D3*
X4155193Y3814830D3*
X3048397Y3697773D3*
X7787103Y4393847D3*
X7931763Y4736720D3*
X7816670Y2568373D3*
X7787103Y4393847D3*
X5584740Y4178230D3*
X5192520Y1479073D3*
X4859257Y1647513D3*
X5623237Y3734380D3*
X6099983Y3643047D3*
X8793857Y7512500D3*
D76*
X8831547Y8274810D3*
D75*
X4708557Y4528980D3*
D76*
X2084773Y8354550D3*
D75*
X5864897Y5332737D3*
D20*
X9424933Y8042627D3*
D75*
X7037057Y4881203D3*
D76*
X2217623Y6923610D3*
D20*
X6645380Y3439107D3*
D76*
X1923480Y6403337D3*
X2477053Y6465337D3*
X2413307Y5495523D3*
X2553427Y5208367D3*
X1700850Y5352220D3*
D75*
X1867233Y4984353D3*
X4848080Y5539403D3*
X6122700Y5534193D3*
X5066373Y4041560D3*
X4819720Y4243363D3*
X4528010Y4743683D3*
X5260550Y5541873D3*
D76*
X4579433Y7485347D3*
X4933070Y6873940D3*
D20*
X8259433Y7424913D3*
D75*
X5536897Y5922070D3*
X9595170Y4236880D3*
X9602447Y4067853D3*
X8279030Y4491053D3*
X8272257Y4359847D3*
X8699073Y3836420D3*
X8595373Y3501593D3*
X10277627Y3305803D3*
X8906183Y3584473D3*
X8911493Y3464593D3*
X9203740Y3026730D3*
X9192450Y2812227D3*
X9978290Y2999583D3*
X9234787Y2476797D3*
X8741873Y2565680D3*
X7853007Y4777867D3*
X8332023Y1977217D3*
X7367050Y2528410D3*
X6241320Y3443647D3*
X5800237Y2892043D3*
X4615837Y3819243D3*
X4622450Y3637423D3*
X4612530Y3439073D3*
X3448877Y3134213D3*
X3924917Y3696927D3*
X6027917Y5128230D3*
X5497893Y4260593D3*
X5242787Y4308817D3*
X4885890Y4666683D3*
X7117670Y1407287D3*
X6487940Y1585157D3*
X6486073Y1363097D3*
X6124057Y2244947D3*
X6125923Y2106857D3*
X4851380Y1809083D3*
X5227900Y1583560D3*
X2800460Y2639707D3*
X2375487Y2039043D3*
X1409353Y3133400D3*
X2311477Y3286927D3*
X2300743Y3097037D3*
X2798933Y2511573D3*
D76*
X2409557Y4568377D3*
X1335163Y4426227D3*
X1342287Y4227877D3*
X8838370Y6833380D3*
X8369197Y7991823D3*
X8000963Y7752753D3*
X9152133Y8172280D3*
X9084257Y7646583D3*
X8614833Y7830380D3*
D75*
X5138553Y5655943D3*
X5056133Y4466310D3*
D20*
X9839833Y4291880D3*
D75*
X6193010Y5982267D3*
D20*
X3577627Y5675720D3*
X3681880Y4899623D3*
D75*
X8710057Y7560313D3*
Y7467567D3*
X8872907Y7466490D3*
D20*
X3868157Y8885893D3*
X3041560Y3142163D3*
X2734057Y3286143D3*
X3128360Y8489933D3*
X2401553Y3665807D3*
X2499737Y3662170D3*
X2406727Y4181753D3*
X2502590Y4189807D3*
X2091923Y4223403D3*
X1975460Y4366923D3*
X6058527Y1369347D3*
X3260470Y8208853D3*
X7902933Y1980010D3*
X2956447Y7669597D3*
X1732930Y7583810D3*
X9991833Y4289243D3*
X9857507Y4842093D3*
X9995080Y4832017D3*
X8434190Y3493957D3*
X8798260Y2818300D3*
X3137297Y7534920D3*
D75*
X8873983Y7560313D3*
D20*
X7682863Y7923317D3*
D75*
X6432063Y6230537D3*
X6194293Y5852580D3*
X5164647Y5910413D3*
X4717113Y6215113D3*
X4588567Y6481730D3*
X4438147Y6505083D2*
D25*
X5945303D1*
X6139110D2*
X6461917D1*
X4438147Y6441917D2*
X5155887D1*
X5218537D2*
X5938650D1*
X6140750D2*
X6461917D1*
X4438147Y6378750D2*
X5089717D1*
X5284800D2*
X5950770D1*
X6262063D2*
X6461917D1*
X4438147Y6315583D2*
X5091267D1*
X5283160D2*
X6070263D1*
X6270450D2*
X6461917D1*
X4438147Y6252417D2*
X6116020D1*
X6224697D2*
X6461917D1*
X4438147Y6189250D2*
X4918637D1*
X5082183D2*
X6461917D1*
X4438147Y6126083D2*
X4898310D1*
X5102417D2*
X6461917D1*
X4438147Y6062917D2*
X4925837D1*
X5074980D2*
X6134977D1*
X6251037D2*
X6461917D1*
X4438147Y5999750D2*
X5474533D1*
X5599253D2*
X6092503D1*
X6293510D2*
X6461917D1*
X4438147Y5936583D2*
X4896397D1*
X5044720D2*
X5435887D1*
X5637897D2*
X6102437D1*
X6283577D2*
X6461917D1*
X4438147Y5873417D2*
X4868507D1*
X5072613D2*
X5448010D1*
X5625777D2*
X6461917D1*
X4438147Y5810250D2*
X4888467D1*
X5052650D2*
X6461917D1*
X4438147Y5747083D2*
X5542803D1*
X5587220D2*
X6461917D1*
X4433770Y5683917D2*
X5468153D1*
X5758210D2*
X6461917D1*
X3038147Y5620750D2*
X3842933D1*
X4020060D2*
X4791123D1*
X4904993D2*
X5199820D1*
X5809707D2*
X6075277D1*
X6170100D2*
X6461917D1*
X3038147Y5557583D2*
X4747647D1*
X4948470D2*
X5159717D1*
X5498810D2*
X5546630D1*
X5583380D2*
X5616997D1*
X5803783D2*
X6023413D1*
X6221960D2*
X6461917D1*
X3038147Y5494417D2*
X4757127D1*
X4938993D2*
X5171020D1*
X5481583D2*
X5726280D1*
X5878707D2*
X6029247D1*
X6216220D2*
X6461917D1*
X3038147Y5431250D2*
X4767607D1*
X4956947D2*
X5234730D1*
X5415683D2*
X5700393D1*
X5904590D2*
X6372413D1*
X3038147Y5368083D2*
X4763780D1*
X4960777D2*
X5722177D1*
X5882897D2*
X6361383D1*
X3038147Y5304917D2*
X4821110D1*
X4903447D2*
X6401853D1*
X3038147Y5241750D2*
X4860303D1*
X5016647D2*
X6461917D1*
X3038147Y5178583D2*
X4836330D1*
X5040620D2*
X5940107D1*
X6115777D2*
X6461917D1*
X3038147Y5115417D2*
X4859937D1*
X5017013D2*
X5926617D1*
X6129173D2*
X6461917D1*
X3038147Y5052250D2*
X5947763D1*
X6123707D2*
X6269507D1*
X6378640D2*
X6461917D1*
X3038147Y4989083D2*
X3256683D1*
X3419500D2*
X4841890D1*
X5034240D2*
X5934457D1*
X6424123D2*
X6461917D1*
X3038147Y4925917D2*
X3235993D1*
X3440100D2*
X4840707D1*
X5035423D2*
X5971370D1*
X6415737D2*
X6461917D1*
X3038147Y4862750D2*
X3263063D1*
X3413030D2*
X4909247D1*
X4966790D2*
X6068257D1*
X6437793D2*
X6461917D1*
X3038147Y4799583D2*
X3955953D1*
X4139733D2*
X4443857D1*
X4612143D2*
X6192580D1*
X3038147Y4736417D2*
X3947840D1*
X4147847D2*
X4426173D1*
X4629917D2*
X4813910D1*
X4957950D2*
X6284730D1*
X3038147Y4673250D2*
X3993960D1*
X4101727D2*
X4456710D1*
X4599290D2*
X4784013D1*
X4987847D2*
X6461917D1*
X3038147Y4610083D2*
X4802243D1*
X4969527D2*
X6006917D1*
X6190697D2*
X6461917D1*
X3038147Y4546917D2*
X5998803D1*
X6198810D2*
X6461917D1*
X3038147Y4483750D2*
X6045107D1*
X6152507D2*
X6461917D1*
X3038147Y4420583D2*
X6461917D1*
X3038147Y4357417D2*
X5153883D1*
X5331647D2*
X6061603D1*
X6202183D2*
X6461917D1*
X3038147Y4294250D2*
X4732243D1*
X4907183D2*
X5141760D1*
X5593967D2*
X6030067D1*
X6233720D2*
X6461917D1*
X3038147Y4231083D2*
X4718387D1*
X4921037D2*
X5180497D1*
X5670983D2*
X6047113D1*
X6216673D2*
X6461917D1*
X3038147Y4167917D2*
X4754390D1*
X4885123D2*
X5307737D1*
X5445580D2*
X5467343D1*
X5686297D2*
X6461917D1*
X4943573Y5531887D2*
X4941223Y5517040D1*
X4936580Y5502747D1*
X4929753Y5489353D1*
X4920920Y5477193D1*
X4916870Y5472813D1*
X4930000Y5461877D1*
X4939763Y5450447D1*
X4947617Y5437630D1*
X4953370Y5423743D1*
X4956877Y5409127D1*
X4958057Y5394143D1*
X4956877Y5379160D1*
X4953370Y5364543D1*
X4947617Y5350657D1*
X4939763Y5337840D1*
X4930000Y5326410D1*
X4918570Y5316647D1*
X4905753Y5308793D1*
X4891867Y5303040D1*
X4877250Y5299533D1*
X4862267Y5298353D1*
X4847283Y5299533D1*
X4832667Y5303040D1*
X4818780Y5308793D1*
X4805963Y5316647D1*
X4794533Y5326410D1*
X4784770Y5337840D1*
X4776917Y5350657D1*
X4771163Y5364543D1*
X4767657Y5379160D1*
X4766477Y5394143D1*
X4767657Y5409127D1*
X4771163Y5423743D1*
X4776917Y5437630D1*
X4784770Y5450447D1*
X4793477Y5460733D1*
X4780347Y5471670D1*
X4770583Y5483100D1*
X4762730Y5495917D1*
X4756977Y5509803D1*
X4753470Y5524420D1*
X4752290Y5539403D1*
X4753470Y5554387D1*
X4756977Y5569003D1*
X4762730Y5582890D1*
X4770583Y5595707D1*
X4780347Y5607137D1*
X4791777Y5616900D1*
X4804593Y5624753D1*
X4818480Y5630507D1*
X4833097Y5634013D1*
X4848080Y5635193D1*
X4863063Y5634013D1*
X4877680Y5630507D1*
X4891567Y5624753D1*
X4904383Y5616900D1*
X4915813Y5607137D1*
X4925577Y5595707D1*
X4933430Y5582890D1*
X4939183Y5569003D1*
X4942690Y5554387D1*
X4943870Y5539403D1*
X4943573Y5531887D1*
X6218193Y5526677D2*
X6215843Y5511830D1*
X6211200Y5497537D1*
X6204373Y5484143D1*
X6195540Y5471983D1*
X6184910Y5461353D1*
X6172750Y5452520D1*
X6159357Y5445693D1*
X6145063Y5441050D1*
X6130217Y5438700D1*
X6115183D1*
X6100337Y5441050D1*
X6086043Y5445693D1*
X6072650Y5452520D1*
X6060490Y5461353D1*
X6049860Y5471983D1*
X6041027Y5484143D1*
X6034200Y5497537D1*
X6029557Y5511830D1*
X6027207Y5526677D1*
Y5541710D1*
X6029557Y5556557D1*
X6034200Y5570850D1*
X6041027Y5584243D1*
X6049860Y5596403D1*
X6060490Y5607033D1*
X6072650Y5615867D1*
X6086043Y5622693D1*
X6100337Y5627337D1*
X6115183Y5629687D1*
X6130217D1*
X6145063Y5627337D1*
X6159357Y5622693D1*
X6172750Y5615867D1*
X6184910Y5607033D1*
X6195540Y5596403D1*
X6204373Y5584243D1*
X6211200Y5570850D1*
X6215843Y5556557D1*
X6218193Y5541710D1*
Y5526677D1*
X5034320Y4131757D2*
X5051390Y4136170D1*
X5066373Y4137350D1*
X5081357Y4136170D1*
X5098427Y4131757D1*
X5500950Y4131750D1*
X5493637Y4148630D1*
X5489903Y4165140D1*
X5475530Y4167450D1*
X5461237Y4172093D1*
X5449357Y4178073D1*
X5438877Y4167590D1*
X5426717Y4158757D1*
X5413323Y4151930D1*
X5399030Y4147287D1*
X5384183Y4144937D1*
X5369150D1*
X5354303Y4147287D1*
X5340010Y4151930D1*
X5326617Y4158757D1*
X5314457Y4167590D1*
X5303827Y4178220D1*
X5294993Y4190380D1*
X5288167Y4203773D1*
X5283523Y4218067D1*
X5282783Y4221787D1*
X5272387Y4217713D1*
X5257770Y4214207D1*
X5242787Y4213027D1*
X5227803Y4214207D1*
X5213187Y4217713D1*
X5199300Y4223467D1*
X5186483Y4231320D1*
X5175053Y4241083D1*
X5165290Y4252513D1*
X5157437Y4265330D1*
X5151683Y4279217D1*
X5148177Y4293833D1*
X5146997Y4308817D1*
X5148177Y4323800D1*
X5151683Y4338417D1*
X5157437Y4352303D1*
X5165290Y4365120D1*
X5175053Y4376550D1*
X5186483Y4386313D1*
X5199300Y4394167D1*
X5213187Y4399920D1*
X5227803Y4403427D1*
X5242787Y4404607D1*
X5257770Y4403427D1*
X5272387Y4399920D1*
X5286273Y4394167D1*
X5299090Y4386313D1*
X5310520Y4376550D1*
X5320283Y4365120D1*
X5328137Y4352303D1*
X5333890Y4338417D1*
X5336670Y4327460D1*
X5347067Y4331533D1*
X5361683Y4335040D1*
X5376667Y4336220D1*
X5391650Y4335040D1*
X5406267Y4331533D1*
X5420153Y4325780D1*
X5425203Y4322950D1*
X5435683Y4333433D1*
X5447843Y4342267D1*
X5461237Y4349093D1*
X5475530Y4353737D1*
X5490377Y4356087D1*
X5505410D1*
X5520257Y4353737D1*
X5534550Y4349093D1*
X5547943Y4342267D1*
X5560103Y4333433D1*
X5570733Y4322803D1*
X5579567Y4310643D1*
X5586393Y4297250D1*
X5591037Y4282957D1*
X5592730Y4273683D1*
X5607103Y4271373D1*
X5621397Y4266730D1*
X5634790Y4259903D1*
X5646950Y4251070D1*
X5657580Y4240440D1*
X5666413Y4228280D1*
X5673240Y4214887D1*
X5677883Y4200593D1*
X5680233Y4185747D1*
Y4170713D1*
X5677883Y4155867D1*
X5673240Y4141573D1*
X5668410Y4131743D1*
X6051653Y4131750D1*
X6064913Y4143390D1*
X6077730Y4151243D1*
X6091617Y4156997D1*
X6106233Y4160503D1*
X6121217Y4161683D1*
X6136200Y4160503D1*
X6150817Y4156997D1*
X6164703Y4151243D1*
X6177520Y4143390D1*
X6190687Y4131750D1*
X6468190D1*
X6468250Y5288450D1*
X6454650Y5288570D1*
X6439803Y5290920D1*
X6425510Y5295563D1*
X6412117Y5302390D1*
X6399957Y5311223D1*
X6389327Y5321853D1*
X6380493Y5334013D1*
X6373667Y5347407D1*
X6369023Y5361700D1*
X6366673Y5376547D1*
Y5391580D1*
X6369023Y5406427D1*
X6373667Y5420720D1*
X6380493Y5434113D1*
X6389327Y5446273D1*
X6399957Y5456903D1*
X6412117Y5465737D1*
X6425510Y5472563D1*
X6439803Y5477207D1*
X6454650Y5479557D1*
X6468243Y5479613D1*
X6468250Y6568320D1*
X6132590Y6568250D1*
X6136803Y6551340D1*
X6137983Y6536357D1*
X6136803Y6521373D1*
X6133297Y6506757D1*
X6127543Y6492870D1*
X6119670Y6480030D1*
X6128203Y6463917D1*
X6132847Y6449623D1*
X6135197Y6434777D1*
X6135387Y6424530D1*
X6147970Y6428463D1*
X6162817Y6430813D1*
X6177850D1*
X6192697Y6428463D1*
X6206990Y6423820D1*
X6220383Y6416993D1*
X6232543Y6408160D1*
X6243173Y6397530D1*
X6252007Y6385370D1*
X6258833Y6371977D1*
X6263477Y6357683D1*
X6265827Y6342837D1*
Y6327803D1*
X6263477Y6312957D1*
X6258833Y6298663D1*
X6252007Y6285270D1*
X6243173Y6273110D1*
X6232543Y6262480D1*
X6220383Y6253647D1*
X6206990Y6246820D1*
X6192697Y6242177D1*
X6177850Y6239827D1*
X6162817D1*
X6147970Y6242177D1*
X6133677Y6246820D1*
X6120283Y6253647D1*
X6108123Y6262480D1*
X6097493Y6273110D1*
X6088660Y6285270D1*
X6081833Y6298663D1*
X6077190Y6312957D1*
X6074840Y6327803D1*
X6074650Y6338050D1*
X6062067Y6334117D1*
X6047220Y6331767D1*
X6032187D1*
X6017340Y6334117D1*
X6003047Y6338760D1*
X5989653Y6345587D1*
X5977493Y6354420D1*
X5966863Y6365050D1*
X5958030Y6377210D1*
X5951203Y6390603D1*
X5946560Y6404897D1*
X5944210Y6419743D1*
Y6434777D1*
X5946560Y6449623D1*
X5951203Y6463917D1*
X5958030Y6477310D1*
X5962227Y6483587D1*
X5953693Y6499700D1*
X5949050Y6513993D1*
X5946700Y6528840D1*
Y6543873D1*
X5949050Y6558720D1*
X5951937Y6568247D1*
X4433450Y6568250D1*
X4434457Y6552927D1*
X4433093Y6535597D1*
X4431747Y6528830D1*
X4431360Y5695033D1*
X4429333Y5687850D1*
X4425687Y5681337D1*
X4420620Y5675857D1*
X4414413Y5671710D1*
X4407413Y5669127D1*
X4399990Y5668250D1*
X4027303D1*
X4026133Y5654947D1*
X4022627Y5640330D1*
X4016873Y5626443D1*
X4009020Y5613627D1*
X3999257Y5602197D1*
X3987827Y5592433D1*
X3975010Y5584580D1*
X3961123Y5578827D1*
X3946507Y5575320D1*
X3931523Y5574140D1*
X3916540Y5575320D1*
X3901923Y5578827D1*
X3888037Y5584580D1*
X3875220Y5592433D1*
X3863790Y5602197D1*
X3854027Y5613627D1*
X3846173Y5626443D1*
X3840420Y5640330D1*
X3836913Y5654947D1*
X3835800Y5668257D1*
X3031810Y5668250D1*
X3031750Y4131837D1*
X5034100Y4131750D1*
X4915213Y4235847D2*
X4912863Y4221000D1*
X4908220Y4206707D1*
X4901393Y4193313D1*
X4892560Y4181153D1*
X4881930Y4170523D1*
X4869770Y4161690D1*
X4856377Y4154863D1*
X4842083Y4150220D1*
X4827237Y4147870D1*
X4812203D1*
X4797357Y4150220D1*
X4783063Y4154863D1*
X4769670Y4161690D1*
X4757510Y4170523D1*
X4746880Y4181153D1*
X4738047Y4193313D1*
X4731220Y4206707D1*
X4726577Y4221000D1*
X4724227Y4235847D1*
Y4250880D1*
X4726577Y4265727D1*
X4731220Y4280020D1*
X4738047Y4293413D1*
X4746880Y4305573D1*
X4757510Y4316203D1*
X4769670Y4325037D1*
X4783063Y4331863D1*
X4797357Y4336507D1*
X4812203Y4338857D1*
X4827237D1*
X4842083Y4336507D1*
X4856377Y4331863D1*
X4869770Y4325037D1*
X4881930Y4316203D1*
X4892560Y4305573D1*
X4901393Y4293413D1*
X4908220Y4280020D1*
X4912863Y4265727D1*
X4915213Y4250880D1*
Y4235847D1*
X4623503Y4736167D2*
X4621153Y4721320D1*
X4616510Y4707027D1*
X4609683Y4693633D1*
X4600850Y4681473D1*
X4590220Y4670843D1*
X4578060Y4662010D1*
X4564667Y4655183D1*
X4550373Y4650540D1*
X4535527Y4648190D1*
X4520493D1*
X4505647Y4650540D1*
X4491353Y4655183D1*
X4477960Y4662010D1*
X4465800Y4670843D1*
X4455170Y4681473D1*
X4446337Y4693633D1*
X4439510Y4707027D1*
X4434867Y4721320D1*
X4432517Y4736167D1*
Y4751200D1*
X4434867Y4766047D1*
X4439510Y4780340D1*
X4446337Y4793733D1*
X4455170Y4805893D1*
X4465800Y4816523D1*
X4477960Y4825357D1*
X4491353Y4832183D1*
X4505647Y4836827D1*
X4520493Y4839177D1*
X4535527D1*
X4550373Y4836827D1*
X4564667Y4832183D1*
X4578060Y4825357D1*
X4590220Y4816523D1*
X4600850Y4805893D1*
X4609683Y4793733D1*
X4616510Y4780340D1*
X4621153Y4766047D1*
X4623503Y4751200D1*
Y4736167D1*
X5233240Y5450127D2*
X5217063Y5456523D1*
X5204247Y5464377D1*
X5192817Y5474140D1*
X5183053Y5485570D1*
X5175200Y5498387D1*
X5169447Y5512273D1*
X5165940Y5526890D1*
X5164760Y5541873D1*
X5165940Y5556857D1*
X5169447Y5571473D1*
X5175200Y5585360D1*
X5183053Y5598177D1*
X5192817Y5609607D1*
X5204247Y5619370D1*
X5217063Y5627223D1*
X5230950Y5632977D1*
X5245567Y5636483D1*
X5260550Y5637663D1*
X5275533Y5636483D1*
X5290150Y5632977D1*
X5304037Y5627223D1*
X5316853Y5619370D1*
X5324897Y5612737D1*
X5334817Y5622567D1*
X5346977Y5631400D1*
X5360370Y5638227D1*
X5374663Y5642870D1*
X5389510Y5645220D1*
X5404543D1*
X5419390Y5642870D1*
X5433683Y5638227D1*
X5447077Y5631400D1*
X5459237Y5622567D1*
X5469867Y5611937D1*
X5478700Y5599777D1*
X5485527Y5586383D1*
X5490170Y5572090D1*
X5492520Y5557243D1*
Y5542210D1*
X5490170Y5527363D1*
X5485527Y5513070D1*
X5478700Y5499677D1*
X5469867Y5487517D1*
X5459237Y5476887D1*
X5447077Y5468053D1*
X5433683Y5461227D1*
X5418727Y5456450D1*
X5413680Y5440390D1*
X5406853Y5426997D1*
X5398020Y5414837D1*
X5387390Y5404207D1*
X5375230Y5395373D1*
X5361837Y5388547D1*
X5347543Y5383903D1*
X5332697Y5381553D1*
X5317663D1*
X5302817Y5383903D1*
X5288523Y5388547D1*
X5275130Y5395373D1*
X5262970Y5404207D1*
X5252340Y5414837D1*
X5243507Y5426997D1*
X5236680Y5440390D1*
X5233353Y5450020D1*
X5632390Y5914553D2*
X5630040Y5899707D1*
X5625397Y5885413D1*
X5618570Y5872020D1*
X5609737Y5859860D1*
X5599107Y5849230D1*
X5586947Y5840397D1*
X5573553Y5833570D1*
X5559260Y5828927D1*
X5544413Y5826577D1*
X5529380D1*
X5514533Y5828927D1*
X5500240Y5833570D1*
X5486847Y5840397D1*
X5474687Y5849230D1*
X5464057Y5859860D1*
X5455223Y5872020D1*
X5448397Y5885413D1*
X5443753Y5899707D1*
X5441403Y5914553D1*
Y5929587D1*
X5443753Y5944433D1*
X5448397Y5958727D1*
X5455223Y5972120D1*
X5464057Y5984280D1*
X5474687Y5994910D1*
X5486847Y6003743D1*
X5500240Y6010570D1*
X5514533Y6015213D1*
X5529380Y6017563D1*
X5544413D1*
X5559260Y6015213D1*
X5573553Y6010570D1*
X5586947Y6003743D1*
X5599107Y5994910D1*
X5609737Y5984280D1*
X5618570Y5972120D1*
X5625397Y5958727D1*
X5630040Y5944433D1*
X5632390Y5929587D1*
Y5914553D1*
X6123410Y5120713D2*
X6121060Y5105867D1*
X6116417Y5091573D1*
X6109590Y5078180D1*
X6103647Y5069687D1*
X6113223Y5058477D1*
X6121077Y5045660D1*
X6126830Y5031773D1*
X6130337Y5017157D1*
X6131137Y5010420D1*
X6145880Y5012767D1*
X6160913D1*
X6175760Y5010417D1*
X6190053Y5005773D1*
X6203447Y4998947D1*
X6215607Y4990113D1*
X6226237Y4979483D1*
X6228553Y4976997D1*
X6230903Y4991843D1*
X6235547Y5006137D1*
X6242373Y5019530D1*
X6251207Y5031690D1*
X6261837Y5042320D1*
X6273997Y5051153D1*
X6287390Y5057980D1*
X6301683Y5062623D1*
X6316530Y5064973D1*
X6331563D1*
X6346410Y5062623D1*
X6360703Y5057980D1*
X6374097Y5051153D1*
X6386257Y5042320D1*
X6396887Y5031690D1*
X6405720Y5019530D1*
X6412547Y5006137D1*
X6417190Y4991843D1*
X6419540Y4976997D1*
Y4961963D1*
X6417190Y4947117D1*
X6412547Y4932823D1*
X6405720Y4919430D1*
X6396887Y4907270D1*
X6386257Y4896640D1*
X6374097Y4887807D1*
X6365320Y4883110D1*
X6379573Y4883050D1*
X6394420Y4880700D1*
X6408713Y4876057D1*
X6422107Y4869230D1*
X6434267Y4860397D1*
X6444897Y4849767D1*
X6453730Y4837607D1*
X6460557Y4824213D1*
X6465200Y4809920D1*
X6467550Y4795073D1*
Y4780040D1*
X6465200Y4765193D1*
X6460557Y4750900D1*
X6453730Y4737507D1*
X6444897Y4725347D1*
X6434267Y4714717D1*
X6422107Y4705883D1*
X6408713Y4699057D1*
X6394420Y4694413D1*
X6379573Y4692063D1*
X6364540D1*
X6349693Y4694413D1*
X6335400Y4699057D1*
X6322007Y4705883D1*
X6309847Y4714717D1*
X6299217Y4725347D1*
X6290383Y4737507D1*
X6283557Y4750900D1*
X6278913Y4765193D1*
X6276500Y4781597D1*
X6264927Y4779953D1*
X6249893D1*
X6235047Y4782303D1*
X6220753Y4786947D1*
X6207360Y4793773D1*
X6195200Y4802607D1*
X6184570Y4813237D1*
X6176470Y4824297D1*
X6160913Y4821780D1*
X6145880D1*
X6131033Y4824130D1*
X6116740Y4828773D1*
X6103347Y4835600D1*
X6091187Y4844433D1*
X6080557Y4855063D1*
X6071723Y4867223D1*
X6064897Y4880617D1*
X6060253Y4894910D1*
X6057987Y4909027D1*
X6043243Y4906680D1*
X6028210D1*
X6013363Y4909030D1*
X5999070Y4913673D1*
X5985677Y4920500D1*
X5973517Y4929333D1*
X5962887Y4939963D1*
X5954053Y4952123D1*
X5947227Y4965517D1*
X5942583Y4979810D1*
X5940233Y4994657D1*
Y5009690D1*
X5942583Y5024537D1*
X5947227Y5038830D1*
X5954053Y5052223D1*
X5959997Y5060717D1*
X5950420Y5071927D1*
X5942567Y5084743D1*
X5936813Y5098630D1*
X5933307Y5113247D1*
X5932127Y5128230D1*
X5933307Y5143213D1*
X5936813Y5157830D1*
X5942567Y5171717D1*
X5950420Y5184533D1*
X5960183Y5195963D1*
X5971613Y5205727D1*
X5984430Y5213580D1*
X5998317Y5219333D1*
X6012933Y5222840D1*
X6027917Y5224020D1*
X6042900Y5222840D1*
X6057517Y5219333D1*
X6071403Y5213580D1*
X6084220Y5205727D1*
X6095650Y5195963D1*
X6105413Y5184533D1*
X6113267Y5171717D1*
X6119020Y5157830D1*
X6122527Y5143213D1*
X6123707Y5128230D1*
X6123410Y5120713D1*
X4981383Y4659167D2*
X4979033Y4644320D1*
X4974390Y4630027D1*
X4967563Y4616633D1*
X4958730Y4604473D1*
X4948100Y4593843D1*
X4935940Y4585010D1*
X4922547Y4578183D1*
X4908253Y4573540D1*
X4893407Y4571190D1*
X4878373D1*
X4863527Y4573540D1*
X4849233Y4578183D1*
X4835840Y4585010D1*
X4823680Y4593843D1*
X4813050Y4604473D1*
X4804217Y4616633D1*
X4797390Y4630027D1*
X4792747Y4644320D1*
X4790397Y4659167D1*
Y4674200D1*
X4792747Y4689047D1*
X4797390Y4703340D1*
X4804217Y4716733D1*
X4813050Y4728893D1*
X4823680Y4739523D1*
X4835840Y4748357D1*
X4849233Y4755183D1*
X4863527Y4759827D1*
X4878373Y4762177D1*
X4893407D1*
X4908253Y4759827D1*
X4922547Y4755183D1*
X4935940Y4748357D1*
X4948100Y4739523D1*
X4958730Y4728893D1*
X4967563Y4716733D1*
X4974390Y4703340D1*
X4979033Y4689047D1*
X4981383Y4674200D1*
Y4659167D1*
X6288503Y5974750D2*
X6286153Y5959903D1*
X6281510Y5945610D1*
X6274683Y5932217D1*
X6265850Y5920057D1*
X6255220Y5909427D1*
X6243060Y5900593D1*
X6229667Y5893767D1*
X6215373Y5889123D1*
X6200527Y5886773D1*
X6185493D1*
X6170647Y5889123D1*
X6156353Y5893767D1*
X6142960Y5900593D1*
X6130800Y5909427D1*
X6120170Y5920057D1*
X6111337Y5932217D1*
X6104510Y5945610D1*
X6099867Y5959903D1*
X6097517Y5974750D1*
Y5989783D1*
X6099867Y6004630D1*
X6104510Y6018923D1*
X6111337Y6032317D1*
X6120170Y6044477D1*
X6130800Y6055107D1*
X6142960Y6063940D1*
X6156353Y6070767D1*
X6170647Y6075410D1*
X6185493Y6077760D1*
X6200527D1*
X6215373Y6075410D1*
X6229667Y6070767D1*
X6243060Y6063940D1*
X6255220Y6055107D1*
X6265850Y6044477D1*
X6274683Y6032317D1*
X6281510Y6018923D1*
X6286153Y6004630D1*
X6288503Y5989783D1*
Y5974750D1*
X5898017Y5421350D2*
X5895667Y5406503D1*
X5891023Y5392210D1*
X5884197Y5378817D1*
X5875363Y5366657D1*
X5864733Y5356027D1*
X5852573Y5347193D1*
X5839180Y5340367D1*
X5824887Y5335723D1*
X5810040Y5333373D1*
X5795007D1*
X5780160Y5335723D1*
X5765867Y5340367D1*
X5752473Y5347193D1*
X5740313Y5356027D1*
X5729683Y5366657D1*
X5720850Y5378817D1*
X5714023Y5392210D1*
X5709380Y5406503D1*
X5707030Y5421350D1*
Y5436383D1*
X5709380Y5451230D1*
X5714023Y5465523D1*
X5720850Y5478917D1*
X5729683Y5491077D1*
X5740313Y5501707D1*
X5752473Y5510540D1*
X5765867Y5517367D1*
X5780160Y5522010D1*
X5795007Y5524360D1*
X5810040D1*
X5824887Y5522010D1*
X5839180Y5517367D1*
X5852573Y5510540D1*
X5864733Y5501707D1*
X5875363Y5491077D1*
X5884197Y5478917D1*
X5891023Y5465523D1*
X5895667Y5451230D1*
X5898017Y5436383D1*
Y5421350D1*
X5617857Y5572820D2*
X5608483Y5567267D1*
X5594597Y5561513D1*
X5579980Y5558007D1*
X5564997Y5556827D1*
X5550013Y5558007D1*
X5535397Y5561513D1*
X5521510Y5567267D1*
X5508693Y5575120D1*
X5497263Y5584883D1*
X5487500Y5596313D1*
X5479647Y5609130D1*
X5473893Y5623017D1*
X5470387Y5637633D1*
X5469207Y5652617D1*
X5470387Y5667600D1*
X5473893Y5682217D1*
X5479647Y5696103D1*
X5487500Y5708920D1*
X5497263Y5720350D1*
X5508693Y5730113D1*
X5521510Y5737967D1*
X5535397Y5743720D1*
X5550013Y5747227D1*
X5564997Y5748407D1*
X5579980Y5747227D1*
X5594597Y5743720D1*
X5608483Y5737967D1*
X5621300Y5730113D1*
X5632730Y5720350D1*
X5642493Y5708920D1*
X5650347Y5696103D1*
X5656100Y5682217D1*
X5657447Y5677440D1*
X5673740Y5686083D1*
X5688033Y5690727D1*
X5702880Y5693077D1*
X5717913D1*
X5732760Y5690727D1*
X5747053Y5686083D1*
X5760447Y5679257D1*
X5772607Y5670423D1*
X5783237Y5659793D1*
X5792070Y5647633D1*
X5798897Y5634240D1*
X5803540Y5619947D1*
X5805890Y5605100D1*
Y5590067D1*
X5803540Y5575220D1*
X5798897Y5560927D1*
X5792070Y5547533D1*
X5783237Y5535373D1*
X5772607Y5524743D1*
X5760447Y5515910D1*
X5747053Y5509083D1*
X5732760Y5504440D1*
X5717913Y5502090D1*
X5702880D1*
X5688033Y5504440D1*
X5673740Y5509083D1*
X5660347Y5515910D1*
X5648187Y5524743D1*
X5637557Y5535373D1*
X5628723Y5547533D1*
X5621897Y5560927D1*
X5617947Y5572760D1*
X5066050Y5861403D2*
X5063700Y5846557D1*
X5059057Y5832263D1*
X5052230Y5818870D1*
X5043397Y5806710D1*
X5032767Y5796080D1*
X5020607Y5787247D1*
X5007213Y5780420D1*
X4992920Y5775777D1*
X4978073Y5773427D1*
X4963040D1*
X4948193Y5775777D1*
X4933900Y5780420D1*
X4920507Y5787247D1*
X4908347Y5796080D1*
X4897717Y5806710D1*
X4888883Y5818870D1*
X4882057Y5832263D1*
X4877413Y5846557D1*
X4875063Y5861403D1*
Y5876437D1*
X4877413Y5891283D1*
X4882057Y5905577D1*
X4888883Y5918970D1*
X4897717Y5931130D1*
X4908347Y5941760D1*
X4920507Y5950593D1*
X4933900Y5957420D1*
X4948193Y5962063D1*
X4963040Y5964413D1*
X4978073D1*
X4992920Y5962063D1*
X5007213Y5957420D1*
X5020607Y5950593D1*
X5032767Y5941760D1*
X5043397Y5931130D1*
X5052230Y5918970D1*
X5059057Y5905577D1*
X5063700Y5891283D1*
X5066050Y5876437D1*
Y5861403D1*
X4143333Y4748877D2*
X4140983Y4734030D1*
X4136340Y4719737D1*
X4129513Y4706343D1*
X4120680Y4694183D1*
X4110050Y4683553D1*
X4097890Y4674720D1*
X4084497Y4667893D1*
X4070203Y4663250D1*
X4055357Y4660900D1*
X4040323D1*
X4025477Y4663250D1*
X4011183Y4667893D1*
X3997790Y4674720D1*
X3985630Y4683553D1*
X3975000Y4694183D1*
X3966167Y4706343D1*
X3959340Y4719737D1*
X3954697Y4734030D1*
X3952347Y4748877D1*
Y4763910D1*
X3954697Y4778757D1*
X3959340Y4793050D1*
X3966167Y4806443D1*
X3975000Y4818603D1*
X3985630Y4829233D1*
X3997790Y4838067D1*
X4011183Y4844893D1*
X4025477Y4849537D1*
X4040323Y4851887D1*
X4055357D1*
X4070203Y4849537D1*
X4084497Y4844893D1*
X4097890Y4838067D1*
X4110050Y4829233D1*
X4120680Y4818603D1*
X4129513Y4806443D1*
X4136340Y4793050D1*
X4140983Y4778757D1*
X4143333Y4763910D1*
Y4748877D1*
X3433567Y4922067D2*
X3431217Y4907220D1*
X3426573Y4892927D1*
X3419747Y4879533D1*
X3410913Y4867373D1*
X3400283Y4856743D1*
X3388123Y4847910D1*
X3374730Y4841083D1*
X3360437Y4836440D1*
X3345590Y4834090D1*
X3330557D1*
X3315710Y4836440D1*
X3301417Y4841083D1*
X3288023Y4847910D1*
X3275863Y4856743D1*
X3265233Y4867373D1*
X3256400Y4879533D1*
X3249573Y4892927D1*
X3244930Y4907220D1*
X3242580Y4922067D1*
Y4937100D1*
X3244930Y4951947D1*
X3249573Y4966240D1*
X3256400Y4979633D1*
X3265233Y4991793D1*
X3275863Y5002423D1*
X3288023Y5011257D1*
X3301417Y5018083D1*
X3315710Y5022727D1*
X3330557Y5025077D1*
X3345590D1*
X3360437Y5022727D1*
X3374730Y5018083D1*
X3388123Y5011257D1*
X3400283Y5002423D1*
X3410913Y4991793D1*
X3419747Y4979633D1*
X3426573Y4966240D1*
X3431217Y4951947D1*
X3433567Y4937100D1*
Y4922067D1*
X5033547Y4948360D2*
X5031197Y4933513D1*
X5026553Y4919220D1*
X5019727Y4905827D1*
X5010893Y4893667D1*
X5000263Y4883037D1*
X4988103Y4874203D1*
X4974710Y4867377D1*
X4960417Y4862733D1*
X4945570Y4860383D1*
X4930537D1*
X4915690Y4862733D1*
X4901397Y4867377D1*
X4888003Y4874203D1*
X4875843Y4883037D1*
X4865213Y4893667D1*
X4856380Y4905827D1*
X4849553Y4919220D1*
X4844910Y4933513D1*
X4842560Y4948360D1*
Y4963393D1*
X4844910Y4978240D1*
X4849553Y4992533D1*
X4856380Y5005927D1*
X4865213Y5018087D1*
X4875843Y5028717D1*
X4888003Y5037550D1*
X4901397Y5044377D1*
X4915690Y5049020D1*
X4930537Y5051370D1*
X4945570D1*
X4960417Y5049020D1*
X4974710Y5044377D1*
X4988103Y5037550D1*
X5000263Y5028717D1*
X5010893Y5018087D1*
X5019727Y5005927D1*
X5026553Y4992533D1*
X5031197Y4978240D1*
X5033547Y4963393D1*
Y4948360D1*
X5282727Y6341927D2*
X5280377Y6327080D1*
X5275733Y6312787D1*
X5268907Y6299393D1*
X5260073Y6287233D1*
X5249443Y6276603D1*
X5237283Y6267770D1*
X5223890Y6260943D1*
X5209597Y6256300D1*
X5194750Y6253950D1*
X5179717D1*
X5164870Y6256300D1*
X5150577Y6260943D1*
X5137183Y6267770D1*
X5125023Y6276603D1*
X5114393Y6287233D1*
X5105560Y6299393D1*
X5098733Y6312787D1*
X5094090Y6327080D1*
X5091740Y6341927D1*
Y6356960D1*
X5094090Y6371807D1*
X5098733Y6386100D1*
X5105560Y6399493D1*
X5114393Y6411653D1*
X5125023Y6422283D1*
X5137183Y6431117D1*
X5150577Y6437943D1*
X5164870Y6442587D1*
X5179717Y6444937D1*
X5194750D1*
X5209597Y6442587D1*
X5223890Y6437943D1*
X5237283Y6431117D1*
X5249443Y6422283D1*
X5260073Y6411653D1*
X5268907Y6399493D1*
X5275733Y6386100D1*
X5280377Y6371807D1*
X5282727Y6356960D1*
Y6341927D1*
X5095887Y6122670D2*
X5093537Y6107823D1*
X5088893Y6093530D1*
X5082067Y6080137D1*
X5073233Y6067977D1*
X5062603Y6057347D1*
X5050443Y6048513D1*
X5037050Y6041687D1*
X5022757Y6037043D1*
X5007910Y6034693D1*
X4992877D1*
X4978030Y6037043D1*
X4963737Y6041687D1*
X4950343Y6048513D1*
X4938183Y6057347D1*
X4927553Y6067977D1*
X4918720Y6080137D1*
X4911893Y6093530D1*
X4907250Y6107823D1*
X4904900Y6122670D1*
Y6137703D1*
X4907250Y6152550D1*
X4911893Y6166843D1*
X4918720Y6180237D1*
X4927553Y6192397D1*
X4938183Y6203027D1*
X4950343Y6211860D1*
X4963737Y6218687D1*
X4978030Y6223330D1*
X4992877Y6225680D1*
X5007910D1*
X5022757Y6223330D1*
X5037050Y6218687D1*
X5050443Y6211860D1*
X5062603Y6203027D1*
X5073233Y6192397D1*
X5082067Y6180237D1*
X5088893Y6166843D1*
X5093537Y6152550D1*
X5095887Y6137703D1*
Y6122670D1*
X5033937Y5170857D2*
X5031587Y5156010D1*
X5026943Y5141717D1*
X5020117Y5128323D1*
X5011283Y5116163D1*
X5000653Y5105533D1*
X4988493Y5096700D1*
X4975100Y5089873D1*
X4960807Y5085230D1*
X4945960Y5082880D1*
X4930927D1*
X4916080Y5085230D1*
X4901787Y5089873D1*
X4888393Y5096700D1*
X4876233Y5105533D1*
X4865603Y5116163D1*
X4856770Y5128323D1*
X4849943Y5141717D1*
X4845300Y5156010D1*
X4842950Y5170857D1*
Y5185890D1*
X4845300Y5200737D1*
X4849943Y5215030D1*
X4856770Y5228423D1*
X4865603Y5240583D1*
X4876233Y5251213D1*
X4888393Y5260047D1*
X4901787Y5266873D1*
X4916080Y5271517D1*
X4930927Y5273867D1*
X4945960D1*
X4960807Y5271517D1*
X4975100Y5266873D1*
X4988493Y5260047D1*
X5000653Y5251213D1*
X5011283Y5240583D1*
X5020117Y5228423D1*
X5026943Y5215030D1*
X5031587Y5200737D1*
X5033937Y5185890D1*
Y5170857D1*
X6276457Y4781643D2*
X6264927Y4779953D1*
X6249893D1*
X6235047Y4782303D1*
X6220753Y4786947D1*
X6207360Y4793773D1*
X6195200Y4802607D1*
X6184570Y4813237D1*
X6176470Y4824297D1*
X6227390Y4278607D2*
X6225040Y4263760D1*
X6220397Y4249467D1*
X6213570Y4236073D1*
X6204737Y4223913D1*
X6194107Y4213283D1*
X6181947Y4204450D1*
X6168553Y4197623D1*
X6154260Y4192980D1*
X6139413Y4190630D1*
X6124380D1*
X6109533Y4192980D1*
X6095240Y4197623D1*
X6081847Y4204450D1*
X6069687Y4213283D1*
X6059057Y4223913D1*
X6050223Y4236073D1*
X6043397Y4249467D1*
X6038753Y4263760D1*
X6036403Y4278607D1*
Y4293640D1*
X6038753Y4308487D1*
X6043397Y4322780D1*
X6050223Y4336173D1*
X6059057Y4348333D1*
X6069687Y4358963D1*
X6081847Y4367797D1*
X6095240Y4374623D1*
X6109533Y4379267D1*
X6124380Y4381617D1*
X6139413D1*
X6154260Y4379267D1*
X6168553Y4374623D1*
X6181947Y4367797D1*
X6194107Y4358963D1*
X6204737Y4348333D1*
X6213570Y4336173D1*
X6220397Y4322780D1*
X6225040Y4308487D1*
X6227390Y4293640D1*
Y4278607D1*
X6194283Y4559503D2*
X6191933Y4544657D1*
X6187290Y4530363D1*
X6180463Y4516970D1*
X6171630Y4504810D1*
X6161000Y4494180D1*
X6148840Y4485347D1*
X6135447Y4478520D1*
X6121153Y4473877D1*
X6106307Y4471527D1*
X6091273D1*
X6076427Y4473877D1*
X6062133Y4478520D1*
X6048740Y4485347D1*
X6036580Y4494180D1*
X6025950Y4504810D1*
X6017117Y4516970D1*
X6010290Y4530363D1*
X6005647Y4544657D1*
X6003297Y4559503D1*
Y4574537D1*
X6005647Y4589383D1*
X6010290Y4603677D1*
X6017117Y4617070D1*
X6025950Y4629230D1*
X6036580Y4639860D1*
X6048740Y4648693D1*
X6062133Y4655520D1*
X6076427Y4660163D1*
X6091273Y4662513D1*
X6106307D1*
X6121153Y4660163D1*
X6135447Y4655520D1*
X6148840Y4648693D1*
X6161000Y4639860D1*
X6171630Y4629230D1*
X6180463Y4617070D1*
X6187290Y4603677D1*
X6191933Y4589383D1*
X6194283Y4574537D1*
Y4559503D1*
X6758983Y8217963D2*
X7802847D1*
X6756797Y8154797D2*
X7840853D1*
X7966940D2*
X8011480D1*
X6754610Y8091630D2*
X7118160D1*
X7305403D2*
X8011390D1*
X6752423Y8028463D2*
X7112600D1*
X7310963D2*
X8011297D1*
X6750233Y7965297D2*
X7165100D1*
X7258463D2*
X8011207D1*
X6748047Y7902130D2*
X8011023D1*
X6417007Y7838963D2*
X7925530D1*
X5535077Y7775797D2*
X7886610D1*
X5534440Y7712630D2*
X7891713D1*
X5533710Y7649463D2*
X7955427D1*
X5532983Y7586297D2*
X8010567D1*
X5532343Y7523130D2*
X7385127D1*
X7481043D2*
X8010477D1*
X5531613Y7459963D2*
X7275933D1*
X7532447D2*
X8010387D1*
X5530977Y7396797D2*
X7210400D1*
X7526433D2*
X8010293D1*
X5530247Y7333630D2*
X7212223D1*
X7403933D2*
X7580817D1*
X7736613D2*
X8010203D1*
X5529610Y7270463D2*
X7468343D1*
X7760860D2*
X8010020D1*
X5528880Y7207297D2*
X5620087D1*
X5786913D2*
X7435710D1*
X7737527D2*
X8009930D1*
X5528150Y7144130D2*
X5601583D1*
X5805417D2*
X7451843D1*
X7622863D2*
X8009840D1*
X5527513Y7080963D2*
X5631117D1*
X5775887D2*
X8006010D1*
X5526783Y7017797D2*
X7380567D1*
X7523517D2*
X7841220D1*
X7972863D2*
X7993707D1*
X5526147Y6954630D2*
X7350127D1*
X7553867D2*
X7805673D1*
X5525417Y6891463D2*
X6770983D1*
X6939090D2*
X7367990D1*
X7536003D2*
X7819800D1*
X4151577Y6828297D2*
X4826117D1*
X5040067D2*
X6753210D1*
X6956953D2*
X8009383D1*
X4151577Y6765130D2*
X4907600D1*
X4958490D2*
X6783653D1*
X6926510D2*
X8009293D1*
X4151577Y6701963D2*
X4306950D1*
X4151577Y6638797D2*
X4247340D1*
X4151577Y6575630D2*
X4208877D1*
X4151577Y6512463D2*
X4214163D1*
X4151577Y6449297D2*
X4278147D1*
X4151577Y6386130D2*
X4285803D1*
X4151577Y6322963D2*
X4284710D1*
X4151577Y6259797D2*
X4283617D1*
X4151577Y6196630D2*
X4282520D1*
X4151577Y6133463D2*
X4281337D1*
X4151577Y6070297D2*
X4280243D1*
X4151577Y6007130D2*
X4279150D1*
X4151577Y5943963D2*
X4277963D1*
X4151577Y5880797D2*
X4276870D1*
X5042607Y6860260D2*
X5040487Y6848150D1*
X5035130Y6831663D1*
X5027260Y6816220D1*
X5017073Y6802197D1*
X5004813Y6789937D1*
X4990790Y6779750D1*
X4975347Y6771880D1*
X4958860Y6766523D1*
X4941737Y6763810D1*
X4924403D1*
X4907280Y6766523D1*
X4890793Y6771880D1*
X4875350Y6779750D1*
X4861327Y6789937D1*
X4849067Y6802197D1*
X4838880Y6816220D1*
X4831010Y6831663D1*
X4825653Y6848150D1*
X4823503Y6860527D1*
X4145160Y6861490D1*
X4145180Y5824963D1*
X4282323Y5825033D1*
X4293260Y6446440D1*
X4281270Y6450570D1*
X4265780Y6458463D1*
X4251713Y6468680D1*
X4239420Y6480973D1*
X4229203Y6495040D1*
X4221310Y6510530D1*
X4215937Y6527063D1*
X4213217Y6544233D1*
Y6561620D1*
X4215937Y6578790D1*
X4221310Y6595323D1*
X4229203Y6610813D1*
X4239420Y6624880D1*
X4251713Y6637173D1*
X4265780Y6647390D1*
X4281270Y6655283D1*
X4297050Y6660443D1*
X4298163Y6681730D1*
X4300723Y6688740D1*
X4304847Y6694960D1*
X4310313Y6700043D1*
X4316810Y6703713D1*
X4323987Y6705763D1*
X4352287Y6706247D1*
X8015510Y6718530D1*
X8015797Y6971200D1*
X8007903Y6986690D1*
X8002530Y7003223D1*
X7999810Y7020393D1*
Y7037780D1*
X8002530Y7054950D1*
X8007903Y7071483D1*
X8016117Y7087453D1*
X8017003Y7643510D1*
X8000963Y7642283D1*
X7983683Y7643643D1*
X7966827Y7647690D1*
X7950810Y7654323D1*
X7936030Y7663380D1*
X7922850Y7674640D1*
X7911590Y7687820D1*
X7902533Y7702600D1*
X7895900Y7718617D1*
X7891853Y7735473D1*
X7890493Y7752753D1*
X7891853Y7770033D1*
X7895900Y7786890D1*
X7902533Y7802907D1*
X7911590Y7817687D1*
X7922850Y7830867D1*
X7936030Y7842127D1*
X7950810Y7851183D1*
X7966827Y7857817D1*
X7983683Y7861863D1*
X8000963Y7863223D1*
X8017337Y7861970D1*
X8018020Y8281167D1*
X7986157Y8281037D1*
X7992420Y8268677D1*
X7997063Y8254383D1*
X7999413Y8239537D1*
Y8224503D1*
X7997063Y8209657D1*
X7992420Y8195363D1*
X7985593Y8181970D1*
X7976760Y8169810D1*
X7966130Y8159180D1*
X7953970Y8150347D1*
X7940577Y8143520D1*
X7926283Y8138877D1*
X7911437Y8136527D1*
X7896403D1*
X7881557Y8138877D1*
X7867263Y8143520D1*
X7853870Y8150347D1*
X7841710Y8159180D1*
X7831080Y8169810D1*
X7822247Y8181970D1*
X7815420Y8195363D1*
X7810777Y8209657D1*
X7808427Y8224503D1*
Y8239537D1*
X7810777Y8254383D1*
X7815420Y8268677D1*
X7821543Y8280813D1*
X6754777Y8279213D1*
X6740283Y7867120D1*
X6738287Y7859930D1*
X6734667Y7853400D1*
X6729623Y7847900D1*
X6723437Y7843727D1*
X6716443Y7841113D1*
X6709037Y7840207D1*
X5529347Y7835290D1*
X5518627Y6886090D1*
X5516523Y6878930D1*
X5512803Y6872457D1*
X5507680Y6867033D1*
X5501427Y6862953D1*
X5494397Y6860447D1*
X5489460Y6859723D1*
X5042763Y6860260D1*
X7754210Y7262457D2*
X7751860Y7247610D1*
X7747217Y7233317D1*
X7740390Y7219923D1*
X7731557Y7207763D1*
X7720927Y7197133D1*
X7708767Y7188300D1*
X7695373Y7181473D1*
X7681080Y7176830D1*
X7666233Y7174480D1*
X7651200D1*
X7636353Y7176830D1*
X7631123Y7178307D1*
X7625867Y7161370D1*
X7619040Y7147977D1*
X7610207Y7135817D1*
X7599577Y7125187D1*
X7587417Y7116353D1*
X7574023Y7109527D1*
X7559730Y7104883D1*
X7544883Y7102533D1*
X7529850D1*
X7515003Y7104883D1*
X7500710Y7109527D1*
X7487317Y7116353D1*
X7475157Y7125187D1*
X7464527Y7135817D1*
X7455693Y7147977D1*
X7448867Y7161370D1*
X7444223Y7175663D1*
X7441873Y7190510D1*
Y7205543D1*
X7444223Y7220390D1*
X7448867Y7234683D1*
X7455693Y7248077D1*
X7464527Y7260237D1*
X7475157Y7270867D1*
X7487317Y7279700D1*
X7500710Y7286527D1*
X7515003Y7291170D1*
X7529850Y7293520D1*
X7544883D1*
X7559730Y7291170D1*
X7564960Y7289693D1*
X7570217Y7306630D1*
X7577043Y7320023D1*
X7585877Y7332183D1*
X7596507Y7342813D1*
X7608667Y7351647D1*
X7622060Y7358473D1*
X7636353Y7363117D1*
X7651200Y7365467D1*
X7666233D1*
X7681080Y7363117D1*
X7695373Y7358473D1*
X7708767Y7351647D1*
X7720927Y7342813D1*
X7731557Y7332183D1*
X7740390Y7320023D1*
X7747217Y7306630D1*
X7751860Y7292337D1*
X7754210Y7277490D1*
Y7262457D1*
X6950560Y6827930D2*
X6948210Y6813083D1*
X6943567Y6798790D1*
X6936740Y6785397D1*
X6927907Y6773237D1*
X6917277Y6762607D1*
X6905117Y6753773D1*
X6891723Y6746947D1*
X6877430Y6742303D1*
X6862583Y6739953D1*
X6847550D1*
X6832703Y6742303D1*
X6818410Y6746947D1*
X6805017Y6753773D1*
X6792857Y6762607D1*
X6782227Y6773237D1*
X6773393Y6785397D1*
X6766567Y6798790D1*
X6761923Y6813083D1*
X6759573Y6827930D1*
Y6842963D1*
X6761923Y6857810D1*
X6766567Y6872103D1*
X6773393Y6885497D1*
X6782227Y6897657D1*
X6792857Y6908287D1*
X6805017Y6917120D1*
X6818410Y6923947D1*
X6832703Y6928590D1*
X6847550Y6930940D1*
X6862583D1*
X6877430Y6928590D1*
X6891723Y6923947D1*
X6905117Y6917120D1*
X6917277Y6908287D1*
X6927907Y6897657D1*
X6936740Y6885497D1*
X6943567Y6872103D1*
X6948210Y6857810D1*
X6950560Y6842963D1*
Y6827930D1*
X5799000Y7142837D2*
X5796650Y7127990D1*
X5792007Y7113697D1*
X5785180Y7100303D1*
X5776347Y7088143D1*
X5765717Y7077513D1*
X5753557Y7068680D1*
X5740163Y7061853D1*
X5725870Y7057210D1*
X5711023Y7054860D1*
X5695990D1*
X5681143Y7057210D1*
X5666850Y7061853D1*
X5653457Y7068680D1*
X5641297Y7077513D1*
X5630667Y7088143D1*
X5621833Y7100303D1*
X5615007Y7113697D1*
X5610363Y7127990D1*
X5608013Y7142837D1*
Y7157870D1*
X5610363Y7172717D1*
X5615007Y7187010D1*
X5621833Y7200403D1*
X5630667Y7212563D1*
X5641297Y7223193D1*
X5653457Y7232027D1*
X5666850Y7238853D1*
X5681143Y7243497D1*
X5695990Y7245847D1*
X5711023D1*
X5725870Y7243497D1*
X5740163Y7238853D1*
X5753557Y7232027D1*
X5765717Y7223193D1*
X5776347Y7212563D1*
X5785180Y7200403D1*
X5792007Y7187010D1*
X5796650Y7172717D1*
X5799000Y7157870D1*
Y7142837D1*
X8002547Y6935180D2*
X8000197Y6920333D1*
X7995553Y6906040D1*
X7988727Y6892647D1*
X7979893Y6880487D1*
X7969263Y6869857D1*
X7957103Y6861023D1*
X7943710Y6854197D1*
X7929417Y6849553D1*
X7914570Y6847203D1*
X7899537D1*
X7884690Y6849553D1*
X7870397Y6854197D1*
X7857003Y6861023D1*
X7844843Y6869857D1*
X7834213Y6880487D1*
X7825380Y6892647D1*
X7818553Y6906040D1*
X7813910Y6920333D1*
X7811560Y6935180D1*
Y6950213D1*
X7813910Y6965060D1*
X7818553Y6979353D1*
X7825380Y6992747D1*
X7834213Y7004907D1*
X7844843Y7015537D1*
X7857003Y7024370D1*
X7870397Y7031197D1*
X7884690Y7035840D1*
X7899537Y7038190D1*
X7914570D1*
X7929417Y7035840D1*
X7943710Y7031197D1*
X7957103Y7024370D1*
X7969263Y7015537D1*
X7979893Y7004907D1*
X7988727Y6992747D1*
X7995553Y6979353D1*
X8000197Y6965060D1*
X8002547Y6950213D1*
Y6935180D1*
X7307297Y8044660D2*
X7304947Y8029813D1*
X7300303Y8015520D1*
X7293477Y8002127D1*
X7284643Y7989967D1*
X7274013Y7979337D1*
X7261853Y7970503D1*
X7248460Y7963677D1*
X7234167Y7959033D1*
X7219320Y7956683D1*
X7204287D1*
X7189440Y7959033D1*
X7175147Y7963677D1*
X7161753Y7970503D1*
X7149593Y7979337D1*
X7138963Y7989967D1*
X7130130Y8002127D1*
X7123303Y8015520D1*
X7118660Y8029813D1*
X7116310Y8044660D1*
Y8059693D1*
X7118660Y8074540D1*
X7123303Y8088833D1*
X7130130Y8102227D1*
X7138963Y8114387D1*
X7149593Y8125017D1*
X7161753Y8133850D1*
X7175147Y8140677D1*
X7189440Y8145320D1*
X7204287Y8147670D1*
X7219320D1*
X7234167Y8145320D1*
X7248460Y8140677D1*
X7261853Y8133850D1*
X7274013Y8125017D1*
X7284643Y8114387D1*
X7293477Y8102227D1*
X7300303Y8088833D1*
X7304947Y8074540D1*
X7307297Y8059693D1*
Y8044660D1*
X7547507Y6940020D2*
X7545157Y6925173D1*
X7540513Y6910880D1*
X7533687Y6897487D1*
X7524853Y6885327D1*
X7514223Y6874697D1*
X7502063Y6865863D1*
X7488670Y6859037D1*
X7474377Y6854393D1*
X7459530Y6852043D1*
X7444497D1*
X7429650Y6854393D1*
X7415357Y6859037D1*
X7401963Y6865863D1*
X7389803Y6874697D1*
X7379173Y6885327D1*
X7370340Y6897487D1*
X7363513Y6910880D1*
X7358870Y6925173D1*
X7356520Y6940020D1*
Y6955053D1*
X7358870Y6969900D1*
X7363513Y6984193D1*
X7370340Y6997587D1*
X7379173Y7009747D1*
X7389803Y7020377D1*
X7401963Y7029210D1*
X7415357Y7036037D1*
X7429650Y7040680D1*
X7444497Y7043030D1*
X7459530D1*
X7474377Y7040680D1*
X7488670Y7036037D1*
X7502063Y7029210D1*
X7514223Y7020377D1*
X7524853Y7009747D1*
X7533687Y6997587D1*
X7540513Y6984193D1*
X7545157Y6969900D1*
X7547507Y6955053D1*
Y6940020D1*
X7401430Y7346480D2*
X7396563Y7331060D1*
X7389737Y7317667D1*
X7380903Y7305507D1*
X7370273Y7294877D1*
X7358113Y7286043D1*
X7344720Y7279217D1*
X7330427Y7274573D1*
X7315580Y7272223D1*
X7300547D1*
X7285700Y7274573D1*
X7271407Y7279217D1*
X7258013Y7286043D1*
X7245853Y7294877D1*
X7235223Y7305507D1*
X7226390Y7317667D1*
X7219563Y7331060D1*
X7214920Y7345353D1*
X7212570Y7360200D1*
Y7375233D1*
X7214920Y7390080D1*
X7219563Y7404373D1*
X7226390Y7417767D1*
X7235223Y7429927D1*
X7245853Y7440557D1*
X7258013Y7449390D1*
X7271407Y7456217D1*
X7285700Y7460860D1*
X7300547Y7463210D1*
X7315580D1*
X7330427Y7460860D1*
X7339677Y7458077D1*
X7344613Y7473510D1*
X7351440Y7486903D1*
X7360273Y7499063D1*
X7370903Y7509693D1*
X7383063Y7518527D1*
X7396457Y7525353D1*
X7410750Y7529997D1*
X7425597Y7532347D1*
X7440630D1*
X7455477Y7529997D1*
X7469770Y7525353D1*
X7483163Y7518527D1*
X7495323Y7509693D1*
X7505953Y7499063D1*
X7514787Y7486903D1*
X7521613Y7473510D1*
X7526257Y7459217D1*
X7528607Y7444370D1*
Y7429337D1*
X7526257Y7414490D1*
X7521613Y7400197D1*
X7514787Y7386803D1*
X7505953Y7374643D1*
X7495323Y7364013D1*
X7483163Y7355180D1*
X7469770Y7348353D1*
X7455477Y7343710D1*
X7440630Y7341360D1*
X7425597D1*
X7410750Y7343710D1*
X7401500Y7346493D1*
X6622300Y6406313D2*
X10461877D1*
X6622300Y6343147D2*
X10461877D1*
X6622300Y6279980D2*
X10461877D1*
X6622300Y6216813D2*
X10461877D1*
X6622300Y6153647D2*
X10461877D1*
X6622300Y6090480D2*
X7851460D1*
X7958497D2*
X10461877D1*
X6622300Y6027313D2*
X7760223D1*
X8049827D2*
X10461877D1*
X6622300Y5964147D2*
X7730967D1*
X8079083D2*
X10461877D1*
X6622300Y5900980D2*
X7529353D1*
X8082000D2*
X10461877D1*
X6622300Y5837813D2*
X7495173D1*
X8060123D2*
X10461877D1*
X6622300Y5774647D2*
X7491617D1*
X8029590D2*
X10461877D1*
X6622300Y5711480D2*
X7516137D1*
X8061767D2*
X10461877D1*
X6622300Y5648313D2*
X7530537D1*
X8063863D2*
X8265627D1*
X8345957D2*
X10461877D1*
X6622300Y5585147D2*
X7495537D1*
X8037613D2*
X8207387D1*
X8404200D2*
X10461877D1*
X6622300Y5521980D2*
X7491437D1*
X8028497D2*
X8210940D1*
X8400553D2*
X10461877D1*
X6622300Y5458813D2*
X7515317D1*
X8061400D2*
X10461877D1*
X6622300Y5395647D2*
X6932163D1*
X7108107D2*
X7479130D1*
X8064137D2*
X10461877D1*
X6622300Y5332480D2*
X6918857D1*
X7121413D2*
X7455523D1*
X8038523D2*
X10461877D1*
X6622300Y5269313D2*
X6803467D1*
X7084590D2*
X7454520D1*
X7847573D2*
X7866683D1*
X7943277D2*
X9754950D1*
X9879670D2*
X10461877D1*
X6622300Y5206147D2*
X6720613D1*
X6988433D2*
X7475577D1*
X7826427D2*
X9716303D1*
X9918313D2*
X10461877D1*
X6622300Y5142980D2*
X6689533D1*
X6959447D2*
X7530627D1*
X7771467D2*
X9728427D1*
X9906193D2*
X10461877D1*
X6622300Y5079813D2*
X6706760D1*
X6875867D2*
X9757777D1*
X9903003D2*
X10461877D1*
X6622300Y5016647D2*
X9728427D1*
X9932350D2*
X10461877D1*
X6622300Y4953480D2*
X6967803D1*
X7106283D2*
X9747203D1*
X9913667D2*
X10461877D1*
X6622300Y4890313D2*
X6935353D1*
X7138730D2*
X10461877D1*
X6622300Y4827147D2*
X6951670D1*
X7122507D2*
X7764507D1*
X7969707D2*
X10461877D1*
X6622300Y4763980D2*
X7751840D1*
X8029957D2*
X10461877D1*
X6622300Y4700813D2*
X7789757D1*
X8026947D2*
X10461877D1*
X6622300Y4637647D2*
X6902543D1*
X7075840D2*
X10461877D1*
X6622300Y4574480D2*
X6887687D1*
X7090697D2*
X8225613D1*
X8332470D2*
X10461877D1*
X1138147Y4511313D2*
X1258337D1*
X1411947D2*
X2308610D1*
X2510530D2*
X2861863D1*
X6622300D2*
X6922137D1*
X7056243D2*
X8179040D1*
X8379043D2*
X9591890D1*
X9653993D2*
X10461877D1*
X1138147Y4448147D2*
X1220510D1*
X1449773D2*
X2861863D1*
X6622300D2*
X6670393D1*
X6856363D2*
X7701800D1*
X7872363D2*
X8187060D1*
X8371023D2*
X9515330D1*
X9730647D2*
X10461877D1*
X1138147Y4384980D2*
X1226343D1*
X1444030D2*
X2861863D1*
X6622300D2*
X6663923D1*
X6862923D2*
X6901903D1*
X7017507D2*
X7685393D1*
X7888863D2*
X8173480D1*
X8371023D2*
X9507400D1*
X9738577D2*
X10072230D1*
X10193393D2*
X10461877D1*
X1138147Y4321813D2*
X1277840D1*
X1406753D2*
X2861863D1*
X6622300D2*
X6713780D1*
X6812977D2*
X6859247D1*
X7060253D2*
X7717567D1*
X7856597D2*
X8177947D1*
X8366557D2*
X9541580D1*
X9704397D2*
X10020823D1*
X10244800D2*
X10461877D1*
X1138147Y4258647D2*
X1229807D1*
X1454697D2*
X2861863D1*
X6622300D2*
X6869090D1*
X7050320D2*
X7406030D1*
X7580790D2*
X8174483D1*
X8372300D2*
X9495550D1*
X9694827D2*
X10019730D1*
X10245893D2*
X10461877D1*
X1138147Y4195480D2*
X1230353D1*
X1454240D2*
X2861863D1*
X6622300D2*
X7111997D1*
X7203537D2*
X7391997D1*
X7594733D2*
X8179313D1*
X8367470D2*
X9112463D1*
X9259697D2*
X9502477D1*
X9687897D2*
X10066030D1*
X10199590D2*
X10461877D1*
X1138147Y4132313D2*
X1280483D1*
X1404017D2*
X2660980D1*
X2775853D2*
X2861863D1*
X6622300D2*
X6893973D1*
X6982327D2*
X7058767D1*
X7256857D2*
X7427817D1*
X7559003D2*
X9071720D1*
X9300347D2*
X9525263D1*
X9679697D2*
X10461877D1*
X1138147Y4069147D2*
X2617960D1*
X2818873D2*
X2861863D1*
X6622300D2*
X6839287D1*
X7037013D2*
X7063960D1*
X7251570D2*
X7598257D1*
X7779850D2*
X9075733D1*
X9296337D2*
X9500290D1*
X9704577D2*
X10461877D1*
X1138147Y4005980D2*
X2627620D1*
X2809123D2*
X2861863D1*
X6622300D2*
X6844027D1*
X7032273D2*
X7588597D1*
X7789513D2*
X9135250D1*
X9236910D2*
X9522983D1*
X9681883D2*
X10461877D1*
X1138147Y3942813D2*
X7631710D1*
X7746400D2*
X10461877D1*
X1138147Y3879647D2*
X4078297D1*
X4232090D2*
X4535120D1*
X4696570D2*
X8607243D1*
X8790933D2*
X10461877D1*
X1138147Y3816480D2*
X4053050D1*
X4257337D2*
X4513700D1*
X4717897D2*
X5567530D1*
X5678940D2*
X8599040D1*
X8799137D2*
X10461877D1*
X1138147Y3753313D2*
X2964040D1*
X3132780D2*
X3841137D1*
X4008693D2*
X4075380D1*
X4235007D2*
X4539950D1*
X4691647D2*
X5522960D1*
X5723510D2*
X7462633D1*
X7569670D2*
X8645067D1*
X8753017D2*
X10461877D1*
X1138147Y3690147D2*
X2884103D1*
X3150190D2*
X3822997D1*
X4026830D2*
X4536123D1*
X4708783D2*
X5531890D1*
X5714577D2*
X6010223D1*
X6189720D2*
X7180263D1*
X7372703D2*
X7405393D1*
X7626910D2*
X10132750D1*
X10194123D2*
X10461877D1*
X1138147Y3626980D2*
X2872530D1*
X3119290D2*
X3849613D1*
X4021270D2*
X4520900D1*
X4724003D2*
X5999197D1*
X6200750D2*
X7179170D1*
X7373797D2*
X7402113D1*
X7630190D2*
X8813960D1*
X8998380D2*
X10065940D1*
X10260933D2*
X10461877D1*
X1138147Y3563813D2*
X2912087D1*
X3034707D2*
X3833753D1*
X4037040D2*
X4554807D1*
X4690100D2*
X6039847D1*
X6160190D2*
X7247893D1*
X7414903D2*
X7444100D1*
X7588170D2*
X8516187D1*
X8674540D2*
X8806303D1*
X9006037D2*
X10067400D1*
X10259473D2*
X10461877D1*
X1138147Y3500647D2*
X3866840D1*
X4003953D2*
X4532840D1*
X4692287D2*
X6157970D1*
X6324617D2*
X7247257D1*
X7450087D2*
X8493220D1*
X8697507D2*
X8816423D1*
X9006583D2*
X10461877D1*
X1138147Y3437480D2*
X1895537D1*
X2054253D2*
X4510420D1*
X4714617D2*
X6139377D1*
X6343303D2*
X7261567D1*
X7435683D2*
X8517830D1*
X8672897D2*
X8813233D1*
X9009683D2*
X10461877D1*
X1138147Y3374313D2*
X1872750D1*
X2077040D2*
X2265863D1*
X2357040D2*
X4535577D1*
X4689460D2*
X6168910D1*
X6313770D2*
X8546630D1*
X8731323D2*
X8873113D1*
X8949890D2*
X10204300D1*
X10350893D2*
X10461877D1*
X1138147Y3311147D2*
X1897543D1*
X2052247D2*
X2212450D1*
X2410540D2*
X4320653D1*
X4476087D2*
X8539157D1*
X8738797D2*
X10175680D1*
X10379603D2*
X10461877D1*
X1138147Y3247980D2*
X2217647D1*
X2405347D2*
X4296227D1*
X4500517D2*
X8586827D1*
X8691127D2*
X10194913D1*
X10360373D2*
X10461877D1*
X1138147Y3184813D2*
X1322137D1*
X1496530D2*
X2256020D1*
X2345463D2*
X3361163D1*
X3536557D2*
X4319377D1*
X4477363D2*
X6593923D1*
X6782897D2*
X6868453D1*
X7006753D2*
X10461877D1*
X1138147Y3121647D2*
X1307920D1*
X1510750D2*
X2201787D1*
X2399697D2*
X3347580D1*
X3550230D2*
X4069730D1*
X4257063D2*
X5795667D1*
X5841087D2*
X6589730D1*
X6787000D2*
X6835913D1*
X7039290D2*
X7347880D1*
X7523003D2*
X9184470D1*
X9222943D2*
X10461877D1*
X1138147Y3058480D2*
X1343283D1*
X1475387D2*
X2206710D1*
X2394773D2*
X3383857D1*
X3513863D2*
X4064260D1*
X4262533D2*
X5721473D1*
X5915280D2*
X6646150D1*
X6730670D2*
X6852137D1*
X7023067D2*
X7334117D1*
X7536767D2*
X9106997D1*
X9300437D2*
X9896410D1*
X10060230D2*
X10461877D1*
X1138147Y2995313D2*
X4116853D1*
X4209943D2*
X5721747D1*
X5915007D2*
X7370120D1*
X7500763D2*
X9106903D1*
X9300620D2*
X9876267D1*
X10080373D2*
X10461877D1*
X1138147Y2932147D2*
X4538220D1*
X4728563D2*
X5706890D1*
X5893587D2*
X6637400D1*
X6827743D2*
X9182190D1*
X9225187D2*
X9903883D1*
X10052663D2*
X10461877D1*
X1138147Y2868980D2*
X4535210D1*
X4731570D2*
X5700877D1*
X5899603D2*
X6634390D1*
X6830750D2*
X9108910D1*
X9276010D2*
X9917647D1*
X9968447D2*
X10461877D1*
X1138147Y2805813D2*
X3067307D1*
X3253823D2*
X4595550D1*
X4671230D2*
X5752190D1*
X5848290D2*
X6532217D1*
X6770410D2*
X6837100D1*
X6984877D2*
X7767517D1*
X7922677D2*
X9090497D1*
X9294330D2*
X9845913D1*
X10040087D2*
X10461877D1*
X1138147Y2742647D2*
X3061200D1*
X3259930D2*
X6504053D1*
X6708067D2*
X6808937D1*
X7013040D2*
X7742997D1*
X7947197D2*
X9120303D1*
X9264617D2*
X9846553D1*
X10039540D2*
X10461877D1*
X1138147Y2679480D2*
X2707007D1*
X2893980D2*
X3112060D1*
X3209070D2*
X6523740D1*
X6688380D2*
X6828713D1*
X6993263D2*
X7765967D1*
X7924227D2*
X10461877D1*
X1138147Y2616313D2*
X2701267D1*
X2899720D2*
X6931437D1*
X7017327D2*
X7322633D1*
X7411440D2*
X7727413D1*
X7905907D2*
X8654183D1*
X8829577D2*
X10461877D1*
X1138147Y2553147D2*
X2706280D1*
X2891610D2*
X6875653D1*
X7073107D2*
X7268127D1*
X7465947D2*
X7715747D1*
X7917573D2*
X8640603D1*
X8843160D2*
X9170613D1*
X9298980D2*
X10461877D1*
X1138147Y2489980D2*
X2699260D1*
X2898627D2*
X6880030D1*
X7068730D2*
X7272960D1*
X7461113D2*
X7755303D1*
X7995137D2*
X8643063D1*
X8820920D2*
X9133520D1*
X9335983D2*
X10461877D1*
X1138147Y2426813D2*
X2747933D1*
X2849863D2*
X7805250D1*
X8007260D2*
X8630940D1*
X8833040D2*
X9146733D1*
X9322860D2*
X10461877D1*
X1138147Y2363647D2*
X7808530D1*
X7985477D2*
X8669677D1*
X8794303D2*
X10461877D1*
X1138147Y2300480D2*
X6039663D1*
X6208497D2*
X7795863D1*
X7998147D2*
X10461877D1*
X1138147Y2237313D2*
X6022257D1*
X6225907D2*
X7833780D1*
X7960230D2*
X10461877D1*
X1138147Y2174147D2*
X1362517D1*
X1653483D2*
X5706890D1*
X5834343D2*
X6051423D1*
X6200477D2*
X9430380D1*
X9540060D2*
X10461877D1*
X1138147Y2110980D2*
X1274923D1*
X1741077D2*
X2015667D1*
X2137377D2*
X2305877D1*
X2445087D2*
X5669430D1*
X5871803D2*
X6023897D1*
X6228003D2*
X9385080D1*
X9585360D2*
X10461877D1*
X1138147Y2047813D2*
X1226983D1*
X1789017D2*
X1975653D1*
X2177390D2*
X2273793D1*
X2477260D2*
X5682373D1*
X5858863D2*
X6044130D1*
X6207677D2*
X8260887D1*
X8403107D2*
X9393650D1*
X9576790D2*
X10461877D1*
X1138147Y1984647D2*
X1199090D1*
X1816910D2*
X1986957D1*
X2165997D2*
X2290290D1*
X2460670D2*
X8230173D1*
X8433913D2*
X10461877D1*
X1138147Y1921480D2*
X1186057D1*
X1829943D2*
X8247763D1*
X8416323D2*
X10461877D1*
X1138147Y1858313D2*
X1185877D1*
X1830123D2*
X4762893D1*
X4939930D2*
X5451683D1*
X5643210D2*
X7485237D1*
X7672117D2*
X7864040D1*
X8054383D2*
X8887243D1*
X9059993D2*
X10461877D1*
X1138147Y1795147D2*
X1198543D1*
X1817457D2*
X4750223D1*
X4952507D2*
X5449677D1*
X5645123D2*
X7479403D1*
X7677950D2*
X7861030D1*
X8057390D2*
X8872020D1*
X9075123D2*
X9938700D1*
X10221373D2*
X10461877D1*
X1138147Y1731980D2*
X1225980D1*
X1790020D2*
X3531787D1*
X3595073D2*
X4788233D1*
X4914590D2*
X5514210D1*
X5580683D2*
X7530900D1*
X7626453D2*
X7921187D1*
X7997233D2*
X8906020D1*
X9041127D2*
X9848923D1*
X10311063D2*
X10461877D1*
X1138147Y1668813D2*
X1273193D1*
X1742807D2*
X3465797D1*
X3660970D2*
X4759520D1*
X4958980D2*
X5177880D1*
X5277897D2*
X6434963D1*
X6540907D2*
X9800160D1*
X10359827D2*
X10461877D1*
X1138147Y1605647D2*
X1358870D1*
X1657130D2*
X3467530D1*
X3659330D2*
X4766720D1*
X4951780D2*
X5128297D1*
X5327480D2*
X6388023D1*
X6587847D2*
X9771720D1*
X10388263D2*
X10461877D1*
X1138147Y1542480D2*
X5114353D1*
X5320827D2*
X6395863D1*
X6580007D2*
X9758233D1*
X10401753D2*
X10461877D1*
X1138147Y1479313D2*
X2488077D1*
X2564760D2*
X3060017D1*
X3216637D2*
X5090380D1*
X5294670D2*
X6656720D1*
X6812063D2*
X7048193D1*
X7187130D2*
X9757687D1*
X10402300D2*
X10461877D1*
X1138147Y1416147D2*
X2428193D1*
X2624643D2*
X3036227D1*
X3240423D2*
X5113987D1*
X5271063D2*
X6399963D1*
X6572170D2*
X6632293D1*
X6836493D2*
X7015927D1*
X7219397D2*
X9769990D1*
X10390087D2*
X10461877D1*
X1138147Y1352980D2*
X2431293D1*
X2621543D2*
X3059923D1*
X3216727D2*
X5221447D1*
X5296767D2*
X6384470D1*
X6587663D2*
X6655353D1*
X6813433D2*
X7032423D1*
X7202897D2*
X7498453D1*
X7670020D2*
X9796787D1*
X10363197D2*
X10461877D1*
X1138147Y1289813D2*
X2682033D1*
X2869280D2*
X5160927D1*
X5357287D2*
X6418010D1*
X6554123D2*
X7482593D1*
X7685880D2*
X9843270D1*
X10316713D2*
X10461877D1*
X1138147Y1226647D2*
X2676473D1*
X2874837D2*
X3117530D1*
X3308053D2*
X5163937D1*
X5354280D2*
X7515680D1*
X7652887D2*
X9926943D1*
X10233040D2*
X10461877D1*
X1138147Y1163480D2*
X2728883D1*
X2822430D2*
X3114703D1*
X3310880D2*
X10461877D1*
X8059333Y5662630D2*
X8055533Y5638637D1*
X8048027Y5615537D1*
X8037000Y5593897D1*
X8022723Y5574247D1*
X8005547Y5557070D1*
X7993437Y5547830D1*
X8005547Y5538477D1*
X8022723Y5521300D1*
X8037000Y5501650D1*
X8048027Y5480010D1*
X8055533Y5456910D1*
X8059333Y5432917D1*
Y5408630D1*
X8055533Y5384637D1*
X8048027Y5361537D1*
X8037000Y5339897D1*
X8022723Y5320247D1*
X8005547Y5303070D1*
X7985897Y5288793D1*
X7964257Y5277767D1*
X7941157Y5270260D1*
X7917163Y5266460D1*
X7892877D1*
X7868883Y5270260D1*
X7845783Y5277767D1*
X7842463Y5279297D1*
X7837997Y5252883D1*
X7833900Y5238353D1*
X7828673Y5224187D1*
X7822350Y5210477D1*
X7814973Y5197303D1*
X7806587Y5184747D1*
X7797240Y5172890D1*
X7786990Y5161803D1*
X7775903Y5151553D1*
X7764047Y5142207D1*
X7751490Y5133820D1*
X7738317Y5126443D1*
X7724607Y5120120D1*
X7710440Y5114893D1*
X7695910Y5110797D1*
X7681100Y5107850D1*
X7666107Y5106077D1*
X7651020Y5105483D1*
X7635933Y5106077D1*
X7620940Y5107850D1*
X7606130Y5110797D1*
X7591600Y5114893D1*
X7577433Y5120120D1*
X7563723Y5126443D1*
X7550550Y5133820D1*
X7537993Y5142207D1*
X7526137Y5151553D1*
X7515050Y5161803D1*
X7504800Y5172890D1*
X7495453Y5184747D1*
X7487067Y5197303D1*
X7479690Y5210477D1*
X7473367Y5224187D1*
X7468140Y5238353D1*
X7464043Y5252883D1*
X7461097Y5267693D1*
X7459323Y5282687D1*
X7458730Y5297773D1*
X7459323Y5312860D1*
X7461097Y5327853D1*
X7464043Y5342663D1*
X7468140Y5357193D1*
X7473367Y5371360D1*
X7479690Y5385070D1*
X7487067Y5398243D1*
X7495453Y5410800D1*
X7504800Y5422657D1*
X7515050Y5433743D1*
X7530073Y5447097D1*
X7519040Y5462897D1*
X7508013Y5484537D1*
X7500507Y5507637D1*
X7496707Y5531630D1*
Y5555917D1*
X7500507Y5579910D1*
X7508013Y5603010D1*
X7519040Y5624650D1*
X7533317Y5644300D1*
X7550493Y5661477D1*
X7562603Y5670717D1*
X7550493Y5680070D1*
X7533317Y5697247D1*
X7519040Y5716897D1*
X7508013Y5738537D1*
X7500507Y5761637D1*
X7496707Y5785630D1*
Y5809917D1*
X7500507Y5833910D1*
X7508013Y5857010D1*
X7519040Y5878650D1*
X7533317Y5898300D1*
X7550493Y5915477D1*
X7570143Y5929753D1*
X7591783Y5940780D1*
X7614883Y5948287D1*
X7638877Y5952087D1*
X7663163D1*
X7687157Y5948287D1*
X7710257Y5940780D1*
X7731897Y5929753D1*
X7732807Y5929147D1*
X7734850Y5951727D1*
X7741163Y5978013D1*
X7751510Y6002990D1*
X7765633Y6026043D1*
X7783193Y6046600D1*
X7803750Y6064160D1*
X7826803Y6078283D1*
X7851780Y6088630D1*
X7878067Y6094943D1*
X7905020Y6097063D1*
X7931973Y6094943D1*
X7958260Y6088630D1*
X7983237Y6078283D1*
X8006290Y6064160D1*
X8026847Y6046600D1*
X8044407Y6026043D1*
X8058530Y6002990D1*
X8068877Y5978013D1*
X8075190Y5951727D1*
X8077310Y5924773D1*
X8075190Y5897820D1*
X8068877Y5871533D1*
X8058530Y5846557D1*
X8044407Y5823503D1*
X8026847Y5802947D1*
X8010150Y5788430D1*
X8022723Y5775300D1*
X8037000Y5755650D1*
X8048027Y5734010D1*
X8055533Y5710910D1*
X8059333Y5686917D1*
Y5662630D1*
X7132550Y4873687D2*
X7130200Y4858840D1*
X7125557Y4844547D1*
X7118730Y4831153D1*
X7109897Y4818993D1*
X7099267Y4808363D1*
X7087107Y4799530D1*
X7073713Y4792703D1*
X7059420Y4788060D1*
X7044573Y4785710D1*
X7029540D1*
X7014693Y4788060D1*
X7000400Y4792703D1*
X6987007Y4799530D1*
X6974847Y4808363D1*
X6964217Y4818993D1*
X6955383Y4831153D1*
X6948557Y4844547D1*
X6943913Y4858840D1*
X6941563Y4873687D1*
Y4888720D1*
X6943913Y4903567D1*
X6948557Y4917860D1*
X6955383Y4931253D1*
X6964217Y4943413D1*
X6974847Y4954043D1*
X6987007Y4962877D1*
X7000400Y4969703D1*
X7014693Y4974347D1*
X7029540Y4976697D1*
X7044573D1*
X7059420Y4974347D1*
X7073713Y4969703D1*
X7087107Y4962877D1*
X7099267Y4954043D1*
X7109897Y4943413D1*
X7118730Y4931253D1*
X7125557Y4917860D1*
X7130200Y4903567D1*
X7132550Y4888720D1*
Y4873687D1*
X5131023Y3970973D2*
X5122677Y3964063D1*
X5109860Y3956210D1*
X5095973Y3950457D1*
X5081357Y3946950D1*
X5066373Y3945770D1*
X5051390Y3946950D1*
X5036773Y3950457D1*
X5022887Y3956210D1*
X5010070Y3964063D1*
X5001897Y3970813D1*
X2895033Y3968640D1*
X2887850Y3970667D1*
X2881337Y3974313D1*
X2875857Y3979380D1*
X2871710Y3985587D1*
X2869127Y3992587D1*
X2868250Y4000000D1*
Y4568293D1*
X2520013Y4568250D1*
X2518667Y4551097D1*
X2514620Y4534240D1*
X2507987Y4518223D1*
X2498930Y4503443D1*
X2487670Y4490263D1*
X2474490Y4479003D1*
X2459710Y4469947D1*
X2443693Y4463313D1*
X2426837Y4459267D1*
X2409557Y4457907D1*
X2392277Y4459267D1*
X2375420Y4463313D1*
X2359403Y4469947D1*
X2344623Y4479003D1*
X2331443Y4490263D1*
X2320183Y4503443D1*
X2311127Y4518223D1*
X2304493Y4534240D1*
X2300447Y4551097D1*
X2299090Y4568277D1*
X1131680Y4568250D1*
X1131750Y1131810D1*
X3137567Y1131750D1*
X3131130Y1140940D1*
X3124303Y1154333D1*
X3119660Y1168627D1*
X3117310Y1183473D1*
Y1198507D1*
X3119660Y1213353D1*
X3124303Y1227647D1*
X3131130Y1241040D1*
X3139963Y1253200D1*
X3150593Y1263830D1*
X3162753Y1272663D1*
X3176147Y1279490D1*
X3190440Y1284133D1*
X3205287Y1286483D1*
X3220320D1*
X3235167Y1284133D1*
X3249460Y1279490D1*
X3262853Y1272663D1*
X3275013Y1263830D1*
X3285643Y1253200D1*
X3294477Y1241040D1*
X3301303Y1227647D1*
X3305947Y1213353D1*
X3308297Y1198507D1*
Y1183473D1*
X3305947Y1168627D1*
X3301303Y1154333D1*
X3294477Y1140940D1*
X3287990Y1131757D1*
X10468243Y1131750D1*
X10468250Y6468217D1*
X6615993Y6469470D1*
X6615590Y3999577D1*
X6613570Y3992393D1*
X6609933Y3985877D1*
X6604873Y3980390D1*
X6598673Y3976233D1*
X6591673Y3973643D1*
X6584263Y3972757D1*
X6141203Y3972213D1*
X6128733Y3970400D1*
X6113700D1*
X6101767Y3972170D1*
X5131127Y3970980D1*
X9690663Y4229363D2*
X9688313Y4214517D1*
X9683670Y4200223D1*
X9676843Y4186830D1*
X9668010Y4174670D1*
X9657380Y4164040D1*
X9643657Y4154330D1*
X9658750Y4145350D1*
X9670180Y4135587D1*
X9679943Y4124157D1*
X9687797Y4111340D1*
X9693550Y4097453D1*
X9697057Y4082837D1*
X9698237Y4067853D1*
X9697057Y4052870D1*
X9693550Y4038253D1*
X9687797Y4024367D1*
X9679943Y4011550D1*
X9670180Y4000120D1*
X9658750Y3990357D1*
X9645933Y3982503D1*
X9632047Y3976750D1*
X9617430Y3973243D1*
X9602447Y3972063D1*
X9587463Y3973243D1*
X9572847Y3976750D1*
X9558960Y3982503D1*
X9546143Y3990357D1*
X9534713Y4000120D1*
X9524950Y4011550D1*
X9517097Y4024367D1*
X9511343Y4038253D1*
X9507837Y4052870D1*
X9506657Y4067853D1*
X9507837Y4082837D1*
X9511343Y4097453D1*
X9517097Y4111340D1*
X9524950Y4124157D1*
X9534713Y4135587D1*
X9546143Y4145350D1*
X9553960Y4150403D1*
X9538867Y4159383D1*
X9527437Y4169147D1*
X9517673Y4180577D1*
X9509820Y4193393D1*
X9504067Y4207280D1*
X9500560Y4221897D1*
X9499380Y4236880D1*
X9500560Y4251863D1*
X9504067Y4266480D1*
X9509820Y4280367D1*
X9517673Y4293183D1*
X9527437Y4304613D1*
X9538867Y4314377D1*
X9549093Y4320780D1*
X9538727Y4331360D1*
X9528510Y4345427D1*
X9520617Y4360917D1*
X9515243Y4377450D1*
X9512523Y4394620D1*
Y4412007D1*
X9515243Y4429177D1*
X9520617Y4445710D1*
X9528510Y4461200D1*
X9538727Y4475267D1*
X9551020Y4487560D1*
X9565087Y4497777D1*
X9580577Y4505670D1*
X9597110Y4511043D1*
X9614280Y4513763D1*
X9631667D1*
X9648837Y4511043D1*
X9665370Y4505670D1*
X9680860Y4497777D1*
X9694927Y4487560D1*
X9707220Y4475267D1*
X9717437Y4461200D1*
X9725330Y4445710D1*
X9730703Y4429177D1*
X9733423Y4412007D1*
Y4394620D1*
X9730703Y4377450D1*
X9725330Y4360917D1*
X9717437Y4345427D1*
X9707220Y4331360D1*
X9694927Y4319067D1*
X9680860Y4308850D1*
X9666080Y4301283D1*
X9676843Y4286930D1*
X9683670Y4273537D1*
X9688313Y4259243D1*
X9690663Y4244397D1*
Y4229363D1*
X8374523Y4483537D2*
X8372173Y4468690D1*
X8367530Y4454397D1*
X8360703Y4441003D1*
X8351870Y4428843D1*
X8345233Y4421903D1*
X8353930Y4409897D1*
X8360757Y4396503D1*
X8365400Y4382210D1*
X8367750Y4367363D1*
Y4352330D1*
X8365400Y4337483D1*
X8360757Y4323190D1*
X8353930Y4309797D1*
X8345037Y4297570D1*
X8355083Y4283977D1*
X8361910Y4270583D1*
X8366553Y4256290D1*
X8368903Y4241443D1*
Y4226410D1*
X8366553Y4211563D1*
X8361910Y4197270D1*
X8355083Y4183877D1*
X8346250Y4171717D1*
X8335620Y4161087D1*
X8323460Y4152253D1*
X8310067Y4145427D1*
X8295773Y4140783D1*
X8280927Y4138433D1*
X8265893D1*
X8251047Y4140783D1*
X8236753Y4145427D1*
X8223360Y4152253D1*
X8211200Y4161087D1*
X8200570Y4171717D1*
X8191737Y4183877D1*
X8184910Y4197270D1*
X8180267Y4211563D1*
X8177917Y4226410D1*
Y4241443D1*
X8180267Y4256290D1*
X8184910Y4270583D1*
X8191737Y4283977D1*
X8200630Y4296203D1*
X8190583Y4309797D1*
X8183757Y4323190D1*
X8179113Y4337483D1*
X8176763Y4352330D1*
Y4367363D1*
X8179113Y4382210D1*
X8183757Y4396503D1*
X8190583Y4409897D1*
X8199417Y4422057D1*
X8206053Y4428997D1*
X8197357Y4441003D1*
X8190530Y4454397D1*
X8185887Y4468690D1*
X8183537Y4483537D1*
Y4498570D1*
X8185887Y4513417D1*
X8190530Y4527710D1*
X8197357Y4541103D1*
X8206190Y4553263D1*
X8216820Y4563893D1*
X8228980Y4572727D1*
X8242373Y4579553D1*
X8256667Y4584197D1*
X8271513Y4586547D1*
X8286547D1*
X8301393Y4584197D1*
X8315687Y4579553D1*
X8329080Y4572727D1*
X8341240Y4563893D1*
X8351870Y4553263D1*
X8360703Y4541103D1*
X8367530Y4527710D1*
X8372173Y4513417D1*
X8374523Y4498570D1*
Y4483537D1*
X8794567Y3828903D2*
X8792217Y3814057D1*
X8787573Y3799763D1*
X8780747Y3786370D1*
X8771913Y3774210D1*
X8761283Y3763580D1*
X8749123Y3754747D1*
X8735730Y3747920D1*
X8721437Y3743277D1*
X8706590Y3740927D1*
X8691557D1*
X8676710Y3743277D1*
X8662417Y3747920D1*
X8649023Y3754747D1*
X8636863Y3763580D1*
X8626233Y3774210D1*
X8617400Y3786370D1*
X8610573Y3799763D1*
X8605930Y3814057D1*
X8603580Y3828903D1*
Y3843937D1*
X8605930Y3858783D1*
X8610573Y3873077D1*
X8617400Y3886470D1*
X8626233Y3898630D1*
X8636863Y3909260D1*
X8649023Y3918093D1*
X8662417Y3924920D1*
X8676710Y3929563D1*
X8691557Y3931913D1*
X8706590D1*
X8721437Y3929563D1*
X8735730Y3924920D1*
X8749123Y3918093D1*
X8761283Y3909260D1*
X8771913Y3898630D1*
X8780747Y3886470D1*
X8787573Y3873077D1*
X8792217Y3858783D1*
X8794567Y3843937D1*
Y3828903D1*
X8690867Y3494077D2*
X8688517Y3479230D1*
X8683873Y3464937D1*
X8677047Y3451543D1*
X8668213Y3439383D1*
X8657583Y3428753D1*
X8654837Y3426590D1*
X8668587Y3423203D1*
X8682473Y3417450D1*
X8695290Y3409597D1*
X8706720Y3399833D1*
X8716483Y3388403D1*
X8724337Y3375587D1*
X8730090Y3361700D1*
X8733597Y3347083D1*
X8734777Y3332100D1*
X8733597Y3317117D1*
X8730090Y3302500D1*
X8724337Y3288613D1*
X8716483Y3275797D1*
X8706720Y3264367D1*
X8695290Y3254603D1*
X8682473Y3246750D1*
X8668587Y3240997D1*
X8653970Y3237490D1*
X8638987Y3236310D1*
X8624003Y3237490D1*
X8609387Y3240997D1*
X8595500Y3246750D1*
X8582683Y3254603D1*
X8571253Y3264367D1*
X8561490Y3275797D1*
X8553637Y3288613D1*
X8547883Y3302500D1*
X8544377Y3317117D1*
X8543197Y3332100D1*
X8544377Y3347083D1*
X8547883Y3361700D1*
X8553637Y3375587D1*
X8561490Y3388403D1*
X8571253Y3399833D1*
X8579523Y3407103D1*
X8565773Y3410490D1*
X8551887Y3416243D1*
X8539070Y3424097D1*
X8527640Y3433860D1*
X8517877Y3445290D1*
X8510023Y3458107D1*
X8504270Y3471993D1*
X8500763Y3486610D1*
X8499583Y3501593D1*
X8500763Y3516577D1*
X8504270Y3531193D1*
X8510023Y3545080D1*
X8517877Y3557897D1*
X8527640Y3569327D1*
X8539070Y3579090D1*
X8551887Y3586943D1*
X8565773Y3592697D1*
X8580390Y3596203D1*
X8595373Y3597383D1*
X8610357Y3596203D1*
X8624973Y3592697D1*
X8638860Y3586943D1*
X8651677Y3579090D1*
X8663107Y3569327D1*
X8672870Y3557897D1*
X8680723Y3545080D1*
X8686477Y3531193D1*
X8689983Y3516577D1*
X8691163Y3501593D1*
X8690867Y3494077D1*
X10373120Y3298287D2*
X10370770Y3283440D1*
X10366127Y3269147D1*
X10359300Y3255753D1*
X10350467Y3243593D1*
X10339837Y3232963D1*
X10327677Y3224130D1*
X10314283Y3217303D1*
X10299990Y3212660D1*
X10285143Y3210310D1*
X10270110D1*
X10255263Y3212660D1*
X10240970Y3217303D1*
X10227577Y3224130D1*
X10215417Y3232963D1*
X10204787Y3243593D1*
X10195953Y3255753D1*
X10189127Y3269147D1*
X10184483Y3283440D1*
X10182133Y3298287D1*
Y3313320D1*
X10184483Y3328167D1*
X10189127Y3342460D1*
X10195953Y3355853D1*
X10204787Y3368013D1*
X10215417Y3378643D1*
X10227577Y3387477D1*
X10240970Y3394303D1*
X10255263Y3398947D1*
X10270110Y3401297D1*
X10285143D1*
X10299990Y3398947D1*
X10314283Y3394303D1*
X10327677Y3387477D1*
X10339837Y3378643D1*
X10350467Y3368013D1*
X10359300Y3355853D1*
X10366127Y3342460D1*
X10370770Y3328167D1*
X10373120Y3313320D1*
Y3298287D1*
X9001677Y3576957D2*
X8999327Y3562110D1*
X8994683Y3547817D1*
X8987857Y3534423D1*
X8983443Y3527870D1*
X8993167Y3514643D1*
X8999993Y3501250D1*
X9004637Y3486957D1*
X9006987Y3472110D1*
Y3457077D1*
X9004637Y3442230D1*
X8999993Y3427937D1*
X8993167Y3414543D1*
X8984333Y3402383D1*
X8973703Y3391753D1*
X8961543Y3382920D1*
X8948150Y3376093D1*
X8933857Y3371450D1*
X8919010Y3369100D1*
X8903977D1*
X8889130Y3371450D1*
X8874837Y3376093D1*
X8861443Y3382920D1*
X8849283Y3391753D1*
X8838653Y3402383D1*
X8829820Y3414543D1*
X8822993Y3427937D1*
X8818350Y3442230D1*
X8816000Y3457077D1*
Y3472110D1*
X8818350Y3486957D1*
X8822993Y3501250D1*
X8829820Y3514643D1*
X8834233Y3521197D1*
X8824510Y3534423D1*
X8817683Y3547817D1*
X8813040Y3562110D1*
X8810690Y3576957D1*
Y3591990D1*
X8813040Y3606837D1*
X8817683Y3621130D1*
X8824510Y3634523D1*
X8833343Y3646683D1*
X8843973Y3657313D1*
X8856133Y3666147D1*
X8869527Y3672973D1*
X8883820Y3677617D1*
X8898667Y3679967D1*
X8913700D1*
X8928547Y3677617D1*
X8942840Y3672973D1*
X8956233Y3666147D1*
X8968393Y3657313D1*
X8979023Y3646683D1*
X8987857Y3634523D1*
X8994683Y3621130D1*
X8999327Y3606837D1*
X9001677Y3591990D1*
Y3576957D1*
X9299233Y3019213D2*
X9296883Y3004367D1*
X9292240Y2990073D1*
X9285413Y2976680D1*
X9276580Y2964520D1*
X9265950Y2953890D1*
X9253790Y2945057D1*
X9240397Y2938230D1*
X9226103Y2933587D1*
X9211257Y2931237D1*
X9196223D1*
X9181377Y2933587D1*
X9167083Y2938230D1*
X9153690Y2945057D1*
X9141530Y2953890D1*
X9130900Y2964520D1*
X9122067Y2976680D1*
X9115240Y2990073D1*
X9110597Y3004367D1*
X9108247Y3019213D1*
Y3034247D1*
X9110597Y3049093D1*
X9115240Y3063387D1*
X9122067Y3076780D1*
X9130900Y3088940D1*
X9141530Y3099570D1*
X9153690Y3108403D1*
X9167083Y3115230D1*
X9181377Y3119873D1*
X9196223Y3122223D1*
X9211257D1*
X9226103Y3119873D1*
X9240397Y3115230D1*
X9253790Y3108403D1*
X9265950Y3099570D1*
X9276580Y3088940D1*
X9285413Y3076780D1*
X9292240Y3063387D1*
X9296883Y3049093D1*
X9299233Y3034247D1*
Y3019213D1*
X9287943Y2804710D2*
X9285593Y2789863D1*
X9280950Y2775570D1*
X9274123Y2762177D1*
X9265290Y2750017D1*
X9254660Y2739387D1*
X9242500Y2730553D1*
X9229107Y2723727D1*
X9214813Y2719083D1*
X9199967Y2716733D1*
X9184933D1*
X9170087Y2719083D1*
X9155793Y2723727D1*
X9142400Y2730553D1*
X9130240Y2739387D1*
X9119610Y2750017D1*
X9110777Y2762177D1*
X9103950Y2775570D1*
X9099307Y2789863D1*
X9096957Y2804710D1*
Y2819743D1*
X9099307Y2834590D1*
X9103950Y2848883D1*
X9110777Y2862277D1*
X9119610Y2874437D1*
X9130240Y2885067D1*
X9142400Y2893900D1*
X9155793Y2900727D1*
X9170087Y2905370D1*
X9184933Y2907720D1*
X9199967D1*
X9214813Y2905370D1*
X9229107Y2900727D1*
X9242500Y2893900D1*
X9254660Y2885067D1*
X9265290Y2874437D1*
X9274123Y2862277D1*
X9280950Y2848883D1*
X9285593Y2834590D1*
X9287943Y2819743D1*
Y2804710D1*
X10073783Y2992067D2*
X10071433Y2977220D1*
X10066790Y2962927D1*
X10059963Y2949533D1*
X10051130Y2937373D1*
X10040500Y2926743D1*
X10028340Y2917910D1*
X10014947Y2911083D1*
X10000653Y2906440D1*
X9985807Y2904090D1*
X9970773D1*
X9955927Y2906440D1*
X9941633Y2911083D1*
X9928240Y2917910D1*
X9916080Y2926743D1*
X9905450Y2937373D1*
X9896617Y2949533D1*
X9889790Y2962927D1*
X9885147Y2977220D1*
X9882797Y2992067D1*
Y3007100D1*
X9885147Y3021947D1*
X9889790Y3036240D1*
X9896617Y3049633D1*
X9905450Y3061793D1*
X9916080Y3072423D1*
X9928240Y3081257D1*
X9941633Y3088083D1*
X9955927Y3092727D1*
X9970773Y3095077D1*
X9985807D1*
X10000653Y3092727D1*
X10014947Y3088083D1*
X10028340Y3081257D1*
X10040500Y3072423D1*
X10051130Y3061793D1*
X10059963Y3049633D1*
X10066790Y3036240D1*
X10071433Y3021947D1*
X10073783Y3007100D1*
Y2992067D1*
X9330280Y2469280D2*
X9327930Y2454433D1*
X9323287Y2440140D1*
X9316460Y2426747D1*
X9307627Y2414587D1*
X9296997Y2403957D1*
X9284837Y2395123D1*
X9271443Y2388297D1*
X9257150Y2383653D1*
X9242303Y2381303D1*
X9227270D1*
X9212423Y2383653D1*
X9198130Y2388297D1*
X9184737Y2395123D1*
X9172577Y2403957D1*
X9161947Y2414587D1*
X9153113Y2426747D1*
X9146287Y2440140D1*
X9141643Y2454433D1*
X9139293Y2469280D1*
Y2484313D1*
X9141643Y2499160D1*
X9146287Y2513453D1*
X9153113Y2526847D1*
X9161947Y2539007D1*
X9172577Y2549637D1*
X9184737Y2558470D1*
X9198130Y2565297D1*
X9212423Y2569940D1*
X9227270Y2572290D1*
X9242303D1*
X9257150Y2569940D1*
X9271443Y2565297D1*
X9284837Y2558470D1*
X9296997Y2549637D1*
X9307627Y2539007D1*
X9316460Y2526847D1*
X9323287Y2513453D1*
X9327930Y2499160D1*
X9330280Y2484313D1*
Y2469280D1*
X8837367Y2558163D2*
X8835017Y2543317D1*
X8830373Y2529023D1*
X8823547Y2515630D1*
X8814713Y2503470D1*
X8809493Y2497677D1*
X8817347Y2484860D1*
X8823100Y2470973D1*
X8826607Y2456357D1*
X8827787Y2441373D1*
X8826607Y2426390D1*
X8823100Y2411773D1*
X8817347Y2397887D1*
X8809493Y2385070D1*
X8799730Y2373640D1*
X8788300Y2363877D1*
X8775483Y2356023D1*
X8761597Y2350270D1*
X8746980Y2346763D1*
X8731997Y2345583D1*
X8717013Y2346763D1*
X8702397Y2350270D1*
X8688510Y2356023D1*
X8675693Y2363877D1*
X8664263Y2373640D1*
X8654500Y2385070D1*
X8646647Y2397887D1*
X8640893Y2411773D1*
X8637387Y2426390D1*
X8636207Y2441373D1*
X8637387Y2456357D1*
X8640893Y2470973D1*
X8646647Y2484860D1*
X8654500Y2497677D1*
X8664377Y2509377D1*
X8656523Y2522193D1*
X8650770Y2536080D1*
X8647263Y2550697D1*
X8646083Y2565680D1*
X8647263Y2580663D1*
X8650770Y2595280D1*
X8656523Y2609167D1*
X8664377Y2621983D1*
X8674140Y2633413D1*
X8685570Y2643177D1*
X8698387Y2651030D1*
X8712273Y2656783D1*
X8726890Y2660290D1*
X8741873Y2661470D1*
X8756857Y2660290D1*
X8771473Y2656783D1*
X8785360Y2651030D1*
X8798177Y2643177D1*
X8809607Y2633413D1*
X8819370Y2621983D1*
X8827223Y2609167D1*
X8832977Y2595280D1*
X8836483Y2580663D1*
X8837663Y2565680D1*
X8837367Y2558163D1*
X7853093Y4682080D2*
X7838023Y4683257D1*
X7823407Y4686763D1*
X7809520Y4692517D1*
X7796703Y4700370D1*
X7785273Y4710133D1*
X7775510Y4721563D1*
X7767657Y4734380D1*
X7761903Y4748267D1*
X7758397Y4762883D1*
X7757217Y4777867D1*
X7758397Y4792850D1*
X7761903Y4807467D1*
X7767657Y4821353D1*
X7775510Y4834170D1*
X7785273Y4845600D1*
X7796703Y4855363D1*
X7809520Y4863217D1*
X7823407Y4868970D1*
X7838023Y4872477D1*
X7853007Y4873657D1*
X7867990Y4872477D1*
X7882607Y4868970D1*
X7896493Y4863217D1*
X7909310Y4855363D1*
X7920740Y4845600D1*
X7931597Y4832533D1*
X7946747Y4831330D1*
X7961363Y4827823D1*
X7975250Y4822070D1*
X7988067Y4814217D1*
X7999497Y4804453D1*
X8009260Y4793023D1*
X8017113Y4780207D1*
X8022867Y4766320D1*
X8026373Y4751703D1*
X8027553Y4736720D1*
X8026373Y4721737D1*
X8022867Y4707120D1*
X8017113Y4693233D1*
X8009260Y4680417D1*
X7999497Y4668987D1*
X7988067Y4659223D1*
X7975250Y4651370D1*
X7961363Y4645617D1*
X7946747Y4642110D1*
X7931763Y4640930D1*
X7916780Y4642110D1*
X7902163Y4645617D1*
X7888277Y4651370D1*
X7875460Y4659223D1*
X7864030Y4668987D1*
X7853173Y4682053D1*
X8427517Y1969700D2*
X8425167Y1954853D1*
X8420523Y1940560D1*
X8413697Y1927167D1*
X8404863Y1915007D1*
X8394233Y1904377D1*
X8382073Y1895543D1*
X8368680Y1888717D1*
X8354387Y1884073D1*
X8339540Y1881723D1*
X8324507D1*
X8309660Y1884073D1*
X8295367Y1888717D1*
X8281973Y1895543D1*
X8269813Y1904377D1*
X8259183Y1915007D1*
X8250350Y1927167D1*
X8243523Y1940560D1*
X8238880Y1954853D1*
X8236530Y1969700D1*
Y1984733D1*
X8238880Y1999580D1*
X8243523Y2013873D1*
X8250350Y2027267D1*
X8259183Y2039427D1*
X8269813Y2050057D1*
X8281973Y2058890D1*
X8295367Y2065717D1*
X8309660Y2070360D1*
X8324507Y2072710D1*
X8339540D1*
X8354387Y2070360D1*
X8368680Y2065717D1*
X8382073Y2058890D1*
X8394233Y2050057D1*
X8404863Y2039427D1*
X8413697Y2027267D1*
X8420523Y2013873D1*
X8425167Y1999580D1*
X8427517Y1984733D1*
Y1969700D1*
X7462543Y2520893D2*
X7460193Y2506047D1*
X7455550Y2491753D1*
X7448723Y2478360D1*
X7439890Y2466200D1*
X7429260Y2455570D1*
X7417100Y2446737D1*
X7403707Y2439910D1*
X7389413Y2435267D1*
X7374567Y2432917D1*
X7359533D1*
X7344687Y2435267D1*
X7330393Y2439910D1*
X7317000Y2446737D1*
X7304840Y2455570D1*
X7294210Y2466200D1*
X7285377Y2478360D1*
X7278550Y2491753D1*
X7273907Y2506047D1*
X7271557Y2520893D1*
Y2535927D1*
X7273907Y2550773D1*
X7278550Y2565067D1*
X7285377Y2578460D1*
X7294210Y2590620D1*
X7304840Y2601250D1*
X7317000Y2610083D1*
X7330393Y2616910D1*
X7344687Y2621553D1*
X7359533Y2623903D1*
X7374567D1*
X7389413Y2621553D1*
X7403707Y2616910D1*
X7417100Y2610083D1*
X7429260Y2601250D1*
X7439890Y2590620D1*
X7448723Y2578460D1*
X7455550Y2565067D1*
X7460193Y2550773D1*
X7462543Y2535927D1*
Y2520893D1*
X6336813Y3436130D2*
X6334463Y3421283D1*
X6329820Y3406990D1*
X6322993Y3393597D1*
X6314160Y3381437D1*
X6303530Y3370807D1*
X6291370Y3361973D1*
X6277977Y3355147D1*
X6263683Y3350503D1*
X6248837Y3348153D1*
X6233803D1*
X6218957Y3350503D1*
X6204663Y3355147D1*
X6191270Y3361973D1*
X6179110Y3370807D1*
X6168480Y3381437D1*
X6159647Y3393597D1*
X6152820Y3406990D1*
X6148177Y3421283D1*
X6145827Y3436130D1*
Y3451163D1*
X6148177Y3466010D1*
X6152820Y3480303D1*
X6159647Y3493697D1*
X6168480Y3505857D1*
X6179110Y3516487D1*
X6191270Y3525320D1*
X6204663Y3532147D1*
X6218957Y3536790D1*
X6233803Y3539140D1*
X6248837D1*
X6263683Y3536790D1*
X6277977Y3532147D1*
X6291370Y3525320D1*
X6303530Y3516487D1*
X6314160Y3505857D1*
X6322993Y3493697D1*
X6329820Y3480303D1*
X6334463Y3466010D1*
X6336813Y3451163D1*
Y3436130D1*
X5895730Y2884527D2*
X5893380Y2869680D1*
X5888737Y2855387D1*
X5881910Y2841993D1*
X5873077Y2829833D1*
X5862447Y2819203D1*
X5850287Y2810370D1*
X5836893Y2803543D1*
X5822600Y2798900D1*
X5807753Y2796550D1*
X5792720D1*
X5777873Y2798900D1*
X5763580Y2803543D1*
X5750187Y2810370D1*
X5738027Y2819203D1*
X5727397Y2829833D1*
X5718563Y2841993D1*
X5711737Y2855387D1*
X5707093Y2869680D1*
X5704743Y2884527D1*
Y2899560D1*
X5707093Y2914407D1*
X5711737Y2928700D1*
X5718563Y2942093D1*
X5727397Y2954253D1*
X5738027Y2964883D1*
X5742710Y2968577D1*
X5733047Y2983787D1*
X5727293Y2997673D1*
X5723787Y3012290D1*
X5722607Y3027273D1*
X5723787Y3042257D1*
X5727293Y3056873D1*
X5733047Y3070760D1*
X5740900Y3083577D1*
X5750663Y3095007D1*
X5762093Y3104770D1*
X5774910Y3112623D1*
X5788797Y3118377D1*
X5803413Y3121883D1*
X5818397Y3123063D1*
X5833380Y3121883D1*
X5847997Y3118377D1*
X5861883Y3112623D1*
X5874700Y3104770D1*
X5886130Y3095007D1*
X5895893Y3083577D1*
X5903747Y3070760D1*
X5909500Y3056873D1*
X5913007Y3042257D1*
X5914187Y3027273D1*
X5913007Y3012290D1*
X5909500Y2997673D1*
X5903747Y2983787D1*
X5895893Y2970970D1*
X5886130Y2959540D1*
X5875923Y2950740D1*
X5885587Y2935530D1*
X5891340Y2921643D1*
X5894847Y2907027D1*
X5896027Y2892043D1*
X5895730Y2884527D1*
X4711330Y3811727D2*
X4708980Y3796880D1*
X4704337Y3782587D1*
X4697510Y3769193D1*
X4688677Y3757033D1*
X4678047Y3746403D1*
X4665887Y3737570D1*
X4652493Y3730743D1*
X4648993Y3729453D1*
X4665937Y3722773D1*
X4678753Y3714920D1*
X4690183Y3705157D1*
X4699947Y3693727D1*
X4707800Y3680910D1*
X4713553Y3667023D1*
X4717060Y3652407D1*
X4718240Y3637423D1*
X4717060Y3622440D1*
X4713553Y3607823D1*
X4707800Y3593937D1*
X4699947Y3581120D1*
X4690183Y3569690D1*
X4678753Y3559927D1*
X4665937Y3552073D1*
X4652050Y3546320D1*
X4637433Y3542813D1*
X4622450Y3541633D1*
X4607467Y3542813D1*
X4592850Y3546320D1*
X4578963Y3552073D1*
X4566147Y3559927D1*
X4554717Y3569690D1*
X4544953Y3581120D1*
X4537100Y3593937D1*
X4531347Y3607823D1*
X4527840Y3622440D1*
X4526660Y3637423D1*
X4527840Y3652407D1*
X4531347Y3667023D1*
X4537100Y3680910D1*
X4544953Y3693727D1*
X4554717Y3705157D1*
X4566147Y3714920D1*
X4578963Y3722773D1*
X4589293Y3727213D1*
X4572350Y3733893D1*
X4559533Y3741747D1*
X4548103Y3751510D1*
X4538340Y3762940D1*
X4530487Y3775757D1*
X4524733Y3789643D1*
X4521227Y3804260D1*
X4520047Y3819243D1*
X4521227Y3834227D1*
X4524733Y3848843D1*
X4530487Y3862730D1*
X4538340Y3875547D1*
X4548103Y3886977D1*
X4559533Y3896740D1*
X4572350Y3904593D1*
X4586237Y3910347D1*
X4600853Y3913853D1*
X4615837Y3915033D1*
X4630820Y3913853D1*
X4645437Y3910347D1*
X4659323Y3904593D1*
X4672140Y3896740D1*
X4683570Y3886977D1*
X4693333Y3875547D1*
X4701187Y3862730D1*
X4706940Y3848843D1*
X4710447Y3834227D1*
X4711627Y3819243D1*
X4711330Y3811727D1*
X4708023Y3431557D2*
X4705673Y3416710D1*
X4701030Y3402417D1*
X4694203Y3389023D1*
X4685370Y3376863D1*
X4674740Y3366233D1*
X4662580Y3357400D1*
X4649187Y3350573D1*
X4634893Y3345930D1*
X4620047Y3343580D1*
X4605013D1*
X4590167Y3345930D1*
X4575873Y3350573D1*
X4562480Y3357400D1*
X4550320Y3366233D1*
X4539690Y3376863D1*
X4530857Y3389023D1*
X4524030Y3402417D1*
X4519387Y3416710D1*
X4517037Y3431557D1*
Y3446590D1*
X4519387Y3461437D1*
X4524030Y3475730D1*
X4530857Y3489123D1*
X4539690Y3501283D1*
X4550320Y3511913D1*
X4562480Y3520747D1*
X4575873Y3527573D1*
X4590167Y3532217D1*
X4605013Y3534567D1*
X4620047D1*
X4634893Y3532217D1*
X4649187Y3527573D1*
X4662580Y3520747D1*
X4674740Y3511913D1*
X4685370Y3501283D1*
X4694203Y3489123D1*
X4701030Y3475730D1*
X4705673Y3461437D1*
X4708023Y3446590D1*
Y3431557D1*
X3544370Y3126697D2*
X3542020Y3111850D1*
X3537377Y3097557D1*
X3530550Y3084163D1*
X3521717Y3072003D1*
X3511087Y3061373D1*
X3498927Y3052540D1*
X3485533Y3045713D1*
X3471240Y3041070D1*
X3456393Y3038720D1*
X3441360D1*
X3426513Y3041070D1*
X3412220Y3045713D1*
X3398827Y3052540D1*
X3386667Y3061373D1*
X3376037Y3072003D1*
X3367203Y3084163D1*
X3360377Y3097557D1*
X3355733Y3111850D1*
X3353383Y3126697D1*
Y3141730D1*
X3355733Y3156577D1*
X3360377Y3170870D1*
X3367203Y3184263D1*
X3376037Y3196423D1*
X3386667Y3207053D1*
X3398827Y3215887D1*
X3412220Y3222713D1*
X3426513Y3227357D1*
X3441360Y3229707D1*
X3456393D1*
X3471240Y3227357D1*
X3485533Y3222713D1*
X3498927Y3215887D1*
X3511087Y3207053D1*
X3521717Y3196423D1*
X3530550Y3184263D1*
X3537377Y3170870D1*
X3542020Y3156577D1*
X3544370Y3141730D1*
Y3126697D1*
X4020410Y3689410D2*
X4018060Y3674563D1*
X4013417Y3660270D1*
X4006590Y3646877D1*
X4003133Y3641243D1*
X4012897Y3629813D1*
X4020750Y3616997D1*
X4026503Y3603110D1*
X4030010Y3588493D1*
X4031190Y3573510D1*
X4030010Y3558527D1*
X4026503Y3543910D1*
X4020750Y3530023D1*
X4012897Y3517207D1*
X4003133Y3505777D1*
X3991703Y3496013D1*
X3978887Y3488160D1*
X3965000Y3482407D1*
X3950383Y3478900D1*
X3935400Y3477720D1*
X3920417Y3478900D1*
X3905800Y3482407D1*
X3891913Y3488160D1*
X3879097Y3496013D1*
X3867667Y3505777D1*
X3857903Y3517207D1*
X3850050Y3530023D1*
X3844297Y3543910D1*
X3840790Y3558527D1*
X3839610Y3573510D1*
X3840790Y3588493D1*
X3844297Y3603110D1*
X3850050Y3616997D1*
X3857183Y3629193D1*
X3847420Y3640623D1*
X3839567Y3653440D1*
X3833813Y3667327D1*
X3830307Y3681943D1*
X3829127Y3696927D1*
X3830307Y3711910D1*
X3833813Y3726527D1*
X3839567Y3740413D1*
X3847420Y3753230D1*
X3857183Y3764660D1*
X3868613Y3774423D1*
X3881430Y3782277D1*
X3895317Y3788030D1*
X3909933Y3791537D1*
X3924917Y3792717D1*
X3939900Y3791537D1*
X3954517Y3788030D1*
X3968403Y3782277D1*
X3981220Y3774423D1*
X3992650Y3764660D1*
X4002413Y3753230D1*
X4010267Y3740413D1*
X4016020Y3726527D1*
X4019527Y3711910D1*
X4020707Y3696927D1*
X4020410Y3689410D1*
X7213163Y1399770D2*
X7210813Y1384923D1*
X7206170Y1370630D1*
X7199343Y1357237D1*
X7190510Y1345077D1*
X7179880Y1334447D1*
X7167720Y1325613D1*
X7154327Y1318787D1*
X7140033Y1314143D1*
X7125187Y1311793D1*
X7110153D1*
X7095307Y1314143D1*
X7081013Y1318787D1*
X7067620Y1325613D1*
X7055460Y1334447D1*
X7044830Y1345077D1*
X7035997Y1357237D1*
X7029170Y1370630D1*
X7024527Y1384923D1*
X7022177Y1399770D1*
Y1414803D1*
X7024527Y1429650D1*
X7029170Y1443943D1*
X7035997Y1457337D1*
X7044830Y1469497D1*
X7055460Y1480127D1*
X7067620Y1488960D1*
X7081013Y1495787D1*
X7095307Y1500430D1*
X7110153Y1502780D1*
X7125187D1*
X7140033Y1500430D1*
X7154327Y1495787D1*
X7167720Y1488960D1*
X7179880Y1480127D1*
X7190510Y1469497D1*
X7199343Y1457337D1*
X7206170Y1443943D1*
X7210813Y1429650D1*
X7213163Y1414803D1*
Y1399770D1*
X6583433Y1577640D2*
X6581083Y1562793D1*
X6576440Y1548500D1*
X6569613Y1535107D1*
X6560780Y1522947D1*
X6550150Y1512317D1*
X6537990Y1503483D1*
X6524597Y1496657D1*
X6510303Y1492013D1*
X6495457Y1489663D1*
X6480423D1*
X6465577Y1492013D1*
X6451283Y1496657D1*
X6437890Y1503483D1*
X6425730Y1512317D1*
X6415100Y1522947D1*
X6406267Y1535107D1*
X6399440Y1548500D1*
X6394797Y1562793D1*
X6392447Y1577640D1*
Y1592673D1*
X6394797Y1607520D1*
X6399440Y1621813D1*
X6406267Y1635207D1*
X6415100Y1647367D1*
X6425730Y1657997D1*
X6437890Y1666830D1*
X6451283Y1673657D1*
X6465577Y1678300D1*
X6480423Y1680650D1*
X6495457D1*
X6510303Y1678300D1*
X6524597Y1673657D1*
X6537990Y1666830D1*
X6550150Y1657997D1*
X6560780Y1647367D1*
X6569613Y1635207D1*
X6576440Y1621813D1*
X6581083Y1607520D1*
X6583433Y1592673D1*
Y1577640D1*
X6581567Y1355580D2*
X6579217Y1340733D1*
X6574573Y1326440D1*
X6567747Y1313047D1*
X6558913Y1300887D1*
X6548283Y1290257D1*
X6536123Y1281423D1*
X6522730Y1274597D1*
X6508437Y1269953D1*
X6493590Y1267603D1*
X6478557D1*
X6463710Y1269953D1*
X6449417Y1274597D1*
X6436023Y1281423D1*
X6423863Y1290257D1*
X6413233Y1300887D1*
X6404400Y1313047D1*
X6397573Y1326440D1*
X6392930Y1340733D1*
X6390580Y1355580D1*
Y1370613D1*
X6392930Y1385460D1*
X6397573Y1399753D1*
X6404400Y1413147D1*
X6413233Y1425307D1*
X6423863Y1435937D1*
X6436023Y1444770D1*
X6449417Y1451597D1*
X6463710Y1456240D1*
X6478557Y1458590D1*
X6493590D1*
X6508437Y1456240D1*
X6522730Y1451597D1*
X6536123Y1444770D1*
X6548283Y1435937D1*
X6558913Y1425307D1*
X6567747Y1413147D1*
X6574573Y1399753D1*
X6579217Y1385460D1*
X6581567Y1370613D1*
Y1355580D1*
X6219550Y2237430D2*
X6217200Y2222583D1*
X6212557Y2208290D1*
X6205730Y2194897D1*
X6196897Y2182737D1*
X6191337Y2176793D1*
X6203420Y2163160D1*
X6211273Y2150343D1*
X6217027Y2136457D1*
X6220533Y2121840D1*
X6221713Y2106857D1*
X6220533Y2091873D1*
X6217027Y2077257D1*
X6211273Y2063370D1*
X6203420Y2050553D1*
X6193657Y2039123D1*
X6182227Y2029360D1*
X6169410Y2021507D1*
X6155523Y2015753D1*
X6140907Y2012247D1*
X6125923Y2011067D1*
X6110940Y2012247D1*
X6096323Y2015753D1*
X6082437Y2021507D1*
X6069620Y2029360D1*
X6058190Y2039123D1*
X6048427Y2050553D1*
X6040573Y2063370D1*
X6034820Y2077257D1*
X6031313Y2091873D1*
X6030133Y2106857D1*
X6031313Y2121840D1*
X6034820Y2136457D1*
X6040573Y2150343D1*
X6048427Y2163160D1*
X6058643Y2175010D1*
X6046560Y2188643D1*
X6038707Y2201460D1*
X6032953Y2215347D1*
X6029447Y2229963D1*
X6028267Y2244947D1*
X6029447Y2259930D1*
X6032953Y2274547D1*
X6038707Y2288433D1*
X6046560Y2301250D1*
X6056323Y2312680D1*
X6067753Y2322443D1*
X6080570Y2330297D1*
X6094457Y2336050D1*
X6109073Y2339557D1*
X6124057Y2340737D1*
X6139040Y2339557D1*
X6153657Y2336050D1*
X6167543Y2330297D1*
X6180360Y2322443D1*
X6191790Y2312680D1*
X6201553Y2301250D1*
X6209407Y2288433D1*
X6215160Y2274547D1*
X6218667Y2259930D1*
X6219847Y2244947D1*
X6219550Y2237430D1*
X4946873Y1801567D2*
X4944523Y1786720D1*
X4939880Y1772427D1*
X4933053Y1759033D1*
X4924220Y1746873D1*
X4913590Y1736243D1*
X4906537Y1730820D1*
X4921467Y1720353D1*
X4932097Y1709723D1*
X4940930Y1697563D1*
X4947757Y1684170D1*
X4952400Y1669877D1*
X4954750Y1655030D1*
Y1639997D1*
X4952400Y1625150D1*
X4947757Y1610857D1*
X4940930Y1597463D1*
X4932097Y1585303D1*
X4921467Y1574673D1*
X4909307Y1565840D1*
X4895913Y1559013D1*
X4881620Y1554370D1*
X4866773Y1552020D1*
X4851740D1*
X4836893Y1554370D1*
X4822600Y1559013D1*
X4809207Y1565840D1*
X4797047Y1574673D1*
X4786417Y1585303D1*
X4777583Y1597463D1*
X4770757Y1610857D1*
X4766113Y1625150D1*
X4763763Y1639997D1*
Y1655030D1*
X4766113Y1669877D1*
X4770757Y1684170D1*
X4777583Y1697563D1*
X4786417Y1709723D1*
X4797047Y1720353D1*
X4804100Y1725777D1*
X4789170Y1736243D1*
X4778540Y1746873D1*
X4769707Y1759033D1*
X4762880Y1772427D1*
X4758237Y1786720D1*
X4755887Y1801567D1*
Y1816600D1*
X4758237Y1831447D1*
X4762880Y1845740D1*
X4769707Y1859133D1*
X4778540Y1871293D1*
X4789170Y1881923D1*
X4801330Y1890757D1*
X4814723Y1897583D1*
X4829017Y1902227D1*
X4843863Y1904577D1*
X4858897D1*
X4873743Y1902227D1*
X4888037Y1897583D1*
X4901430Y1890757D1*
X4913590Y1881923D1*
X4924220Y1871293D1*
X4933053Y1859133D1*
X4939880Y1845740D1*
X4944523Y1831447D1*
X4946873Y1816600D1*
Y1801567D1*
X5323393Y1576043D2*
X5321043Y1561197D1*
X5316400Y1546903D1*
X5309573Y1533510D1*
X5300740Y1521350D1*
X5290110Y1510720D1*
X5284367Y1506190D1*
X5287130Y1494057D1*
X5288310Y1479073D1*
X5287130Y1464090D1*
X5283623Y1449473D1*
X5277870Y1435587D1*
X5270017Y1422770D1*
X5260253Y1411340D1*
X5248823Y1401577D1*
X5236007Y1393723D1*
X5222120Y1387970D1*
X5207503Y1384463D1*
X5192520Y1383283D1*
X5177537Y1384463D1*
X5162920Y1387970D1*
X5149033Y1393723D1*
X5136217Y1401577D1*
X5124787Y1411340D1*
X5115023Y1422770D1*
X5107170Y1435587D1*
X5101417Y1449473D1*
X5097910Y1464090D1*
X5096730Y1479073D1*
X5097910Y1494057D1*
X5101417Y1508673D1*
X5107170Y1522560D1*
X5115023Y1535377D1*
X5124787Y1546807D1*
X5136053Y1556443D1*
X5133290Y1568577D1*
X5132110Y1583560D1*
X5133290Y1598543D1*
X5136797Y1613160D1*
X5142550Y1627047D1*
X5150403Y1639863D1*
X5160167Y1651293D1*
X5171597Y1661057D1*
X5184413Y1668910D1*
X5198300Y1674663D1*
X5212917Y1678170D1*
X5227900Y1679350D1*
X5242883Y1678170D1*
X5257500Y1674663D1*
X5271387Y1668910D1*
X5284203Y1661057D1*
X5295633Y1651293D1*
X5305397Y1639863D1*
X5313250Y1627047D1*
X5319003Y1613160D1*
X5322510Y1598543D1*
X5323690Y1583560D1*
X5323393Y1576043D1*
X2895953Y2632190D2*
X2893603Y2617343D1*
X2888960Y2603050D1*
X2882133Y2589657D1*
X2873300Y2577497D1*
X2870847Y2574843D1*
X2880607Y2561623D1*
X2887433Y2548230D1*
X2892077Y2533937D1*
X2894427Y2519090D1*
Y2504057D1*
X2892077Y2489210D1*
X2887433Y2474917D1*
X2880607Y2461523D1*
X2871773Y2449363D1*
X2861143Y2438733D1*
X2848983Y2429900D1*
X2835590Y2423073D1*
X2821297Y2418430D1*
X2806450Y2416080D1*
X2791417D1*
X2776570Y2418430D1*
X2762277Y2423073D1*
X2748883Y2429900D1*
X2736723Y2438733D1*
X2726093Y2449363D1*
X2717260Y2461523D1*
X2710433Y2474917D1*
X2705790Y2489210D1*
X2703440Y2504057D1*
Y2519090D1*
X2705790Y2533937D1*
X2710433Y2548230D1*
X2717260Y2561623D1*
X2726093Y2573783D1*
X2728547Y2576437D1*
X2718787Y2589657D1*
X2711960Y2603050D1*
X2707317Y2617343D1*
X2704967Y2632190D1*
Y2647223D1*
X2707317Y2662070D1*
X2711960Y2676363D1*
X2718787Y2689757D1*
X2727620Y2701917D1*
X2738250Y2712547D1*
X2750410Y2721380D1*
X2763803Y2728207D1*
X2778097Y2732850D1*
X2792943Y2735200D1*
X2807977D1*
X2822823Y2732850D1*
X2837117Y2728207D1*
X2850510Y2721380D1*
X2862670Y2712547D1*
X2873300Y2701917D1*
X2882133Y2689757D1*
X2888960Y2676363D1*
X2893603Y2662070D1*
X2895953Y2647223D1*
Y2632190D1*
X2470980Y2031527D2*
X2468630Y2016680D1*
X2463987Y2002387D1*
X2457160Y1988993D1*
X2448327Y1976833D1*
X2437697Y1966203D1*
X2425537Y1957370D1*
X2412143Y1950543D1*
X2397850Y1945900D1*
X2383003Y1943550D1*
X2367970D1*
X2353123Y1945900D1*
X2338830Y1950543D1*
X2325437Y1957370D1*
X2313277Y1966203D1*
X2302647Y1976833D1*
X2293813Y1988993D1*
X2286987Y2002387D1*
X2282343Y2016680D1*
X2279993Y2031527D1*
Y2046560D1*
X2282343Y2061407D1*
X2286987Y2075700D1*
X2293813Y2089093D1*
X2302647Y2101253D1*
X2313277Y2111883D1*
X2325437Y2120717D1*
X2338830Y2127543D1*
X2353123Y2132187D1*
X2367970Y2134537D1*
X2383003D1*
X2397850Y2132187D1*
X2412143Y2127543D1*
X2425537Y2120717D1*
X2437697Y2111883D1*
X2448327Y2101253D1*
X2457160Y2089093D1*
X2463987Y2075700D1*
X2468630Y2061407D1*
X2470980Y2046560D1*
Y2031527D1*
X1504847Y3125883D2*
X1502497Y3111037D1*
X1497853Y3096743D1*
X1491027Y3083350D1*
X1482193Y3071190D1*
X1471563Y3060560D1*
X1459403Y3051727D1*
X1446010Y3044900D1*
X1431717Y3040257D1*
X1416870Y3037907D1*
X1401837D1*
X1386990Y3040257D1*
X1372697Y3044900D1*
X1359303Y3051727D1*
X1347143Y3060560D1*
X1336513Y3071190D1*
X1327680Y3083350D1*
X1320853Y3096743D1*
X1316210Y3111037D1*
X1313860Y3125883D1*
Y3140917D1*
X1316210Y3155763D1*
X1320853Y3170057D1*
X1327680Y3183450D1*
X1336513Y3195610D1*
X1347143Y3206240D1*
X1359303Y3215073D1*
X1372697Y3221900D1*
X1386990Y3226543D1*
X1401837Y3228893D1*
X1416870D1*
X1431717Y3226543D1*
X1446010Y3221900D1*
X1459403Y3215073D1*
X1471563Y3206240D1*
X1482193Y3195610D1*
X1491027Y3183450D1*
X1497853Y3170057D1*
X1502497Y3155763D1*
X1504847Y3140917D1*
Y3125883D1*
X2406970Y3279410D2*
X2404620Y3264563D1*
X2399977Y3250270D1*
X2393150Y3236877D1*
X2384317Y3224717D1*
X2373687Y3214087D1*
X2361527Y3205253D1*
X2348133Y3198427D1*
X2333840Y3193783D1*
X2317377Y3191370D1*
X2330343Y3188140D1*
X2344230Y3182387D1*
X2357047Y3174533D1*
X2368477Y3164770D1*
X2378240Y3153340D1*
X2386093Y3140523D1*
X2391847Y3126637D1*
X2395353Y3112020D1*
X2396533Y3097037D1*
X2395353Y3082053D1*
X2391847Y3067437D1*
X2386093Y3053550D1*
X2378240Y3040733D1*
X2368477Y3029303D1*
X2357047Y3019540D1*
X2344230Y3011687D1*
X2330343Y3005933D1*
X2315727Y3002427D1*
X2300743Y3001247D1*
X2285760Y3002427D1*
X2271143Y3005933D1*
X2257257Y3011687D1*
X2244440Y3019540D1*
X2233010Y3029303D1*
X2223247Y3040733D1*
X2215393Y3053550D1*
X2209640Y3067437D1*
X2206133Y3082053D1*
X2204953Y3097037D1*
X2206133Y3112020D1*
X2209640Y3126637D1*
X2215393Y3140523D1*
X2223247Y3153340D1*
X2233010Y3164770D1*
X2244440Y3174533D1*
X2257257Y3182387D1*
X2271143Y3188140D1*
X2285760Y3191647D1*
X2294843Y3192593D1*
X2281877Y3195823D1*
X2267990Y3201577D1*
X2255173Y3209430D1*
X2243743Y3219193D1*
X2233980Y3230623D1*
X2226127Y3243440D1*
X2220373Y3257327D1*
X2216867Y3271943D1*
X2215687Y3286927D1*
X2216867Y3301910D1*
X2220373Y3316527D1*
X2226127Y3330413D1*
X2233980Y3343230D1*
X2243743Y3354660D1*
X2255173Y3364423D1*
X2267990Y3372277D1*
X2281877Y3378030D1*
X2296493Y3381537D1*
X2311477Y3382717D1*
X2326460Y3381537D1*
X2341077Y3378030D1*
X2354963Y3372277D1*
X2367780Y3364423D1*
X2379210Y3354660D1*
X2388973Y3343230D1*
X2396827Y3330413D1*
X2402580Y3316527D1*
X2406087Y3301910D1*
X2407267Y3286927D1*
X2406970Y3279410D1*
X1445293Y4417560D2*
X1442580Y4400437D1*
X1437223Y4383950D1*
X1429353Y4368507D1*
X1419167Y4354483D1*
X1406907Y4342223D1*
X1392883Y4332037D1*
X1387177Y4328840D1*
X1400007Y4322067D1*
X1414030Y4311880D1*
X1426290Y4299620D1*
X1436477Y4285597D1*
X1444347Y4270153D1*
X1449703Y4253667D1*
X1452417Y4236543D1*
Y4219210D1*
X1449703Y4202087D1*
X1444347Y4185600D1*
X1436477Y4170157D1*
X1426290Y4156133D1*
X1414030Y4143873D1*
X1400007Y4133687D1*
X1384563Y4125817D1*
X1368077Y4120460D1*
X1350953Y4117747D1*
X1333620D1*
X1316497Y4120460D1*
X1300010Y4125817D1*
X1284567Y4133687D1*
X1270543Y4143873D1*
X1258283Y4156133D1*
X1248097Y4170157D1*
X1240227Y4185600D1*
X1234870Y4202087D1*
X1232157Y4219210D1*
Y4236543D1*
X1234870Y4253667D1*
X1240227Y4270153D1*
X1248097Y4285597D1*
X1258283Y4299620D1*
X1270543Y4311880D1*
X1284567Y4322067D1*
X1290273Y4325263D1*
X1277443Y4332037D1*
X1263420Y4342223D1*
X1251160Y4354483D1*
X1240973Y4368507D1*
X1233103Y4383950D1*
X1227747Y4400437D1*
X1225033Y4417560D1*
Y4434893D1*
X1227747Y4452017D1*
X1233103Y4468503D1*
X1240973Y4483947D1*
X1251160Y4497970D1*
X1263420Y4510230D1*
X1277443Y4520417D1*
X1292887Y4528287D1*
X1309373Y4533643D1*
X1326497Y4536357D1*
X1343830D1*
X1360953Y4533643D1*
X1377440Y4528287D1*
X1392883Y4520417D1*
X1406907Y4510230D1*
X1419167Y4497970D1*
X1429353Y4483947D1*
X1437223Y4468503D1*
X1442580Y4452017D1*
X1445293Y4434893D1*
Y4417560D1*
X1824433Y1865687D2*
X1821863Y1842500D1*
X1817600Y1819567D1*
X1811660Y1797007D1*
X1804080Y1774943D1*
X1794900Y1753500D1*
X1784170Y1732787D1*
X1771947Y1712917D1*
X1758297Y1694000D1*
X1743290Y1676137D1*
X1727017Y1659423D1*
X1709557Y1643953D1*
X1691007Y1629807D1*
X1671470Y1617060D1*
X1651047Y1605787D1*
X1629850Y1596040D1*
X1607997Y1587880D1*
X1585603Y1581347D1*
X1562790Y1576477D1*
X1539680Y1573297D1*
X1516397Y1571820D1*
X1493070Y1572060D1*
X1469823Y1574017D1*
X1446783Y1577670D1*
X1424077Y1583010D1*
X1401820Y1590003D1*
X1380140Y1598613D1*
X1359150Y1608793D1*
X1338963Y1620487D1*
X1319693Y1633633D1*
X1301437Y1648157D1*
X1284300Y1663987D1*
X1268373Y1681030D1*
X1253740Y1699197D1*
X1240483Y1718393D1*
X1228670Y1738510D1*
X1218367Y1759440D1*
X1209630Y1781070D1*
X1202507Y1803283D1*
X1197037Y1825960D1*
X1193243Y1848977D1*
X1191153Y1872213D1*
X1190777Y1895537D1*
X1192117Y1918827D1*
X1195160Y1941957D1*
X1199897Y1964797D1*
X1206300Y1987230D1*
X1214330Y2009130D1*
X1223950Y2030383D1*
X1235107Y2050870D1*
X1247737Y2070483D1*
X1261777Y2089117D1*
X1277143Y2106667D1*
X1293760Y2123040D1*
X1311537Y2138147D1*
X1330373Y2151910D1*
X1350170Y2164250D1*
X1370820Y2175103D1*
X1392210Y2184407D1*
X1414227Y2192117D1*
X1436753Y2198187D1*
X1459663Y2202587D1*
X1482833Y2205290D1*
X1506140Y2206283D1*
X1529457Y2205563D1*
X1552657Y2203130D1*
X1575617Y2199000D1*
X1598210Y2193197D1*
X1620317Y2185747D1*
X1641817Y2176690D1*
X1662593Y2166080D1*
X1682533Y2153973D1*
X1701530Y2140433D1*
X1719480Y2125537D1*
X1736287Y2109357D1*
X1751860Y2091990D1*
X1766117Y2073523D1*
X1778977Y2054060D1*
X1790370Y2033703D1*
X1800240Y2012567D1*
X1808530Y1990760D1*
X1815193Y1968407D1*
X1820197Y1945620D1*
X1823513Y1922530D1*
X1825290Y1889000D1*
X1824433Y1865687D1*
X10396433Y1484687D2*
X10393863Y1461500D1*
X10389600Y1438567D1*
X10383660Y1416007D1*
X10376080Y1393943D1*
X10366900Y1372500D1*
X10356170Y1351787D1*
X10343947Y1331917D1*
X10330297Y1313000D1*
X10315290Y1295137D1*
X10299017Y1278423D1*
X10281557Y1262953D1*
X10263007Y1248807D1*
X10243470Y1236060D1*
X10223047Y1224787D1*
X10201850Y1215040D1*
X10179997Y1206880D1*
X10157603Y1200347D1*
X10134790Y1195477D1*
X10111680Y1192297D1*
X10088397Y1190820D1*
X10065070Y1191060D1*
X10041823Y1193017D1*
X10018783Y1196670D1*
X9996077Y1202010D1*
X9973820Y1209003D1*
X9952140Y1217613D1*
X9931150Y1227793D1*
X9910963Y1239487D1*
X9891693Y1252633D1*
X9873437Y1267157D1*
X9856300Y1282987D1*
X9840373Y1300030D1*
X9825740Y1318197D1*
X9812483Y1337393D1*
X9800670Y1357510D1*
X9790367Y1378440D1*
X9781630Y1400070D1*
X9774507Y1422283D1*
X9769037Y1444960D1*
X9765243Y1467977D1*
X9763153Y1491213D1*
X9762777Y1514537D1*
X9764117Y1537827D1*
X9767160Y1560957D1*
X9771897Y1583797D1*
X9778300Y1606230D1*
X9786330Y1628130D1*
X9795950Y1649383D1*
X9807107Y1669870D1*
X9819737Y1689483D1*
X9833777Y1708117D1*
X9849143Y1725667D1*
X9865760Y1742040D1*
X9883537Y1757147D1*
X9902373Y1770910D1*
X9922170Y1783250D1*
X9942820Y1794103D1*
X9964210Y1803407D1*
X9986227Y1811117D1*
X10008753Y1817187D1*
X10031663Y1821587D1*
X10054833Y1824290D1*
X10078140Y1825283D1*
X10101457Y1824563D1*
X10124657Y1822130D1*
X10147617Y1818000D1*
X10170210Y1812197D1*
X10192317Y1804747D1*
X10213817Y1795690D1*
X10234593Y1785080D1*
X10254533Y1772973D1*
X10273530Y1759433D1*
X10291480Y1744537D1*
X10308287Y1728357D1*
X10323860Y1710990D1*
X10338117Y1692523D1*
X10350977Y1673060D1*
X10362370Y1652703D1*
X10372240Y1631567D1*
X10380530Y1609760D1*
X10387193Y1587407D1*
X10392197Y1564620D1*
X10395513Y1541530D1*
X10397290Y1508000D1*
X10396433Y1484687D1*
X7674160Y1810847D2*
X7671810Y1796000D1*
X7667167Y1781707D1*
X7660340Y1768313D1*
X7651507Y1756153D1*
X7640877Y1745523D1*
X7628717Y1736690D1*
X7615323Y1729863D1*
X7601030Y1725220D1*
X7586183Y1722870D1*
X7571150D1*
X7556303Y1725220D1*
X7542010Y1729863D1*
X7528617Y1736690D1*
X7516457Y1745523D1*
X7505827Y1756153D1*
X7496993Y1768313D1*
X7490167Y1781707D1*
X7485523Y1796000D1*
X7483173Y1810847D1*
Y1825880D1*
X7485523Y1840727D1*
X7490167Y1855020D1*
X7496993Y1868413D1*
X7505827Y1880573D1*
X7516457Y1891203D1*
X7528617Y1900037D1*
X7542010Y1906863D1*
X7556303Y1911507D1*
X7571150Y1913857D1*
X7586183D1*
X7601030Y1911507D1*
X7615323Y1906863D1*
X7628717Y1900037D1*
X7640877Y1891203D1*
X7651507Y1880573D1*
X7660340Y1868413D1*
X7667167Y1855020D1*
X7671810Y1840727D1*
X7674160Y1825880D1*
Y1810847D1*
X4728890Y2888757D2*
X4726540Y2873910D1*
X4721897Y2859617D1*
X4715070Y2846223D1*
X4706237Y2834063D1*
X4695607Y2823433D1*
X4683447Y2814600D1*
X4670053Y2807773D1*
X4655760Y2803130D1*
X4640913Y2800780D1*
X4625880D1*
X4611033Y2803130D1*
X4596740Y2807773D1*
X4583347Y2814600D1*
X4571187Y2823433D1*
X4560557Y2834063D1*
X4551723Y2846223D1*
X4544897Y2859617D1*
X4540253Y2873910D1*
X4537903Y2888757D1*
Y2903790D1*
X4540253Y2918637D1*
X4544897Y2932930D1*
X4551723Y2946323D1*
X4560557Y2958483D1*
X4571187Y2969113D1*
X4583347Y2977947D1*
X4596740Y2984773D1*
X4611033Y2989417D1*
X4625880Y2991767D1*
X4640913D1*
X4655760Y2989417D1*
X4670053Y2984773D1*
X4683447Y2977947D1*
X4695607Y2969113D1*
X4706237Y2958483D1*
X4715070Y2946323D1*
X4721897Y2932930D1*
X4726540Y2918637D1*
X4728890Y2903790D1*
Y2888757D1*
X6828080D2*
X6825730Y2873910D1*
X6821087Y2859617D1*
X6814260Y2846223D1*
X6805427Y2834063D1*
X6794797Y2823433D1*
X6782637Y2814600D1*
X6769243Y2807773D1*
X6754950Y2803130D1*
X6740103Y2800780D1*
X6725070D1*
X6710223Y2803130D1*
X6695930Y2807773D1*
X6682537Y2814600D1*
X6670377Y2823433D1*
X6659747Y2834063D1*
X6650913Y2846223D1*
X6644087Y2859617D1*
X6639443Y2873910D1*
X6637093Y2888757D1*
Y2903790D1*
X6639443Y2918637D1*
X6644087Y2932930D1*
X6650913Y2946323D1*
X6659747Y2958483D1*
X6670377Y2969113D1*
X6682537Y2977947D1*
X6695930Y2984773D1*
X6710223Y2989417D1*
X6725070Y2991767D1*
X6740103D1*
X6754950Y2989417D1*
X6769243Y2984773D1*
X6782637Y2977947D1*
X6794797Y2969113D1*
X6805427Y2958483D1*
X6814260Y2946323D1*
X6821087Y2932930D1*
X6825730Y2918637D1*
X6828080Y2903790D1*
Y2888757D1*
X7992490Y2306857D2*
X7990140Y2292010D1*
X7985497Y2277717D1*
X7978670Y2264323D1*
X7969837Y2252163D1*
X7959207Y2241533D1*
X7947047Y2232700D1*
X7933653Y2225873D1*
X7919360Y2221230D1*
X7904513Y2218880D1*
X7889480D1*
X7874633Y2221230D1*
X7860340Y2225873D1*
X7846947Y2232700D1*
X7834787Y2241533D1*
X7824157Y2252163D1*
X7815323Y2264323D1*
X7808497Y2277717D1*
X7803853Y2292010D1*
X7801503Y2306857D1*
Y2321890D1*
X7803853Y2336737D1*
X7808497Y2351030D1*
X7815323Y2364423D1*
X7824157Y2376583D1*
X7830277Y2383043D1*
X7820900Y2397887D1*
X7815147Y2411773D1*
X7811640Y2426390D1*
X7810460Y2441373D1*
X7811640Y2456357D1*
X7815747Y2472600D1*
X7801687Y2473763D1*
X7787070Y2477270D1*
X7773183Y2483023D1*
X7760367Y2490877D1*
X7748937Y2500640D1*
X7739173Y2512070D1*
X7731320Y2524887D1*
X7725567Y2538773D1*
X7722060Y2553390D1*
X7720880Y2568373D1*
X7722060Y2583357D1*
X7725567Y2597973D1*
X7731320Y2611860D1*
X7739173Y2624677D1*
X7748937Y2636107D1*
X7760367Y2645870D1*
X7773183Y2653723D1*
X7787070Y2659477D1*
X7793263Y2661220D1*
X7782890Y2668917D1*
X7772260Y2679547D1*
X7763427Y2691707D1*
X7756600Y2705100D1*
X7751957Y2719393D1*
X7749607Y2734240D1*
Y2749273D1*
X7751957Y2764120D1*
X7756600Y2778413D1*
X7763427Y2791807D1*
X7772260Y2803967D1*
X7782890Y2814597D1*
X7795050Y2823430D1*
X7808443Y2830257D1*
X7822737Y2834900D1*
X7837583Y2837250D1*
X7852617D1*
X7867463Y2834900D1*
X7881757Y2830257D1*
X7895150Y2823430D1*
X7907310Y2814597D1*
X7917940Y2803967D1*
X7926773Y2791807D1*
X7933600Y2778413D1*
X7938243Y2764120D1*
X7940593Y2749273D1*
Y2734240D1*
X7938243Y2719393D1*
X7933600Y2705100D1*
X7926773Y2691707D1*
X7917940Y2679547D1*
X7907310Y2668917D1*
X7895150Y2660083D1*
X7881757Y2653257D1*
X7868507Y2648910D1*
X7878880Y2641213D1*
X7889510Y2630583D1*
X7898343Y2618423D1*
X7905170Y2605030D1*
X7909813Y2590737D1*
X7912163Y2575890D1*
Y2560857D1*
X7909813Y2546010D1*
X7907173Y2537147D1*
X7921233Y2535983D1*
X7935850Y2532477D1*
X7949737Y2526723D1*
X7962553Y2518870D1*
X7973983Y2509107D1*
X7983747Y2497677D1*
X7991600Y2484860D1*
X7997353Y2470973D1*
X8000860Y2456357D1*
X8002040Y2441373D1*
X8000860Y2426390D1*
X7997353Y2411773D1*
X7991600Y2397887D1*
X7983747Y2385070D1*
X7972970Y2372703D1*
X7982347Y2357860D1*
X7988100Y2343973D1*
X7991607Y2329357D1*
X7992787Y2314373D1*
X7992490Y2306857D1*
X10243253Y4279667D2*
X10240533Y4262497D1*
X10235160Y4245963D1*
X10227267Y4230473D1*
X10217050Y4216407D1*
X10204757Y4204113D1*
X10190690Y4193897D1*
X10175200Y4186003D1*
X10158667Y4180630D1*
X10141497Y4177910D1*
X10124110D1*
X10106940Y4180630D1*
X10090407Y4186003D1*
X10074917Y4193897D1*
X10060850Y4204113D1*
X10048557Y4216407D1*
X10038340Y4230473D1*
X10030447Y4245963D1*
X10025073Y4262497D1*
X10022353Y4279667D1*
Y4297053D1*
X10025073Y4314223D1*
X10030447Y4330757D1*
X10038340Y4346247D1*
X10048557Y4360313D1*
X10060850Y4372607D1*
X10074917Y4382823D1*
X10090407Y4390717D1*
X10106940Y4396090D1*
X10124110Y4398810D1*
X10141497D1*
X10158667Y4396090D1*
X10175200Y4390717D1*
X10190690Y4382823D1*
X10204757Y4372607D1*
X10217050Y4360313D1*
X10227267Y4346247D1*
X10235160Y4330757D1*
X10240533Y4314223D1*
X10243253Y4297053D1*
Y4279667D1*
X9580727Y2084027D2*
X9578377Y2069180D1*
X9573733Y2054887D1*
X9566907Y2041493D1*
X9558073Y2029333D1*
X9547443Y2018703D1*
X9535283Y2009870D1*
X9521890Y2003043D1*
X9507597Y1998400D1*
X9492750Y1996050D1*
X9477717D1*
X9462870Y1998400D1*
X9448577Y2003043D1*
X9435183Y2009870D1*
X9423023Y2018703D1*
X9412393Y2029333D1*
X9403560Y2041493D1*
X9396733Y2054887D1*
X9392090Y2069180D1*
X9389740Y2084027D1*
Y2099060D1*
X9392090Y2113907D1*
X9396733Y2128200D1*
X9403560Y2141593D1*
X9412393Y2153753D1*
X9423023Y2164383D1*
X9435183Y2173217D1*
X9448577Y2180043D1*
X9462870Y2184687D1*
X9477717Y2187037D1*
X9492750D1*
X9507597Y2184687D1*
X9521890Y2180043D1*
X9535283Y2173217D1*
X9547443Y2164383D1*
X9558073Y2153753D1*
X9566907Y2141593D1*
X9573733Y2128200D1*
X9578377Y2113907D1*
X9580727Y2099060D1*
Y2084027D1*
X10258950Y3589987D2*
X10256600Y3575140D1*
X10251957Y3560847D1*
X10245130Y3547453D1*
X10236297Y3535293D1*
X10225667Y3524663D1*
X10213507Y3515830D1*
X10200113Y3509003D1*
X10185820Y3504360D1*
X10170973Y3502010D1*
X10155940D1*
X10141093Y3504360D1*
X10126800Y3509003D1*
X10113407Y3515830D1*
X10101247Y3524663D1*
X10090617Y3535293D1*
X10081783Y3547453D1*
X10074957Y3560847D1*
X10070313Y3575140D1*
X10067963Y3589987D1*
Y3605020D1*
X10070313Y3619867D1*
X10074957Y3634160D1*
X10081783Y3647553D1*
X10090617Y3659713D1*
X10101247Y3670343D1*
X10113407Y3679177D1*
X10126800Y3686003D1*
X10141093Y3690647D1*
X10155940Y3692997D1*
X10170973D1*
X10185820Y3690647D1*
X10200113Y3686003D1*
X10213507Y3679177D1*
X10225667Y3670343D1*
X10236297Y3659713D1*
X10245130Y3647553D1*
X10251957Y3634160D1*
X10256600Y3619867D1*
X10258950Y3605020D1*
Y3589987D1*
X9912807Y5184080D2*
X9910457Y5169233D1*
X9905813Y5154940D1*
X9898987Y5141547D1*
X9890153Y5129387D1*
X9879523Y5118757D1*
X9867363Y5109923D1*
X9854477Y5103333D1*
X9867060Y5099123D1*
X9880453Y5092297D1*
X9892613Y5083463D1*
X9903243Y5072833D1*
X9912077Y5060673D1*
X9918903Y5047280D1*
X9923547Y5032987D1*
X9925897Y5018140D1*
Y5003107D1*
X9923547Y4988260D1*
X9918903Y4973967D1*
X9912077Y4960573D1*
X9903243Y4948413D1*
X9892613Y4937783D1*
X9880453Y4928950D1*
X9867060Y4922123D1*
X9852767Y4917480D1*
X9837920Y4915130D1*
X9822887D1*
X9808040Y4917480D1*
X9793747Y4922123D1*
X9780353Y4928950D1*
X9768193Y4937783D1*
X9757563Y4948413D1*
X9748730Y4960573D1*
X9741903Y4973967D1*
X9737260Y4988260D1*
X9734910Y5003107D1*
Y5018140D1*
X9737260Y5032987D1*
X9741903Y5047280D1*
X9748730Y5060673D1*
X9757563Y5072833D1*
X9768193Y5083463D1*
X9780353Y5092297D1*
X9793240Y5098887D1*
X9780657Y5103097D1*
X9767263Y5109923D1*
X9755103Y5118757D1*
X9744473Y5129387D1*
X9735640Y5141547D1*
X9728813Y5154940D1*
X9724170Y5169233D1*
X9721820Y5184080D1*
Y5199113D1*
X9724170Y5213960D1*
X9728813Y5228253D1*
X9735640Y5241647D1*
X9744473Y5253807D1*
X9755103Y5264437D1*
X9767263Y5273270D1*
X9780657Y5280097D1*
X9794950Y5284740D1*
X9809797Y5287090D1*
X9824830D1*
X9839677Y5284740D1*
X9853970Y5280097D1*
X9867363Y5273270D1*
X9879523Y5264437D1*
X9890153Y5253807D1*
X9898987Y5241647D1*
X9905813Y5228253D1*
X9910457Y5213960D1*
X9912807Y5199113D1*
Y5184080D1*
X7626593Y3644360D2*
X7623873Y3627190D1*
X7618500Y3610657D1*
X7610607Y3595167D1*
X7600390Y3581100D1*
X7588097Y3568807D1*
X7574030Y3558590D1*
X7558540Y3550697D1*
X7542007Y3545323D1*
X7524837Y3542603D1*
X7507450D1*
X7490280Y3545323D1*
X7473747Y3550697D1*
X7458257Y3558590D1*
X7444190Y3568807D1*
X7431897Y3581100D1*
X7421680Y3595167D1*
X7413787Y3610657D1*
X7408413Y3627190D1*
X7405693Y3644360D1*
Y3661747D1*
X7408413Y3678917D1*
X7413787Y3695450D1*
X7421680Y3710940D1*
X7431897Y3725007D1*
X7444190Y3737300D1*
X7458257Y3747517D1*
X7473747Y3755410D1*
X7490280Y3760783D1*
X7507450Y3763503D1*
X7524837D1*
X7542007Y3760783D1*
X7558540Y3755410D1*
X7574030Y3747517D1*
X7588097Y3737300D1*
X7600390Y3725007D1*
X7610607Y3710940D1*
X7618500Y3695450D1*
X7623873Y3678917D1*
X7626593Y3661747D1*
Y3644360D1*
X9296513Y4098743D2*
X9293793Y4081573D1*
X9288420Y4065040D1*
X9280527Y4049550D1*
X9270310Y4035483D1*
X9258017Y4023190D1*
X9243950Y4012973D1*
X9228460Y4005080D1*
X9211927Y3999707D1*
X9194757Y3996987D1*
X9177370D1*
X9160200Y3999707D1*
X9143667Y4005080D1*
X9128177Y4012973D1*
X9114110Y4023190D1*
X9101817Y4035483D1*
X9091600Y4049550D1*
X9083707Y4065040D1*
X9078333Y4081573D1*
X9075613Y4098743D1*
Y4116130D1*
X9078333Y4133300D1*
X9083707Y4149833D1*
X9091600Y4165323D1*
X9101817Y4179390D1*
X9114110Y4191683D1*
X9128177Y4201900D1*
X9143667Y4209793D1*
X9160200Y4215167D1*
X9177370Y4217887D1*
X9194757D1*
X9211927Y4215167D1*
X9228460Y4209793D1*
X9243950Y4201900D1*
X9258017Y4191683D1*
X9270310Y4179390D1*
X9280527Y4165323D1*
X9288420Y4149833D1*
X9293793Y4133300D1*
X9296513Y4116130D1*
Y4098743D1*
X7588890Y4200073D2*
X7586540Y4185227D1*
X7581897Y4170933D1*
X7575070Y4157540D1*
X7566237Y4145380D1*
X7555607Y4134750D1*
X7543447Y4125917D1*
X7530053Y4119090D1*
X7515760Y4114447D1*
X7500913Y4112097D1*
X7485880D1*
X7471033Y4114447D1*
X7456740Y4119090D1*
X7443347Y4125917D1*
X7431187Y4134750D1*
X7420557Y4145380D1*
X7411723Y4157540D1*
X7404897Y4170933D1*
X7400253Y4185227D1*
X7397903Y4200073D1*
Y4215107D1*
X7400253Y4229953D1*
X7404897Y4244247D1*
X7411723Y4257640D1*
X7420557Y4269800D1*
X7431187Y4280430D1*
X7443347Y4289263D1*
X7456740Y4296090D1*
X7471033Y4300733D1*
X7485880Y4303083D1*
X7500913D1*
X7515760Y4300733D1*
X7530053Y4296090D1*
X7543447Y4289263D1*
X7555607Y4280430D1*
X7566237Y4269800D1*
X7575070Y4257640D1*
X7581897Y4244247D1*
X7586540Y4229953D1*
X7588890Y4215107D1*
Y4200073D1*
X8654863Y3426533D2*
X8668587Y3423203D1*
X8682473Y3417450D1*
X8695290Y3409597D1*
X8706720Y3399833D1*
X8716483Y3388403D1*
X8724337Y3375587D1*
X8730090Y3361700D1*
X8733597Y3347083D1*
X8734777Y3332100D1*
X8733597Y3317117D1*
X8730090Y3302500D1*
X8724337Y3288613D1*
X8716483Y3275797D1*
X8706720Y3264367D1*
X8695290Y3254603D1*
X8682473Y3246750D1*
X8668587Y3240997D1*
X8653970Y3237490D1*
X8638987Y3236310D1*
X8624003Y3237490D1*
X8609387Y3240997D1*
X8595500Y3246750D1*
X8582683Y3254603D1*
X8571253Y3264367D1*
X8561490Y3275797D1*
X8553637Y3288613D1*
X8547883Y3302500D1*
X8544377Y3317117D1*
X8543197Y3332100D1*
X8544377Y3347083D1*
X8547883Y3361700D1*
X8553637Y3375587D1*
X8561490Y3388403D1*
X8571253Y3399833D1*
X8579523Y3407103D1*
X7055213Y4296677D2*
X7052863Y4281830D1*
X7048220Y4267537D1*
X7041393Y4254143D1*
X7032560Y4241983D1*
X7021930Y4231353D1*
X7009770Y4222520D1*
X6996377Y4215693D1*
X6982083Y4211050D1*
X6967237Y4208700D1*
X6952203D1*
X6937357Y4211050D1*
X6923063Y4215693D1*
X6909670Y4222520D1*
X6897510Y4231353D1*
X6886880Y4241983D1*
X6878047Y4254143D1*
X6871220Y4267537D1*
X6866577Y4281830D1*
X6864227Y4296677D1*
Y4311710D1*
X6866577Y4326557D1*
X6871220Y4340850D1*
X6878047Y4354243D1*
X6886880Y4366403D1*
X6897510Y4377033D1*
X6909670Y4385867D1*
X6923063Y4392693D1*
X6937357Y4397337D1*
X6952203Y4399687D1*
X6967237D1*
X6982083Y4397337D1*
X6996377Y4392693D1*
X7009770Y4385867D1*
X7021930Y4377033D1*
X7032560Y4366403D1*
X7041393Y4354243D1*
X7048220Y4340850D1*
X7052863Y4326557D1*
X7055213Y4311710D1*
Y4296677D1*
X8344993Y4297497D2*
X8355083Y4283977D1*
X8361910Y4270583D1*
X8366553Y4256290D1*
X8368903Y4241443D1*
Y4226410D1*
X8366553Y4211563D1*
X8361910Y4197270D1*
X8355083Y4183877D1*
X8346250Y4171717D1*
X8335620Y4161087D1*
X8323460Y4152253D1*
X8310067Y4145427D1*
X8295773Y4140783D1*
X8280927Y4138433D1*
X8265893D1*
X8251047Y4140783D1*
X8236753Y4145427D1*
X8223360Y4152253D1*
X8211200Y4161087D1*
X8200570Y4171717D1*
X8191737Y4183877D1*
X8184910Y4197270D1*
X8180267Y4211563D1*
X8177917Y4226410D1*
Y4241443D1*
X8180267Y4256290D1*
X8184910Y4270583D1*
X8191737Y4283977D1*
X8200630Y4296203D1*
X6885100Y5116057D2*
X6882413Y5105563D1*
X6876660Y5091677D1*
X6868807Y5078860D1*
X6859043Y5067430D1*
X6847613Y5057667D1*
X6834797Y5049813D1*
X6820910Y5044060D1*
X6806293Y5040553D1*
X6791310Y5039373D1*
X6776327Y5040553D1*
X6761710Y5044060D1*
X6747823Y5049813D1*
X6735007Y5057667D1*
X6723577Y5067430D1*
X6713813Y5078860D1*
X6705960Y5091677D1*
X6700207Y5105563D1*
X6696700Y5120180D1*
X6695520Y5135163D1*
X6696700Y5150147D1*
X6700207Y5164763D1*
X6705960Y5178650D1*
X6713813Y5191467D1*
X6723577Y5202897D1*
X6735007Y5212660D1*
X6747823Y5220513D1*
X6761710Y5226267D1*
X6776327Y5229773D1*
X6792630Y5230900D1*
X6797983Y5248490D1*
X6804810Y5261883D1*
X6813643Y5274043D1*
X6824273Y5284673D1*
X6836433Y5293507D1*
X6849827Y5300333D1*
X6864120Y5304977D1*
X6878967Y5307327D1*
X6894000D1*
X6908847Y5304977D1*
X6923140Y5300333D1*
X6936533Y5293507D1*
X6942273Y5289673D1*
X6934780Y5301993D1*
X6929027Y5315880D1*
X6925520Y5330497D1*
X6924340Y5345480D1*
X6925520Y5360463D1*
X6929027Y5375080D1*
X6934780Y5388967D1*
X6942633Y5401783D1*
X6952397Y5413213D1*
X6963827Y5422977D1*
X6976643Y5430830D1*
X6990530Y5436583D1*
X7005147Y5440090D1*
X7020130Y5441270D1*
X7035113Y5440090D1*
X7049730Y5436583D1*
X7063617Y5430830D1*
X7076433Y5422977D1*
X7087863Y5413213D1*
X7097627Y5401783D1*
X7105480Y5388967D1*
X7111233Y5375080D1*
X7114740Y5360463D1*
X7115920Y5345480D1*
X7114740Y5330497D1*
X7111233Y5315880D1*
X7105480Y5301993D1*
X7097627Y5289177D1*
X7087863Y5277747D1*
X7076433Y5267983D1*
X7063617Y5260130D1*
X7049730Y5254377D1*
X7035113Y5250870D1*
X7020130Y5249690D1*
X7005147Y5250870D1*
X6990530Y5254377D1*
X6976643Y5260130D1*
X6964340Y5267640D1*
X6971833Y5255320D1*
X6977587Y5241433D1*
X6981093Y5226817D1*
X6982273Y5211833D1*
X6981093Y5196850D1*
X6977587Y5182233D1*
X6971833Y5168347D1*
X6963980Y5155530D1*
X6954217Y5144100D1*
X6942787Y5134337D1*
X6929970Y5126483D1*
X6916083Y5120730D1*
X6901467Y5117223D1*
X6885163Y5116097D1*
X9069100Y1798153D2*
X9066750Y1783307D1*
X9062107Y1769013D1*
X9055280Y1755620D1*
X9046447Y1743460D1*
X9035817Y1732830D1*
X9023657Y1723997D1*
X9010263Y1717170D1*
X8995970Y1712527D1*
X8981123Y1710177D1*
X8966090D1*
X8951243Y1712527D1*
X8936950Y1717170D1*
X8923557Y1723997D1*
X8911397Y1732830D1*
X8900767Y1743460D1*
X8891933Y1755620D1*
X8885107Y1769013D1*
X8880463Y1783307D1*
X8878113Y1798153D1*
Y1813187D1*
X8880463Y1828033D1*
X8885107Y1842327D1*
X8891933Y1855720D1*
X8900767Y1867880D1*
X8911397Y1878510D1*
X8923557Y1887343D1*
X8936950Y1894170D1*
X8951243Y1898813D1*
X8966090Y1901163D1*
X8981123D1*
X8995970Y1898813D1*
X9010263Y1894170D1*
X9023657Y1887343D1*
X9035817Y1878510D1*
X9046447Y1867880D1*
X9055280Y1855720D1*
X9062107Y1842327D1*
X9066750Y1828033D1*
X9069100Y1813187D1*
Y1798153D1*
X10038530Y2767583D2*
X10036180Y2752737D1*
X10031537Y2738443D1*
X10024710Y2725050D1*
X10015877Y2712890D1*
X10005247Y2702260D1*
X9993087Y2693427D1*
X9979693Y2686600D1*
X9965400Y2681957D1*
X9950553Y2679607D1*
X9935520D1*
X9920673Y2681957D1*
X9906380Y2686600D1*
X9892987Y2693427D1*
X9880827Y2702260D1*
X9870197Y2712890D1*
X9861363Y2725050D1*
X9854537Y2738443D1*
X9849893Y2752737D1*
X9847543Y2767583D1*
Y2782617D1*
X9849893Y2797463D1*
X9854537Y2811757D1*
X9861363Y2825150D1*
X9870197Y2837310D1*
X9880827Y2847940D1*
X9892987Y2856773D1*
X9906380Y2863600D1*
X9920673Y2868243D1*
X9935520Y2870593D1*
X9950553D1*
X9965400Y2868243D1*
X9979693Y2863600D1*
X9993087Y2856773D1*
X10005247Y2847940D1*
X10015877Y2837310D1*
X10024710Y2825150D1*
X10031537Y2811757D1*
X10036180Y2797463D1*
X10038530Y2782617D1*
Y2767583D1*
X8054707Y1814857D2*
X8052357Y1800010D1*
X8047713Y1785717D1*
X8040887Y1772323D1*
X8032053Y1760163D1*
X8021423Y1749533D1*
X8009263Y1740700D1*
X7995870Y1733873D1*
X7981577Y1729230D1*
X7966730Y1726880D1*
X7951697D1*
X7936850Y1729230D1*
X7922557Y1733873D1*
X7909163Y1740700D1*
X7897003Y1749533D1*
X7886373Y1760163D1*
X7877540Y1772323D1*
X7870713Y1785717D1*
X7866070Y1800010D1*
X7863720Y1814857D1*
Y1829890D1*
X7866070Y1844737D1*
X7870713Y1859030D1*
X7877540Y1872423D1*
X7886373Y1884583D1*
X7897003Y1895213D1*
X7909163Y1904047D1*
X7922557Y1910873D1*
X7936850Y1915517D1*
X7951697Y1917867D1*
X7966730D1*
X7981577Y1915517D1*
X7995870Y1910873D1*
X8009263Y1904047D1*
X8021423Y1895213D1*
X8032053Y1884583D1*
X8040887Y1872423D1*
X8047713Y1859030D1*
X8052357Y1844737D1*
X8054707Y1829890D1*
Y1814857D1*
X9069100Y1798153D2*
X9066750Y1783307D1*
X9062107Y1769013D1*
X9055280Y1755620D1*
X9046447Y1743460D1*
X9035817Y1732830D1*
X9023657Y1723997D1*
X9010263Y1717170D1*
X8995970Y1712527D1*
X8981123Y1710177D1*
X8966090D1*
X8951243Y1712527D1*
X8936950Y1717170D1*
X8923557Y1723997D1*
X8911397Y1732830D1*
X8900767Y1743460D1*
X8891933Y1755620D1*
X8885107Y1769013D1*
X8880463Y1783307D1*
X8878113Y1798153D1*
Y1813187D1*
X8880463Y1828033D1*
X8885107Y1842327D1*
X8891933Y1855720D1*
X8900767Y1867880D1*
X8911397Y1878510D1*
X8923557Y1887343D1*
X8936950Y1894170D1*
X8951243Y1898813D1*
X8966090Y1901163D1*
X8981123D1*
X8995970Y1898813D1*
X9010263Y1894170D1*
X9023657Y1887343D1*
X9035817Y1878510D1*
X9046447Y1867880D1*
X9055280Y1855720D1*
X9062107Y1842327D1*
X9066750Y1828033D1*
X9069100Y1813187D1*
Y1798153D1*
X4493890Y3239757D2*
X4491540Y3224910D1*
X4486897Y3210617D1*
X4480070Y3197223D1*
X4471237Y3185063D1*
X4460607Y3174433D1*
X4448447Y3165600D1*
X4435053Y3158773D1*
X4420760Y3154130D1*
X4405913Y3151780D1*
X4390880D1*
X4376033Y3154130D1*
X4361740Y3158773D1*
X4348347Y3165600D1*
X4336187Y3174433D1*
X4325557Y3185063D1*
X4316723Y3197223D1*
X4309897Y3210617D1*
X4305253Y3224910D1*
X4302903Y3239757D1*
Y3254790D1*
X4305253Y3269637D1*
X4309897Y3283930D1*
X4316723Y3297323D1*
X4325557Y3309483D1*
X4336187Y3320113D1*
X4348347Y3328947D1*
X4361740Y3335773D1*
X4376033Y3340417D1*
X4390880Y3342767D1*
X4405913D1*
X4420760Y3340417D1*
X4435053Y3335773D1*
X4448447Y3328947D1*
X4460607Y3320113D1*
X4471237Y3309483D1*
X4480070Y3297323D1*
X4486897Y3283930D1*
X4491540Y3269637D1*
X4493890Y3254790D1*
Y3239757D1*
X7069863Y2520283D2*
X7067513Y2505437D1*
X7062870Y2491143D1*
X7056043Y2477750D1*
X7047210Y2465590D1*
X7036580Y2454960D1*
X7024420Y2446127D1*
X7011027Y2439300D1*
X6996733Y2434657D1*
X6981887Y2432307D1*
X6966853D1*
X6952007Y2434657D1*
X6937713Y2439300D1*
X6924320Y2446127D1*
X6912160Y2454960D1*
X6901530Y2465590D1*
X6892697Y2477750D1*
X6885870Y2491143D1*
X6881227Y2505437D1*
X6878877Y2520283D1*
Y2535317D1*
X6881227Y2550163D1*
X6885870Y2564457D1*
X6892697Y2577850D1*
X6901530Y2590010D1*
X6912160Y2600640D1*
X6924320Y2609473D1*
X6937713Y2616300D1*
X6952007Y2620943D1*
X6966853Y2623293D1*
X6981887D1*
X6996733Y2620943D1*
X7011027Y2616300D1*
X7024420Y2609473D1*
X7036580Y2600640D1*
X7047210Y2590010D1*
X7056043Y2577850D1*
X7062870Y2564457D1*
X7067513Y2550163D1*
X7069863Y2535317D1*
Y2520283D1*
X6829883Y1407840D2*
X6827533Y1392993D1*
X6822890Y1378700D1*
X6816063Y1365307D1*
X6807230Y1353147D1*
X6796600Y1342517D1*
X6784440Y1333683D1*
X6771047Y1326857D1*
X6756753Y1322213D1*
X6741907Y1319863D1*
X6726873D1*
X6712027Y1322213D1*
X6697733Y1326857D1*
X6684340Y1333683D1*
X6672180Y1342517D1*
X6661550Y1353147D1*
X6652717Y1365307D1*
X6645890Y1378700D1*
X6641247Y1392993D1*
X6638897Y1407840D1*
Y1422873D1*
X6641247Y1437720D1*
X6645890Y1452013D1*
X6652717Y1465407D1*
X6661550Y1477567D1*
X6672180Y1488197D1*
X6684340Y1497030D1*
X6697733Y1503857D1*
X6712027Y1508500D1*
X6726873Y1510850D1*
X6741907D1*
X6756753Y1508500D1*
X6771047Y1503857D1*
X6784440Y1497030D1*
X6796600Y1488197D1*
X6807230Y1477567D1*
X6816063Y1465407D1*
X6822890Y1452013D1*
X6827533Y1437720D1*
X6829883Y1422873D1*
Y1407840D1*
X4258890Y3074757D2*
X4256540Y3059910D1*
X4251897Y3045617D1*
X4245070Y3032223D1*
X4236237Y3020063D1*
X4225607Y3009433D1*
X4213447Y3000600D1*
X4200053Y2993773D1*
X4185760Y2989130D1*
X4170913Y2986780D1*
X4155880D1*
X4141033Y2989130D1*
X4126740Y2993773D1*
X4113347Y3000600D1*
X4101187Y3009433D1*
X4090557Y3020063D1*
X4081723Y3032223D1*
X4074897Y3045617D1*
X4070253Y3059910D1*
X4067903Y3074757D1*
Y3089790D1*
X4070253Y3104637D1*
X4074897Y3118930D1*
X4081723Y3132323D1*
X4090557Y3144483D1*
X4101187Y3155113D1*
X4113347Y3163947D1*
X4126740Y3170773D1*
X4141033Y3175417D1*
X4155880Y3177767D1*
X4170913D1*
X4185760Y3175417D1*
X4200053Y3170773D1*
X4213447Y3163947D1*
X4225607Y3155113D1*
X4236237Y3144483D1*
X4245070Y3132323D1*
X4251897Y3118930D1*
X4256540Y3104637D1*
X4258890Y3089790D1*
Y3074757D1*
X7784567Y4016390D2*
X7782217Y4001543D1*
X7777573Y3987250D1*
X7770747Y3973857D1*
X7761913Y3961697D1*
X7751283Y3951067D1*
X7739123Y3942233D1*
X7725730Y3935407D1*
X7711437Y3930763D1*
X7696590Y3928413D1*
X7681557D1*
X7666710Y3930763D1*
X7652417Y3935407D1*
X7639023Y3942233D1*
X7626863Y3951067D1*
X7616233Y3961697D1*
X7607400Y3973857D1*
X7600573Y3987250D1*
X7595930Y4001543D1*
X7593580Y4016390D1*
Y4031423D1*
X7595930Y4046270D1*
X7600573Y4060563D1*
X7607400Y4073957D1*
X7616233Y4086117D1*
X7626863Y4096747D1*
X7639023Y4105580D1*
X7652417Y4112407D1*
X7666710Y4117050D1*
X7681557Y4119400D1*
X7696590D1*
X7711437Y4117050D1*
X7725730Y4112407D1*
X7739123Y4105580D1*
X7751283Y4096747D1*
X7761913Y4086117D1*
X7770747Y4073957D1*
X7777573Y4060563D1*
X7782217Y4046270D1*
X7784567Y4031423D1*
Y4016390D1*
X7782217Y4001543D1*
X7777573Y3987250D1*
X7770747Y3973857D1*
X7761913Y3961697D1*
X7751283Y3951067D1*
X7739123Y3942233D1*
X7725730Y3935407D1*
X7711437Y3930763D1*
X7696590Y3928413D1*
X7681557D1*
X7666710Y3930763D1*
X7652417Y3935407D1*
X7639023Y3942233D1*
X7626863Y3951067D1*
X7616233Y3961697D1*
X7607400Y3973857D1*
X7600573Y3987250D1*
X7595930Y4001543D1*
X7593580Y4016390D1*
Y4031423D1*
X7595930Y4046270D1*
X7600573Y4060563D1*
X7607400Y4073957D1*
X7616233Y4086117D1*
X7626863Y4096747D1*
X7639023Y4105580D1*
X7652417Y4112407D1*
X7666710Y4117050D1*
X7681557Y4119400D1*
X7696590D1*
X7711437Y4117050D1*
X7725730Y4112407D1*
X7739123Y4105580D1*
X7751283Y4096747D1*
X7761913Y4086117D1*
X7770747Y4073957D1*
X7777573Y4060563D1*
X7782217Y4046270D1*
X7784567Y4031423D1*
Y4016390D1*
X2171987Y2024693D2*
X2169637Y2009847D1*
X2164993Y1995553D1*
X2158167Y1982160D1*
X2149333Y1970000D1*
X2138703Y1959370D1*
X2126543Y1950537D1*
X2113150Y1943710D1*
X2098857Y1939067D1*
X2084010Y1936717D1*
X2068977D1*
X2054130Y1939067D1*
X2039837Y1943710D1*
X2026443Y1950537D1*
X2014283Y1959370D1*
X2003653Y1970000D1*
X1994820Y1982160D1*
X1987993Y1995553D1*
X1983350Y2009847D1*
X1981000Y2024693D1*
Y2039727D1*
X1983350Y2054573D1*
X1987993Y2068867D1*
X1994820Y2082260D1*
X2003653Y2094420D1*
X2014283Y2105050D1*
X2026443Y2113883D1*
X2039837Y2120710D1*
X2054130Y2125353D1*
X2068977Y2127703D1*
X2084010D1*
X2098857Y2125353D1*
X2113150Y2120710D1*
X2126543Y2113883D1*
X2138703Y2105050D1*
X2149333Y2094420D1*
X2158167Y2082260D1*
X2164993Y2068867D1*
X2169637Y2054573D1*
X2171987Y2039727D1*
Y2024693D1*
X2813890Y4043757D2*
X2811540Y4028910D1*
X2806897Y4014617D1*
X2800070Y4001223D1*
X2791237Y3989063D1*
X2780607Y3978433D1*
X2768447Y3969600D1*
X2755053Y3962773D1*
X2740760Y3958130D1*
X2725913Y3955780D1*
X2710880D1*
X2696033Y3958130D1*
X2681740Y3962773D1*
X2668347Y3969600D1*
X2656187Y3978433D1*
X2645557Y3989063D1*
X2636723Y4001223D1*
X2629897Y4014617D1*
X2625253Y4028910D1*
X2622903Y4043757D1*
Y4058790D1*
X2625253Y4073637D1*
X2629897Y4087930D1*
X2636723Y4101323D1*
X2645557Y4113483D1*
X2656187Y4124113D1*
X2668347Y4132947D1*
X2681740Y4139773D1*
X2696033Y4144417D1*
X2710880Y4146767D1*
X2725913D1*
X2740760Y4144417D1*
X2755053Y4139773D1*
X2768447Y4132947D1*
X2780607Y4124113D1*
X2791237Y4113483D1*
X2800070Y4101323D1*
X2806897Y4087930D1*
X2811540Y4073637D1*
X2813890Y4058790D1*
Y4043757D1*
X2070400Y3367960D2*
X2068050Y3353113D1*
X2063407Y3338820D1*
X2056580Y3325427D1*
X2047747Y3313267D1*
X2037117Y3302637D1*
X2024957Y3293803D1*
X2011563Y3286977D1*
X1997270Y3282333D1*
X1982423Y3279983D1*
X1967390D1*
X1952543Y3282333D1*
X1938250Y3286977D1*
X1924857Y3293803D1*
X1912697Y3302637D1*
X1902067Y3313267D1*
X1893233Y3325427D1*
X1886407Y3338820D1*
X1881763Y3353113D1*
X1879413Y3367960D1*
Y3382993D1*
X1881763Y3397840D1*
X1886407Y3412133D1*
X1893233Y3425527D1*
X1902067Y3437687D1*
X1912697Y3448317D1*
X1924857Y3457150D1*
X1938250Y3463977D1*
X1952543Y3468620D1*
X1967390Y3470970D1*
X1982423D1*
X1997270Y3468620D1*
X2011563Y3463977D1*
X2024957Y3457150D1*
X2037117Y3448317D1*
X2047747Y3437687D1*
X2056580Y3425527D1*
X2063407Y3412133D1*
X2068050Y3397840D1*
X2070400Y3382993D1*
Y3367960D1*
X3060580Y3602760D2*
X3055070Y3592223D1*
X3046237Y3580063D1*
X3035607Y3569433D1*
X3023447Y3560600D1*
X3010053Y3553773D1*
X2995760Y3549130D1*
X2980913Y3546780D1*
X2965880D1*
X2951033Y3549130D1*
X2936740Y3553773D1*
X2923347Y3560600D1*
X2911187Y3569433D1*
X2900557Y3580063D1*
X2891723Y3592223D1*
X2884897Y3605617D1*
X2880253Y3619910D1*
X2877903Y3634757D1*
Y3649790D1*
X2880253Y3664637D1*
X2884897Y3678930D1*
X2891723Y3692323D1*
X2900557Y3704483D1*
X2911187Y3715113D1*
X2923347Y3723947D1*
X2936740Y3730773D1*
X2951033Y3735417D1*
X2961127Y3737207D1*
X2966723Y3747823D1*
X2975557Y3759983D1*
X2986187Y3770613D1*
X2998347Y3779447D1*
X3011740Y3786273D1*
X3026033Y3790917D1*
X3040880Y3793267D1*
X3055913D1*
X3070760Y3790917D1*
X3085053Y3786273D1*
X3098447Y3779447D1*
X3110607Y3770613D1*
X3121237Y3759983D1*
X3130070Y3747823D1*
X3136897Y3734430D1*
X3141540Y3720137D1*
X3143890Y3705290D1*
Y3690257D1*
X3141540Y3675410D1*
X3136897Y3661117D1*
X3130070Y3647723D1*
X3121237Y3635563D1*
X3110607Y3624933D1*
X3098447Y3616100D1*
X3085053Y3609273D1*
X3070760Y3604630D1*
X3060667Y3602840D1*
X3658907Y1632073D2*
X3656557Y1617227D1*
X3651913Y1602933D1*
X3645087Y1589540D1*
X3636253Y1577380D1*
X3625623Y1566750D1*
X3613463Y1557917D1*
X3600070Y1551090D1*
X3585777Y1546447D1*
X3570930Y1544097D1*
X3555897D1*
X3541050Y1546447D1*
X3526757Y1551090D1*
X3513363Y1557917D1*
X3501203Y1566750D1*
X3490573Y1577380D1*
X3481740Y1589540D1*
X3474913Y1602933D1*
X3470270Y1617227D1*
X3467920Y1632073D1*
Y1647107D1*
X3470270Y1661953D1*
X3474913Y1676247D1*
X3481740Y1689640D1*
X3490573Y1701800D1*
X3501203Y1712430D1*
X3513363Y1721263D1*
X3526757Y1728090D1*
X3541050Y1732733D1*
X3555897Y1735083D1*
X3570930D1*
X3585777Y1732733D1*
X3600070Y1728090D1*
X3613463Y1721263D1*
X3625623Y1712430D1*
X3636253Y1701800D1*
X3645087Y1689640D1*
X3651913Y1676247D1*
X3656557Y1661953D1*
X3658907Y1647107D1*
Y1632073D1*
X2070400Y3367960D2*
X2068050Y3353113D1*
X2063407Y3338820D1*
X2056580Y3325427D1*
X2047747Y3313267D1*
X2037117Y3302637D1*
X2024957Y3293803D1*
X2011563Y3286977D1*
X1997270Y3282333D1*
X1982423Y3279983D1*
X1967390D1*
X1952543Y3282333D1*
X1938250Y3286977D1*
X1924857Y3293803D1*
X1912697Y3302637D1*
X1902067Y3313267D1*
X1893233Y3325427D1*
X1886407Y3338820D1*
X1881763Y3353113D1*
X1879413Y3367960D1*
Y3382993D1*
X1881763Y3397840D1*
X1886407Y3412133D1*
X1893233Y3425527D1*
X1902067Y3437687D1*
X1912697Y3448317D1*
X1924857Y3457150D1*
X1938250Y3463977D1*
X1952543Y3468620D1*
X1967390Y3470970D1*
X1982423D1*
X1997270Y3468620D1*
X2011563Y3463977D1*
X2024957Y3457150D1*
X2037117Y3448317D1*
X2047747Y3437687D1*
X2056580Y3425527D1*
X2063407Y3412133D1*
X2068050Y3397840D1*
X2070400Y3382993D1*
Y3367960D1*
X8401260Y5551167D2*
X8398910Y5536320D1*
X8394267Y5522027D1*
X8387440Y5508633D1*
X8378607Y5496473D1*
X8367977Y5485843D1*
X8355817Y5477010D1*
X8342423Y5470183D1*
X8328130Y5465540D1*
X8313283Y5463190D1*
X8298250D1*
X8283403Y5465540D1*
X8269110Y5470183D1*
X8255717Y5477010D1*
X8243557Y5485843D1*
X8232927Y5496473D1*
X8224093Y5508633D1*
X8217267Y5522027D1*
X8212623Y5536320D1*
X8210273Y5551167D1*
Y5566200D1*
X8212623Y5581047D1*
X8217267Y5595340D1*
X8224093Y5608733D1*
X8232927Y5620893D1*
X8243557Y5631523D1*
X8255717Y5640357D1*
X8269110Y5647183D1*
X8283403Y5651827D1*
X8298250Y5654177D1*
X8313283D1*
X8328130Y5651827D1*
X8342423Y5647183D1*
X8355817Y5640357D1*
X8367977Y5631523D1*
X8378607Y5620893D1*
X8387440Y5608733D1*
X8394267Y5595340D1*
X8398910Y5581047D1*
X8401260Y5566200D1*
Y5551167D1*
X7371983Y3649463D2*
X7369633Y3634617D1*
X7364990Y3620323D1*
X7358163Y3606930D1*
X7349330Y3594770D1*
X7338937Y3584360D1*
X7356167Y3584573D1*
X7371013Y3582223D1*
X7385307Y3577580D1*
X7398700Y3570753D1*
X7410860Y3561920D1*
X7421490Y3551290D1*
X7430323Y3539130D1*
X7437150Y3525737D1*
X7441793Y3511443D1*
X7444143Y3496597D1*
Y3481563D1*
X7441793Y3466717D1*
X7437150Y3452423D1*
X7430323Y3439030D1*
X7421490Y3426870D1*
X7410860Y3416240D1*
X7398700Y3407407D1*
X7385307Y3400580D1*
X7371013Y3395937D1*
X7356167Y3393587D1*
X7341133D1*
X7326287Y3395937D1*
X7311993Y3400580D1*
X7298600Y3407407D1*
X7286440Y3416240D1*
X7275810Y3426870D1*
X7266977Y3439030D1*
X7260150Y3452423D1*
X7255507Y3466717D1*
X7253157Y3481563D1*
Y3496597D1*
X7255507Y3511443D1*
X7260150Y3525737D1*
X7266977Y3539130D1*
X7275810Y3551290D1*
X7286203Y3561700D1*
X7268973Y3561487D1*
X7254127Y3563837D1*
X7239833Y3568480D1*
X7226440Y3575307D1*
X7214280Y3584140D1*
X7203650Y3594770D1*
X7194817Y3606930D1*
X7187990Y3620323D1*
X7183347Y3634617D1*
X7180997Y3649463D1*
Y3664497D1*
X7183347Y3679343D1*
X7187990Y3693637D1*
X7194817Y3707030D1*
X7203650Y3719190D1*
X7214280Y3729820D1*
X7226440Y3738653D1*
X7239833Y3745480D1*
X7254127Y3750123D1*
X7268973Y3752473D1*
X7284007D1*
X7298853Y3750123D1*
X7313147Y3745480D1*
X7326540Y3738653D1*
X7338700Y3729820D1*
X7349330Y3719190D1*
X7358163Y3707030D1*
X7364990Y3693637D1*
X7369633Y3679343D1*
X7371983Y3664497D1*
Y3649463D1*
X5642933Y1816400D2*
X5640583Y1801553D1*
X5635940Y1787260D1*
X5629113Y1773867D1*
X5620280Y1761707D1*
X5609650Y1751077D1*
X5597490Y1742243D1*
X5584097Y1735417D1*
X5569803Y1730773D1*
X5554957Y1728423D1*
X5539923D1*
X5525077Y1730773D1*
X5510783Y1735417D1*
X5497390Y1742243D1*
X5485230Y1751077D1*
X5474600Y1761707D1*
X5465767Y1773867D1*
X5458940Y1787260D1*
X5454297Y1801553D1*
X5451947Y1816400D1*
Y1831433D1*
X5454297Y1846280D1*
X5458940Y1860573D1*
X5465767Y1873967D1*
X5474600Y1886127D1*
X5485230Y1896757D1*
X5497390Y1905590D1*
X5510783Y1912417D1*
X5525077Y1917060D1*
X5539923Y1919410D1*
X5554957D1*
X5569803Y1917060D1*
X5584097Y1912417D1*
X5597490Y1905590D1*
X5609650Y1896757D1*
X5620280Y1886127D1*
X5629113Y1873967D1*
X5635940Y1860573D1*
X5640583Y1846280D1*
X5642933Y1831433D1*
Y1816400D1*
X5354597Y1254923D2*
X5352247Y1240077D1*
X5347603Y1225783D1*
X5340777Y1212390D1*
X5331943Y1200230D1*
X5321313Y1189600D1*
X5309153Y1180767D1*
X5295760Y1173940D1*
X5281467Y1169297D1*
X5266620Y1166947D1*
X5251587D1*
X5236740Y1169297D1*
X5222447Y1173940D1*
X5209053Y1180767D1*
X5196893Y1189600D1*
X5186263Y1200230D1*
X5177430Y1212390D1*
X5170603Y1225783D1*
X5165960Y1240077D1*
X5163610Y1254923D1*
Y1269957D1*
X5165960Y1284803D1*
X5170603Y1299097D1*
X5177430Y1312490D1*
X5186263Y1324650D1*
X5196893Y1335280D1*
X5209053Y1344113D1*
X5222447Y1350940D1*
X5236740Y1355583D1*
X5251587Y1357933D1*
X5266620D1*
X5281467Y1355583D1*
X5295760Y1350940D1*
X5309153Y1344113D1*
X5321313Y1335280D1*
X5331943Y1324650D1*
X5340777Y1312490D1*
X5347603Y1299097D1*
X5352247Y1284803D1*
X5354597Y1269957D1*
Y1254923D1*
X2871120Y1242813D2*
X2868770Y1227967D1*
X2864127Y1213673D1*
X2857300Y1200280D1*
X2848467Y1188120D1*
X2837837Y1177490D1*
X2825677Y1168657D1*
X2812283Y1161830D1*
X2797990Y1157187D1*
X2783143Y1154837D1*
X2768110D1*
X2753263Y1157187D1*
X2738970Y1161830D1*
X2725577Y1168657D1*
X2713417Y1177490D1*
X2702787Y1188120D1*
X2693953Y1200280D1*
X2687127Y1213673D1*
X2682483Y1227967D1*
X2680133Y1242813D1*
Y1257847D1*
X2682483Y1272693D1*
X2687127Y1286987D1*
X2693953Y1300380D1*
X2702787Y1312540D1*
X2713417Y1323170D1*
X2725577Y1332003D1*
X2738970Y1338830D1*
X2753263Y1343473D1*
X2768110Y1345823D1*
X2783143D1*
X2797990Y1343473D1*
X2812283Y1338830D1*
X2825677Y1332003D1*
X2837837Y1323170D1*
X2848467Y1312540D1*
X2857300Y1300380D1*
X2864127Y1286987D1*
X2868770Y1272693D1*
X2871120Y1257847D1*
Y1242813D1*
X2621927Y1381500D2*
X2619577Y1366653D1*
X2614933Y1352360D1*
X2608107Y1338967D1*
X2599273Y1326807D1*
X2588643Y1316177D1*
X2576483Y1307343D1*
X2563090Y1300517D1*
X2548797Y1295873D1*
X2533950Y1293523D1*
X2518917D1*
X2504070Y1295873D1*
X2489777Y1300517D1*
X2476383Y1307343D1*
X2464223Y1316177D1*
X2453593Y1326807D1*
X2444760Y1338967D1*
X2437933Y1352360D1*
X2433290Y1366653D1*
X2430940Y1381500D1*
Y1396533D1*
X2433290Y1411380D1*
X2437933Y1425673D1*
X2444760Y1439067D1*
X2453593Y1451227D1*
X2464223Y1461857D1*
X2476383Y1470690D1*
X2489777Y1477517D1*
X2504070Y1482160D1*
X2518917Y1484510D1*
X2533950D1*
X2548797Y1482160D1*
X2563090Y1477517D1*
X2576483Y1470690D1*
X2588643Y1461857D1*
X2599273Y1451227D1*
X2608107Y1439067D1*
X2614933Y1425673D1*
X2619577Y1411380D1*
X2621927Y1396533D1*
Y1381500D1*
X7253270Y4100670D2*
X7250920Y4085823D1*
X7246277Y4071530D1*
X7239450Y4058137D1*
X7230617Y4045977D1*
X7219987Y4035347D1*
X7207827Y4026513D1*
X7194433Y4019687D1*
X7180140Y4015043D1*
X7165293Y4012693D1*
X7150260D1*
X7135413Y4015043D1*
X7121120Y4019687D1*
X7107727Y4026513D1*
X7095567Y4035347D1*
X7084937Y4045977D1*
X7076103Y4058137D1*
X7069277Y4071530D1*
X7064633Y4085823D1*
X7062283Y4100670D1*
Y4115703D1*
X7064633Y4130550D1*
X7069277Y4144843D1*
X7076103Y4158237D1*
X7084937Y4170397D1*
X7095567Y4181027D1*
X7107727Y4189860D1*
X7121120Y4196687D1*
X7135413Y4201330D1*
X7150260Y4203680D1*
X7165293D1*
X7180140Y4201330D1*
X7194433Y4196687D1*
X7207827Y4189860D1*
X7219987Y4181027D1*
X7230617Y4170397D1*
X7239450Y4158237D1*
X7246277Y4144843D1*
X7250920Y4130550D1*
X7253270Y4115703D1*
Y4100670D1*
X7033660Y4036783D2*
X7031310Y4021937D1*
X7026667Y4007643D1*
X7019840Y3994250D1*
X7011007Y3982090D1*
X7000377Y3971460D1*
X6988217Y3962627D1*
X6974823Y3955800D1*
X6960530Y3951157D1*
X6945683Y3948807D1*
X6930650D1*
X6915803Y3951157D1*
X6901510Y3955800D1*
X6888117Y3962627D1*
X6875957Y3971460D1*
X6865327Y3982090D1*
X6856493Y3994250D1*
X6849667Y4007643D1*
X6845023Y4021937D1*
X6842673Y4036783D1*
Y4051817D1*
X6845023Y4066663D1*
X6849667Y4080957D1*
X6856493Y4094350D1*
X6865327Y4106510D1*
X6875957Y4117140D1*
X6888117Y4125973D1*
X6901510Y4132800D1*
X6915803Y4137443D1*
X6930650Y4139793D1*
X6945683D1*
X6960530Y4137443D1*
X6974823Y4132800D1*
X6988217Y4125973D1*
X7000377Y4117140D1*
X7011007Y4106510D1*
X7019840Y4094350D1*
X7026667Y4080957D1*
X7031310Y4066663D1*
X7033660Y4051817D1*
Y4036783D1*
X5866107Y2089937D2*
X5863757Y2075090D1*
X5859113Y2060797D1*
X5852287Y2047403D1*
X5843453Y2035243D1*
X5832823Y2024613D1*
X5820663Y2015780D1*
X5807270Y2008953D1*
X5792977Y2004310D1*
X5778130Y2001960D1*
X5763097D1*
X5748250Y2004310D1*
X5733957Y2008953D1*
X5720563Y2015780D1*
X5708403Y2024613D1*
X5697773Y2035243D1*
X5688940Y2047403D1*
X5682113Y2060797D1*
X5677470Y2075090D1*
X5675120Y2089937D1*
Y2104970D1*
X5677470Y2119817D1*
X5682113Y2134110D1*
X5688940Y2147503D1*
X5697773Y2159663D1*
X5708403Y2170293D1*
X5720563Y2179127D1*
X5733957Y2185953D1*
X5748250Y2190597D1*
X5763097Y2192947D1*
X5778130D1*
X5792977Y2190597D1*
X5807270Y2185953D1*
X5820663Y2179127D1*
X5832823Y2170293D1*
X5843453Y2159663D1*
X5852287Y2147503D1*
X5859113Y2134110D1*
X5863757Y2119817D1*
X5866107Y2104970D1*
Y2089937D1*
X7084667Y4577907D2*
X7082317Y4563060D1*
X7077673Y4548767D1*
X7070847Y4535373D1*
X7062013Y4523213D1*
X7051383Y4512583D1*
X7039223Y4503750D1*
X7025830Y4496923D1*
X7011537Y4492280D1*
X6996690Y4489930D1*
X6981657D1*
X6966810Y4492280D1*
X6952517Y4496923D1*
X6939123Y4503750D1*
X6926963Y4512583D1*
X6916333Y4523213D1*
X6907500Y4535373D1*
X6900673Y4548767D1*
X6896030Y4563060D1*
X6893680Y4577907D1*
Y4592940D1*
X6896030Y4607787D1*
X6900673Y4622080D1*
X6907500Y4635473D1*
X6916333Y4647633D1*
X6926963Y4658263D1*
X6939123Y4667097D1*
X6952517Y4673923D1*
X6966810Y4678567D1*
X6981657Y4680917D1*
X6996690D1*
X7011537Y4678567D1*
X7025830Y4673923D1*
X7039223Y4667097D1*
X7051383Y4658263D1*
X7062013Y4647633D1*
X7070847Y4635473D1*
X7077673Y4622080D1*
X7082317Y4607787D1*
X7084667Y4592940D1*
Y4577907D1*
X6701533Y2730337D2*
X6699183Y2715490D1*
X6694540Y2701197D1*
X6687713Y2687803D1*
X6678880Y2675643D1*
X6668250Y2665013D1*
X6656090Y2656180D1*
X6642697Y2649353D1*
X6628403Y2644710D1*
X6613557Y2642360D1*
X6598523D1*
X6583677Y2644710D1*
X6569383Y2649353D1*
X6555990Y2656180D1*
X6543830Y2665013D1*
X6533200Y2675643D1*
X6524367Y2687803D1*
X6517540Y2701197D1*
X6512897Y2715490D1*
X6510547Y2730337D1*
Y2745370D1*
X6512897Y2760217D1*
X6517540Y2774510D1*
X6524367Y2787903D1*
X6533200Y2800063D1*
X6543830Y2810693D1*
X6555990Y2819527D1*
X6569383Y2826353D1*
X6583677Y2830997D1*
X6598523Y2833347D1*
X6613557D1*
X6628403Y2830997D1*
X6642697Y2826353D1*
X6656090Y2819527D1*
X6668250Y2810693D1*
X6678880Y2800063D1*
X6687713Y2787903D1*
X6694540Y2774510D1*
X6699183Y2760217D1*
X6701533Y2745370D1*
Y2730337D1*
X7006490D2*
X7004140Y2715490D1*
X6999497Y2701197D1*
X6992670Y2687803D1*
X6983837Y2675643D1*
X6973207Y2665013D1*
X6961047Y2656180D1*
X6947653Y2649353D1*
X6933360Y2644710D1*
X6918513Y2642360D1*
X6903480D1*
X6888633Y2644710D1*
X6874340Y2649353D1*
X6860947Y2656180D1*
X6848787Y2665013D1*
X6838157Y2675643D1*
X6829323Y2687803D1*
X6822497Y2701197D1*
X6817853Y2715490D1*
X6815503Y2730337D1*
Y2745370D1*
X6817853Y2760217D1*
X6822497Y2774510D1*
X6829323Y2787903D1*
X6838157Y2800063D1*
X6848787Y2810693D1*
X6860947Y2819527D1*
X6874340Y2826353D1*
X6888633Y2830997D1*
X6903480Y2833347D1*
X6918513D1*
X6933360Y2830997D1*
X6947653Y2826353D1*
X6961047Y2819527D1*
X6973207Y2810693D1*
X6983837Y2800063D1*
X6992670Y2787903D1*
X6999497Y2774510D1*
X7004140Y2760217D1*
X7006490Y2745370D1*
Y2730337D1*
X7530953Y3063290D2*
X7528603Y3048443D1*
X7523960Y3034150D1*
X7517133Y3020757D1*
X7508300Y3008597D1*
X7497670Y2997967D1*
X7485510Y2989133D1*
X7472117Y2982307D1*
X7457823Y2977663D1*
X7442977Y2975313D1*
X7427943D1*
X7413097Y2977663D1*
X7398803Y2982307D1*
X7385410Y2989133D1*
X7373250Y2997967D1*
X7362620Y3008597D1*
X7353787Y3020757D1*
X7346960Y3034150D1*
X7342317Y3048443D1*
X7339967Y3063290D1*
Y3078323D1*
X7342317Y3093170D1*
X7346960Y3107463D1*
X7353787Y3120857D1*
X7362620Y3133017D1*
X7373250Y3143647D1*
X7385410Y3152480D1*
X7398803Y3159307D1*
X7413097Y3163950D1*
X7427943Y3166300D1*
X7442977D1*
X7457823Y3163950D1*
X7472117Y3159307D1*
X7485510Y3152480D1*
X7497670Y3143647D1*
X7508300Y3133017D1*
X7517133Y3120857D1*
X7523960Y3107463D1*
X7528603Y3093170D1*
X7530953Y3078323D1*
Y3063290D1*
X6783890Y3139757D2*
X6781540Y3124910D1*
X6776897Y3110617D1*
X6770070Y3097223D1*
X6761237Y3085063D1*
X6750607Y3074433D1*
X6738447Y3065600D1*
X6725053Y3058773D1*
X6710760Y3054130D1*
X6695913Y3051780D1*
X6680880D1*
X6666033Y3054130D1*
X6651740Y3058773D1*
X6638347Y3065600D1*
X6626187Y3074433D1*
X6615557Y3085063D1*
X6606723Y3097223D1*
X6599897Y3110617D1*
X6595253Y3124910D1*
X6592903Y3139757D1*
Y3154790D1*
X6595253Y3169637D1*
X6599897Y3183930D1*
X6606723Y3197323D1*
X6615557Y3209483D1*
X6626187Y3220113D1*
X6638347Y3228947D1*
X6651740Y3235773D1*
X6666033Y3240417D1*
X6680880Y3242767D1*
X6695913D1*
X6710760Y3240417D1*
X6725053Y3235773D1*
X6738447Y3228947D1*
X6750607Y3220113D1*
X6761237Y3209483D1*
X6770070Y3197323D1*
X6776897Y3183930D1*
X6781540Y3169637D1*
X6783890Y3154790D1*
Y3139757D1*
X7033080Y3104950D2*
X7030730Y3090103D1*
X7026087Y3075810D1*
X7019260Y3062417D1*
X7010427Y3050257D1*
X6999797Y3039627D1*
X6987637Y3030793D1*
X6974243Y3023967D1*
X6959950Y3019323D1*
X6945103Y3016973D1*
X6930070D1*
X6915223Y3019323D1*
X6900930Y3023967D1*
X6887537Y3030793D1*
X6875377Y3039627D1*
X6864747Y3050257D1*
X6855913Y3062417D1*
X6849087Y3075810D1*
X6844443Y3090103D1*
X6842093Y3104950D1*
Y3119983D1*
X6844443Y3134830D1*
X6849087Y3149123D1*
X6855913Y3162517D1*
X6864747Y3174677D1*
X6875377Y3185307D1*
X6887537Y3194140D1*
X6900930Y3200967D1*
X6915223Y3205610D1*
X6930070Y3207960D1*
X6945103D1*
X6959950Y3205610D1*
X6974243Y3200967D1*
X6987637Y3194140D1*
X6999797Y3185307D1*
X7010427Y3174677D1*
X7019260Y3162517D1*
X7026087Y3149123D1*
X7030730Y3134830D1*
X7033080Y3119983D1*
Y3104950D1*
X7679763Y1291933D2*
X7677413Y1277087D1*
X7672770Y1262793D1*
X7665943Y1249400D1*
X7657110Y1237240D1*
X7646480Y1226610D1*
X7634320Y1217777D1*
X7620927Y1210950D1*
X7606633Y1206307D1*
X7591787Y1203957D1*
X7576753D1*
X7561907Y1206307D1*
X7547613Y1210950D1*
X7534220Y1217777D1*
X7522060Y1226610D1*
X7511430Y1237240D1*
X7502597Y1249400D1*
X7495770Y1262793D1*
X7491127Y1277087D1*
X7488777Y1291933D1*
Y1306967D1*
X7491127Y1321813D1*
X7495770Y1336107D1*
X7502597Y1349500D1*
X7511430Y1361660D1*
X7522060Y1372290D1*
X7534220Y1381123D1*
X7547613Y1387950D1*
X7561907Y1392593D1*
X7576753Y1394943D1*
X7591787D1*
X7606633Y1392593D1*
X7620927Y1387950D1*
X7634320Y1381123D1*
X7646480Y1372290D1*
X7657110Y1361660D1*
X7665943Y1349500D1*
X7672770Y1336107D1*
X7677413Y1321813D1*
X7679763Y1306967D1*
Y1291933D1*
X3233820Y1408587D2*
X3231470Y1393740D1*
X3226827Y1379447D1*
X3220000Y1366053D1*
X3211167Y1353893D1*
X3200537Y1343263D1*
X3188377Y1334430D1*
X3174983Y1327603D1*
X3160690Y1322960D1*
X3145843Y1320610D1*
X3130810D1*
X3115963Y1322960D1*
X3101670Y1327603D1*
X3088277Y1334430D1*
X3076117Y1343263D1*
X3065487Y1353893D1*
X3056653Y1366053D1*
X3049827Y1379447D1*
X3045183Y1393740D1*
X3042833Y1408587D1*
Y1423620D1*
X3045183Y1438467D1*
X3049827Y1452760D1*
X3056653Y1466153D1*
X3065487Y1478313D1*
X3076117Y1488943D1*
X3088277Y1497777D1*
X3101670Y1504603D1*
X3115963Y1509247D1*
X3130810Y1511597D1*
X3145843D1*
X3160690Y1509247D1*
X3174983Y1504603D1*
X3188377Y1497777D1*
X3200537Y1488943D1*
X3211167Y1478313D1*
X3220000Y1466153D1*
X3226827Y1452760D1*
X3231470Y1438467D1*
X3233820Y1423620D1*
Y1408587D1*
X6783890Y3139757D2*
X6781540Y3124910D1*
X6776897Y3110617D1*
X6770070Y3097223D1*
X6761237Y3085063D1*
X6750607Y3074433D1*
X6738447Y3065600D1*
X6725053Y3058773D1*
X6710760Y3054130D1*
X6695913Y3051780D1*
X6680880D1*
X6666033Y3054130D1*
X6651740Y3058773D1*
X6638347Y3065600D1*
X6626187Y3074433D1*
X6615557Y3085063D1*
X6606723Y3097223D1*
X6599897Y3110617D1*
X6595253Y3124910D1*
X6592903Y3139757D1*
Y3154790D1*
X6595253Y3169637D1*
X6599897Y3183930D1*
X6606723Y3197323D1*
X6615557Y3209483D1*
X6626187Y3220113D1*
X6638347Y3228947D1*
X6651740Y3235773D1*
X6666033Y3240417D1*
X6680880Y3242767D1*
X6695913D1*
X6710760Y3240417D1*
X6725053Y3235773D1*
X6738447Y3228947D1*
X6750607Y3220113D1*
X6761237Y3209483D1*
X6770070Y3197323D1*
X6776897Y3183930D1*
X6781540Y3169637D1*
X6783890Y3154790D1*
Y3139757D1*
X3256053Y2757960D2*
X3253703Y2743113D1*
X3249060Y2728820D1*
X3242233Y2715427D1*
X3233400Y2703267D1*
X3222770Y2692637D1*
X3210610Y2683803D1*
X3197217Y2676977D1*
X3182923Y2672333D1*
X3168077Y2669983D1*
X3153043D1*
X3138197Y2672333D1*
X3123903Y2676977D1*
X3110510Y2683803D1*
X3098350Y2692637D1*
X3087720Y2703267D1*
X3078887Y2715427D1*
X3072060Y2728820D1*
X3067417Y2743113D1*
X3065067Y2757960D1*
Y2772993D1*
X3067417Y2787840D1*
X3072060Y2802133D1*
X3078887Y2815527D1*
X3087720Y2827687D1*
X3098350Y2838317D1*
X3110510Y2847150D1*
X3123903Y2853977D1*
X3138197Y2858620D1*
X3153043Y2860970D1*
X3168077D1*
X3182923Y2858620D1*
X3197217Y2853977D1*
X3210610Y2847150D1*
X3222770Y2838317D1*
X3233400Y2827687D1*
X3242233Y2815527D1*
X3249060Y2802133D1*
X3253703Y2787840D1*
X3256053Y2772993D1*
Y2757960D1*
X6858890Y4399757D2*
X6856540Y4384910D1*
X6851897Y4370617D1*
X6845070Y4357223D1*
X6836237Y4345063D1*
X6825607Y4334433D1*
X6813447Y4325600D1*
X6800053Y4318773D1*
X6785760Y4314130D1*
X6770913Y4311780D1*
X6755880D1*
X6741033Y4314130D1*
X6726740Y4318773D1*
X6713347Y4325600D1*
X6701187Y4334433D1*
X6690557Y4345063D1*
X6681723Y4357223D1*
X6674897Y4370617D1*
X6670253Y4384910D1*
X6667903Y4399757D1*
Y4414790D1*
X6670253Y4429637D1*
X6674897Y4443930D1*
X6681723Y4457323D1*
X6690557Y4469483D1*
X6701187Y4480113D1*
X6713347Y4488947D1*
X6726740Y4495773D1*
X6741033Y4500417D1*
X6755880Y4502767D1*
X6770913D1*
X6785760Y4500417D1*
X6800053Y4495773D1*
X6813447Y4488947D1*
X6825607Y4480113D1*
X6836237Y4469483D1*
X6845070Y4457323D1*
X6851897Y4443930D1*
X6856540Y4429637D1*
X6858890Y4414790D1*
Y4399757D1*
X4250687Y3807313D2*
X4248337Y3792467D1*
X4243693Y3778173D1*
X4236867Y3764780D1*
X4228033Y3752620D1*
X4217403Y3741990D1*
X4205243Y3733157D1*
X4191850Y3726330D1*
X4177557Y3721687D1*
X4162710Y3719337D1*
X4147677D1*
X4132830Y3721687D1*
X4118537Y3726330D1*
X4105143Y3733157D1*
X4092983Y3741990D1*
X4082353Y3752620D1*
X4073520Y3764780D1*
X4066693Y3778173D1*
X4062050Y3792467D1*
X4059700Y3807313D1*
Y3822347D1*
X4062050Y3837193D1*
X4066693Y3851487D1*
X4073520Y3864880D1*
X4082353Y3877040D1*
X4092983Y3887670D1*
X4105143Y3896503D1*
X4118537Y3903330D1*
X4132830Y3907973D1*
X4147677Y3910323D1*
X4162710D1*
X4177557Y3907973D1*
X4191850Y3903330D1*
X4205243Y3896503D1*
X4217403Y3887670D1*
X4228033Y3877040D1*
X4236867Y3864880D1*
X4243693Y3851487D1*
X4248337Y3837193D1*
X4250687Y3822347D1*
Y3807313D1*
X7882597Y4386330D2*
X7880247Y4371483D1*
X7875603Y4357190D1*
X7868777Y4343797D1*
X7859943Y4331637D1*
X7849313Y4321007D1*
X7837153Y4312173D1*
X7823760Y4305347D1*
X7809467Y4300703D1*
X7794620Y4298353D1*
X7779587D1*
X7764740Y4300703D1*
X7750447Y4305347D1*
X7737053Y4312173D1*
X7724893Y4321007D1*
X7714263Y4331637D1*
X7705430Y4343797D1*
X7698603Y4357190D1*
X7693960Y4371483D1*
X7691610Y4386330D1*
Y4401363D1*
X7693960Y4416210D1*
X7698603Y4430503D1*
X7705430Y4443897D1*
X7714263Y4456057D1*
X7724893Y4466687D1*
X7737053Y4475520D1*
X7750447Y4482347D1*
X7764740Y4486990D1*
X7779587Y4489340D1*
X7794620D1*
X7809467Y4486990D1*
X7823760Y4482347D1*
X7837153Y4475520D1*
X7849313Y4466687D1*
X7859943Y4456057D1*
X7868777Y4443897D1*
X7875603Y4430503D1*
X7880247Y4416210D1*
X7882597Y4401363D1*
Y4386330D1*
X7880247Y4371483D1*
X7875603Y4357190D1*
X7868777Y4343797D1*
X7859943Y4331637D1*
X7849313Y4321007D1*
X7837153Y4312173D1*
X7823760Y4305347D1*
X7809467Y4300703D1*
X7794620Y4298353D1*
X7779587D1*
X7764740Y4300703D1*
X7750447Y4305347D1*
X7737053Y4312173D1*
X7724893Y4321007D1*
X7714263Y4331637D1*
X7705430Y4343797D1*
X7698603Y4357190D1*
X7693960Y4371483D1*
X7691610Y4386330D1*
Y4401363D1*
X7693960Y4416210D1*
X7698603Y4430503D1*
X7705430Y4443897D1*
X7714263Y4456057D1*
X7724893Y4466687D1*
X7737053Y4475520D1*
X7750447Y4482347D1*
X7764740Y4486990D1*
X7779587Y4489340D1*
X7794620D1*
X7809467Y4486990D1*
X7823760Y4482347D1*
X7837153Y4475520D1*
X7849313Y4466687D1*
X7859943Y4456057D1*
X7868777Y4443897D1*
X7875603Y4430503D1*
X7880247Y4416210D1*
X7882597Y4401363D1*
Y4386330D1*
X5718730Y3726863D2*
X5716380Y3712017D1*
X5711737Y3697723D1*
X5704910Y3684330D1*
X5696077Y3672170D1*
X5685447Y3661540D1*
X5673287Y3652707D1*
X5659893Y3645880D1*
X5645600Y3641237D1*
X5630753Y3638887D1*
X5615720D1*
X5600873Y3641237D1*
X5586580Y3645880D1*
X5573187Y3652707D1*
X5561027Y3661540D1*
X5550397Y3672170D1*
X5541563Y3684330D1*
X5534737Y3697723D1*
X5530093Y3712017D1*
X5527743Y3726863D1*
Y3741897D1*
X5530093Y3756743D1*
X5534737Y3771037D1*
X5541563Y3784430D1*
X5550397Y3796590D1*
X5561027Y3807220D1*
X5573187Y3816053D1*
X5586580Y3822880D1*
X5600873Y3827523D1*
X5615720Y3829873D1*
X5630753D1*
X5645600Y3827523D1*
X5659893Y3822880D1*
X5673287Y3816053D1*
X5685447Y3807220D1*
X5696077Y3796590D1*
X5704910Y3784430D1*
X5711737Y3771037D1*
X5716380Y3756743D1*
X5718730Y3741897D1*
Y3726863D1*
X6195477Y3635530D2*
X6193127Y3620683D1*
X6188483Y3606390D1*
X6181657Y3592997D1*
X6172823Y3580837D1*
X6162193Y3570207D1*
X6150033Y3561373D1*
X6136640Y3554547D1*
X6122347Y3549903D1*
X6107500Y3547553D1*
X6092467D1*
X6077620Y3549903D1*
X6063327Y3554547D1*
X6049933Y3561373D1*
X6037773Y3570207D1*
X6027143Y3580837D1*
X6018310Y3592997D1*
X6011483Y3606390D1*
X6006840Y3620683D1*
X6004490Y3635530D1*
Y3650563D1*
X6006840Y3665410D1*
X6011483Y3679703D1*
X6018310Y3693097D1*
X6027143Y3705257D1*
X6037773Y3715887D1*
X6049933Y3724720D1*
X6063327Y3731547D1*
X6077620Y3736190D1*
X6092467Y3738540D1*
X6107500D1*
X6122347Y3736190D1*
X6136640Y3731547D1*
X6150033Y3724720D1*
X6162193Y3715887D1*
X6172823Y3705257D1*
X6181657Y3693097D1*
X6188483Y3679703D1*
X6193127Y3665410D1*
X6195477Y3650563D1*
Y3635530D1*
X9758183Y9806370D2*
X9962957D1*
X10196960D2*
X10461250D1*
X9757910Y9743203D2*
X9859597D1*
X10300410D2*
X10460887D1*
X9757637Y9680037D2*
X9806367D1*
X10353640D2*
X10460430D1*
X10384720Y9616870D2*
X10460067D1*
X10400487Y9553703D2*
X10459700D1*
X10403130Y9490537D2*
X10459247D1*
X10392923Y9427370D2*
X10458880D1*
X9756360Y9364203D2*
X9791330D1*
X10368677D2*
X10458427D1*
X9756087Y9301037D2*
X9833987D1*
X10326020D2*
X10458060D1*
X9755813Y9237870D2*
X9908817D1*
X10251190D2*
X10457607D1*
X9755540Y9174703D2*
X10457240D1*
X9755267Y9111537D2*
X10456783D1*
X9754993Y9048370D2*
X10456420D1*
X9754720Y8985203D2*
X10455963D1*
X9754447Y8922037D2*
X10455600D1*
X9754263Y8858870D2*
X10455143D1*
X9753990Y8795703D2*
X10454780D1*
X9753717Y8732537D2*
X10454323D1*
X9753443Y8669370D2*
X10453960D1*
X9753170Y8606203D2*
X10453503D1*
X9752897Y8543037D2*
X10453140D1*
X9752623Y8479870D2*
X10452683D1*
X9752350Y8416703D2*
X10452320D1*
X8147727Y8353537D2*
X8747710D1*
X8915357D2*
X10451863D1*
X8147543Y8290370D2*
X8715807D1*
X8947257D2*
X10451500D1*
X8147453Y8227203D2*
X8725470D1*
X9254330D2*
X10451043D1*
X8147270Y8164037D2*
X8879140D1*
X9268640D2*
X10450677D1*
X8147090Y8100870D2*
X8345210D1*
X8393280D2*
X8905117D1*
X9242753D2*
X10450223D1*
X8146997Y8037703D2*
X8262357D1*
X8476033D2*
X10449857D1*
X8146817Y7974537D2*
X8253700D1*
X8484693D2*
X10449403D1*
X8146723Y7911370D2*
X8287150D1*
X8451243D2*
X8533333D1*
X8696333D2*
X10449037D1*
X8146543Y7848203D2*
X8499427D1*
X8730240D2*
X10448583D1*
X8146360Y7785037D2*
X8507723D1*
X8721947D2*
X10448217D1*
X8146270Y7721870D2*
X8587750D1*
X8641920D2*
X8997083D1*
X9171477D2*
X10447760D1*
X8146087Y7658703D2*
X8968100D1*
X9200370D2*
X10447397D1*
X8145997Y7595537D2*
X8614637D1*
X9188613D2*
X10446940D1*
X8145813Y7532370D2*
X8612083D1*
X8971960D2*
X10446577D1*
X8145630Y7469203D2*
X8607890D1*
X8974967D2*
X10446120D1*
X8145540Y7406037D2*
X8630313D1*
X8953547D2*
X10445757D1*
X8145357Y7342870D2*
X10445300D1*
X8145267Y7279703D2*
X10444937D1*
X8145083Y7216537D2*
X10444480D1*
X8144900Y7153370D2*
X10444117D1*
X8208977Y7090203D2*
X10443660D1*
X8227390Y7027037D2*
X10443297D1*
X8206150Y6963870D2*
X10442930D1*
X8144353Y6900703D2*
X8744427D1*
X8932310D2*
X10442473D1*
X8144173Y6837537D2*
X8721640D1*
X8955097D2*
X10442110D1*
X8144080Y6774370D2*
X8738593D1*
X8938143D2*
X10441653D1*
X8941677Y8266143D2*
X8939723Y8252843D1*
X8951640Y8257600D1*
X8966257Y8261107D1*
X8981240Y8262287D1*
X8996223Y8261107D1*
X9010840Y8257600D1*
X9024727Y8251847D1*
X9037543Y8243993D1*
X9048973Y8234230D1*
X9055843Y8226470D1*
X9062760Y8237213D1*
X9074020Y8250393D1*
X9087200Y8261653D1*
X9101980Y8270710D1*
X9117997Y8277343D1*
X9134853Y8281390D1*
X9152133Y8282750D1*
X9169413Y8281390D1*
X9186270Y8277343D1*
X9202287Y8270710D1*
X9217067Y8261653D1*
X9230247Y8250393D1*
X9241507Y8237213D1*
X9250563Y8222433D1*
X9257197Y8206417D1*
X9261243Y8189560D1*
X9262603Y8172280D1*
X9261243Y8155000D1*
X9257197Y8138143D1*
X9250563Y8122127D1*
X9241507Y8107347D1*
X9230247Y8094167D1*
X9217067Y8082907D1*
X9202287Y8073850D1*
X9186270Y8067217D1*
X9169413Y8063170D1*
X9152133Y8061810D1*
X9134853Y8063170D1*
X9117997Y8067217D1*
X9101980Y8073850D1*
X9087200Y8082907D1*
X9074020Y8094167D1*
X9062760Y8107347D1*
X9059843Y8111713D1*
X9048973Y8098763D1*
X9037543Y8089000D1*
X9024727Y8081147D1*
X9010840Y8075393D1*
X8996223Y8071887D1*
X8981240Y8070707D1*
X8966257Y8071887D1*
X8951640Y8075393D1*
X8937753Y8081147D1*
X8924937Y8089000D1*
X8913507Y8098763D1*
X8903743Y8110193D1*
X8895890Y8123010D1*
X8890137Y8136897D1*
X8886630Y8151513D1*
X8885450Y8166497D1*
X8886323Y8178883D1*
X8873823Y8172750D1*
X8857337Y8167393D1*
X8840213Y8164680D1*
X8822880D1*
X8805757Y8167393D1*
X8789270Y8172750D1*
X8773827Y8180620D1*
X8759803Y8190807D1*
X8747543Y8203067D1*
X8737357Y8217090D1*
X8729487Y8232533D1*
X8724130Y8249020D1*
X8721417Y8266143D1*
Y8283477D1*
X8724130Y8300600D1*
X8729487Y8317087D1*
X8737357Y8332530D1*
X8747543Y8346553D1*
X8759803Y8358813D1*
X8773827Y8369000D1*
X8789270Y8376870D1*
X8805757Y8382227D1*
X8822880Y8384940D1*
X8840213D1*
X8857337Y8382227D1*
X8873823Y8376870D1*
X8889267Y8369000D1*
X8903290Y8358813D1*
X8915550Y8346553D1*
X8925737Y8332530D1*
X8933607Y8317087D1*
X8938963Y8300600D1*
X8941677Y8283477D1*
Y8266143D1*
X8948500Y6824713D2*
X8945787Y6807590D1*
X8940430Y6791103D1*
X8932560Y6775660D1*
X8922373Y6761637D1*
X8910113Y6749377D1*
X8896090Y6739190D1*
X8880647Y6731320D1*
X8864160Y6725963D1*
X8847037Y6723250D1*
X8829703D1*
X8812580Y6725963D1*
X8796093Y6731320D1*
X8780650Y6739190D1*
X8766627Y6749377D1*
X8754367Y6761637D1*
X8744180Y6775660D1*
X8736310Y6791103D1*
X8730953Y6807590D1*
X8728240Y6824713D1*
Y6842047D1*
X8730953Y6859170D1*
X8736310Y6875657D1*
X8744180Y6891100D1*
X8754367Y6905123D1*
X8766627Y6917383D1*
X8780650Y6927570D1*
X8796093Y6935440D1*
X8812580Y6940797D1*
X8829703Y6943510D1*
X8847037D1*
X8864160Y6940797D1*
X8880647Y6935440D1*
X8896090Y6927570D1*
X8910113Y6917383D1*
X8922373Y6905123D1*
X8932560Y6891100D1*
X8940430Y6875657D1*
X8945787Y6859170D1*
X8948500Y6842047D1*
Y6824713D1*
X8479327Y7983157D2*
X8476613Y7966033D1*
X8471257Y7949547D1*
X8463387Y7934103D1*
X8453200Y7920080D1*
X8440940Y7907820D1*
X8426917Y7897633D1*
X8411473Y7889763D1*
X8394987Y7884407D1*
X8377863Y7881693D1*
X8360530D1*
X8343407Y7884407D1*
X8326920Y7889763D1*
X8311477Y7897633D1*
X8297453Y7907820D1*
X8285193Y7920080D1*
X8275007Y7934103D1*
X8267137Y7949547D1*
X8261780Y7966033D1*
X8259067Y7983157D1*
Y8000490D1*
X8261780Y8017613D1*
X8267137Y8034100D1*
X8275007Y8049543D1*
X8285193Y8063567D1*
X8297453Y8075827D1*
X8311477Y8086013D1*
X8326920Y8093883D1*
X8343407Y8099240D1*
X8360530Y8101953D1*
X8377863D1*
X8394987Y8099240D1*
X8411473Y8093883D1*
X8426917Y8086013D1*
X8440940Y8075827D1*
X8453200Y8063567D1*
X8463387Y8049543D1*
X8471257Y8034100D1*
X8476613Y8017613D1*
X8479327Y8000490D1*
Y7983157D1*
X9194387Y7637917D2*
X9191673Y7620793D1*
X9186317Y7604307D1*
X9178447Y7588863D1*
X9168260Y7574840D1*
X9156000Y7562580D1*
X9141977Y7552393D1*
X9126533Y7544523D1*
X9110047Y7539167D1*
X9092923Y7536453D1*
X9075590D1*
X9058467Y7539167D1*
X9041980Y7544523D1*
X9026537Y7552393D1*
X9012513Y7562580D1*
X9000253Y7574840D1*
X8990067Y7588863D1*
X8982197Y7604307D1*
X8976840Y7620793D1*
X8974127Y7637917D1*
Y7655250D1*
X8976840Y7672373D1*
X8982197Y7688860D1*
X8990067Y7704303D1*
X9000253Y7718327D1*
X9012513Y7730587D1*
X9026537Y7740773D1*
X9041980Y7748643D1*
X9058467Y7754000D1*
X9075590Y7756713D1*
X9092923D1*
X9110047Y7754000D1*
X9126533Y7748643D1*
X9141977Y7740773D1*
X9156000Y7730587D1*
X9168260Y7718327D1*
X9178447Y7704303D1*
X9186317Y7688860D1*
X9191673Y7672373D1*
X9194387Y7655250D1*
Y7637917D1*
X8724963Y7821713D2*
X8722250Y7804590D1*
X8716893Y7788103D1*
X8709023Y7772660D1*
X8698837Y7758637D1*
X8686577Y7746377D1*
X8672553Y7736190D1*
X8657110Y7728320D1*
X8640623Y7722963D1*
X8623500Y7720250D1*
X8606167D1*
X8589043Y7722963D1*
X8572557Y7728320D1*
X8557113Y7736190D1*
X8543090Y7746377D1*
X8530830Y7758637D1*
X8520643Y7772660D1*
X8512773Y7788103D1*
X8507417Y7804590D1*
X8504703Y7821713D1*
Y7839047D1*
X8507417Y7856170D1*
X8512773Y7872657D1*
X8520643Y7888100D1*
X8530830Y7902123D1*
X8543090Y7914383D1*
X8557113Y7924570D1*
X8572557Y7932440D1*
X8589043Y7937797D1*
X8606167Y7940510D1*
X8623500D1*
X8640623Y7937797D1*
X8657110Y7932440D1*
X8672553Y7924570D1*
X8686577Y7914383D1*
X8698837Y7902123D1*
X8709023Y7888100D1*
X8716893Y7872657D1*
X8722250Y7856170D1*
X8724963Y7839047D1*
Y7821713D1*
X8626273Y7514030D2*
X8621557Y7523657D1*
X8616913Y7537950D1*
X8614563Y7552797D1*
Y7567830D1*
X8616913Y7582677D1*
X8621557Y7596970D1*
X8628383Y7610363D1*
X8637217Y7622523D1*
X8647847Y7633153D1*
X8660007Y7641987D1*
X8673400Y7648813D1*
X8687693Y7653457D1*
X8702540Y7655807D1*
X8717573D1*
X8732420Y7653457D1*
X8746713Y7648813D1*
X8760107Y7641987D1*
X8772267Y7633153D1*
X8782897Y7622523D1*
X8792003Y7609877D1*
X8801143Y7622523D1*
X8811773Y7633153D1*
X8823933Y7641987D1*
X8837327Y7648813D1*
X8851620Y7653457D1*
X8866467Y7655807D1*
X8881500D1*
X8896347Y7653457D1*
X8910640Y7648813D1*
X8924033Y7641987D1*
X8936193Y7633153D1*
X8946823Y7622523D1*
X8955657Y7610363D1*
X8962483Y7596970D1*
X8967127Y7582677D1*
X8969477Y7567830D1*
Y7552797D1*
X8967127Y7537950D1*
X8962483Y7523657D1*
X8956907Y7512493D1*
X8964010Y7496090D1*
X8967517Y7481473D1*
X8968697Y7466490D1*
X8967517Y7451507D1*
X8964010Y7436890D1*
X8958257Y7423003D1*
X8950403Y7410187D1*
X8940640Y7398757D1*
X8929210Y7388993D1*
X8916393Y7381140D1*
X8902507Y7375387D1*
X8887890Y7371880D1*
X8872907Y7370700D1*
X8857923Y7371880D1*
X8843307Y7375387D1*
X8829420Y7381140D1*
X8816603Y7388993D1*
X8805173Y7398757D1*
X8795410Y7410187D1*
X8791160Y7416567D1*
X8782897Y7405357D1*
X8772267Y7394727D1*
X8760107Y7385893D1*
X8746713Y7379067D1*
X8732420Y7374423D1*
X8717573Y7372073D1*
X8702540D1*
X8687693Y7374423D1*
X8673400Y7379067D1*
X8660007Y7385893D1*
X8647847Y7394727D1*
X8637217Y7405357D1*
X8628383Y7417517D1*
X8621557Y7430910D1*
X8616913Y7445203D1*
X8614563Y7460050D1*
Y7475083D1*
X8616913Y7489930D1*
X8621557Y7504223D1*
X8626273Y7513850D1*
X10396433Y9485687D2*
X10393863Y9462500D1*
X10389600Y9439567D1*
X10383660Y9417007D1*
X10376080Y9394943D1*
X10366900Y9373500D1*
X10356170Y9352787D1*
X10343947Y9332917D1*
X10330297Y9314000D1*
X10315290Y9296137D1*
X10299017Y9279423D1*
X10281557Y9263953D1*
X10263007Y9249807D1*
X10243470Y9237060D1*
X10223047Y9225787D1*
X10201850Y9216040D1*
X10179997Y9207880D1*
X10157603Y9201347D1*
X10134790Y9196477D1*
X10111680Y9193297D1*
X10088397Y9191820D1*
X10065070Y9192060D1*
X10041823Y9194017D1*
X10018783Y9197670D1*
X9996077Y9203010D1*
X9973820Y9210003D1*
X9952140Y9218613D1*
X9931150Y9228793D1*
X9910963Y9240487D1*
X9891693Y9253633D1*
X9873437Y9268157D1*
X9856300Y9283987D1*
X9840373Y9301030D1*
X9825740Y9319197D1*
X9812483Y9338393D1*
X9800670Y9358510D1*
X9790367Y9379440D1*
X9781630Y9401070D1*
X9774507Y9423283D1*
X9769037Y9445960D1*
X9765243Y9468977D1*
X9763153Y9492213D1*
X9762777Y9515537D1*
X9764117Y9538827D1*
X9767160Y9561957D1*
X9771897Y9584797D1*
X9778300Y9607230D1*
X9786330Y9629130D1*
X9795950Y9650383D1*
X9807107Y9670870D1*
X9819737Y9690483D1*
X9833777Y9709117D1*
X9849143Y9726667D1*
X9865760Y9743040D1*
X9883537Y9758147D1*
X9902373Y9771910D1*
X9922170Y9784250D1*
X9942820Y9795103D1*
X9964210Y9804407D1*
X9986227Y9812117D1*
X10008753Y9818187D1*
X10031663Y9822587D1*
X10054833Y9825290D1*
X10078140Y9826283D1*
X10101457Y9825563D1*
X10124657Y9823130D1*
X10147617Y9819000D1*
X10170210Y9813197D1*
X10192317Y9805747D1*
X10213817Y9796690D1*
X10234593Y9786080D1*
X10254533Y9773973D1*
X10273530Y9760433D1*
X10291480Y9745537D1*
X10308287Y9729357D1*
X10323860Y9711990D1*
X10338117Y9693523D1*
X10350977Y9674060D1*
X10362370Y9653703D1*
X10372240Y9632567D1*
X10380530Y9610760D1*
X10387193Y9588407D1*
X10392197Y9565620D1*
X10395513Y9542530D1*
X10397290Y9509000D1*
X10396433Y9485687D1*
X8220710Y7020393D2*
X8217990Y7003223D1*
X8212617Y6986690D1*
X8204723Y6971200D1*
X8194507Y6957133D1*
X8182213Y6944840D1*
X8168147Y6934623D1*
X8152657Y6926730D1*
X8138053Y6921903D1*
X8137577Y6711783D1*
X10447683Y6726283D1*
X10468043Y9868293D1*
X9752097Y9869483D1*
X9745627Y8412490D1*
X9743573Y8405313D1*
X9739900Y8398817D1*
X9734810Y8393357D1*
X9728587Y8389237D1*
X9721573Y8386683D1*
X9714147Y8385837D1*
X8141407Y8395363D1*
X8138553Y7136157D1*
X8152657Y7131443D1*
X8168147Y7123550D1*
X8182213Y7113333D1*
X8194507Y7101040D1*
X8204723Y7086973D1*
X8212617Y7071483D1*
X8217990Y7054950D1*
X8220710Y7037780D1*
Y7020393D1*
X1213030Y9663940D2*
X1899330D1*
X1213030Y9600773D2*
X1899693D1*
X1213030Y9537607D2*
X1357377D1*
X1658553D2*
X1900057D1*
X1213030Y9474440D2*
X1272520D1*
X1743500D2*
X1900423D1*
X1790530Y9411273D2*
X1900787D1*
X1817693Y9348107D2*
X1901153D1*
X1830180Y9284940D2*
X1901517D1*
X1829907Y9221773D2*
X1901880D1*
X1816600Y9158607D2*
X1902247D1*
X1788617Y9095440D2*
X1902700D1*
X1212940Y9032273D2*
X1275710D1*
X1740310D2*
X1903067D1*
X1212940Y8969107D2*
X1364030D1*
X1651990D2*
X1903430D1*
X1212940Y8905940D2*
X1903793D1*
X1212940Y8842773D2*
X4244420D1*
X1212940Y8779607D2*
X4244693D1*
X1212940Y8716440D2*
X4244967D1*
X1212940Y8653273D2*
X4245240D1*
X1212850Y8590107D2*
X4245603D1*
X1212850Y8526940D2*
X4245877D1*
X1212850Y8463773D2*
X2061843D1*
X2107627D2*
X4246153D1*
X1212850Y8400607D2*
X1977987D1*
X2191573D2*
X4246517D1*
X1212850Y8337440D2*
X1969330D1*
X2200233D2*
X4246790D1*
X1212850Y8274273D2*
X2002507D1*
X2167053D2*
X2822090D1*
X2911807D2*
X3687610D1*
X3847420D2*
X4247063D1*
X1212850Y8211107D2*
X2379940D1*
X2569463D2*
X2757557D1*
X2976340D2*
X3652153D1*
X3882877D2*
X6539653D1*
X1212850Y8147940D2*
X2357610D1*
X2591793D2*
X2752090D1*
X2981807D2*
X3659263D1*
X3875767D2*
X6539653D1*
X1212850Y8084773D2*
X2375020D1*
X2574477D2*
X2790280D1*
X2943617D2*
X3731177D1*
X3803853D2*
X6539653D1*
X1212757Y8021607D2*
X5397050D1*
X1212757Y7958440D2*
X5378820D1*
X1212757Y7895273D2*
X4096033D1*
X4247187D2*
X5378273D1*
X1212757Y7832107D2*
X4056933D1*
X4286287D2*
X5377637D1*
X1212757Y7768940D2*
X2678170D1*
X2861950D2*
X4061853D1*
X4281363D2*
X5376997D1*
X1212757Y7705773D2*
X2653103D1*
X2886923D2*
X3079577D1*
X3601143D2*
X4124380D1*
X4218840D2*
X5376450D1*
X1212757Y7642607D2*
X2668053D1*
X2872067D2*
X3067727D1*
X3622837D2*
X5375813D1*
X1212757Y7579440D2*
X3096530D1*
X3604880D2*
X4515213D1*
X4643670D2*
X5375267D1*
X1212757Y7516273D2*
X2461790D1*
X2616493D2*
X4466997D1*
X4691793D2*
X5374627D1*
X1212667Y7453107D2*
X2424147D1*
X2654137D2*
X4467453D1*
X4691430D2*
X5374080D1*
X1212667Y7389940D2*
X2186257D1*
X2364203D2*
X2429980D1*
X2648303D2*
X2701140D1*
X2838983D2*
X4517403D1*
X4641483D2*
X5373443D1*
X1212667Y7326773D2*
X2158640D1*
X2391910D2*
X2495970D1*
X2582317D2*
X2656570D1*
X2883553D2*
X5372897D1*
X1212667Y7263607D2*
X2171307D1*
X2379150D2*
X2658573D1*
X2881547D2*
X5372260D1*
X1212667Y7200440D2*
X2712167D1*
X2827953D2*
X5371710D1*
X1212667Y7137273D2*
X5371073D1*
X1212667Y7074107D2*
X5370527D1*
X1212667Y7010940D2*
X2143600D1*
X2291650D2*
X3396033D1*
X3803577D2*
X5369890D1*
X1212577Y6947773D2*
X2103497D1*
X2331757D2*
X3376620D1*
X3816703D2*
X4020657D1*
X1212577Y6884607D2*
X2107960D1*
X2327290D2*
X3396673D1*
X3590753D2*
X3610593D1*
X3789360D2*
X4020383D1*
X1212577Y6821440D2*
X2169303D1*
X2265947D2*
X4020200D1*
X1212577Y6758273D2*
X4020020D1*
X1212577Y6695107D2*
X4019837D1*
X1212577Y6631940D2*
X4019653D1*
X1212577Y6568773D2*
X2129747D1*
X2315167D2*
X2431893D1*
X2522160D2*
X4019380D1*
X1212577Y6505607D2*
X1875357D1*
X1971637D2*
X2122820D1*
X2322093D2*
X2367820D1*
X2586233D2*
X4019200D1*
X1212577Y6442440D2*
X1813833D1*
X2033160D2*
X2171673D1*
X2273240D2*
X2362623D1*
X2591430D2*
X4019017D1*
X1212483Y6379273D2*
X1809277D1*
X2037627D2*
X2401450D1*
X2552693D2*
X4018833D1*
X1212483Y6316107D2*
X1849380D1*
X1997613D2*
X4018653D1*
X1212483Y6252940D2*
X4018470D1*
X1212483Y6189773D2*
X4018197D1*
X1212483Y6126607D2*
X4018013D1*
X1212483Y6063440D2*
X4017830D1*
X1212483Y6000273D2*
X4017650D1*
X1212483Y5937107D2*
X4017467D1*
X1212483Y5873940D2*
X4017193D1*
X1212393Y5810773D2*
X2794290D1*
X3460507D2*
X4017010D1*
X1212393Y5747607D2*
X2778247D1*
X1212393Y5684440D2*
X2778430D1*
X1212393Y5621273D2*
X2778613D1*
X1212393Y5558107D2*
X2315957D1*
X2510673D2*
X2778793D1*
X1212393Y5494940D2*
X1876817D1*
X2154750D2*
X2296450D1*
X2530090D2*
X2778977D1*
X1212393Y5431773D2*
X1617870D1*
X1783877D2*
X1841543D1*
X2155207D2*
X2316777D1*
X2509853D2*
X2779160D1*
X1212393Y5368607D2*
X1585240D1*
X1816417D2*
X1848833D1*
X2083020D2*
X2779343D1*
X1212393Y5305440D2*
X1594447D1*
X1807303D2*
X1921477D1*
X1992420D2*
X2494330D1*
X2612483D2*
X2779523D1*
X1212303Y5242273D2*
X1683770D1*
X1717910D2*
X2441920D1*
X2664893D2*
X2779707D1*
X1212303Y5179107D2*
X2440553D1*
X2666260D2*
X2779890D1*
X1212303Y5115940D2*
X2486580D1*
X2620323D2*
X2780070D1*
X1212303Y5052773D2*
X1793873D1*
X1940650D2*
X2780253D1*
X1212303Y4989607D2*
X1765253D1*
X1969270D2*
X2780527D1*
X1212303Y4926440D2*
X1784577D1*
X1949853D2*
X2780710D1*
X1212303Y4863273D2*
X2780890D1*
X1212303Y4800107D2*
X2781073D1*
X2194903Y8345883D2*
X2192190Y8328760D1*
X2186833Y8312273D1*
X2178963Y8296830D1*
X2168777Y8282807D1*
X2156517Y8270547D1*
X2142493Y8260360D1*
X2127050Y8252490D1*
X2110563Y8247133D1*
X2093440Y8244420D1*
X2076107D1*
X2058983Y8247133D1*
X2042497Y8252490D1*
X2027053Y8260360D1*
X2013030Y8270547D1*
X2000770Y8282807D1*
X1990583Y8296830D1*
X1982713Y8312273D1*
X1977357Y8328760D1*
X1974643Y8345883D1*
Y8363217D1*
X1977357Y8380340D1*
X1982713Y8396827D1*
X1990583Y8412270D1*
X2000770Y8426293D1*
X2013030Y8438553D1*
X2027053Y8448740D1*
X2042497Y8456610D1*
X2058983Y8461967D1*
X2076107Y8464680D1*
X2093440D1*
X2110563Y8461967D1*
X2127050Y8456610D1*
X2142493Y8448740D1*
X2156517Y8438553D1*
X2168777Y8426293D1*
X2178963Y8412270D1*
X2186833Y8396827D1*
X2192190Y8380340D1*
X2194903Y8363217D1*
Y8345883D1*
X2327753Y6914943D2*
X2325040Y6897820D1*
X2319683Y6881333D1*
X2311813Y6865890D1*
X2301627Y6851867D1*
X2289367Y6839607D1*
X2275343Y6829420D1*
X2259900Y6821550D1*
X2243413Y6816193D1*
X2226290Y6813480D1*
X2208957D1*
X2191833Y6816193D1*
X2175347Y6821550D1*
X2159903Y6829420D1*
X2145880Y6839607D1*
X2133620Y6851867D1*
X2123433Y6865890D1*
X2115563Y6881333D1*
X2110207Y6897820D1*
X2107493Y6914943D1*
Y6932277D1*
X2110207Y6949400D1*
X2115563Y6965887D1*
X2123433Y6981330D1*
X2133620Y6995353D1*
X2145880Y7007613D1*
X2159903Y7017800D1*
X2175347Y7025670D1*
X2191833Y7031027D1*
X2208957Y7033740D1*
X2226290D1*
X2243413Y7031027D1*
X2259900Y7025670D1*
X2275343Y7017800D1*
X2289367Y7007613D1*
X2301627Y6995353D1*
X2311813Y6981330D1*
X2319683Y6965887D1*
X2325040Y6949400D1*
X2327753Y6932277D1*
Y6914943D1*
X2033610Y6394670D2*
X2030897Y6377547D1*
X2025540Y6361060D1*
X2017670Y6345617D1*
X2007483Y6331593D1*
X1995223Y6319333D1*
X1981200Y6309147D1*
X1965757Y6301277D1*
X1949270Y6295920D1*
X1932147Y6293207D1*
X1914813D1*
X1897690Y6295920D1*
X1881203Y6301277D1*
X1865760Y6309147D1*
X1851737Y6319333D1*
X1839477Y6331593D1*
X1829290Y6345617D1*
X1821420Y6361060D1*
X1816063Y6377547D1*
X1813350Y6394670D1*
Y6412003D1*
X1816063Y6429127D1*
X1821420Y6445613D1*
X1829290Y6461057D1*
X1839477Y6475080D1*
X1851737Y6487340D1*
X1865760Y6497527D1*
X1881203Y6505397D1*
X1897690Y6510753D1*
X1914813Y6513467D1*
X1932147D1*
X1949270Y6510753D1*
X1965757Y6505397D1*
X1981200Y6497527D1*
X1995223Y6487340D1*
X2007483Y6475080D1*
X2017670Y6461057D1*
X2025540Y6445613D1*
X2030897Y6429127D1*
X2033610Y6412003D1*
Y6394670D1*
X2587183Y6456670D2*
X2584470Y6439547D1*
X2579113Y6423060D1*
X2571243Y6407617D1*
X2561057Y6393593D1*
X2548797Y6381333D1*
X2534773Y6371147D1*
X2519330Y6363277D1*
X2502843Y6357920D1*
X2485720Y6355207D1*
X2468387D1*
X2451263Y6357920D1*
X2434777Y6363277D1*
X2419333Y6371147D1*
X2405310Y6381333D1*
X2393050Y6393593D1*
X2382863Y6407617D1*
X2374993Y6423060D1*
X2369637Y6439547D1*
X2366923Y6456670D1*
Y6474003D1*
X2369637Y6491127D1*
X2374993Y6507613D1*
X2382863Y6523057D1*
X2393050Y6537080D1*
X2405310Y6549340D1*
X2419333Y6559527D1*
X2434777Y6567397D1*
X2451263Y6572753D1*
X2468387Y6575467D1*
X2485720D1*
X2502843Y6572753D1*
X2519330Y6567397D1*
X2534773Y6559527D1*
X2548797Y6549340D1*
X2561057Y6537080D1*
X2571243Y6523057D1*
X2579113Y6507613D1*
X2584470Y6491127D1*
X2587183Y6474003D1*
Y6456670D1*
X2523437Y5486857D2*
X2520723Y5469733D1*
X2515367Y5453247D1*
X2507497Y5437803D1*
X2497310Y5423780D1*
X2485050Y5411520D1*
X2471027Y5401333D1*
X2455583Y5393463D1*
X2439097Y5388107D1*
X2421973Y5385393D1*
X2404640D1*
X2387517Y5388107D1*
X2371030Y5393463D1*
X2355587Y5401333D1*
X2341563Y5411520D1*
X2329303Y5423780D1*
X2319117Y5437803D1*
X2311247Y5453247D1*
X2305890Y5469733D1*
X2303177Y5486857D1*
Y5504190D1*
X2305890Y5521313D1*
X2311247Y5537800D1*
X2319117Y5553243D1*
X2329303Y5567267D1*
X2341563Y5579527D1*
X2355587Y5589713D1*
X2371030Y5597583D1*
X2387517Y5602940D1*
X2404640Y5605653D1*
X2421973D1*
X2439097Y5602940D1*
X2455583Y5597583D1*
X2471027Y5589713D1*
X2485050Y5579527D1*
X2497310Y5567267D1*
X2507497Y5553243D1*
X2515367Y5537800D1*
X2520723Y5521313D1*
X2523437Y5504190D1*
Y5486857D1*
X2663557Y5199700D2*
X2660843Y5182577D1*
X2655487Y5166090D1*
X2647617Y5150647D1*
X2637430Y5136623D1*
X2625170Y5124363D1*
X2611147Y5114177D1*
X2595703Y5106307D1*
X2579217Y5100950D1*
X2562093Y5098237D1*
X2544760D1*
X2527637Y5100950D1*
X2511150Y5106307D1*
X2495707Y5114177D1*
X2481683Y5124363D1*
X2469423Y5136623D1*
X2459237Y5150647D1*
X2451367Y5166090D1*
X2446010Y5182577D1*
X2443297Y5199700D1*
Y5217033D1*
X2446010Y5234157D1*
X2451367Y5250643D1*
X2459237Y5266087D1*
X2469423Y5280110D1*
X2481683Y5292370D1*
X2495707Y5302557D1*
X2511150Y5310427D1*
X2527637Y5315783D1*
X2544760Y5318497D1*
X2562093D1*
X2579217Y5315783D1*
X2595703Y5310427D1*
X2611147Y5302557D1*
X2625170Y5292370D1*
X2637430Y5280110D1*
X2647617Y5266087D1*
X2655487Y5250643D1*
X2660843Y5234157D1*
X2663557Y5217033D1*
Y5199700D1*
X1810980Y5343553D2*
X1808267Y5326430D1*
X1802910Y5309943D1*
X1795040Y5294500D1*
X1784853Y5280477D1*
X1772593Y5268217D1*
X1758570Y5258030D1*
X1743127Y5250160D1*
X1726640Y5244803D1*
X1709517Y5242090D1*
X1692183D1*
X1675060Y5244803D1*
X1658573Y5250160D1*
X1643130Y5258030D1*
X1629107Y5268217D1*
X1616847Y5280477D1*
X1606660Y5294500D1*
X1598790Y5309943D1*
X1593433Y5326430D1*
X1590720Y5343553D1*
Y5360887D1*
X1593433Y5378010D1*
X1598790Y5394497D1*
X1606660Y5409940D1*
X1616847Y5423963D1*
X1629107Y5436223D1*
X1643130Y5446410D1*
X1658573Y5454280D1*
X1675060Y5459637D1*
X1692183Y5462350D1*
X1709517D1*
X1726640Y5459637D1*
X1743127Y5454280D1*
X1758570Y5446410D1*
X1772593Y5436223D1*
X1784853Y5423963D1*
X1795040Y5409940D1*
X1802910Y5394497D1*
X1808267Y5378010D1*
X1810980Y5360887D1*
Y5343553D1*
X1962727Y4976837D2*
X1960377Y4961990D1*
X1955733Y4947697D1*
X1948907Y4934303D1*
X1940073Y4922143D1*
X1929443Y4911513D1*
X1917283Y4902680D1*
X1903890Y4895853D1*
X1889597Y4891210D1*
X1874750Y4888860D1*
X1859717D1*
X1844870Y4891210D1*
X1830577Y4895853D1*
X1817183Y4902680D1*
X1805023Y4911513D1*
X1794393Y4922143D1*
X1785560Y4934303D1*
X1778733Y4947697D1*
X1774090Y4961990D1*
X1771740Y4976837D1*
Y4991870D1*
X1774090Y5006717D1*
X1778733Y5021010D1*
X1785560Y5034403D1*
X1794393Y5046563D1*
X1805023Y5057193D1*
X1817183Y5066027D1*
X1830577Y5072853D1*
X1844870Y5077497D1*
X1859717Y5079847D1*
X1874750D1*
X1889597Y5077497D1*
X1903890Y5072853D1*
X1917283Y5066027D1*
X1929443Y5057193D1*
X1940073Y5046563D1*
X1948907Y5034403D1*
X1955733Y5021010D1*
X1960377Y5006717D1*
X1962727Y4991870D1*
Y4976837D1*
X4689563Y7476680D2*
X4686850Y7459557D1*
X4681493Y7443070D1*
X4673623Y7427627D1*
X4663437Y7413603D1*
X4651177Y7401343D1*
X4637153Y7391157D1*
X4621710Y7383287D1*
X4605223Y7377930D1*
X4588100Y7375217D1*
X4570767D1*
X4553643Y7377930D1*
X4537157Y7383287D1*
X4521713Y7391157D1*
X4507690Y7401343D1*
X4495430Y7413603D1*
X4485243Y7427627D1*
X4477373Y7443070D1*
X4472017Y7459557D1*
X4469303Y7476680D1*
Y7494013D1*
X4472017Y7511137D1*
X4477373Y7527623D1*
X4485243Y7543067D1*
X4495430Y7557090D1*
X4507690Y7569350D1*
X4521713Y7579537D1*
X4537157Y7587407D1*
X4553643Y7592763D1*
X4570767Y7595477D1*
X4588100D1*
X4605223Y7592763D1*
X4621710Y7587407D1*
X4637153Y7579537D1*
X4651177Y7569350D1*
X4663437Y7557090D1*
X4673623Y7543067D1*
X4681493Y7527623D1*
X4686850Y7511137D1*
X4689563Y7494013D1*
Y7476680D1*
X1824433Y9231687D2*
X1821863Y9208500D1*
X1817600Y9185567D1*
X1811660Y9163007D1*
X1804080Y9140943D1*
X1794900Y9119500D1*
X1784170Y9098787D1*
X1771947Y9078917D1*
X1758297Y9060000D1*
X1743290Y9042137D1*
X1727017Y9025423D1*
X1709557Y9009953D1*
X1691007Y8995807D1*
X1671470Y8983060D1*
X1651047Y8971787D1*
X1629850Y8962040D1*
X1607997Y8953880D1*
X1585603Y8947347D1*
X1562790Y8942477D1*
X1539680Y8939297D1*
X1516397Y8937820D1*
X1493070Y8938060D1*
X1469823Y8940017D1*
X1446783Y8943670D1*
X1424077Y8949010D1*
X1401820Y8956003D1*
X1380140Y8964613D1*
X1359150Y8974793D1*
X1338963Y8986487D1*
X1319693Y8999633D1*
X1301437Y9014157D1*
X1284300Y9029987D1*
X1268373Y9047030D1*
X1253740Y9065197D1*
X1240483Y9084393D1*
X1228670Y9104510D1*
X1218367Y9125440D1*
X1206653Y9156353D1*
X1205913Y4764143D1*
X2787433Y4759370D1*
X2784590Y5785520D1*
X2786027Y5792847D1*
X2789130Y5799633D1*
X2793733Y5805507D1*
X2799580Y5810147D1*
X2806350Y5813290D1*
X2813667Y5814767D1*
X4023290Y5807113D1*
X4027107Y6959777D1*
X4028583Y6967093D1*
X4031730Y6973860D1*
X4036370Y6979707D1*
X4042247Y6984310D1*
X4049033Y6987413D1*
X4056360Y6988847D1*
X5376000Y6984337D1*
X5385940Y7998307D1*
X5388033Y8005473D1*
X5391740Y8011950D1*
X5396857Y8017383D1*
X5403103Y8021470D1*
X5410130Y8023987D1*
X5415067Y8024720D1*
X6545910Y8024797D1*
X6545970Y8223920D1*
X4282487Y8239050D1*
X4275177Y8240557D1*
X4268420Y8243727D1*
X4262590Y8248387D1*
X4258010Y8254277D1*
X4254930Y8261077D1*
X4253520Y8268417D1*
X4250573Y8876010D1*
X1937023Y8869743D1*
X1929833Y8871750D1*
X1923310Y8875377D1*
X1917817Y8880427D1*
X1913650Y8886620D1*
X1911047Y8893617D1*
X1910253Y8898543D1*
X1905293Y9726423D1*
X1206730Y9712593D1*
X1206667Y9354430D1*
X1214330Y9375130D1*
X1223950Y9396383D1*
X1235107Y9416870D1*
X1247737Y9436483D1*
X1261777Y9455117D1*
X1277143Y9472667D1*
X1293760Y9489040D1*
X1311537Y9504147D1*
X1330373Y9517910D1*
X1350170Y9530250D1*
X1370820Y9541103D1*
X1392210Y9550407D1*
X1414227Y9558117D1*
X1436753Y9564187D1*
X1459663Y9568587D1*
X1482833Y9571290D1*
X1506140Y9572283D1*
X1529457Y9571563D1*
X1552657Y9569130D1*
X1575617Y9565000D1*
X1598210Y9559197D1*
X1620317Y9551747D1*
X1641817Y9542690D1*
X1662593Y9532080D1*
X1682533Y9519973D1*
X1701530Y9506433D1*
X1719480Y9491537D1*
X1736287Y9475357D1*
X1751860Y9457990D1*
X1766117Y9439523D1*
X1778977Y9420060D1*
X1790370Y9399703D1*
X1800240Y9378567D1*
X1808530Y9356760D1*
X1815193Y9334407D1*
X1820197Y9311620D1*
X1823513Y9288530D1*
X1825290Y9255000D1*
X1824433Y9231687D1*
X2153700Y5455083D2*
X2151350Y5440237D1*
X2146707Y5425943D1*
X2139880Y5412550D1*
X2131047Y5400390D1*
X2120417Y5389760D1*
X2108257Y5380927D1*
X2094863Y5374100D1*
X2080570Y5369457D1*
X2065723Y5367107D1*
X2058000Y5366817D1*
X2051447Y5354447D1*
X2041230Y5340380D1*
X2028937Y5328087D1*
X2014870Y5317870D1*
X1999380Y5309977D1*
X1982847Y5304603D1*
X1965677Y5301883D1*
X1948290D1*
X1931120Y5304603D1*
X1914587Y5309977D1*
X1899097Y5317870D1*
X1885030Y5328087D1*
X1872737Y5340380D1*
X1862520Y5354447D1*
X1854627Y5369937D1*
X1849253Y5386470D1*
X1846533Y5403640D1*
Y5421027D1*
X1849253Y5438197D1*
X1854627Y5454730D1*
X1862520Y5470220D1*
X1872737Y5484287D1*
X1885030Y5496580D1*
X1899097Y5506797D1*
X1914587Y5514690D1*
X1931120Y5520063D1*
X1948290Y5522783D1*
X1965677D1*
X1981747Y5520280D1*
X1990473Y5530333D1*
X2001903Y5540097D1*
X2014720Y5547950D1*
X2028607Y5553703D1*
X2043223Y5557210D1*
X2058207Y5558390D1*
X2073190Y5557210D1*
X2087807Y5553703D1*
X2101693Y5547950D1*
X2114510Y5540097D1*
X2125940Y5530333D1*
X2135703Y5518903D1*
X2143557Y5506087D1*
X2149310Y5492200D1*
X2152817Y5477583D1*
X2153997Y5462600D1*
X2153700Y5455083D1*
X2317957Y6519787D2*
X2315607Y6504940D1*
X2310963Y6490647D1*
X2304137Y6477253D1*
X2295303Y6465093D1*
X2284673Y6454463D1*
X2272513Y6445630D1*
X2259120Y6438803D1*
X2244827Y6434160D1*
X2229980Y6431810D1*
X2214947D1*
X2200100Y6434160D1*
X2185807Y6438803D1*
X2172413Y6445630D1*
X2160253Y6454463D1*
X2149623Y6465093D1*
X2140790Y6477253D1*
X2133963Y6490647D1*
X2129320Y6504940D1*
X2126970Y6519787D1*
Y6534820D1*
X2129320Y6549667D1*
X2133963Y6563960D1*
X2140790Y6577353D1*
X2149623Y6589513D1*
X2160253Y6600143D1*
X2172413Y6608977D1*
X2185807Y6615803D1*
X2200100Y6620447D1*
X2214947Y6622797D1*
X2229980D1*
X2244827Y6620447D1*
X2259120Y6615803D1*
X2272513Y6608977D1*
X2284673Y6600143D1*
X2295303Y6589513D1*
X2304137Y6577353D1*
X2310963Y6563960D1*
X2315607Y6549667D1*
X2317957Y6534820D1*
Y6519787D1*
X3877940Y8182737D2*
X3875220Y8165567D1*
X3869847Y8149033D1*
X3861953Y8133543D1*
X3851737Y8119477D1*
X3839443Y8107183D1*
X3825377Y8096967D1*
X3809887Y8089073D1*
X3793353Y8083700D1*
X3776183Y8080980D1*
X3758797D1*
X3741627Y8083700D1*
X3725093Y8089073D1*
X3709603Y8096967D1*
X3695537Y8107183D1*
X3683243Y8119477D1*
X3673027Y8133543D1*
X3665133Y8149033D1*
X3659760Y8165567D1*
X3657040Y8182737D1*
Y8200123D1*
X3659760Y8217293D1*
X3665133Y8233827D1*
X3673027Y8249317D1*
X3683243Y8263383D1*
X3695537Y8275677D1*
X3709603Y8285893D1*
X3725093Y8293787D1*
X3741627Y8299160D1*
X3758797Y8301880D1*
X3776183D1*
X3793353Y8299160D1*
X3809887Y8293787D1*
X3825377Y8285893D1*
X3839443Y8275677D1*
X3851737Y8263383D1*
X3861953Y8249317D1*
X3869847Y8233827D1*
X3875220Y8217293D1*
X3877940Y8200123D1*
Y8182737D1*
X3424230Y7564817D2*
X3409167Y7555543D1*
X3393107Y7548890D1*
X3376200Y7544830D1*
X3358870Y7543467D1*
X3341540Y7544830D1*
X3324633Y7548890D1*
X3308573Y7555543D1*
X3293750Y7564627D1*
X3280530Y7575917D1*
X3271407Y7586387D1*
X3262550Y7576350D1*
X3249330Y7565060D1*
X3234507Y7555977D1*
X3218447Y7549323D1*
X3201540Y7545263D1*
X3184210Y7543900D1*
X3166880Y7545263D1*
X3149973Y7549323D1*
X3133913Y7555977D1*
X3119090Y7565060D1*
X3105870Y7576350D1*
X3094580Y7589570D1*
X3085497Y7604393D1*
X3078843Y7620453D1*
X3074783Y7637360D1*
X3073420Y7654690D1*
X3074783Y7672020D1*
X3078843Y7688927D1*
X3085497Y7704987D1*
X3094580Y7719810D1*
X3105870Y7733030D1*
X3119090Y7744320D1*
X3133913Y7753403D1*
X3149973Y7760057D1*
X3166880Y7764117D1*
X3184210Y7765480D1*
X3201540Y7764117D1*
X3218447Y7760057D1*
X3234507Y7753403D1*
X3249330Y7744320D1*
X3262550Y7733030D1*
X3271673Y7722560D1*
X3280530Y7732597D1*
X3293750Y7743887D1*
X3308573Y7752970D1*
X3324633Y7759623D1*
X3341540Y7763683D1*
X3358870Y7765047D1*
X3376200Y7763683D1*
X3393107Y7759623D1*
X3409167Y7752970D1*
X3423990Y7743887D1*
X3437210Y7732597D1*
X3440583Y7729540D1*
X3455407Y7738623D1*
X3471467Y7745277D1*
X3488373Y7749337D1*
X3505703Y7750700D1*
X3523033Y7749337D1*
X3539940Y7745277D1*
X3556000Y7738623D1*
X3570823Y7729540D1*
X3584043Y7718250D1*
X3595333Y7705030D1*
X3604417Y7690207D1*
X3611070Y7674147D1*
X3615130Y7657240D1*
X3616493Y7639910D1*
X3615130Y7622580D1*
X3611070Y7605673D1*
X3604417Y7589613D1*
X3595333Y7574790D1*
X3584043Y7561570D1*
X3570823Y7550280D1*
X3556000Y7541197D1*
X3539940Y7534543D1*
X3523033Y7530483D1*
X3505703Y7529120D1*
X3488373Y7530483D1*
X3471467Y7534543D1*
X3455407Y7541197D1*
X3440583Y7550280D1*
X3427363Y7561570D1*
X3424297Y7564890D1*
X2649593Y7422567D2*
X2646873Y7405397D1*
X2641500Y7388863D1*
X2633607Y7373373D1*
X2623390Y7359307D1*
X2611097Y7347013D1*
X2597030Y7336797D1*
X2581540Y7328903D1*
X2565007Y7323530D1*
X2547837Y7320810D1*
X2530450D1*
X2513280Y7323530D1*
X2496747Y7328903D1*
X2481257Y7336797D1*
X2467190Y7347013D1*
X2454897Y7359307D1*
X2444680Y7373373D1*
X2436787Y7388863D1*
X2431413Y7405397D1*
X2428693Y7422567D1*
Y7439953D1*
X2431413Y7457123D1*
X2436787Y7473657D1*
X2444680Y7489147D1*
X2454897Y7503213D1*
X2467190Y7515507D1*
X2481257Y7525723D1*
X2496747Y7533617D1*
X2513280Y7538990D1*
X2530450Y7541710D1*
X2547837D1*
X2565007Y7538990D1*
X2581540Y7533617D1*
X2597030Y7525723D1*
X2611097Y7515507D1*
X2623390Y7503213D1*
X2633607Y7489147D1*
X2641500Y7473657D1*
X2646873Y7457123D1*
X2649593Y7439953D1*
Y7422567D1*
X2880490Y7689833D2*
X2877770Y7672663D1*
X2872397Y7656130D1*
X2864503Y7640640D1*
X2854287Y7626573D1*
X2841993Y7614280D1*
X2827927Y7604063D1*
X2812437Y7596170D1*
X2795903Y7590797D1*
X2778733Y7588077D1*
X2761347D1*
X2744177Y7590797D1*
X2727643Y7596170D1*
X2712153Y7604063D1*
X2698087Y7614280D1*
X2685793Y7626573D1*
X2675577Y7640640D1*
X2667683Y7656130D1*
X2662310Y7672663D1*
X2659590Y7689833D1*
Y7707220D1*
X2662310Y7724390D1*
X2667683Y7740923D1*
X2675577Y7756413D1*
X2685793Y7770480D1*
X2698087Y7782773D1*
X2712153Y7792990D1*
X2727643Y7800883D1*
X2744177Y7806257D1*
X2761347Y7808977D1*
X2778733D1*
X2795903Y7806257D1*
X2812437Y7800883D1*
X2827927Y7792990D1*
X2841993Y7782773D1*
X2854287Y7770480D1*
X2864503Y7756413D1*
X2872397Y7740923D1*
X2877770Y7724390D1*
X2880490Y7707220D1*
Y7689833D1*
Y7289830D2*
X2877770Y7272660D1*
X2872397Y7256127D1*
X2864503Y7240637D1*
X2854287Y7226570D1*
X2841993Y7214277D1*
X2827927Y7204060D1*
X2812437Y7196167D1*
X2795903Y7190793D1*
X2778733Y7188073D1*
X2761347D1*
X2744177Y7190793D1*
X2727643Y7196167D1*
X2712153Y7204060D1*
X2698087Y7214277D1*
X2685793Y7226570D1*
X2675577Y7240637D1*
X2667683Y7256127D1*
X2662310Y7272660D1*
X2659590Y7289830D1*
Y7307217D1*
X2662310Y7324387D1*
X2667683Y7340920D1*
X2675577Y7356410D1*
X2685793Y7370477D1*
X2698087Y7382770D1*
X2712153Y7392987D1*
X2727643Y7400880D1*
X2744177Y7406253D1*
X2761347Y7408973D1*
X2778733D1*
X2795903Y7406253D1*
X2812437Y7400880D1*
X2827927Y7392987D1*
X2841993Y7382770D1*
X2854287Y7370477D1*
X2864503Y7356410D1*
X2872397Y7340920D1*
X2877770Y7324387D1*
X2880490Y7307217D1*
Y7289830D1*
X4282053Y7800067D2*
X4279333Y7782897D1*
X4273960Y7766363D1*
X4266067Y7750873D1*
X4255850Y7736807D1*
X4243557Y7724513D1*
X4229490Y7714297D1*
X4214000Y7706403D1*
X4197467Y7701030D1*
X4180297Y7698310D1*
X4162910D1*
X4145740Y7701030D1*
X4129207Y7706403D1*
X4113717Y7714297D1*
X4099650Y7724513D1*
X4087357Y7736807D1*
X4077140Y7750873D1*
X4069247Y7766363D1*
X4063873Y7782897D1*
X4061153Y7800067D1*
Y7817453D1*
X4063873Y7834623D1*
X4069247Y7851157D1*
X4077140Y7866647D1*
X4087357Y7880713D1*
X4099650Y7893007D1*
X4113717Y7903223D1*
X4129207Y7911117D1*
X4145740Y7916490D1*
X4162910Y7919210D1*
X4180297D1*
X4197467Y7916490D1*
X4214000Y7911117D1*
X4229490Y7903223D1*
X4243557Y7893007D1*
X4255850Y7880713D1*
X4266067Y7866647D1*
X4273960Y7851157D1*
X4279333Y7834623D1*
X4282053Y7817453D1*
Y7800067D1*
X3598727Y6913020D2*
X3592437Y6897947D1*
X3583353Y6883123D1*
X3572063Y6869903D1*
X3558843Y6858613D1*
X3544020Y6849530D1*
X3527960Y6842877D1*
X3511053Y6838817D1*
X3493723Y6837453D1*
X3476393Y6838817D1*
X3459487Y6842877D1*
X3443427Y6849530D1*
X3428603Y6858613D1*
X3415383Y6869903D1*
X3404093Y6883123D1*
X3395010Y6897947D1*
X3388357Y6914007D1*
X3384297Y6930913D1*
X3382933Y6948243D1*
X3384297Y6965573D1*
X3388357Y6982480D1*
X3395010Y6998540D1*
X3404093Y7013363D1*
X3415383Y7026583D1*
X3428603Y7037873D1*
X3443427Y7046957D1*
X3459487Y7053610D1*
X3476393Y7057670D1*
X3493723Y7059033D1*
X3511053Y7057670D1*
X3527960Y7053610D1*
X3544020Y7046957D1*
X3558843Y7037873D1*
X3572063Y7026583D1*
X3583353Y7013363D1*
X3592437Y6998540D1*
X3594927Y6993140D1*
X3601277Y7008220D1*
X3610360Y7023043D1*
X3621650Y7036263D1*
X3634870Y7047553D1*
X3649693Y7056637D1*
X3665753Y7063290D1*
X3682660Y7067350D1*
X3699990Y7068713D1*
X3717320Y7067350D1*
X3734227Y7063290D1*
X3750287Y7056637D1*
X3765110Y7047553D1*
X3778330Y7036263D1*
X3789620Y7023043D1*
X3798703Y7008220D1*
X3805357Y6992160D1*
X3809417Y6975253D1*
X3810780Y6957923D1*
X3809417Y6940593D1*
X3805357Y6923687D1*
X3798703Y6907627D1*
X3789620Y6892803D1*
X3778330Y6879583D1*
X3765110Y6868293D1*
X3750287Y6859210D1*
X3734227Y6852557D1*
X3717320Y6848497D1*
X3699990Y6847133D1*
X3682660Y6848497D1*
X3665753Y6852557D1*
X3649693Y6859210D1*
X3634870Y6868293D1*
X3621650Y6879583D1*
X3610360Y6892803D1*
X3601277Y6907627D1*
X3598787Y6913027D1*
X2977400Y8161707D2*
X2974680Y8144537D1*
X2969307Y8128003D1*
X2961413Y8112513D1*
X2951197Y8098447D1*
X2938903Y8086153D1*
X2924837Y8075937D1*
X2909347Y8068043D1*
X2892813Y8062670D1*
X2875643Y8059950D1*
X2858257D1*
X2841087Y8062670D1*
X2824553Y8068043D1*
X2809063Y8075937D1*
X2794997Y8086153D1*
X2782703Y8098447D1*
X2772487Y8112513D1*
X2764593Y8128003D1*
X2759220Y8144537D1*
X2756500Y8161707D1*
Y8179093D1*
X2759220Y8196263D1*
X2764593Y8212797D1*
X2772487Y8228287D1*
X2782703Y8242353D1*
X2794997Y8254647D1*
X2809063Y8264863D1*
X2824553Y8272757D1*
X2841087Y8278130D1*
X2858257Y8280850D1*
X2875643D1*
X2892813Y8278130D1*
X2909347Y8272757D1*
X2924837Y8264863D1*
X2938903Y8254647D1*
X2951197Y8242353D1*
X2961413Y8228287D1*
X2969307Y8212797D1*
X2974680Y8196263D1*
X2977400Y8179093D1*
Y8161707D1*
X2585170Y8135680D2*
X2582450Y8118510D1*
X2577077Y8101977D1*
X2569183Y8086487D1*
X2558967Y8072420D1*
X2546673Y8060127D1*
X2532607Y8049910D1*
X2517117Y8042017D1*
X2500583Y8036643D1*
X2483413Y8033923D1*
X2466027D1*
X2448857Y8036643D1*
X2432323Y8042017D1*
X2416833Y8049910D1*
X2402767Y8060127D1*
X2390473Y8072420D1*
X2380257Y8086487D1*
X2372363Y8101977D1*
X2366990Y8118510D1*
X2364270Y8135680D1*
Y8153067D1*
X2366990Y8170237D1*
X2372363Y8186770D1*
X2380257Y8202260D1*
X2390473Y8216327D1*
X2402767Y8228620D1*
X2416833Y8238837D1*
X2432323Y8246730D1*
X2448857Y8252103D1*
X2466027Y8254823D1*
X2483413D1*
X2500583Y8252103D1*
X2517117Y8246730D1*
X2532607Y8238837D1*
X2546673Y8228620D1*
X2558967Y8216327D1*
X2569183Y8202260D1*
X2577077Y8186770D1*
X2582450Y8170237D1*
X2585170Y8153067D1*
Y8135680D1*
X2977400Y8161707D2*
X2974680Y8144537D1*
X2969307Y8128003D1*
X2961413Y8112513D1*
X2951197Y8098447D1*
X2938903Y8086153D1*
X2924837Y8075937D1*
X2909347Y8068043D1*
X2892813Y8062670D1*
X2875643Y8059950D1*
X2858257D1*
X2841087Y8062670D1*
X2824553Y8068043D1*
X2809063Y8075937D1*
X2794997Y8086153D1*
X2782703Y8098447D1*
X2772487Y8112513D1*
X2764593Y8128003D1*
X2759220Y8144537D1*
X2756500Y8161707D1*
Y8179093D1*
X2759220Y8196263D1*
X2764593Y8212797D1*
X2772487Y8228287D1*
X2782703Y8242353D1*
X2794997Y8254647D1*
X2809063Y8264863D1*
X2824553Y8272757D1*
X2841087Y8278130D1*
X2858257Y8280850D1*
X2875643D1*
X2892813Y8278130D1*
X2909347Y8272757D1*
X2924837Y8264863D1*
X2938903Y8254647D1*
X2951197Y8242353D1*
X2961413Y8228287D1*
X2969307Y8212797D1*
X2974680Y8196263D1*
X2977400Y8179093D1*
Y8161707D1*
X2385697Y7307407D2*
X2382977Y7290237D1*
X2377603Y7273703D1*
X2369710Y7258213D1*
X2359493Y7244147D1*
X2347200Y7231853D1*
X2333133Y7221637D1*
X2317643Y7213743D1*
X2301110Y7208370D1*
X2283940Y7205650D1*
X2266553D1*
X2249383Y7208370D1*
X2232850Y7213743D1*
X2217360Y7221637D1*
X2203293Y7231853D1*
X2191000Y7244147D1*
X2180783Y7258213D1*
X2172890Y7273703D1*
X2167517Y7290237D1*
X2164797Y7307407D1*
Y7324793D1*
X2167517Y7341963D1*
X2172890Y7358497D1*
X2180783Y7373987D1*
X2191000Y7388053D1*
X2203293Y7400347D1*
X2217360Y7410563D1*
X2232850Y7418457D1*
X2249383Y7423830D1*
X2266553Y7426550D1*
X2283940D1*
X2301110Y7423830D1*
X2317643Y7418457D1*
X2333133Y7410563D1*
X2347200Y7400347D1*
X2359493Y7388053D1*
X2369710Y7373987D1*
X2377603Y7358497D1*
X2382977Y7341963D1*
X2385697Y7324793D1*
Y7307407D1*
D33*
X7391000Y8775000D3*
X7266000D3*
X7141000D3*
X7016000D3*
X6891000D3*
X6766000D3*
X6641000D3*
X5711000D3*
X5586000D3*
X5461000D3*
X5336000D3*
X5211000D3*
X5086000D3*
X4961000D3*
X9321000D3*
X9196000D3*
X9071000D3*
X8946000D3*
X8821000D3*
X8696000D3*
X8571000D3*
X8446000D3*
X8321000D3*
D55*
X7905020Y5674773D3*
Y5420773D3*
X7651020Y5797773D3*
Y5543773D3*
D74*
X10080000Y9509000D3*
X1508000Y9255000D3*
Y1889000D3*
X10080000Y1508000D3*
M02*
