G04 DipTrace 3.2.0.1*
G04 SiC_V3_BM.GTS*
%MOMM*%
G04 #@! TF.FileFunction,Soldermask,Top*
G04 #@! TF.Part,Single*
%AMOUTLINE1*
4,1,10,
3.4,-0.01642,
2.16642,-1.25,
-2.16642,-1.25,
-3.4,-0.01642,
-3.4,1.25,
-2.08663,1.25,
-0.83663,0.125,
0.88546,0.125,
2.08546,1.25,
3.4,1.25,
3.4,-0.01642,
0*%
%AMOUTLINE4*
4,1,10,
-3.4,0.01642,
-2.16642,1.25,
2.16642,1.25,
3.4,0.01642,
3.4,-1.25,
2.08663,-1.25,
0.83663,-0.125,
-0.88546,-0.125,
-2.08546,-1.25,
-3.4,-1.25,
-3.4,0.01642,
0*%
%ADD67R,0.6X1.1*%
%ADD78C,2.1*%
%ADD79C,2.5*%
%ADD90C,5.2*%
%ADD92R,1.3X1.3*%
%ADD95R,1.1X0.6*%
%ADD97R,0.8X1.3*%
%ADD98R,3.45X2.35*%
%ADD100R,1.15X2.35*%
%ADD102R,1.05X1.05*%
%ADD104R,2.4X1.7*%
%ADD106R,0.6X1.6*%
%ADD108R,1.8X0.5*%
%ADD110R,0.5X1.8*%
%ADD114C,1.95*%
%ADD116R,3.7X3.7*%
%ADD118R,2.2X2.2*%
%ADD120R,2.9X2.0*%
%ADD122R,0.89X1.19*%
%ADD124R,1.62233X1.724*%
%ADD126R,1.26X0.74*%
%ADD128R,0.79X0.65*%
%ADD130R,2.2X0.8*%
%ADD132R,1.25X0.85*%
%ADD134R,2.6X2.6*%
%ADD135R,1.8X1.0*%
%ADD137R,0.85X1.25*%
%ADD139O,1.25X1.35*%
%ADD143R,1.25X1.35*%
%ADD145R,1.7X1.5*%
%ADD147R,1.3X1.2*%
%ADD149R,2.0X1.8*%
%ADD151R,1.8X2.0*%
%ADD153R,1.2X1.3*%
%ADD160OUTLINE1*%
%ADD163OUTLINE4*%
%FSLAX35Y35*%
G04*
G71*
G90*
G75*
G01*
G04 TopMask*
%LPD*%
D153*
X7037447Y4997227D3*
Y5167227D3*
D151*
X4807213Y5835547D3*
X4527213D3*
D149*
X3404820Y5058310D3*
Y5338310D3*
D153*
X5067923Y4328213D3*
Y4158213D3*
X4820087Y4531130D3*
Y4361130D3*
D147*
X5140247Y5541027D3*
X4970247D3*
D153*
X5994517Y5271287D3*
Y5441287D3*
D147*
X4308397Y3627273D3*
X4478397D3*
X4303397Y3820413D3*
X4473397D3*
D153*
X3694517Y7801973D3*
Y7971973D3*
D151*
X3984410Y6963083D3*
X4264410D3*
X2401860Y5203647D3*
X2121860D3*
X2254443Y4543123D3*
X1974443D3*
D147*
X1625880Y4419987D3*
X1455880D3*
D145*
X8473943Y6965813D3*
Y6775813D3*
D151*
X9420370Y7876870D3*
X9140370D3*
D147*
X7987637Y7256303D3*
X7817637D3*
X7829667Y7612313D3*
X7999667D3*
X8667677Y7986290D3*
X8497677D3*
X6533430Y3439823D3*
X6363430D3*
X8051027Y1977373D3*
X8221027D3*
X3168397Y3137273D3*
X3338397D3*
X9698457Y2995100D3*
X9868457D3*
D153*
X10018957Y3310600D3*
Y3480600D3*
X10163457Y3478810D3*
Y3308810D3*
D147*
X8913563Y3023763D3*
X9083563D3*
X8913563Y2818763D3*
X9083563D3*
X9315523Y4070760D3*
X9485523D3*
D153*
X9285270Y4226213D3*
Y4396213D3*
X9480537Y4403313D3*
Y4233313D3*
D147*
X8442017Y3834747D3*
X8612017D3*
X8435407Y3629830D3*
X8605407D3*
D153*
X7013397Y1572273D3*
Y1402273D3*
X7073933Y1976413D3*
Y2146413D3*
X7255437Y2357907D3*
Y2527907D3*
D147*
X6188397Y1582273D3*
X6358397D3*
X6184067Y1367273D3*
X6354067D3*
X1701520Y3135477D3*
X1531520D3*
D153*
X1716520Y2905477D3*
Y2735477D3*
X2199723Y2208943D3*
Y2038943D3*
D147*
X2611520Y3095477D3*
X2441520D3*
X2614070Y3283090D3*
X2444070D3*
X5907217Y5982800D3*
X6077217D3*
X5441583Y5917770D3*
X5271583D3*
X6955357Y7247337D3*
X7125357D3*
D143*
X7391000Y8775000D3*
D139*
X7266000D3*
X7141000D3*
X7016000D3*
X6891000D3*
X6766000D3*
X6641000D3*
D137*
X3128633Y8393507D3*
X2938633D3*
X3033633Y8163507D3*
X2474720Y8029800D3*
X2284720D3*
X2379720Y7799800D3*
D135*
X3867913Y8692030D3*
Y8352030D3*
D134*
X3105440Y6466353D3*
X2665440D3*
D132*
X4799243Y6871693D3*
Y7061693D3*
X4569243Y6966693D3*
D137*
X9157677Y7401290D3*
X9347677D3*
X9252677Y7631290D3*
D130*
X9005407Y4107437D3*
Y4234437D3*
Y4361437D3*
Y4488437D3*
X8465407D3*
Y4361437D3*
Y4234437D3*
Y4107437D3*
X9623457Y3205100D3*
Y3332100D3*
Y3459100D3*
Y3586100D3*
X9083457D3*
Y3459100D3*
Y3332100D3*
Y3205100D3*
X2076520Y2895477D3*
Y2768477D3*
Y2641477D3*
Y2514477D3*
X2616520D3*
Y2641477D3*
Y2768477D3*
Y2895477D3*
X6857120Y1858550D3*
Y1985550D3*
Y2112550D3*
Y2239550D3*
X6317120D3*
Y2112550D3*
Y1985550D3*
Y1858550D3*
D128*
X6264943Y4004780D3*
X6475943D3*
X6840983Y3924267D3*
X7051983D3*
X7205773Y4591823D3*
X7416773D3*
X6528217Y4865563D3*
X6739217D3*
D126*
X4939650Y2989547D3*
X5153650D3*
X5155943Y2797393D3*
X4941943D3*
X5745070Y7380313D3*
X5959070D3*
D124*
X3612250Y4713557D3*
Y4484957D3*
D160*
X9674490Y6801100D3*
D163*
Y7231100D3*
D143*
X5711000Y8775000D3*
D139*
X5586000D3*
X5461000D3*
X5336000D3*
X5211000D3*
X5086000D3*
X4961000D3*
D130*
X3747897Y3316773D3*
Y3443773D3*
Y3570773D3*
Y3697773D3*
X3207897D3*
Y3570773D3*
Y3443773D3*
Y3316773D3*
X8586027Y2187373D3*
Y2314373D3*
Y2441373D3*
Y2568373D3*
X8046027D3*
Y2441373D3*
Y2314373D3*
Y2187373D3*
X5988397Y3277273D3*
Y3150273D3*
Y3023273D3*
Y2896273D3*
X6528397D3*
Y3023273D3*
Y3150273D3*
Y3277273D3*
D132*
X7675987Y8215850D3*
Y8025850D3*
X7905987Y8120850D3*
D137*
X1921530Y6904413D3*
X2111530D3*
X2016530Y7134413D3*
X2771950Y7818230D3*
X2961950D3*
X2866950Y8048230D3*
X3691877Y6812530D3*
X3501877D3*
X3596877Y6582530D3*
X4227080Y6782927D3*
X4037080D3*
X4132080Y6552927D3*
D122*
X9900013Y4445217D3*
X9995013D3*
X10090013D3*
Y4704217D3*
X9995013D3*
X9900013D3*
X2408397Y3792273D3*
X2503397D3*
X2598397D3*
Y4051273D3*
X2503397D3*
X2408397D3*
D153*
X7489910Y8048503D3*
Y8218503D3*
X7307293Y8052177D3*
Y8222177D3*
D147*
X4783203Y4748370D3*
X4613203D3*
X1805880Y4224987D3*
X1975880D3*
X2228207Y5584330D3*
X2058207D3*
X1460880Y4229987D3*
X1630880D3*
D120*
X3137407Y6931763D3*
Y7371763D3*
D147*
X1875600Y7579927D3*
X2045600D3*
D153*
X2774877Y7026867D3*
Y7196867D3*
D147*
X2213287Y7581807D3*
X2383287D3*
X4049107Y7808760D3*
X3879107D3*
X2373457Y7323710D3*
X2543457D3*
D153*
X3877583Y8021430D3*
Y8191430D3*
D147*
X2538833Y7136663D3*
X2368833D3*
D153*
X2117293Y6530093D3*
Y6700093D3*
X1923083Y6532730D3*
Y6702730D3*
X4580443Y7326503D3*
Y7156503D3*
D147*
X2406560Y8365377D3*
X2236560D3*
X3795703Y6473920D3*
X3965703D3*
X8549543Y7285333D3*
X8379543D3*
X9155933Y8060253D3*
X8985933D3*
D153*
X8831967Y8152420D3*
Y7982420D3*
D147*
X7826703Y7444290D3*
X7996703D3*
X4473397Y3452273D3*
X4303397D3*
D153*
X4068397Y3437273D3*
Y3267273D3*
X4273397Y3252273D3*
Y3082273D3*
X4478397Y3072273D3*
Y2902273D3*
X2853397Y3787273D3*
Y3957273D3*
D147*
X1876520Y3375477D3*
X1706520D3*
D153*
X1939127Y2032210D3*
Y2202210D3*
D147*
X2891520Y2765477D3*
X3061520D3*
D153*
X6838397Y1412273D3*
Y1582273D3*
X7086167Y2527800D3*
Y2357800D3*
D147*
X5943397Y1997273D3*
X5773397D3*
X9121027Y2477373D3*
X8951027D3*
D153*
X8956027Y2257373D3*
Y2087373D3*
D147*
X8611027Y1810150D3*
X8781027D3*
X7851027Y1822373D3*
X7681027D3*
X9927777Y5006503D3*
X10097777D3*
D153*
X7516143Y3949617D3*
Y3779617D3*
D147*
X10097323Y5191597D3*
X9927323D3*
X6813397Y4312273D3*
X6643397D3*
X9858457Y2775100D3*
X9688457D3*
X9177963Y2091543D3*
X9347963D3*
X7373397Y4217273D3*
X7203397D3*
X6170333Y6236037D3*
X6340333D3*
X5003517Y6213260D3*
X4833517D3*
X6078400Y5849460D3*
X5908400D3*
X4692247Y6478073D3*
X4862247D3*
X5878977Y7055290D3*
X5708977D3*
X7199503Y6860177D3*
X7029503D3*
X7207613Y7033657D3*
X7037613D3*
D153*
X5529387Y7312123D3*
Y7142123D3*
D143*
X9321000Y8775000D3*
D139*
X9196000D3*
X9071000D3*
X8946000D3*
X8821000D3*
X8696000D3*
X8571000D3*
X8446000D3*
X8321000D3*
D132*
X7908393Y4077990D3*
Y4267990D3*
X7678393Y4172990D3*
D118*
X3563413Y1811757D3*
X4038787Y2292130D3*
X4514163Y1811757D3*
D116*
X4038787Y1816757D3*
D130*
X6155863Y7233620D3*
Y7106620D3*
Y6979620D3*
Y6852620D3*
X6695863D3*
Y6979620D3*
Y7106620D3*
Y7233620D3*
D114*
X7905020Y5674773D3*
Y5420773D3*
X7651020Y5797773D3*
Y5543773D3*
D78*
X7905020Y5924773D3*
D79*
X7651020Y5297773D3*
D110*
X5210397Y4469150D3*
X5260397D3*
X5310397D3*
X5360397D3*
X5410397D3*
X5460397D3*
X5510397D3*
X5560397D3*
X5610397D3*
X5660397D3*
X5710397D3*
X5760397D3*
D108*
X5905397Y4614150D3*
Y4664150D3*
Y4714150D3*
Y4764150D3*
Y4814150D3*
Y4864150D3*
Y4914150D3*
Y4964150D3*
Y5014150D3*
Y5064150D3*
Y5114150D3*
Y5164150D3*
D110*
X5760397Y5309150D3*
X5710397D3*
X5660397D3*
X5610397D3*
X5560397D3*
X5510397D3*
X5460397D3*
X5410397D3*
X5360397D3*
X5310397D3*
X5260397D3*
X5210397D3*
D108*
X5065397Y5164150D3*
Y5114150D3*
Y5064150D3*
Y5014150D3*
Y4964150D3*
Y4914150D3*
Y4864150D3*
Y4814150D3*
Y4764150D3*
Y4714150D3*
Y4664150D3*
Y4614150D3*
D106*
X8694677Y7293290D3*
X8759677D3*
X8824677D3*
X8889677D3*
Y7733290D3*
X8824677D3*
X8759677D3*
X8694677D3*
D104*
X8792177Y7513290D3*
D102*
X7588740Y6847697D3*
Y7037697D3*
X7788740Y6942697D3*
D100*
X4291567Y5523890D3*
X4061567D3*
X3831567D3*
D98*
X4061567Y4943890D3*
D106*
X1770880Y4759987D3*
X1835880D3*
X1900880D3*
X1965880D3*
Y5199987D3*
X1900880D3*
X1835880D3*
X1770880D3*
D104*
X1868380Y4979987D3*
D97*
X3263870Y7780903D3*
X3358870D3*
X3453870D3*
Y8050903D3*
X3263870D3*
D95*
X5112233Y1517513D3*
Y1582513D3*
Y1647513D3*
X4892233D3*
Y1517513D3*
D67*
X7917103Y4638517D3*
X7852103D3*
X7787103D3*
Y4418517D3*
X7917103D3*
D130*
X5865583Y6093290D3*
Y6220290D3*
Y6347290D3*
Y6474290D3*
X5325583D3*
Y6347290D3*
Y6220290D3*
Y6093290D3*
D92*
X9627920Y6085903D3*
X2572343Y1511050D3*
X2908543Y1521920D3*
X9632150Y5409347D3*
X2254887Y1509807D3*
X1938140Y1515240D3*
X9619137Y5850447D3*
X9630503Y5618610D3*
D90*
X10080000Y9509000D3*
X1508000Y9255000D3*
Y1889000D3*
X10080000Y1508000D3*
M02*
