G04 DipTrace 3.2.0.1*
G04 SiC_V3_BM.GTL*
%MOMM*%
G04 #@! TF.FileFunction,Copper,L1,Top*
G04 #@! TF.Part,Single*
%AMOUTLINE0*
4,1,10,
3.3,0.025,
2.125,-1.15,
-2.125,-1.15,
-3.3,0.025,
-3.3,1.15,
-2.125,1.15,
-0.875,0.025,
0.925,0.025,
2.125,1.15,
3.3,1.15,
3.3,0.025,
0*%
%AMOUTLINE3*
4,1,10,
-3.3,-0.025,
-2.125,1.15,
2.125,1.15,
3.3,-0.025,
3.3,-1.15,
2.125,-1.15,
0.875,-0.025,
-0.925,-0.025,
-2.125,-1.15,
-3.3,-1.15,
-3.3,-0.025,
0*%
G04 #@! TA.AperFunction,Conductor*
%ADD14C,0.254*%
%ADD15C,0.3*%
%ADD16C,0.4*%
%ADD17C,0.6*%
%ADD18C,0.5*%
%ADD19C,1.0*%
G04 #@! TA.AperFunction,ViaPad*
%ADD20C,0.87*%
G04 #@! TA.AperFunction,Conductor*
%ADD21C,0.3048*%
%ADD22C,0.2541*%
%ADD23C,0.16*%
%ADD24C,0.4064*%
%ADD27R,1.0X1.1*%
%ADD28R,1.6X1.8*%
%ADD29R,1.8X1.6*%
%ADD30R,1.1X1.0*%
%ADD31R,1.5X1.3*%
G04 #@! TA.AperFunction,ComponentPad*
%ADD32R,1.05X1.15*%
%ADD34O,1.05X1.15*%
%ADD36R,0.65X1.05*%
%ADD38R,1.6X0.8*%
%ADD40R,2.4X2.4*%
%ADD42R,1.05X0.65*%
%ADD44R,2.0X0.6*%
%ADD46R,0.59X0.45*%
%ADD47R,1.06X0.54*%
%ADD48R,1.42233X1.524*%
%ADD50R,0.69X0.99*%
%ADD51R,2.7X1.8*%
%ADD52R,2.0X2.0*%
%ADD53R,3.5X3.5*%
G04 #@! TA.AperFunction,ComponentPad*
%ADD54C,1.75*%
%ADD57R,0.3X1.6*%
%ADD58R,1.6X0.3*%
%ADD60R,0.4X1.4*%
%ADD61R,2.2X1.5*%
%ADD62R,0.85X0.85*%
%ADD64R,0.95X2.15*%
%ADD65R,3.25X2.15*%
%ADD67R,0.6X1.1*%
%ADD69R,0.9X0.4*%
%ADD71R,0.4X0.9*%
%ADD72R,1.1X1.1*%
G04 #@! TA.AperFunction,ComponentPad*
%ADD73C,5.0*%
G04 #@! TA.AperFunction,ViaPad*
%ADD75C,0.57*%
%ADD76C,0.8636*%
%ADD159OUTLINE0*%
%ADD162OUTLINE3*%
%FSLAX35Y35*%
G04*
G71*
G90*
G75*
G01*
G04 Top*
%LPD*%
X2058207Y5584330D2*
D14*
X1960567D1*
X1835880Y5459643D1*
Y5199987D1*
X2058207Y5584330D2*
Y5462600D1*
X6035727Y5002173D2*
Y5014150D1*
D15*
X5905397D1*
X9252677Y7631290D2*
D17*
X9420370Y7798983D1*
Y7876870D1*
X8259433Y7424913D2*
X8379543Y7304803D1*
Y7285333D1*
X9424933Y8042627D2*
X9420370Y8038063D1*
Y7876870D1*
X8889677Y7733290D2*
D14*
X8985933Y7829547D1*
Y8060253D1*
X5905397Y5064150D2*
D15*
X6142253D1*
X6462167Y5384063D1*
X8981240Y8166497D2*
D14*
Y8060253D1*
X8985933D1*
X7903920Y8232020D2*
D16*
X7905987Y8229953D1*
Y8120850D1*
X7675987Y8025850D2*
D18*
X7682863Y8018973D1*
Y7923317D1*
X7675987Y8025850D2*
X7489910D1*
Y8048503D1*
X4527213Y5835547D2*
Y5759537D1*
X4291567Y5523890D1*
Y6074677D1*
X4258023Y6108220D1*
X6695863Y7233620D2*
X6941640D1*
X6955357Y7247337D1*
Y7346933D1*
X6929737Y7372553D1*
X7681027Y1822373D2*
D16*
Y1818363D1*
X7578667D1*
X5818397Y3027273D2*
X5814397Y3023273D1*
X5988397D1*
X7681027Y1822373D2*
Y3651747D1*
X7908393Y3879113D1*
Y4077990D1*
X4478397Y2902273D2*
X4484397Y2896273D1*
X4633397D1*
X6732587D2*
X6528397D1*
X4939650Y2989547D2*
X4726670D1*
X4633397Y2896273D1*
X2117293Y6530093D2*
D14*
X2120083Y6527303D1*
X2222463D1*
X5802523Y5428867D2*
X5760397Y5386740D1*
Y5309150D1*
X6155863Y7106620D2*
X6077377D1*
X6043673Y7072917D1*
Y7012887D1*
X6066320Y6990240D1*
X6145243D1*
X6155863Y6979620D1*
X5360397Y5309150D2*
Y5404390D1*
X5397027Y5441020D1*
Y5549727D1*
X5564997Y5652617D2*
X5629457Y5717077D1*
X6526987D1*
X6581530Y5771620D1*
Y6254477D1*
X5878977Y6957030D1*
Y7055290D1*
X5865677Y7041990D1*
X6011343D1*
X6072143Y7102790D1*
X6155863D1*
Y7106620D1*
X2413307Y5495523D2*
X2324500Y5584330D1*
X2228207D1*
X2553427Y5208367D2*
X2548707Y5203647D1*
X2401860D1*
X2236560Y8365377D2*
X2225733Y8354550D1*
X2084773D1*
X2665440Y6466353D2*
X2664423Y6465337D1*
X2477053D1*
X1923083Y6532730D2*
X1923480Y6532333D1*
Y6403337D1*
X2111530Y6904413D2*
X2130727Y6923610D1*
X2217623D1*
X1770880Y5199987D2*
Y5273077D1*
X1712807Y5331150D1*
Y5352220D1*
X1700850D1*
X1867233Y4984353D2*
X1868380Y4983207D1*
X2409557Y4568377D2*
X2384303Y4543123D1*
X2254443D1*
X1455880Y4419987D2*
X1449640Y4426227D1*
X1335163D1*
X1460880Y4229987D2*
X1458770Y4227877D1*
X1342287D1*
X4807213Y5835547D2*
X4937183D1*
X4970557Y5868920D1*
X5260550Y5541873D2*
Y5309150D1*
X5260397D1*
X8465407Y4488437D2*
X8462790Y4491053D1*
X8279030D1*
X8465407Y4361437D2*
X8463817Y4359847D1*
X8272257D1*
X9480537Y4233313D2*
X9595170D1*
Y4236880D1*
X9602447Y4067853D2*
X9485523D1*
Y4070760D1*
X8699073Y3836420D2*
X8697400Y3834747D1*
X8612017D1*
X8605407Y3629830D2*
X8595373Y3619797D1*
Y3501593D1*
X10277627Y3305803D2*
X10274620Y3308810D1*
X10163457D1*
X8906183Y3584473D2*
X8907810Y3586100D1*
X9083457D1*
X8911493Y3464593D2*
X8916987Y3459100D1*
X9083457D1*
X9083563Y3023763D2*
X9086530Y3026730D1*
X9203740D1*
X9083563Y2818763D2*
X9090100Y2812227D1*
X9192450D1*
X9868457Y2995100D2*
X9872940Y2999583D1*
X9978290D1*
X8586027Y2568373D2*
X8588720Y2565680D1*
X8741873D1*
X9121027Y2477373D2*
X9234787D1*
Y2476797D1*
X7908393Y4267990D2*
X7917103Y4276700D1*
Y4418517D1*
X7954257D1*
X8010920Y4475180D1*
Y4780397D1*
X7975437Y4815880D1*
X7886887D1*
X7852103Y4781097D1*
Y4638517D1*
X7853007D2*
X7852103D1*
X8221027Y1977373D2*
X8221183Y1977217D1*
X8332023D1*
X7255437Y2527907D2*
X7255940Y2528410D1*
X7367050D1*
X6241320Y3443647D2*
X6245143Y3439823D1*
X6363430D1*
X5800237Y2892043D2*
X5988397D1*
Y2896273D1*
X6027917Y5128230D2*
X6035350D1*
X6021270Y5114150D1*
X5905397D1*
X7117670Y1407287D2*
X7013397D1*
Y1402273D1*
X6487940Y1585157D2*
X6485057Y1582273D1*
X6358397D1*
X6486073Y1363097D2*
X6481897Y1367273D1*
X6354067D1*
X6317120Y2239550D2*
X6311723Y2244947D1*
X6124057D1*
X6317120Y2112550D2*
X6311427Y2106857D1*
X6125923D1*
X4851380Y1809083D2*
X4514163D1*
Y1811757D1*
X4892233Y1517513D2*
X4957233Y1582513D1*
X5112233D1*
X5227900D1*
Y1583560D1*
X4892233Y1517513D2*
X4369000D1*
X4069757Y1816757D1*
X4038787D1*
X8473943Y6775813D2*
X8531510Y6833380D1*
X8838370D1*
X8497677Y7986290D2*
X8492143Y7991823D1*
X8369197D1*
X9152133Y8172280D2*
X9155933Y8168480D1*
Y8060253D1*
X9140370Y7876870D2*
X9084257Y7820757D1*
Y7646583D1*
X8614833Y7830380D2*
X8694677Y7750537D1*
Y7733290D1*
X8792177Y7513290D2*
X8793857D1*
X8831547Y8274810D2*
X8831967Y8274390D1*
Y8152420D1*
X4579433Y7485347D2*
X4580443Y7484337D1*
Y7326503D1*
X4933070Y6873940D2*
X4930823Y6871693D1*
X4799243D1*
X4848080Y5539403D2*
X4849703Y5541027D1*
X4970247D1*
X6122700Y5534193D2*
Y5441287D1*
X5994517D1*
X8000963Y7752753D2*
X7999667Y7751457D1*
Y7612313D1*
X8793857Y7512500D2*
X8748923Y7467567D1*
X8710057D1*
X8872907Y7466490D2*
X8826897Y7512500D1*
X8793857D1*
X8873983Y7560313D2*
X8826170Y7512500D1*
X8710057Y7560313D2*
X8757870Y7512500D1*
X8793857D1*
X7037057Y4881203D2*
X7037447Y4881593D1*
Y4997227D1*
X5536897Y5922070D2*
X5532597Y5917770D1*
X5441583D1*
X6193010Y5982267D2*
X6077217D1*
Y5982800D1*
X4061567Y4943890D2*
Y4770120D1*
X4047840Y4756393D1*
X3404820Y5058310D2*
Y4996330D1*
X3338073Y4929583D1*
X4061567Y5523890D2*
Y5539887D1*
X3931523Y5669930D1*
X4528010Y4743683D2*
X4532697Y4748370D1*
X4613203D1*
X4473397Y3820413D2*
X4474567Y3819243D1*
X4615837D1*
X4478397Y3627273D2*
X4488547Y3637423D1*
X4622450D1*
X4473397Y3452273D2*
X4486597Y3439073D1*
X4612530D1*
X3448877Y3134213D2*
X3445817Y3137273D1*
X3338397D1*
X3747897Y3697773D2*
X3748743Y3696927D1*
X3924917D1*
X5242787Y4308817D2*
X5245637Y4311667D1*
X5359387D1*
X5410397Y4362677D1*
Y4469150D1*
X5065397Y4664150D2*
X5062863Y4666683D1*
X4885890D1*
X2800460Y2639707D2*
X2798690Y2641477D1*
X2616520D1*
X2375487Y2039043D2*
X2375387Y2038943D1*
X2199723D1*
X1531520Y3135477D2*
X1529443Y3133400D1*
X1409353D1*
X2441520Y3095477D2*
X2439960Y3097037D1*
X2300743D1*
X2444070Y3283090D2*
X2440233Y3286927D1*
X2311477D1*
X2616520Y2514477D2*
X2619423Y2511573D1*
X2798933D1*
X4819720Y4243363D2*
X4820087Y4243730D1*
Y4361130D1*
X5066373Y4041560D2*
X5067923Y4043110D1*
Y4158213D1*
X5865583Y6474290D2*
X5980127D1*
X6042193Y6536357D1*
X7817637Y7256303D2*
X7672387D1*
X7658717Y7269973D1*
X6695863Y6852620D2*
Y6835447D1*
X6855067D1*
X5708977Y7055290D2*
X5703507D1*
Y7150353D1*
X7788740Y6942697D2*
X7907053D1*
X7125357Y7247337D2*
X7205767D1*
X7228403Y7269973D1*
X7658717D1*
X5410397Y4469150D2*
Y4357110D1*
X5436863D1*
X5457807Y4378053D1*
Y4471740D1*
X5460397Y4469150D1*
X5497893Y4260593D2*
X5560397Y4323097D1*
Y4469150D1*
X8046027Y2314373D2*
D16*
X7896997D1*
X10132803Y4288360D2*
X10093303Y4327860D1*
Y4437897D1*
X10085983Y4445217D1*
X10090013D1*
X3207897Y3443773D2*
X3206397Y3442273D1*
X2823397D1*
X2598397Y3667273D1*
Y3792273D1*
X8586027Y2314373D2*
X8783027D1*
X8946027Y2477373D1*
X8951027D1*
X8956027Y2472373D1*
Y2257373D1*
X6695863Y6979620D2*
D21*
X6910060D1*
X7029503Y6860177D1*
X6695863Y7106620D2*
X6964650D1*
X7037613Y7033657D1*
X4068397Y3437273D2*
D16*
X4061897Y3443773D1*
X3747897D1*
X4068397Y3437273D2*
X4083397Y3452273D1*
X4303397D1*
X2199723Y2208943D2*
X1939127D1*
Y2202210D1*
X1903360D1*
X1874870Y2230700D1*
Y2278073D1*
X2076520Y2479723D1*
Y2514477D1*
X2075520Y2515477D1*
X1841520D1*
X1716520Y2640477D1*
Y2735477D1*
X2076520Y2895477D2*
X2066520Y2905477D1*
X1716520D1*
X1701520D1*
Y3135477D1*
Y3375477D1*
X1706520D1*
X7086167Y2357800D2*
X7086273Y2357907D1*
X7255437D1*
X7073933Y2146413D2*
X6980797Y2239550D1*
X6857120D1*
X7073933Y2146413D2*
X7086167Y2158647D1*
Y2357800D1*
X10018957Y3480600D2*
X9913457Y3586100D1*
X9623457D1*
X10018957Y3480600D2*
X10020747Y3478810D1*
X10163457D1*
X9347963Y2091543D2*
X9485233D1*
X10163457Y3597503D2*
Y3478810D1*
X9623457Y3205100D2*
X9628457Y3210100D1*
X9873457D1*
X9973957Y3310600D1*
X10018957D1*
X9623457Y3205100D2*
X9698457Y3130100D1*
Y2995100D1*
Y2775100D1*
X9688457D1*
X6838397Y1582273D2*
X6848397Y1572273D1*
X7013397D1*
X6838397Y1582273D2*
X6857120Y1600997D1*
Y1858550D1*
X6999020D1*
X7073933Y1933463D1*
Y1976413D1*
X9285270Y4396213D2*
D18*
X9292370Y4403313D1*
X9480537D1*
X9005407Y4488437D2*
X9011010Y4482833D1*
X9166520D1*
X9253140Y4396213D1*
X9285270D1*
X9480537Y4403313D2*
X9622973D1*
X9817313Y5191597D2*
X9927323D1*
X9005407Y4107437D2*
X9186063D1*
X9285270Y4206643D1*
Y4226213D1*
X9315523Y4070760D2*
X9330850Y4055433D1*
X9339643D1*
X9285270Y4109807D1*
Y4226213D1*
X7516143Y3653053D2*
Y3779617D1*
X1921530Y6904413D2*
X1923083Y6902860D1*
Y6702730D1*
X2117293Y6700093D2*
X2114657Y6702730D1*
X1923083D1*
X9157677Y7401290D2*
D16*
X9049677Y7293290D1*
X8889677D1*
X9157677Y7401290D2*
Y7347920D1*
X9263070Y7242527D1*
X9663063D1*
X9674490Y7231100D1*
X5943397Y1997273D2*
X5955120Y1985550D1*
X6317120D1*
X2891520Y2765477D2*
X2888520Y2768477D1*
X2616520D1*
X2368833Y7136663D2*
D18*
X2366583Y7134413D1*
X2016530D1*
X8694677Y7293290D2*
D16*
X8686720Y7285333D1*
D18*
X8549543D1*
X8667677Y7986290D2*
D16*
X8759677Y7894290D1*
Y7733290D1*
X8824677D2*
Y7982420D1*
X8831967D1*
X7996703Y7444290D2*
X8309080Y7131913D1*
X8709637D1*
X8759677Y7181953D1*
Y7293290D1*
X7996703Y7444290D2*
X7987637Y7435223D1*
Y7256303D1*
X7829667Y7612313D2*
D18*
X7826703Y7609350D1*
Y7444290D1*
X3867913Y8352030D2*
X3877583Y8342360D1*
Y8191430D1*
X2543457Y7323710D2*
X2538833Y7319087D1*
Y7136663D1*
X3877583Y8191430D2*
X3767490D1*
X3358870Y7654257D2*
Y7780903D1*
X2543457Y7323710D2*
X2539143Y7328023D1*
Y7431260D1*
X2938633Y8393507D2*
X2910503Y8365377D1*
X2406560D1*
X2284720Y8243537D1*
Y8029800D1*
X2045600Y7579927D2*
X2047480Y7581807D1*
X2213287D1*
X2771950Y7818230D2*
X2770040Y7698527D1*
Y7298523D2*
X2774877Y7293687D1*
Y7196867D1*
X3137407Y6931763D2*
X3256640Y6812530D1*
X3501877D1*
X3137407Y6931763D2*
X3121550Y6947620D1*
X2976123D1*
X2896877Y7026867D1*
X2774877D1*
X4049107Y7808760D2*
X4171603D1*
X3493723Y6948243D2*
Y6812530D1*
X3501877D1*
X2866950Y8048230D2*
Y8170400D1*
X3184210Y7654690D2*
X3263870Y7734350D1*
Y7780903D1*
X3691877Y6812530D2*
X3699990D1*
Y6957923D1*
X2474720Y8029800D2*
Y8144373D1*
X3694517Y7971973D2*
X3615587Y8050903D1*
X3453870D1*
X3877583Y8021430D2*
X3828127Y7971973D1*
X3694517D1*
X3879107Y7808760D2*
X3877583Y7810283D1*
Y8021430D1*
X2379720Y7799800D2*
Y7581807D1*
X2383287D1*
X2373457Y7571977D1*
Y7323710D1*
X3453870Y7780903D2*
X3460377Y7787410D1*
X3694517D1*
Y7801973D1*
X2373457Y7323710D2*
X2365847Y7316100D1*
X2275247D1*
X3505703Y7639910D2*
X3453870Y7691743D1*
Y7780903D1*
X7373397Y4217273D2*
D14*
X7383080Y4207590D1*
X7493397D1*
X8638987Y3332100D2*
X9083457D1*
X8638987D2*
X8264947D1*
X8061200Y3535847D1*
Y4832683D1*
X9069480Y5840963D1*
X9609653D1*
X9619137Y5850447D1*
X6813397Y4312273D2*
Y4304193D1*
X6959720D1*
X8273410Y4233927D2*
X8465407D1*
Y4234437D1*
X8273410Y4233927D2*
X8253337D1*
X8165587Y4321677D1*
Y4717453D1*
X9058210Y5610077D1*
X9621970D1*
X9630503Y5618610D1*
X3596877Y6582530D2*
D18*
X3705487Y6473920D1*
X3795703D1*
X3984410Y6963083D2*
X4037080Y7015753D1*
Y6782927D1*
X3596877Y6582530D2*
X3480700Y6466353D1*
X3105440D1*
X4037080Y6782927D2*
X4020747Y6766593D1*
X3926357D1*
X3795703Y6635940D1*
Y6473920D1*
X4264410Y6963083D2*
X4227080Y7000413D1*
Y6782927D1*
X4264410Y6963083D2*
X4268020Y6966693D1*
X4569243D1*
X4580443D1*
Y7156503D1*
X1630880Y4229987D2*
D16*
X1635880Y4224987D1*
X1805880D1*
X1835880Y4759987D2*
Y4224987D1*
X1805880D1*
X1770880Y4759987D2*
Y4620737D1*
X1625880Y4475737D1*
Y4419987D1*
X5065397Y4814150D2*
D14*
X4878017D1*
X4783203Y4719337D1*
Y4748370D1*
X5325583Y6474290D2*
D16*
X5320530Y6479343D1*
X5043370D1*
X5042100Y6478073D1*
X4862247D1*
X7675987Y8215850D2*
X7673333Y8218503D1*
X7489910D1*
X7485910Y8214503D1*
X7307293D1*
Y8222177D1*
X5865583Y6093290D2*
D17*
X5907217D1*
D14*
Y5982800D1*
X5908400Y5981617D1*
Y5849460D1*
X6155863Y7233620D2*
D21*
X6058510D1*
X5931180Y7360950D1*
X5939707D1*
X5959070Y7380313D1*
X5153650Y2989547D2*
X5259897D1*
X5301467Y2947977D1*
Y2853897D1*
X5244963Y2797393D1*
X5155943D1*
X4038787Y2292130D2*
D16*
X4125253D1*
X4503557Y2670433D1*
X4814983D1*
X4941943Y2797393D1*
X7037447Y5167227D2*
D14*
X7005383Y5135163D1*
X6791310D1*
X5376667Y4240430D2*
X5510397Y4374160D1*
Y4469150D1*
X7651020Y5797773D2*
X7037447Y5184200D1*
Y5167227D1*
X7307293Y8052177D2*
X7211803D1*
X5710397Y5597583D2*
Y5309150D1*
X8586027Y2187373D2*
D16*
X8753127D1*
Y2092290D1*
X8599980Y1939143D1*
Y1810150D1*
X8611027D1*
X9177963Y2091543D2*
X9173793Y2087373D1*
X8956027D1*
X8856027Y2187373D1*
X8586027D1*
X8781027Y1810150D2*
Y1805670D1*
X8973607D1*
X9943037Y2775100D2*
X9858457D1*
X7959213Y1822373D2*
X7851027D1*
X3747897Y3316773D2*
X3797397Y3267273D1*
X4068397D1*
X4083397Y3252273D1*
X4273397D1*
X4278397Y3247273D1*
X4398397D1*
X6974370Y2527800D2*
X7086167D1*
X4273397Y3082273D2*
X4283397Y3072273D1*
X4483397D1*
X4478397D1*
X6838397Y1412273D2*
X6835313Y1415357D1*
X6734390D1*
X4163397Y3082273D2*
X4273397D1*
X10090013Y4704217D2*
X10097777Y4711980D1*
Y5006503D1*
X10097323Y5191597D2*
X10097777Y5191143D1*
Y5006503D1*
X8046027Y2441373D2*
X7906250D1*
X7689073Y4023907D2*
Y4172990D1*
X7678393D1*
X7689073Y4023907D2*
Y3999103D1*
X7639587Y3949617D1*
X7516143D1*
X9927777Y5006503D2*
Y5010623D1*
X9830403D1*
X2853397Y3957273D2*
X2759397Y4051273D1*
X2718397D1*
X2598397D1*
X1939127Y2032210D2*
X2076493D1*
X3207897Y3570773D2*
X3049897D1*
X2833397Y3787273D1*
X2853397D1*
X1876520Y3375477D2*
X1974907D1*
X2973397Y3642273D2*
X3044897Y3570773D1*
X3207897D1*
X3563413Y1811757D2*
Y1639590D1*
X7199503Y6860177D2*
D21*
X7576260D1*
X7588740Y6847697D1*
D14*
X7488900Y6947537D1*
X7452013D1*
X7308063Y7367717D2*
X5900780Y8775000D1*
X5711000D1*
X7207613Y7033657D2*
D21*
X7584700D1*
X7588740Y7037697D1*
X5461000Y8775000D2*
D14*
Y8839440D1*
X5572657Y8951097D1*
X5918870D1*
X7433113Y7436853D1*
X7537367Y7198027D2*
Y7089070D1*
X7588740Y7037697D1*
X6155863Y6852620D2*
Y6771330D1*
X6683337Y6243857D1*
Y5785323D1*
X6501063Y5603050D1*
X5801167D1*
X5741777Y5662440D1*
X5665340D1*
X5510397Y5507497D1*
Y5309150D1*
X5865583Y6347290D2*
X5959733D1*
X6039703Y6427260D1*
X7734320Y8902583D2*
X7606737Y8775000D1*
X7391000D1*
X6170333Y6236037D2*
X6154587Y6220290D1*
X5865583D1*
X6170333Y6236037D2*
Y6335320D1*
X4938053Y4955877D2*
X4979780Y4914150D1*
X5065397D1*
X5325583Y6347290D2*
X5323430Y6349443D1*
X5187233D1*
X7141000Y8775000D2*
X7353007Y8987007D1*
X8915570D1*
X9071000Y8831577D1*
Y8775000D1*
X5003517Y6213260D2*
X5010547Y6220290D1*
X5325583D1*
X5003517Y6213260D2*
X5000393Y6210137D1*
Y6130187D1*
X4862267Y5394143D2*
Y4922783D1*
X4920900Y4864150D1*
X5065397D1*
X7020130Y5345480D2*
X6886483Y5211833D1*
X4938443Y5178373D2*
X5051173D1*
X5065397Y5164150D1*
X7905020Y5674773D2*
X8189677D1*
X8305767Y5558683D1*
X5325180Y5477047D2*
X5310397Y5462263D1*
Y5309150D1*
X5529387Y7312123D2*
Y7385290D1*
X5562773Y7418677D1*
X5692107D1*
X5706707D1*
X5745070Y7380313D1*
X5692107Y7418677D2*
X5728213Y7382570D1*
X5640210D1*
X5609217Y7351577D1*
Y6872367D1*
X5728697Y6752887D1*
X5921190D1*
X6118127Y6555950D1*
D22*
X6215407D1*
X6496680Y6274677D1*
D14*
Y5814110D1*
X6454677Y5772107D1*
X5566450D1*
X5460397Y5666053D1*
Y5309150D1*
X3965703Y6473920D2*
D18*
X4044710Y6552927D1*
X4132080D1*
X8473943Y6965813D2*
Y6946250D1*
X8391107Y7029087D1*
X8110260D1*
X4323667Y6552927D2*
X4132080D1*
X1965880Y5199987D2*
D16*
Y5347170D1*
X1956983Y5356067D1*
Y5412333D1*
X1900880Y5199987D2*
Y5329030D1*
X1919207Y5347357D1*
X1965880D1*
Y5199987D2*
Y5352303D1*
D18*
X2087817D1*
X2121860Y5318260D1*
Y5203647D1*
X8473943Y6965813D2*
X8682097D1*
X8824677Y7108393D1*
Y7137493D1*
D16*
Y7293290D1*
Y7137493D2*
D18*
X9016317Y6945853D1*
X9224607Y6768257D1*
X9641647D1*
X9674490Y6801100D1*
X5905397Y4714150D2*
D14*
X6409827D1*
X6488383Y4635593D1*
X6737563D1*
X6883170Y4489987D1*
X7057767D1*
Y4085600D1*
X7104183Y4039183D1*
X7248297D1*
X7276490Y4010990D1*
Y3656980D1*
X7348650Y3489080D2*
X7181193Y3441060D1*
Y3202903D1*
X6546583Y2568293D1*
X6117897D1*
X5402127Y1852523D1*
X5200623Y1651020D1*
X5115740D1*
X5112233Y1647513D1*
X5402127Y1852523D2*
X5518833D1*
X5547440Y1823917D1*
X5259103Y1262440D2*
X2763517D1*
X2775627Y1250330D1*
X2526433Y1389017D2*
X2572343Y1434927D1*
Y1511050D1*
X5760397Y4469150D2*
X6012273Y4217273D1*
X6614750D1*
Y4161997D1*
X6732447Y4044300D1*
X6840983Y3924267D1*
X7203397Y4217273D2*
Y4153807D1*
X7157777Y4108187D1*
X6938167Y4044300D2*
X6732447D1*
X5905397Y4814150D2*
X6196113D1*
X6257410Y4875447D1*
X5770613Y2097453D2*
Y1997273D1*
X5773397D1*
X7205773Y4591823D2*
X6995573D1*
X6989173Y4585423D1*
X5773397Y1997273D2*
Y1478943D1*
X5627760Y1333307D1*
X2359597D1*
X2254887Y1438017D1*
Y1509807D1*
X3128360Y8489933D2*
D19*
X3128633Y8393507D1*
X3260470Y8208853D2*
X3263870Y8205453D1*
D17*
Y8050903D1*
X3137297Y7534920D2*
D19*
X3137407Y7534810D1*
Y7371763D1*
X1732930Y7583810D2*
X1736813Y7579927D1*
X1875600D1*
X2956447Y7669597D2*
D17*
X2961950Y7818230D1*
X3868157Y8885893D2*
D19*
Y8827120D1*
X3867913D1*
Y8692030D1*
X5988397Y3277273D2*
D14*
X5871333D1*
X5821780Y3227720D1*
Y3200017D1*
Y3180573D1*
X5875763Y3150273D1*
X5988397D1*
Y3277273D2*
X5710397Y3555273D1*
Y4469150D1*
X5821780Y3200017D2*
D23*
X5737960D1*
X5572853Y3034910D1*
Y2829670D1*
X5702077Y2700447D1*
X6568633D1*
X6606040Y2737853D1*
X6910997D2*
X7102507D1*
X7435460Y3070807D1*
X7845100Y2741757D2*
X8725877D1*
X8829873Y2637760D1*
X10159353D1*
X10380933Y2859340D1*
Y5143513D1*
X10111177Y5413270D1*
X9628227D1*
X9632150Y5409347D1*
X6528397Y3150273D2*
D14*
X6771737D1*
Y3023273D1*
X6528397D1*
X5905397Y4764150D2*
X6269770D1*
X6313483Y4787557D1*
X6372057D1*
X6688397Y3147273D2*
X6685397Y3150273D1*
X6528397D1*
X6688397Y3151507D2*
X6898547D1*
X6937587Y3112467D1*
X7584270Y1299450D2*
X7475810Y1190990D1*
X3212803D1*
X3138327Y1416103D2*
X3032510Y1521920D1*
X2908543D1*
X5905397Y4614150D2*
D15*
X5968483D1*
D14*
X6270360Y4312273D1*
X6643397D1*
X6270360D2*
D21*
X6158047D1*
X6131897Y4286123D1*
X6121217Y4065893D2*
Y4069617D1*
X6186363Y4004470D1*
X6264633D1*
X6264943Y4004780D1*
X3061520Y2765477D2*
D14*
X3160560D1*
X6153397Y4917273D2*
X6100273Y4864150D1*
X5905397D1*
X6528217Y4865563D2*
X6427963D1*
X6324047Y4969480D1*
X3061520Y2765477D2*
Y2638620D1*
X2518600Y2095700D1*
Y2004293D1*
X2029547Y1515240D1*
X1938140D1*
X3168397Y3137273D2*
D16*
X3163507Y3142163D1*
X3041560D1*
X2614070Y3283090D2*
X2611520Y3280540D1*
Y3095477D1*
X2406727Y4181753D2*
X2408397Y4180083D1*
Y4051273D1*
X2502590Y4189807D2*
X2503397Y4189000D1*
Y4051273D1*
X2408397Y3792273D2*
X2401553Y3785430D1*
Y3665807D1*
X2503397Y3792273D2*
X2499737Y3788613D1*
Y3662170D1*
X2091923Y4223403D2*
X2090340Y4224987D1*
X1975880D1*
X1975460Y4366923D2*
X1974443Y4367940D1*
Y4543123D1*
X6533430Y3439823D2*
X6528397Y3434790D1*
Y3277273D1*
X7902933Y1980010D2*
X7905570Y1977373D1*
X8051027D1*
X6317120Y1858550D2*
X6188397Y1729827D1*
Y1582273D1*
X6184067Y1577943D1*
Y1367273D1*
X8046027Y2187373D2*
X8051027Y2182373D1*
Y1977373D1*
X3207897Y3316773D2*
X3168397Y3277273D1*
Y3137273D1*
X9083457Y3205100D2*
X8913563Y3035207D1*
Y3023763D1*
Y2818763D1*
X9839833Y4291880D2*
X9846343D1*
X9900013Y4345550D1*
Y4445217D1*
X9995013D2*
X9991833Y4442037D1*
Y4289243D1*
X9857507Y4842093D2*
X9900013Y4799587D1*
Y4704217D1*
X9995080Y4832017D2*
X9995013Y4831950D1*
Y4704217D1*
X8465407Y4107437D2*
X8436240Y4078270D1*
Y3834747D1*
X8442017D1*
X8435407Y3828137D1*
Y3629830D1*
X8434190Y3628613D1*
Y3493957D1*
X8798260Y2818300D2*
X8798723Y2818763D1*
X8913563D1*
X6645380Y3439107D2*
X6644663Y3439823D1*
X6533430D1*
X6058527Y1369347D2*
X6060600Y1367273D1*
X6184067D1*
X2611520Y3095477D2*
X2687253D1*
X2746427Y3036303D1*
Y2934130D1*
X2707773Y2895477D1*
X2616520D1*
X2734057Y3286143D2*
X2731003Y3283090D1*
X2614070D1*
X6475943Y4004780D2*
Y4018720D1*
X6552833Y3941830D1*
X6739217Y4865563D2*
X6832703D1*
X6892220Y4806047D1*
X7416773Y4591823D2*
X7492073D1*
X7553293Y4530603D1*
X7051983Y3924267D2*
X7107040D1*
X7158193Y3975420D1*
X1974443Y4543123D2*
Y4553800D1*
X1965880Y4562363D1*
Y4759987D1*
X1900880D2*
Y4627363D1*
X1965880Y4562363D1*
X5905397Y4664150D2*
D14*
X6001660D1*
X6098790Y4567020D1*
X3935400Y3573510D2*
Y3570773D1*
X3747897D1*
X6098790Y4567020D2*
X6552713D1*
X6712460Y4407273D1*
X6763397D1*
X8731997Y2441373D2*
X8586027D1*
X5067923Y4328213D2*
D16*
X5072843Y4333133D1*
X5152780D1*
X5210397Y4390750D1*
D15*
Y4469150D1*
X5067923Y4328213D2*
D16*
X5056133Y4340003D1*
Y4466310D1*
X4708557Y4528980D2*
X4710707Y4531130D1*
X4820087D1*
X5864897Y5332737D2*
X5944370D1*
X5994517Y5282590D1*
Y5271287D1*
X6001020Y5264783D1*
Y5194050D1*
X5971120Y5164150D1*
D15*
X5905397D1*
X5138553Y5655943D2*
D16*
X5140247Y5654250D1*
Y5541027D1*
X5137753Y5538533D1*
Y5448983D1*
X5210397Y5376340D1*
D15*
Y5309150D1*
X4820087Y4531130D2*
D16*
X4827687Y4523530D1*
X4907127D1*
X4997747Y4614150D1*
D15*
X5065397D1*
X3681880Y4899623D2*
D16*
X3612250Y4829993D1*
Y4713557D1*
X5325583Y6093290D2*
X5271583Y6039290D1*
Y5917770D1*
X6432063Y6230537D2*
X6340333D1*
Y6236037D1*
X6194293Y5852580D2*
X6191173Y5849460D1*
X6078400D1*
X5271583Y5917770D2*
X5264227Y5910413D1*
X5164647D1*
X4833517Y6213260D2*
X4831663Y6215113D1*
X4717113D1*
X4692247Y6478073D2*
X4688590Y6481730D1*
X4588567D1*
X3831567Y5523890D2*
X3590400D1*
X3404820Y5338310D1*
Y5502913D1*
X3577627Y5675720D1*
X5529387Y7142123D2*
D24*
Y6836470D1*
X5494023Y6801107D1*
X5015280D1*
X4692247Y6478073D1*
X4303397Y3820413D2*
D16*
Y3627273D1*
X4308397D1*
X3612250Y4484957D2*
X4082743D1*
X4303397Y4264303D1*
Y3820413D1*
X4297813Y3814830D1*
X4155193D1*
X3048397Y3697773D2*
X3207897D1*
X7787103Y4418517D2*
Y4393847D1*
X7931763Y4736720D2*
X7917103Y4722060D1*
Y4638517D1*
X8046027Y2568373D2*
X7816670D1*
X5584740Y4178230D2*
D15*
X5580887Y4182083D1*
X5610397Y4211593D1*
Y4469150D1*
X5112233Y1517513D2*
D16*
X5150673Y1479073D1*
X5192520D1*
X4859257Y1647513D2*
X4892233D1*
X5660397Y4469150D2*
D14*
Y4114970D1*
X5623237Y4047560D1*
Y3734380D1*
X6099983Y3643047D2*
X6176267Y3566763D1*
X7326947D1*
X7400337Y3640153D1*
Y4071307D1*
X7437033Y4108003D1*
X7574633D1*
X7585483Y4118853D1*
Y4355687D1*
X7655903Y4426107D1*
Y4771163D1*
X7681147Y4796407D1*
X7751563D1*
X7787103Y4760867D1*
Y4638517D1*
X9627920Y6085903D2*
X9033890D1*
X7751563Y4803577D1*
Y4796407D1*
D75*
X2058207Y5462600D3*
X6035727Y5002173D3*
X6462167Y5384063D3*
X8981240Y8166497D3*
X7903920Y8232020D3*
X4258023Y6108220D3*
X6929737Y7372553D3*
X7578667Y1818363D3*
X5818397Y3027273D3*
X4633397Y2896273D3*
X6732587D3*
X2222463Y6527303D3*
X5802523Y5428867D3*
X5397027Y5549727D3*
X5564997Y5652617D3*
X4970557Y5868920D3*
X4047840Y4756393D3*
X3338073Y4929583D3*
X3931523Y5669930D3*
X6042193Y6536357D3*
X7658717Y7269973D3*
X6855067Y6835447D3*
X5703507Y7150353D3*
X7907053Y6942697D3*
X7896997Y2314373D3*
D20*
X10132803Y4288360D3*
D75*
X9485233Y2091543D3*
X10163457Y3597503D3*
D20*
X9622973Y4403313D3*
D75*
X9817313Y5191597D3*
D20*
X7516143Y3653053D3*
X9186063Y4107437D3*
X3767490Y8191430D3*
X3358870Y7654257D3*
X2539143Y7431260D3*
X2770040Y7698527D3*
Y7298523D3*
X4171603Y7808760D3*
X3493723Y6948243D3*
X2866950Y8170400D3*
X3184210Y7654690D3*
X3699990Y6957923D3*
X2474720Y8144373D3*
X2866950Y8170400D3*
X2275247Y7316100D3*
X3505703Y7639910D3*
D75*
X7493397Y4207590D3*
X8638987Y3332100D3*
D3*
X6959720Y4304193D3*
X8273410Y4233927D3*
D3*
X6791310Y5135163D3*
X5376667Y4240430D3*
X7211803Y8052177D3*
X5710397Y5597583D3*
X8973607Y1805670D3*
X9943037Y2775100D3*
X7959213Y1822373D3*
X8973607Y1805670D3*
X4398397Y3247273D3*
X6974370Y2527800D3*
X6734390Y1415357D3*
X4163397Y3082273D3*
X7906250Y2441373D3*
X7689073Y4023907D3*
D3*
X9830403Y5010623D3*
X2076493Y2032210D3*
X2718397Y4051273D3*
X1974907Y3375477D3*
X2973397Y3642273D3*
X3563413Y1639590D3*
X1974907Y3375477D3*
X7452013Y6947537D3*
X7308063Y7367717D3*
X7433113Y7436853D3*
X7537367Y7198027D3*
X6039703Y6427260D3*
X7734320Y8902583D3*
X6170333Y6335320D3*
X4938053Y4955877D3*
X5187233Y6349443D3*
X5000393Y6130187D3*
X4862267Y5394143D3*
X7020130Y5345480D3*
X6886483Y5211833D3*
X4938443Y5178373D3*
X8305767Y5558683D3*
X5325180Y5477047D3*
D20*
X8110260Y7029087D3*
X4323667Y6552927D3*
X1956983Y5412333D3*
D75*
X7276490Y3656980D3*
X7348650Y3489080D3*
X5547440Y1823917D3*
X5259103Y1262440D3*
X2775627Y1250330D3*
X2526433Y1389017D3*
X7157777Y4108187D3*
X6938167Y4044300D3*
X6257410Y4875447D3*
X5770613Y2097453D3*
X6989173Y4585423D3*
X6257410Y4875447D3*
X6606040Y2737853D3*
X6910997D3*
X7435460Y3070807D3*
X7845100Y2741757D3*
X6372057Y4787557D3*
X6688397Y3147273D3*
X6937587Y3112467D3*
X7584270Y1299450D3*
X3212803Y1190990D3*
X3138327Y1416103D3*
X6688397Y3147273D3*
X6131897Y4286123D3*
X6121217Y4065893D3*
X3160560Y2765477D3*
X6153397Y4917273D3*
X6324047Y4969480D3*
X6552833Y3941830D3*
X6892220Y4806047D3*
X7553293Y4530603D3*
X7158193Y3975420D3*
X6098790Y4567020D3*
X3935400Y3573510D3*
X6763397Y4407273D3*
X8731997Y2441373D3*
X4155193Y3814830D3*
X3048397Y3697773D3*
X7787103Y4393847D3*
X7931763Y4736720D3*
X7816670Y2568373D3*
X7787103Y4393847D3*
X5584740Y4178230D3*
X5192520Y1479073D3*
X4859257Y1647513D3*
X5623237Y3734380D3*
X6099983Y3643047D3*
X8793857Y7512500D3*
D76*
X8831547Y8274810D3*
D75*
X4708557Y4528980D3*
D76*
X2084773Y8354550D3*
D75*
X5864897Y5332737D3*
D20*
X9424933Y8042627D3*
D75*
X7037057Y4881203D3*
D76*
X2217623Y6923610D3*
D20*
X6645380Y3439107D3*
D76*
X1923480Y6403337D3*
X2477053Y6465337D3*
X2413307Y5495523D3*
X2553427Y5208367D3*
X1700850Y5352220D3*
D75*
X1867233Y4984353D3*
X4848080Y5539403D3*
X6122700Y5534193D3*
X5066373Y4041560D3*
X4819720Y4243363D3*
X4528010Y4743683D3*
X5260550Y5541873D3*
D76*
X4579433Y7485347D3*
X4933070Y6873940D3*
D20*
X8259433Y7424913D3*
D75*
X5536897Y5922070D3*
X9595170Y4236880D3*
X9602447Y4067853D3*
X8279030Y4491053D3*
X8272257Y4359847D3*
X8699073Y3836420D3*
X8595373Y3501593D3*
X10277627Y3305803D3*
X8906183Y3584473D3*
X8911493Y3464593D3*
X9203740Y3026730D3*
X9192450Y2812227D3*
X9978290Y2999583D3*
X9234787Y2476797D3*
X8741873Y2565680D3*
X7853007Y4777867D3*
X8332023Y1977217D3*
X7367050Y2528410D3*
X6241320Y3443647D3*
X5800237Y2892043D3*
X4615837Y3819243D3*
X4622450Y3637423D3*
X4612530Y3439073D3*
X3448877Y3134213D3*
X3924917Y3696927D3*
X6027917Y5128230D3*
X5497893Y4260593D3*
X5242787Y4308817D3*
X4885890Y4666683D3*
X7117670Y1407287D3*
X6487940Y1585157D3*
X6486073Y1363097D3*
X6124057Y2244947D3*
X6125923Y2106857D3*
X4851380Y1809083D3*
X5227900Y1583560D3*
X2800460Y2639707D3*
X2375487Y2039043D3*
X1409353Y3133400D3*
X2311477Y3286927D3*
X2300743Y3097037D3*
X2798933Y2511573D3*
D76*
X2409557Y4568377D3*
X1335163Y4426227D3*
X1342287Y4227877D3*
X8838370Y6833380D3*
X8369197Y7991823D3*
X8000963Y7752753D3*
X9152133Y8172280D3*
X9084257Y7646583D3*
X8614833Y7830380D3*
D75*
X5138553Y5655943D3*
X5056133Y4466310D3*
D20*
X9839833Y4291880D3*
D75*
X6193010Y5982267D3*
D20*
X3577627Y5675720D3*
X3681880Y4899623D3*
D75*
X8710057Y7560313D3*
Y7467567D3*
X8872907Y7466490D3*
D20*
X3868157Y8885893D3*
X3041560Y3142163D3*
X2734057Y3286143D3*
X3128360Y8489933D3*
X2401553Y3665807D3*
X2499737Y3662170D3*
X2406727Y4181753D3*
X2502590Y4189807D3*
X2091923Y4223403D3*
X1975460Y4366923D3*
X6058527Y1369347D3*
X3260470Y8208853D3*
X7902933Y1980010D3*
X2956447Y7669597D3*
X1732930Y7583810D3*
X9991833Y4289243D3*
X9857507Y4842093D3*
X9995080Y4832017D3*
X8434190Y3493957D3*
X8798260Y2818300D3*
X3137297Y7534920D3*
D75*
X8873983Y7560313D3*
D20*
X7682863Y7923317D3*
D75*
X6432063Y6230537D3*
X6194293Y5852580D3*
X5164647Y5910413D3*
X4717113Y6215113D3*
X4588567Y6481730D3*
D27*
X7037447Y4997227D3*
Y5167227D3*
D28*
X4807213Y5835547D3*
X4527213D3*
D29*
X3404820Y5058310D3*
Y5338310D3*
D27*
X5067923Y4328213D3*
Y4158213D3*
X4820087Y4531130D3*
Y4361130D3*
D30*
X5140247Y5541027D3*
X4970247D3*
D27*
X5994517Y5271287D3*
Y5441287D3*
D30*
X4308397Y3627273D3*
X4478397D3*
X4303397Y3820413D3*
X4473397D3*
D27*
X3694517Y7801973D3*
Y7971973D3*
D28*
X3984410Y6963083D3*
X4264410D3*
X2401860Y5203647D3*
X2121860D3*
X2254443Y4543123D3*
X1974443D3*
D30*
X1625880Y4419987D3*
X1455880D3*
D31*
X8473943Y6965813D3*
Y6775813D3*
D28*
X9420370Y7876870D3*
X9140370D3*
D30*
X7987637Y7256303D3*
X7817637D3*
X7829667Y7612313D3*
X7999667D3*
X8667677Y7986290D3*
X8497677D3*
X6533430Y3439823D3*
X6363430D3*
X8051027Y1977373D3*
X8221027D3*
X3168397Y3137273D3*
X3338397D3*
X9698457Y2995100D3*
X9868457D3*
D27*
X10018957Y3310600D3*
Y3480600D3*
X10163457Y3478810D3*
Y3308810D3*
D30*
X8913563Y3023763D3*
X9083563D3*
X8913563Y2818763D3*
X9083563D3*
X9315523Y4070760D3*
X9485523D3*
D27*
X9285270Y4226213D3*
Y4396213D3*
X9480537Y4403313D3*
Y4233313D3*
D30*
X8442017Y3834747D3*
X8612017D3*
X8435407Y3629830D3*
X8605407D3*
D27*
X7013397Y1572273D3*
Y1402273D3*
X7073933Y1976413D3*
Y2146413D3*
X7255437Y2357907D3*
Y2527907D3*
D30*
X6188397Y1582273D3*
X6358397D3*
X6184067Y1367273D3*
X6354067D3*
X1701520Y3135477D3*
X1531520D3*
D27*
X1716520Y2905477D3*
Y2735477D3*
X2199723Y2208943D3*
Y2038943D3*
D30*
X2611520Y3095477D3*
X2441520D3*
X2614070Y3283090D3*
X2444070D3*
X5907217Y5982800D3*
X6077217D3*
X5441583Y5917770D3*
X5271583D3*
X6955357Y7247337D3*
X7125357D3*
D32*
X7391000Y8775000D3*
D34*
X7266000D3*
X7141000D3*
X7016000D3*
X6891000D3*
X6766000D3*
X6641000D3*
D36*
X3128633Y8393507D3*
X2938633D3*
X3033633Y8163507D3*
X2474720Y8029800D3*
X2284720D3*
X2379720Y7799800D3*
D38*
X3867913Y8692030D3*
Y8352030D3*
D40*
X3105440Y6466353D3*
X2665440D3*
D42*
X4799243Y6871693D3*
Y7061693D3*
X4569243Y6966693D3*
D36*
X9157677Y7401290D3*
X9347677D3*
X9252677Y7631290D3*
D44*
X9005407Y4107437D3*
Y4234437D3*
Y4361437D3*
Y4488437D3*
X8465407D3*
Y4361437D3*
Y4234437D3*
Y4107437D3*
X9623457Y3205100D3*
Y3332100D3*
Y3459100D3*
Y3586100D3*
X9083457D3*
Y3459100D3*
Y3332100D3*
Y3205100D3*
X2076520Y2895477D3*
Y2768477D3*
Y2641477D3*
Y2514477D3*
X2616520D3*
Y2641477D3*
Y2768477D3*
Y2895477D3*
X6857120Y1858550D3*
Y1985550D3*
Y2112550D3*
Y2239550D3*
X6317120D3*
Y2112550D3*
Y1985550D3*
Y1858550D3*
D46*
X6264943Y4004780D3*
X6475943D3*
X6840983Y3924267D3*
X7051983D3*
X7205773Y4591823D3*
X7416773D3*
X6528217Y4865563D3*
X6739217D3*
D47*
X4939650Y2989547D3*
X5153650D3*
X5155943Y2797393D3*
X4941943D3*
X5745070Y7380313D3*
X5959070D3*
D48*
X3612250Y4713557D3*
Y4484957D3*
D159*
X9674490Y6801100D3*
D162*
Y7231100D3*
D32*
X5711000Y8775000D3*
D34*
X5586000D3*
X5461000D3*
X5336000D3*
X5211000D3*
X5086000D3*
X4961000D3*
D44*
X3747897Y3316773D3*
Y3443773D3*
Y3570773D3*
Y3697773D3*
X3207897D3*
Y3570773D3*
Y3443773D3*
Y3316773D3*
X8586027Y2187373D3*
Y2314373D3*
Y2441373D3*
Y2568373D3*
X8046027D3*
Y2441373D3*
Y2314373D3*
Y2187373D3*
X5988397Y3277273D3*
Y3150273D3*
Y3023273D3*
Y2896273D3*
X6528397D3*
Y3023273D3*
Y3150273D3*
Y3277273D3*
D42*
X7675987Y8215850D3*
Y8025850D3*
X7905987Y8120850D3*
D36*
X1921530Y6904413D3*
X2111530D3*
X2016530Y7134413D3*
X2771950Y7818230D3*
X2961950D3*
X2866950Y8048230D3*
X3691877Y6812530D3*
X3501877D3*
X3596877Y6582530D3*
X4227080Y6782927D3*
X4037080D3*
X4132080Y6552927D3*
D50*
X9900013Y4445217D3*
X9995013D3*
X10090013D3*
Y4704217D3*
X9995013D3*
X9900013D3*
X2408397Y3792273D3*
X2503397D3*
X2598397D3*
Y4051273D3*
X2503397D3*
X2408397D3*
D27*
X7489910Y8048503D3*
Y8218503D3*
X7307293Y8052177D3*
Y8222177D3*
D30*
X4783203Y4748370D3*
X4613203D3*
X1805880Y4224987D3*
X1975880D3*
X2228207Y5584330D3*
X2058207D3*
X1460880Y4229987D3*
X1630880D3*
D51*
X3137407Y6931763D3*
Y7371763D3*
D30*
X1875600Y7579927D3*
X2045600D3*
D27*
X2774877Y7026867D3*
Y7196867D3*
D30*
X2213287Y7581807D3*
X2383287D3*
X4049107Y7808760D3*
X3879107D3*
X2373457Y7323710D3*
X2543457D3*
D27*
X3877583Y8021430D3*
Y8191430D3*
D30*
X2538833Y7136663D3*
X2368833D3*
D27*
X2117293Y6530093D3*
Y6700093D3*
X1923083Y6532730D3*
Y6702730D3*
X4580443Y7326503D3*
Y7156503D3*
D30*
X2406560Y8365377D3*
X2236560D3*
X3795703Y6473920D3*
X3965703D3*
X8549543Y7285333D3*
X8379543D3*
X9155933Y8060253D3*
X8985933D3*
D27*
X8831967Y8152420D3*
Y7982420D3*
D30*
X7826703Y7444290D3*
X7996703D3*
X4473397Y3452273D3*
X4303397D3*
D27*
X4068397Y3437273D3*
Y3267273D3*
X4273397Y3252273D3*
Y3082273D3*
X4478397Y3072273D3*
Y2902273D3*
X2853397Y3787273D3*
Y3957273D3*
D30*
X1876520Y3375477D3*
X1706520D3*
D27*
X1939127Y2032210D3*
Y2202210D3*
D30*
X2891520Y2765477D3*
X3061520D3*
D27*
X6838397Y1412273D3*
Y1582273D3*
X7086167Y2527800D3*
Y2357800D3*
D30*
X5943397Y1997273D3*
X5773397D3*
X9121027Y2477373D3*
X8951027D3*
D27*
X8956027Y2257373D3*
Y2087373D3*
D30*
X8611027Y1810150D3*
X8781027D3*
X7851027Y1822373D3*
X7681027D3*
X9927777Y5006503D3*
X10097777D3*
D27*
X7516143Y3949617D3*
Y3779617D3*
D30*
X10097323Y5191597D3*
X9927323D3*
X6813397Y4312273D3*
X6643397D3*
X9858457Y2775100D3*
X9688457D3*
X9177963Y2091543D3*
X9347963D3*
X7373397Y4217273D3*
X7203397D3*
X6170333Y6236037D3*
X6340333D3*
X5003517Y6213260D3*
X4833517D3*
X6078400Y5849460D3*
X5908400D3*
X4692247Y6478073D3*
X4862247D3*
X5878977Y7055290D3*
X5708977D3*
X7199503Y6860177D3*
X7029503D3*
X7207613Y7033657D3*
X7037613D3*
D27*
X5529387Y7312123D3*
Y7142123D3*
D32*
X9321000Y8775000D3*
D34*
X9196000D3*
X9071000D3*
X8946000D3*
X8821000D3*
X8696000D3*
X8571000D3*
X8446000D3*
X8321000D3*
D42*
X7908393Y4077990D3*
Y4267990D3*
X7678393Y4172990D3*
D52*
X3563413Y1811757D3*
X4038787Y2292130D3*
X4514163Y1811757D3*
D53*
X4038787Y1816757D3*
D44*
X6155863Y7233620D3*
Y7106620D3*
Y6979620D3*
Y6852620D3*
X6695863D3*
Y6979620D3*
Y7106620D3*
Y7233620D3*
D54*
X7905020Y5674773D3*
Y5420773D3*
X7651020Y5797773D3*
Y5543773D3*
D57*
X5210397Y4469150D3*
X5260397D3*
X5310397D3*
X5360397D3*
X5410397D3*
X5460397D3*
X5510397D3*
X5560397D3*
X5610397D3*
X5660397D3*
X5710397D3*
X5760397D3*
D58*
X5905397Y4614150D3*
Y4664150D3*
Y4714150D3*
Y4764150D3*
Y4814150D3*
Y4864150D3*
Y4914150D3*
Y4964150D3*
Y5014150D3*
Y5064150D3*
Y5114150D3*
Y5164150D3*
D57*
X5760397Y5309150D3*
X5710397D3*
X5660397D3*
X5610397D3*
X5560397D3*
X5510397D3*
X5460397D3*
X5410397D3*
X5360397D3*
X5310397D3*
X5260397D3*
X5210397D3*
D58*
X5065397Y5164150D3*
Y5114150D3*
Y5064150D3*
Y5014150D3*
Y4964150D3*
Y4914150D3*
Y4864150D3*
Y4814150D3*
Y4764150D3*
Y4714150D3*
Y4664150D3*
Y4614150D3*
D60*
X8694677Y7293290D3*
X8759677D3*
X8824677D3*
X8889677D3*
Y7733290D3*
X8824677D3*
X8759677D3*
X8694677D3*
D61*
X8792177Y7513290D3*
D62*
X7588740Y6847697D3*
Y7037697D3*
X7788740Y6942697D3*
D64*
X4291567Y5523890D3*
X4061567D3*
X3831567D3*
D65*
X4061567Y4943890D3*
D60*
X1770880Y4759987D3*
X1835880D3*
X1900880D3*
X1965880D3*
Y5199987D3*
X1900880D3*
X1835880D3*
X1770880D3*
D61*
X1868380Y4979987D3*
D67*
X3263870Y7780903D3*
X3358870D3*
X3453870D3*
Y8050903D3*
X3263870D3*
D69*
X5112233Y1517513D3*
Y1582513D3*
Y1647513D3*
X4892233D3*
Y1517513D3*
D71*
X7917103Y4638517D3*
X7852103D3*
X7787103D3*
Y4418517D3*
X7917103D3*
D44*
X5865583Y6093290D3*
Y6220290D3*
Y6347290D3*
Y6474290D3*
X5325583D3*
Y6347290D3*
Y6220290D3*
Y6093290D3*
D72*
X9627920Y6085903D3*
X2572343Y1511050D3*
X2908543Y1521920D3*
X9632150Y5409347D3*
X2254887Y1509807D3*
X1938140Y1515240D3*
X9619137Y5850447D3*
X9630503Y5618610D3*
D73*
X10080000Y9509000D3*
X1508000Y9255000D3*
Y1889000D3*
X10080000Y1508000D3*
M02*
