M48
METRIC,0000.00
T01C0.25
T02C0.5
T03C0.508
T04C1.4
T05C2.1
T06C2.5
T07C3.0
%
T01
X+008794Y+007512
X+008873Y+007466
X+008874Y+007560
X+008710Y+007560
X+008710Y+007468
X+008981Y+008166
X+007904Y+008232
X+007734Y+008903
X+007212Y+008052
X+007433Y+007437
X+007308Y+007368
X+007537Y+007198
X+007659Y+007270
X+007452Y+006948
X+007907Y+006943
X+006855Y+006835
X+006930Y+007373
X+006042Y+006536
X+006040Y+006427
X+006170Y+006335
X+006432Y+006231
X+006193Y+005982
X+006194Y+005853
X+006123Y+005534
X+005865Y+005333
X+005803Y+005429
X+005710Y+005598
X+005565Y+005653
X+005397Y+005550
X+005325Y+005477
X+005261Y+005542
X+005139Y+005656
X+005165Y+005910
X+004971Y+005869
X+005000Y+006130
X+005187Y+006349
X+004717Y+006215
X+004589Y+006482
X+004258Y+006108
X+003932Y+005670
X+004048Y+004756
X+004528Y+004744
X+004709Y+004529
X+004886Y+004667
X+005056Y+004466
X+005243Y+004309
X+005377Y+004240
X+005498Y+004261
X+005585Y+004178
X+005623Y+003734
X+006100Y+003643
X+006241Y+003444
X+006688Y+003147
X+006938Y+003112
X+006733Y+002896
X+006606Y+002738
X+006911Y+002738
X+006974Y+002528
X+007367Y+002528
X+007817Y+002568
X+007906Y+002441
X+007897Y+002314
X+007845Y+002742
X+007435Y+003071
X+007349Y+003489
X+007276Y+003657
X+007158Y+003975
X+007158Y+004108
X+006938Y+004044
X+006960Y+004304
X+006763Y+004407
X+006989Y+004585
X+006892Y+004806
X+007037Y+004881
X+006791Y+005135
X+006886Y+005212
X+007020Y+005345
X+006462Y+005384
X+006324Y+004969
X+006257Y+004875
X+006153Y+004917
X+006036Y+005002
X+006028Y+005128
X+006372Y+004788
X+006099Y+004567
X+006132Y+004286
X+006121Y+004066
X+006553Y+003942
X+007493Y+004208
X+007689Y+004024
X+007787Y+004394
X+007553Y+004531
X+007853Y+004778
X+007932Y+004737
X+008279Y+004491
X+008272Y+004360
X+008273Y+004234
X+008699Y+003836
X+008906Y+003584
X+008911Y+003465
X+008639Y+003332
X+008595Y+003502
X+009204Y+003027
X+009192Y+002812
X+009235Y+002477
X+009485Y+002092
X+008974Y+001806
X+008332Y+001977
X+007959Y+001822
X+007579Y+001818
X+007584Y+001299
X+007118Y+001407
X+006734Y+001415
X+006486Y+001363
X+006488Y+001585
X+006126Y+002107
X+006124Y+002245
X+005771Y+002097
X+005547Y+001824
X+005228Y+001584
X+005193Y+001479
X+005259Y+001262
X+004859Y+001648
X+004851Y+001809
X+004633Y+002896
X+004398Y+003247
X+004163Y+003082
X+003935Y+003574
X+003925Y+003697
X+004155Y+003815
X+004616Y+003819
X+004622Y+003637
X+004613Y+003439
X+005066Y+004042
X+004820Y+004243
X+004938Y+004956
X+004938Y+005178
X+004862Y+005394
X+004848Y+005539
X+005537Y+005922
X+005704Y+007150
X+008306Y+005559
X+009817Y+005192
X+009830Y+005011
X+009595Y+004237
X+009602Y+004068
X+010163Y+003598
X+010278Y+003306
X+009978Y+003000
X+009943Y+002775
X+008742Y+002566
X+008732Y+002441
X+005800Y+002892
X+005818Y+003027
X+003449Y+003134
X+003161Y+002765
X+002800Y+002640
X+002799Y+002512
X+002375Y+002039
X+002076Y+002032
X+002526Y+001389
X+002776Y+001250
X+003138Y+001416
X+003213Y+001191
X+003563Y+001640
X+002301Y+003097
X+002311Y+003287
X+001975Y+003375
X+001409Y+003133
X+002718Y+004051
X+002973Y+003642
X+003048Y+003698
X+003338Y+004930
X+002058Y+005463
X+001867Y+004984
X+002222Y+006527
T02
X+007391Y+008775
X+007266Y+008775
X+007141Y+008775
X+007016Y+008775
X+006891Y+008775
X+006766Y+008775
X+006641Y+008775
X+005711Y+008775
X+005586Y+008775
X+005461Y+008775
X+005336Y+008775
X+005211Y+008775
X+005086Y+008775
X+004961Y+008775
X+003868Y+008886
X+003767Y+008191
X+003260Y+008209
X+003128Y+008490
X+002867Y+008170
X+002475Y+008144
X+002770Y+007699
X+002956Y+007670
X+003137Y+007535
X+003184Y+007655
X+003359Y+007654
X+003506Y+007640
X+004172Y+007809
X+003700Y+006958
X+003494Y+006948
X+002770Y+007299
X+002539Y+007431
X+002275Y+007316
X+001733Y+007584
X+001957Y+005412
X+001975Y+004367
X+002092Y+004223
X+002407Y+004182
X+002503Y+004190
X+002500Y+003662
X+002402Y+003666
X+002734Y+003286
X+003042Y+003142
X+003682Y+004900
X+003578Y+005676
X+004324Y+006553
X+007683Y+007923
X+008259Y+007425
X+008110Y+007029
X+009425Y+008043
X+009321Y+008775
X+009196Y+008775
X+009071Y+008775
X+008946Y+008775
X+008821Y+008775
X+008696Y+008775
X+008571Y+008775
X+008446Y+008775
X+008321Y+008775
X+009858Y+004842
X+009995Y+004832
X+009992Y+004289
X+010133Y+004288
X+009840Y+004292
X+009623Y+004403
X+009186Y+004107
X+008434Y+003494
X+008798Y+002818
X+007903Y+001980
X+007516Y+003653
X+006645Y+003439
X+006059Y+001369
T03
X+008832Y+008275
X+009152Y+008172
X+009084Y+007647
X+008615Y+007830
X+008369Y+007992
X+008001Y+007753
X+008838Y+006833
X+004933Y+006874
X+004579Y+007485
X+002477Y+006465
X+002218Y+006924
X+001923Y+006403
X+002413Y+005496
X+002553Y+005208
X+002410Y+004568
X+001701Y+005352
X+001335Y+004426
X+001342Y+004228
X+002085Y+008355
T04
X+007905Y+005675
X+007905Y+005421
X+007651Y+005544
X+007651Y+005798
T05
X+007905Y+005925
T06
X+007651Y+005298
T07
X+010080Y+009509
X+010080Y+001508
X+001508Y+001889
X+001508Y+009255
T00
M30
