G04 DipTrace 3.2.0.1*
G04 SiC_V3_BM.GBL*
%MOMM*%
G04 #@! TF.FileFunction,Copper,L4,Bot*
G04 #@! TF.Part,Single*
G04 #@! TA.AperFunction,Conductor*
%ADD14C,0.254*%
%ADD16C,0.4*%
%ADD18C,0.5*%
G04 #@! TA.AperFunction,ViaPad*
%ADD20C,0.87*%
G04 #@! TA.AperFunction,Conductor*
%ADD21C,0.3048*%
%ADD23C,0.16*%
G04 #@! TA.AperFunction,ComponentPad*
%ADD32R,1.05X1.15*%
%ADD34O,1.05X1.15*%
%ADD54C,1.75*%
%ADD73C,5.0*%
G04 #@! TA.AperFunction,ViaPad*
%ADD75C,0.57*%
%ADD76C,0.8636*%
%FSLAX35Y35*%
G04*
G71*
G90*
G75*
G01*
G04 Bottom*
%LPD*%
X2058207Y5462600D2*
D14*
X3367763Y4153043D1*
X5470870D1*
X5935667Y4617840D1*
Y4902113D1*
X6035727Y5002173D1*
X6462167Y5384063D2*
X6512063Y5346200D1*
X6724497D1*
X8575027Y7196730D1*
Y7543373D1*
X8767620Y7735967D1*
Y7973477D1*
X8960640Y8166497D1*
X8981240D1*
X5211000Y8775000D2*
D16*
X5195360D1*
X5377937Y8957577D1*
X7479683D1*
X7903920Y8533340D1*
Y8232020D1*
X7578667Y1818363D2*
Y2199263D1*
X6745657Y3032273D1*
X5818397D1*
Y3027273D1*
X4633397Y2896273D2*
X5584027D1*
X5687510Y2792790D1*
X5924290D1*
X6027773Y2896273D1*
X6732587D1*
X2222463Y6527303D2*
D14*
X2403873Y6345893D1*
X3506673D1*
X4537893Y5314673D1*
X5694283D1*
X5808477Y5428867D1*
X5802523D1*
X5397027Y5549727D2*
X5564997Y5652617D1*
X7896997Y2314373D2*
D16*
X7999600Y2211770D1*
X9139347D1*
X9843097Y2915520D1*
Y3998653D1*
X10132803Y4288360D1*
X9485233Y2091543D2*
X10163457Y2769767D1*
Y3597503D1*
X9622973Y4403313D2*
D18*
X9632010Y4412350D1*
X9799603D1*
X10096620Y4709367D1*
Y4912290D1*
X9817313Y5191597D1*
X9186063Y4107437D2*
X8983180Y3904553D1*
Y3381673D1*
X8856940Y3255433D1*
X8554003D1*
X7707640Y4101797D1*
X7553293D1*
X7516143Y4064647D1*
Y3653053D1*
X3767490Y8191430D2*
X3569053Y8389867D1*
X2545673D1*
X2342177Y8186370D1*
Y7517560D1*
X2519190Y7340547D1*
X2673903Y7185833D1*
X3032853D1*
X3358870Y7511850D1*
Y7654257D1*
X2539143Y7431260D2*
X2519190Y7411307D1*
Y7340547D1*
X2770040Y7698527D2*
Y7298523D1*
X4171603Y7808760D2*
Y6941747D1*
X4100607Y6870750D1*
X3635387D1*
X3557893Y6948243D1*
X3493723D1*
X2866950Y8170400D2*
X3184210Y7853140D1*
Y7654690D1*
X3699990Y6957923D2*
Y7678283D1*
X3609287Y7768987D1*
X3268363D1*
X3184210Y7853140D1*
X2474720Y8144373D2*
X2500747Y8170400D1*
X2866950D1*
X2275247Y7316100D2*
Y7144907D1*
X2664063Y6756090D1*
X3113273D1*
X3505703Y7148520D1*
Y7639910D1*
X7493397Y4207590D2*
D14*
X7919200D1*
X8190993Y3935797D1*
X8506217D1*
X8727460Y3714553D1*
Y3420573D1*
X8638987Y3332100D1*
X6959720Y4304193D2*
X6954113Y4298587D1*
X8208750D1*
X8273410Y4233927D1*
X6791310Y5135163D2*
X6734500Y5191973D1*
X5961210D1*
X5829590Y5060353D1*
Y4936353D1*
X5376667Y4483430D1*
Y4240430D1*
X7211803Y8052177D2*
X7240167Y8023813D1*
X7835970D1*
X8384540Y7475243D1*
Y7143260D1*
X6911940Y5670660D1*
X5924907D1*
X5851830Y5597583D1*
X5710397D1*
X8973607Y1805670D2*
D16*
X9943037Y2775100D1*
X8973607Y1805670D2*
Y1822373D1*
X7959213D1*
X4398397Y3247273D2*
Y2892273D1*
X4762870Y2527800D1*
X6974370D1*
X6734390Y1415357D2*
X6457253Y1138220D1*
X5033013D1*
X4163397Y2007837D1*
Y3082273D1*
X7906250Y2441373D2*
X8066523D1*
X8210800Y2297097D1*
X8764603D1*
X8835003Y2367497D1*
X8915210Y2447703D1*
Y2860027D1*
X8598693Y3176543D1*
X8536437D1*
X7689073Y4023907D1*
X9830403Y5010623D2*
X9356010Y4536230D1*
Y2716203D1*
X9007303Y2367497D1*
X8835003D1*
X2076493Y2032210D2*
X1864837Y2243867D1*
Y3743713D1*
X2172397Y4051273D1*
X2718397D1*
X1974907Y3375477D2*
X2097077Y3497647D1*
X2746820D1*
X2891447Y3642273D1*
X2973397D1*
X3563413Y1639590D2*
X1974907Y3228097D1*
Y3375477D1*
X7452013Y6947537D2*
D14*
X7308063Y7091487D1*
Y7367717D1*
X7433113Y7436853D2*
Y7302280D1*
X7537367Y7198027D1*
X6039703Y6427260D2*
X6044643D1*
X6738020Y7120637D1*
Y7769983D1*
X7391000Y8422963D1*
Y8775000D1*
X9321000D2*
X9193417Y8902583D1*
X7734320D1*
X6170333Y6335320D2*
X5582167Y5747153D1*
X5486957D1*
X5399727Y5659923D1*
X5261470D1*
X5195217Y5593670D1*
Y5416820D1*
X5227573Y5384463D1*
X5530760D1*
X5640273Y5493977D1*
X5884823D1*
X5940587Y5438213D1*
Y5300483D1*
X5906993Y5266890D1*
X4911540D1*
X4826103Y5181453D1*
Y5045073D1*
X4915300Y4955877D1*
X4938053D1*
X5187233Y6349443D2*
X7141000Y8303210D1*
Y8775000D1*
X5000393Y6130187D2*
X5039523Y6063447D1*
Y5571400D1*
X4862267Y5394143D1*
X7905020Y5420773D2*
X8101067Y5616820D1*
Y6078020D1*
X8040413Y6138673D1*
X7740943D1*
X7374180Y5771910D1*
Y5699530D1*
X7020130Y5345480D1*
X6886483Y5211833D2*
X6835537D1*
X6781060Y5235760D1*
X5936660D1*
X5898180Y5197280D1*
X4957350D1*
X4938443Y5178373D1*
X8305767Y5558683D2*
Y5476050D1*
X7938797Y5109080D1*
X7294610D1*
X7125307Y5278383D1*
X6175360D1*
X5917693Y5536050D1*
X5567880D1*
Y5533417D1*
X5536780D1*
X5480410Y5477047D1*
X5325180D1*
X8110260Y7029087D2*
D18*
Y7521297D1*
X7254677D1*
X5971413Y6238033D1*
X5147407D1*
X4832513Y6552927D1*
X4323667D1*
X1956983Y5412333D2*
D16*
Y5978170D1*
X2075780Y6096967D1*
Y6577457D1*
X2149027Y6650703D1*
X4134210D1*
X4231987Y6552927D1*
X4323667D1*
X7276490Y3656980D2*
D14*
X7348650Y3584820D1*
Y3489080D1*
X5547440Y1823917D2*
Y1550777D1*
X5259103Y1262440D1*
X2775627Y1250330D2*
X2665120D1*
X2526433Y1389017D1*
X7157777Y4108187D2*
X7002053D1*
X6938167Y4044300D1*
X6257410Y4875447D2*
Y3674710D1*
X5710273Y3127573D1*
X4589870D1*
X4510657Y3048360D1*
Y2868333D1*
X4724283Y2654707D1*
X6950723D1*
X7065563Y2539867D1*
Y2273993D1*
X6783870Y1992300D1*
X5989510D1*
X5884357Y2097453D1*
X5770613D1*
X6989173Y4585423D2*
X6666590D1*
X6384817Y4867197D1*
X6265660D1*
X6257410Y4875447D1*
X6606040Y2737853D2*
D23*
X6910997D1*
X7435460Y3070807D2*
X7516050D1*
X7845100Y2741757D1*
X6372057Y4787557D2*
D14*
Y3564520D1*
X6688397Y3248180D1*
Y3147273D1*
X6937587Y3112467D2*
Y3078800D1*
X7698733Y2317653D1*
Y1413913D1*
X7584270Y1299450D1*
X3212803Y1190990D2*
X3138327Y1265467D1*
Y1416103D1*
X6131897Y4286123D2*
D21*
Y4055213D1*
X6121217Y4065893D1*
X3160560Y2765477D2*
D14*
X3776850Y3381767D1*
X5147890D1*
X6160620Y4394497D1*
Y4893810D1*
X6153397Y4901033D1*
Y4917273D1*
X6324047Y4969480D2*
X6213080D1*
X6153397Y4917273D1*
X6098790Y4567020D2*
X5103210Y3571440D1*
X4784230D1*
X4782160Y3573510D1*
X3935400D1*
X6763397Y4407273D2*
Y4279807D1*
X6856867Y4186337D1*
Y3845827D1*
X8337680Y2365013D1*
X8655637D1*
X8731997Y2441373D1*
X4155193Y3814830D2*
D16*
X4160680Y3820317D1*
X3758393D1*
X3635850Y3697773D1*
X3407727D1*
X3048397D1*
X7787103Y4393847D2*
X7931763Y4538507D1*
Y4736720D1*
X7816670Y2568373D2*
X6734990Y3650053D1*
Y4141920D1*
X6690723Y4186187D1*
Y4449333D1*
X6742937Y4501547D1*
X6802773D1*
X6910473Y4393847D1*
X7787103D1*
X7931763Y4736720D2*
X7947460D1*
Y4816350D1*
X7715323Y5048487D1*
X6184417D1*
X5999493Y4863563D1*
Y4592983D1*
X5584740Y4178230D1*
X5593610D1*
X5354163Y3938783D1*
X4279147D1*
X4160680Y3820317D1*
X5192520Y1479073D2*
X5113670Y1557923D1*
Y1677630D1*
X5186963Y1750923D1*
X4962667D1*
X4859257Y1647513D1*
X5186963Y1750923D2*
X4256583Y2681303D1*
Y3147850D1*
X4093673Y3310760D1*
X3845017D1*
X3220587Y2686330D1*
X2902690D1*
X2719950Y2869070D1*
Y2948807D1*
X3407727Y3636583D1*
Y3697773D1*
X5623237Y3734380D2*
D14*
X5714570Y3643047D1*
X6099983D1*
D75*
X2058207Y5462600D3*
X6035727Y5002173D3*
X6462167Y5384063D3*
X8981240Y8166497D3*
X7903920Y8232020D3*
X4258023Y6108220D3*
X6929737Y7372553D3*
X7578667Y1818363D3*
X5818397Y3027273D3*
X4633397Y2896273D3*
X6732587D3*
X2222463Y6527303D3*
X5802523Y5428867D3*
X5397027Y5549727D3*
X5564997Y5652617D3*
X4970557Y5868920D3*
X4047840Y4756393D3*
X3338073Y4929583D3*
X3931523Y5669930D3*
X6042193Y6536357D3*
X7658717Y7269973D3*
X6855067Y6835447D3*
X5703507Y7150353D3*
X7907053Y6942697D3*
X7896997Y2314373D3*
D20*
X10132803Y4288360D3*
D75*
X9485233Y2091543D3*
X10163457Y3597503D3*
D20*
X9622973Y4403313D3*
D75*
X9817313Y5191597D3*
D20*
X7516143Y3653053D3*
X9186063Y4107437D3*
X3767490Y8191430D3*
X3358870Y7654257D3*
X2539143Y7431260D3*
X2770040Y7698527D3*
Y7298523D3*
X4171603Y7808760D3*
X3493723Y6948243D3*
X2866950Y8170400D3*
X3184210Y7654690D3*
X3699990Y6957923D3*
X2474720Y8144373D3*
X2866950Y8170400D3*
X2275247Y7316100D3*
X3505703Y7639910D3*
D75*
X7493397Y4207590D3*
X8638987Y3332100D3*
D3*
X6959720Y4304193D3*
X8273410Y4233927D3*
D3*
X6791310Y5135163D3*
X5376667Y4240430D3*
X7211803Y8052177D3*
X5710397Y5597583D3*
X8973607Y1805670D3*
X9943037Y2775100D3*
X7959213Y1822373D3*
X8973607Y1805670D3*
X4398397Y3247273D3*
X6974370Y2527800D3*
X6734390Y1415357D3*
X4163397Y3082273D3*
X7906250Y2441373D3*
X7689073Y4023907D3*
D3*
X9830403Y5010623D3*
X2076493Y2032210D3*
X2718397Y4051273D3*
X1974907Y3375477D3*
X2973397Y3642273D3*
X3563413Y1639590D3*
X1974907Y3375477D3*
X7452013Y6947537D3*
X7308063Y7367717D3*
X7433113Y7436853D3*
X7537367Y7198027D3*
X6039703Y6427260D3*
X7734320Y8902583D3*
X6170333Y6335320D3*
X4938053Y4955877D3*
X5187233Y6349443D3*
X5000393Y6130187D3*
X4862267Y5394143D3*
X7020130Y5345480D3*
X6886483Y5211833D3*
X4938443Y5178373D3*
X8305767Y5558683D3*
X5325180Y5477047D3*
D20*
X8110260Y7029087D3*
X4323667Y6552927D3*
X1956983Y5412333D3*
D75*
X7276490Y3656980D3*
X7348650Y3489080D3*
X5547440Y1823917D3*
X5259103Y1262440D3*
X2775627Y1250330D3*
X2526433Y1389017D3*
X7157777Y4108187D3*
X6938167Y4044300D3*
X6257410Y4875447D3*
X5770613Y2097453D3*
X6989173Y4585423D3*
X6257410Y4875447D3*
X6606040Y2737853D3*
X6910997D3*
X7435460Y3070807D3*
X7845100Y2741757D3*
X6372057Y4787557D3*
X6688397Y3147273D3*
X6937587Y3112467D3*
X7584270Y1299450D3*
X3212803Y1190990D3*
X3138327Y1416103D3*
X6688397Y3147273D3*
X6131897Y4286123D3*
X6121217Y4065893D3*
X3160560Y2765477D3*
X6153397Y4917273D3*
X6324047Y4969480D3*
X6552833Y3941830D3*
X6892220Y4806047D3*
X7553293Y4530603D3*
X7158193Y3975420D3*
X6098790Y4567020D3*
X3935400Y3573510D3*
X6763397Y4407273D3*
X8731997Y2441373D3*
X4155193Y3814830D3*
X3048397Y3697773D3*
X7787103Y4393847D3*
X7931763Y4736720D3*
X7816670Y2568373D3*
X7787103Y4393847D3*
X5584740Y4178230D3*
X5192520Y1479073D3*
X4859257Y1647513D3*
X5623237Y3734380D3*
X6099983Y3643047D3*
X8793857Y7512500D3*
D76*
X8831547Y8274810D3*
D75*
X4708557Y4528980D3*
D76*
X2084773Y8354550D3*
D75*
X5864897Y5332737D3*
D20*
X9424933Y8042627D3*
D75*
X7037057Y4881203D3*
D76*
X2217623Y6923610D3*
D20*
X6645380Y3439107D3*
D76*
X1923480Y6403337D3*
X2477053Y6465337D3*
X2413307Y5495523D3*
X2553427Y5208367D3*
X1700850Y5352220D3*
D75*
X1867233Y4984353D3*
X4848080Y5539403D3*
X6122700Y5534193D3*
X5066373Y4041560D3*
X4819720Y4243363D3*
X4528010Y4743683D3*
X5260550Y5541873D3*
D76*
X4579433Y7485347D3*
X4933070Y6873940D3*
D20*
X8259433Y7424913D3*
D75*
X5536897Y5922070D3*
X9595170Y4236880D3*
X9602447Y4067853D3*
X8279030Y4491053D3*
X8272257Y4359847D3*
X8699073Y3836420D3*
X8595373Y3501593D3*
X10277627Y3305803D3*
X8906183Y3584473D3*
X8911493Y3464593D3*
X9203740Y3026730D3*
X9192450Y2812227D3*
X9978290Y2999583D3*
X9234787Y2476797D3*
X8741873Y2565680D3*
X7853007Y4777867D3*
X8332023Y1977217D3*
X7367050Y2528410D3*
X6241320Y3443647D3*
X5800237Y2892043D3*
X4615837Y3819243D3*
X4622450Y3637423D3*
X4612530Y3439073D3*
X3448877Y3134213D3*
X3924917Y3696927D3*
X6027917Y5128230D3*
X5497893Y4260593D3*
X5242787Y4308817D3*
X4885890Y4666683D3*
X7117670Y1407287D3*
X6487940Y1585157D3*
X6486073Y1363097D3*
X6124057Y2244947D3*
X6125923Y2106857D3*
X4851380Y1809083D3*
X5227900Y1583560D3*
X2800460Y2639707D3*
X2375487Y2039043D3*
X1409353Y3133400D3*
X2311477Y3286927D3*
X2300743Y3097037D3*
X2798933Y2511573D3*
D76*
X2409557Y4568377D3*
X1335163Y4426227D3*
X1342287Y4227877D3*
X8838370Y6833380D3*
X8369197Y7991823D3*
X8000963Y7752753D3*
X9152133Y8172280D3*
X9084257Y7646583D3*
X8614833Y7830380D3*
D75*
X5138553Y5655943D3*
X5056133Y4466310D3*
D20*
X9839833Y4291880D3*
D75*
X6193010Y5982267D3*
D20*
X3577627Y5675720D3*
X3681880Y4899623D3*
D75*
X8710057Y7560313D3*
Y7467567D3*
X8872907Y7466490D3*
D20*
X3868157Y8885893D3*
X3041560Y3142163D3*
X2734057Y3286143D3*
X3128360Y8489933D3*
X2401553Y3665807D3*
X2499737Y3662170D3*
X2406727Y4181753D3*
X2502590Y4189807D3*
X2091923Y4223403D3*
X1975460Y4366923D3*
X6058527Y1369347D3*
X3260470Y8208853D3*
X7902933Y1980010D3*
X2956447Y7669597D3*
X1732930Y7583810D3*
X9991833Y4289243D3*
X9857507Y4842093D3*
X9995080Y4832017D3*
X8434190Y3493957D3*
X8798260Y2818300D3*
X3137297Y7534920D3*
D75*
X8873983Y7560313D3*
D20*
X7682863Y7923317D3*
D75*
X6432063Y6230537D3*
X6194293Y5852580D3*
X5164647Y5910413D3*
X4717113Y6215113D3*
X4588567Y6481730D3*
D32*
X7391000Y8775000D3*
D34*
X7266000D3*
X7141000D3*
X7016000D3*
X6891000D3*
X6766000D3*
X6641000D3*
D32*
X5711000D3*
D34*
X5586000D3*
X5461000D3*
X5336000D3*
X5211000D3*
X5086000D3*
X4961000D3*
D32*
X9321000D3*
D34*
X9196000D3*
X9071000D3*
X8946000D3*
X8821000D3*
X8696000D3*
X8571000D3*
X8446000D3*
X8321000D3*
D54*
X7905020Y5674773D3*
Y5420773D3*
X7651020Y5797773D3*
Y5543773D3*
D73*
X10080000Y9509000D3*
X1508000Y9255000D3*
Y1889000D3*
X10080000Y1508000D3*
M02*
