G04 DipTrace 3.2.0.1*
G04 SiC_V3_BM.GTO*
%MOMM*%
G04 #@! TF.FileFunction,Legend,Top*
G04 #@! TF.Part,Single*
%ADD10C,0.25*%
%ADD26C,0.2*%
%ADD35O,0.39127X0.39172*%
%ADD37C,0.40002*%
%ADD39O,0.60023X0.59978*%
%ADD41O,0.39172X0.39127*%
%ADD43O,0.39148X0.39162*%
%ADD45O,0.27753X0.33333*%
%ADD49O,0.20687X0.20876*%
%ADD56O,0.399X0.401*%
%ADD59O,0.39993X0.39962*%
%ADD63O,0.39124X0.39193*%
%ADD66O,0.39118X0.39103*%
%ADD68O,0.39191X0.3913*%
%ADD70O,0.3913X0.39191*%
%ADD155C,0.19608*%
%ADD156C,0.23529*%
%ADD157C,0.15686*%
%ADD158C,0.11765*%
%FSLAX35Y35*%
G04*
G71*
G90*
G75*
G01*
G04 TopSilk*
%LPD*%
X4678213Y5915467D2*
D10*
Y5755627D1*
X4697133Y5915467D2*
Y5755627D1*
Y5915467D2*
X4637293D1*
X4697133Y5755627D2*
X4637293D1*
X3484740Y5187310D2*
X3324900D1*
X3484740Y5168390D2*
X3324900D1*
X3484740D2*
Y5228230D1*
X3324900Y5168390D2*
Y5228230D1*
X4113410Y6883163D2*
Y7043003D1*
X4094490Y6883163D2*
Y7043003D1*
Y6883163D2*
X4154330D1*
X4094490Y7043003D2*
X4154330D1*
X2272860Y5283567D2*
Y5123727D1*
X2291780Y5283567D2*
Y5123727D1*
Y5283567D2*
X2231940D1*
X2291780Y5123727D2*
X2231940D1*
X2125443Y4623043D2*
Y4463203D1*
X2144363Y4623043D2*
Y4463203D1*
Y4623043D2*
X2084523D1*
X2144363Y4463203D2*
X2084523D1*
X8408993Y7070867D2*
X8538893D1*
X9291370Y7956790D2*
Y7796950D1*
X9310290Y7956790D2*
Y7796950D1*
Y7956790D2*
X9250450D1*
X9310290Y7796950D2*
X9250450D1*
X7481000Y8900000D2*
X6551000D1*
Y8815084D2*
Y8900000D1*
X7481000Y8670000D2*
Y8724993D1*
X6551000Y8670000D2*
Y8724993D1*
X7481000Y8670000D2*
X6551000D1*
X7481000Y8855012D2*
Y8900000D1*
D35*
X3206990Y8430867D3*
X3183620Y8303507D2*
D10*
X2883633D1*
Y8253506D1*
X3183620D1*
Y8303507D1*
D35*
X2553076Y8067161D3*
X2529706Y7939800D2*
D10*
X2229720D1*
Y7889800D1*
X2529706D1*
Y7939800D1*
X3947920Y8612050D2*
Y8432018D1*
X3787913Y8612050D2*
Y8432018D1*
D37*
X3867917Y8787032D3*
X3110449Y6286345D2*
D10*
X2660432D1*
X3110449Y6646355D2*
X2660432D1*
Y6286345D2*
Y6311366D1*
X3110449Y6286345D2*
Y6311366D1*
X2660432Y6621334D2*
Y6646355D1*
X3110449Y6621334D2*
Y6646355D1*
D39*
X3292929Y6466350D3*
D41*
X4836604Y6793337D3*
X4709244Y6816707D2*
D10*
Y7116693D1*
X4659243D1*
Y6816707D1*
X4709244D1*
D43*
X9179322Y7653891D3*
X9102690Y7491299D2*
D10*
X9402677D1*
Y7541281D1*
X9102690D1*
Y7491299D1*
X8865425Y4047932D2*
Y4547942D1*
X8605389Y4047932D2*
Y4547942D1*
X8865425D2*
X8605389D1*
X8785431Y4047932D2*
X8865425D1*
X8685383D2*
X8605389D1*
X8785431D2*
G03X8685383Y4047932I-50024J-23D01*
G01*
X9483475Y3145595D2*
Y3645605D1*
X9223439Y3145595D2*
Y3645605D1*
X9483475D2*
X9223439D1*
X9403481Y3145595D2*
X9483475D1*
X9303433D2*
X9223439D1*
X9403481D2*
G03X9303433Y3145595I-50024J-23D01*
G01*
X2216502Y2954982D2*
Y2454972D1*
X2476538Y2954982D2*
Y2454972D1*
X2216502D2*
X2476538D1*
X2296496Y2954982D2*
X2216502D1*
X2396544D2*
X2476538D1*
X2296496D2*
G03X2396544Y2954982I50024J23D01*
G01*
X6717138Y1799045D2*
Y2299055D1*
X6457102Y1799045D2*
Y2299055D1*
X6717138D2*
X6457102D1*
X6637144Y1799045D2*
X6717138D1*
X6537096D2*
X6457102D1*
X6637144D2*
G03X6537096Y1799045I-50024J-23D01*
G01*
X6304375Y4088113D2*
X6489737D1*
X6304375Y3921447D2*
X6489737D1*
D45*
X6195486Y4004780D3*
X6880415Y4007600D2*
D10*
X7065777D1*
X6880415Y3840933D2*
X7065777D1*
D45*
X6771526Y3924267D3*
X7245205Y4675157D2*
D10*
X7430567D1*
X7245205Y4508490D2*
X7430567D1*
D45*
X7136316Y4591823D3*
X6567649Y4948897D2*
D10*
X6753011D1*
X6567649Y4782230D2*
X6753011D1*
D45*
X6458760Y4865563D3*
X4970641Y3055543D2*
D10*
X5122663D1*
X4970641Y2923548D2*
X5122663D1*
D37*
X4861652Y3059552D3*
X5124952Y2731397D2*
D10*
X4972930D1*
X5124952Y2863392D2*
X4972930D1*
D37*
X5233941Y2727388D3*
X5776061Y7446309D2*
D10*
X5928083D1*
X5776061Y7314315D2*
X5928083D1*
D37*
X5667072Y7450319D3*
X3707650Y4821857D2*
D10*
X3516850D1*
Y4376657D1*
X3707650D1*
Y4821857D1*
X5801000Y8900000D2*
X4871000D1*
Y8815084D2*
Y8900000D1*
X5801000Y8670000D2*
Y8724993D1*
X4871000Y8670000D2*
Y8724993D1*
X5801000Y8670000D2*
X4871000D1*
X5801000Y8855012D2*
Y8900000D1*
X3607915Y3257268D2*
Y3757278D1*
X3347879Y3257268D2*
Y3757278D1*
X3607915D2*
X3347879D1*
X3527921Y3257268D2*
X3607915D1*
X3427873D2*
X3347879D1*
X3527921D2*
G03X3427873Y3257268I-50024J-23D01*
G01*
X8446045Y2127868D2*
Y2627878D1*
X8186009Y2127868D2*
Y2627878D1*
X8446045D2*
X8186009D1*
X8366051Y2127868D2*
X8446045D1*
X8266003D2*
X8186009D1*
X8366051D2*
G03X8266003Y2127868I-50024J-23D01*
G01*
X6128379Y3336778D2*
Y2836768D1*
X6388415Y3336778D2*
Y2836768D1*
X6128379D2*
X6388415D1*
X6208373Y3336778D2*
X6128379D1*
X6308421D2*
X6388415D1*
X6208373D2*
G03X6308421Y3336778I50024J23D01*
G01*
D41*
X7638626Y8294206D3*
X7765986Y8270836D2*
D10*
Y7970850D1*
X7815987D1*
Y8270836D1*
X7765986D1*
D35*
X1843174Y6867053D3*
X1866544Y6994413D2*
D10*
X2166530D1*
Y7044414D1*
X1866544D1*
Y6994413D1*
D35*
X2693594Y7780869D3*
X2716964Y7908230D2*
D10*
X3016950D1*
Y7958230D1*
X2716964D1*
Y7908230D1*
D35*
X3770233Y6849891D3*
X3746863Y6722530D2*
D10*
X3446877D1*
Y6672530D1*
X3746863D1*
Y6722530D1*
D35*
X4305436Y6820287D3*
X4282066Y6692927D2*
D10*
X3982080D1*
Y6642926D1*
X4282066D1*
Y6692927D1*
D49*
X9827023Y4378281D3*
X10173347Y4499812D2*
D10*
Y4649647D1*
X9825597Y4499812D2*
Y4649647D1*
D49*
X2335407Y3725338D3*
X2681730Y3846869D2*
D10*
Y3996703D1*
X2333980Y3846869D2*
Y3996703D1*
X3012397Y7051943D2*
Y7251583D1*
X3262417Y7051943D2*
Y7251583D1*
X9411027Y8900032D2*
X8231000D1*
Y8815096D2*
Y8900032D1*
X9411027Y8670042D2*
Y8720041D1*
X8231000Y8670042D2*
Y8725009D1*
X9411027Y8670042D2*
X8231000D1*
X9411027Y8855046D2*
Y8900032D1*
D41*
X7945754Y3999634D3*
X7818394Y4023004D2*
D10*
Y4322990D1*
X7768393D1*
Y4023004D1*
X7818394D1*
X6295845Y7293125D2*
Y6793115D1*
X6555881Y7293125D2*
Y6793115D1*
X6295845D2*
X6555881D1*
X6375839Y7293125D2*
X6295845D1*
X6475887D2*
X6555881D1*
X6375839D2*
G03X6475887Y7293125I50024J23D01*
G01*
X8055020Y6064773D2*
X7495020D1*
Y5134773D1*
X8055020D1*
Y6064773D1*
X5185397Y4589050D2*
X5785397D1*
Y5189250D1*
X5185397D1*
Y4589050D1*
G36*
D2*
X5265397D1*
X5185397Y4669150D1*
Y4589050D1*
G37*
D56*
X5140347Y4469100D3*
X8642185Y7403264D2*
D10*
X8942163D1*
X8642185Y7623316D2*
X8942163D1*
Y7403264D2*
Y7623316D1*
D59*
X8632186Y7263281D3*
X8642185Y7403264D2*
D10*
Y7623316D1*
X7648726Y6787697D2*
X7728754D1*
Y7107697D1*
X7648726D1*
Y6787697D1*
X7668733Y6802705D2*
X7668745Y6803053D1*
X7668782Y6803399D1*
X7668842Y6803743D1*
X7668927Y6804081D1*
X7669035Y6804412D1*
X7669165Y6804735D1*
X7669318Y6805048D1*
X7669493Y6805350D1*
X7669688Y6805639D1*
X7669903Y6805913D1*
X7670137Y6806172D1*
X7670388Y6806414D1*
X7670655Y6806638D1*
X7670938Y6806843D1*
X7671234Y6807028D1*
X7671542Y6807191D1*
X7671861Y6807333D1*
X7672189Y6807452D1*
X7672525Y6807548D1*
X7672866Y6807621D1*
X7673212Y6807669D1*
X7673560Y6807694D1*
X7673909D1*
X7674258Y6807669D1*
X7674603Y6807621D1*
X7674945Y6807548D1*
X7675280Y6807452D1*
X7675608Y6807333D1*
X7675927Y6807191D1*
X7676236Y6807028D1*
X7676532Y6806843D1*
X7676814Y6806638D1*
X7677082Y6806414D1*
X7677333Y6806172D1*
X7677566Y6805913D1*
X7677781Y6805639D1*
X7677976Y6805350D1*
X7678151Y6805048D1*
X7678304Y6804735D1*
X7678435Y6804412D1*
X7678543Y6804081D1*
X7678627Y6803743D1*
X7678688Y6803399D1*
X7678724Y6803053D1*
X7678737Y6802705D1*
X7678724Y6802356D1*
X7678688Y6802010D1*
X7678627Y6801667D1*
X7678543Y6801329D1*
X7678435Y6800997D1*
X7678304Y6800674D1*
X7678151Y6800361D1*
X7677976Y6800059D1*
X7677781Y6799770D1*
X7677566Y6799496D1*
X7677333Y6799237D1*
X7677082Y6798995D1*
X7676814Y6798771D1*
X7676532Y6798566D1*
X7676236Y6798381D1*
X7675927Y6798218D1*
X7675608Y6798076D1*
X7675280Y6797957D1*
X7674945Y6797861D1*
X7674603Y6797789D1*
X7674258Y6797740D1*
X7673909Y6797716D1*
X7673560D1*
X7673212Y6797740D1*
X7672866Y6797789D1*
X7672525Y6797861D1*
X7672189Y6797957D1*
X7671861Y6798076D1*
X7671542Y6798218D1*
X7671234Y6798381D1*
X7670938Y6798566D1*
X7670655Y6798771D1*
X7670388Y6798995D1*
X7670137Y6799237D1*
X7669903Y6799496D1*
X7669688Y6799770D1*
X7669493Y6800059D1*
X7669318Y6800361D1*
X7669165Y6800674D1*
X7669035Y6800997D1*
X7668927Y6801329D1*
X7668842Y6801667D1*
X7668782Y6802010D1*
X7668745Y6802356D1*
X7668733Y6802705D1*
D63*
X4388923Y5600584D3*
X4391563Y5373889D2*
D10*
X3731595D1*
X4391563Y5093891D2*
X3731595D1*
Y5373889D2*
Y5093891D1*
X4391563Y5373889D2*
Y5093891D1*
X1718388Y4869961D2*
X2018367D1*
X1718388Y5090013D2*
X2018367D1*
Y4869961D2*
Y5090013D1*
D59*
X1708390Y4729978D3*
X1718388Y4869961D2*
D10*
Y5090013D1*
D66*
X3195509Y7738675D3*
X3208876Y7876001D2*
D10*
X3508870D1*
X3208876Y7955987D2*
X3508870D1*
Y7876001D2*
Y7955987D1*
X3208876Y7876001D2*
Y7955987D1*
D68*
X5139671Y1449148D3*
X5032300Y1482524D2*
D10*
Y1682523D1*
X4972203D1*
Y1482524D1*
X5032300D1*
D70*
X7985468Y4665954D3*
X7952093Y4558584D2*
D10*
X7752093D1*
Y4498486D1*
X7952093D1*
Y4558584D1*
X5725601Y6033785D2*
Y6533795D1*
X5465565Y6033785D2*
Y6533795D1*
X5725601D2*
X5465565D1*
X5645607Y6033785D2*
X5725601D1*
X5545559D2*
X5465565D1*
X5645607D2*
G03X5545559Y6033785I-50024J-23D01*
G01*
X6272863Y7727873D2*
D26*
Y8237873D1*
X6283247Y7737123D2*
X5783247D1*
X6844407Y5039569D2*
D155*
X6832334Y5033532D1*
X6820120Y5021319D1*
X6814083Y5009246D1*
Y4984959D1*
X6820120Y4972746D1*
X6832333Y4960673D1*
X6844406Y4954496D1*
X6862656Y4948459D1*
X6893120D1*
X6911230Y4954496D1*
X6923443Y4960673D1*
X6935516Y4972746D1*
X6941693Y4984959D1*
Y5009246D1*
X6935516Y5021319D1*
X6923443Y5033532D1*
X6911230Y5039569D1*
X6838510Y5078784D2*
X6832334Y5090998D1*
X6814224Y5109248D1*
X6941693D1*
X4650624Y6081210D2*
X4644587Y6093283D1*
X4632374Y6105497D1*
X4620301Y6111533D1*
X4596014D1*
X4583801Y6105497D1*
X4571728Y6093283D1*
X4565551Y6081210D1*
X4559514Y6062960D1*
Y6032497D1*
X4565551Y6014387D1*
X4571728Y6002174D1*
X4583801Y5990101D1*
X4596014Y5983924D1*
X4620301D1*
X4632374Y5990101D1*
X4644587Y6002174D1*
X4650624Y6014387D1*
X4696016Y6081070D2*
Y6087106D1*
X4702053Y6099320D1*
X4708089Y6105356D1*
X4720303Y6111393D1*
X4744589D1*
X4756663Y6105356D1*
X4762699Y6099320D1*
X4768876Y6087106D1*
Y6075033D1*
X4762699Y6062820D1*
X4750626Y6044710D1*
X4689839Y5983924D1*
X4774913D1*
X3159157Y5181721D2*
X3147084Y5175684D1*
X3134870Y5163471D1*
X3128833Y5151398D1*
Y5127111D1*
X3134870Y5114898D1*
X3147083Y5102825D1*
X3159156Y5096648D1*
X3177406Y5090611D1*
X3207870D1*
X3225980Y5096648D1*
X3238193Y5102825D1*
X3250266Y5114898D1*
X3256443Y5127111D1*
Y5151397D1*
X3250266Y5163471D1*
X3238193Y5175684D1*
X3225980Y5181721D1*
X3128974Y5233150D2*
Y5299832D1*
X3177547Y5263473D1*
Y5281723D1*
X3183584Y5293796D1*
X3189620Y5299832D1*
X3207870Y5306009D1*
X3219943D1*
X3238193Y5299832D1*
X3250407Y5287759D1*
X3256443Y5269509D1*
Y5251259D1*
X3250407Y5233150D1*
X3244230Y5227113D1*
X3232157Y5220936D1*
X5044757Y3859559D2*
X5032684Y3853523D1*
X5020470Y3841309D1*
X5014433Y3829236D1*
Y3804950D1*
X5020470Y3792736D1*
X5032683Y3780663D1*
X5044756Y3774486D1*
X5063006Y3768450D1*
X5093470D1*
X5111580Y3774486D1*
X5123793Y3780663D1*
X5135866Y3792736D1*
X5142043Y3804949D1*
Y3829236D1*
X5135866Y3841309D1*
X5123793Y3853522D1*
X5111580Y3859559D1*
X5142043Y3959561D2*
X5014574D1*
X5099507Y3898775D1*
Y3989884D1*
X4520373Y4413874D2*
X4508300Y4407837D1*
X4496087Y4395624D1*
X4490050Y4383551D1*
Y4359264D1*
X4496087Y4347051D1*
X4508300Y4334978D1*
X4520373Y4328801D1*
X4538623Y4322764D1*
X4569087D1*
X4587196Y4328801D1*
X4599410Y4334978D1*
X4611483Y4347051D1*
X4617660Y4359264D1*
Y4383551D1*
X4611483Y4395624D1*
X4599410Y4407837D1*
X4587196Y4413874D1*
X4490191Y4525949D2*
Y4465303D1*
X4544800Y4459267D1*
X4538764Y4465303D1*
X4532587Y4483553D1*
Y4501663D1*
X4538764Y4519913D1*
X4550837Y4532126D1*
X4569087Y4538163D1*
X4581160D1*
X4599410Y4532126D1*
X4611623Y4519913D1*
X4617660Y4501663D1*
Y4483553D1*
X4611623Y4465303D1*
X4605446Y4459266D1*
X4593373Y4453090D1*
X4647352Y5594557D2*
X4641316Y5606630D1*
X4629102Y5618843D1*
X4617029Y5624880D1*
X4592743D1*
X4580529Y5618843D1*
X4568456Y5606630D1*
X4562279Y5594557D1*
X4556243Y5576307D1*
Y5545843D1*
X4562279Y5527734D1*
X4568456Y5515520D1*
X4580529Y5503447D1*
X4592743Y5497270D1*
X4617029D1*
X4629102Y5503447D1*
X4641316Y5515520D1*
X4647352Y5527734D1*
X4759428Y5606630D2*
X4753391Y5618703D1*
X4735141Y5624740D1*
X4723068D1*
X4704818Y5618703D1*
X4692604Y5600453D1*
X4686568Y5570130D1*
Y5539807D1*
X4692604Y5515520D1*
X4704818Y5503307D1*
X4723068Y5497270D1*
X4729104D1*
X4747214Y5503307D1*
X4759428Y5515520D1*
X4765464Y5533770D1*
Y5539807D1*
X4759428Y5558057D1*
X4747214Y5570130D1*
X4729104Y5576166D1*
X4723068D1*
X4704818Y5570130D1*
X4692604Y5558057D1*
X4686568Y5539807D1*
X6174497Y5365017D2*
X6162424Y5358981D1*
X6150210Y5346767D1*
X6144173Y5334694D1*
Y5310408D1*
X6150210Y5298194D1*
X6162423Y5286121D1*
X6174496Y5279944D1*
X6192746Y5273908D1*
X6223210D1*
X6241320Y5279944D1*
X6253533Y5286121D1*
X6265606Y5298194D1*
X6271783Y5310408D1*
Y5334694D1*
X6265606Y5346767D1*
X6253533Y5358981D1*
X6241320Y5365017D1*
X6271783Y5428519D2*
X6144314Y5489306D1*
Y5404233D1*
X4793371Y3664337D2*
X4787334Y3676410D1*
X4775121Y3688623D1*
X4763048Y3694660D1*
X4738761D1*
X4726548Y3688623D1*
X4714474Y3676410D1*
X4708298Y3664337D1*
X4702261Y3646087D1*
Y3615623D1*
X4708298Y3597514D1*
X4714474Y3585300D1*
X4726548Y3573227D1*
X4738761Y3567050D1*
X4763048D1*
X4775121Y3573227D1*
X4787334Y3585300D1*
X4793371Y3597514D1*
X4862909Y3694520D2*
X4844800Y3688483D1*
X4838623Y3676410D1*
Y3664196D1*
X4844800Y3652123D1*
X4856873Y3645946D1*
X4881159Y3639910D1*
X4899409Y3633873D1*
X4911482Y3621660D1*
X4917519Y3609587D1*
Y3591337D1*
X4911482Y3579264D1*
X4905446Y3573087D1*
X4887196Y3567050D1*
X4862909D1*
X4844800Y3573087D1*
X4838623Y3579264D1*
X4832586Y3591337D1*
Y3609587D1*
X4838623Y3621660D1*
X4850836Y3633873D1*
X4868946Y3639910D1*
X4893232Y3645946D1*
X4905446Y3652123D1*
X4911482Y3664196D1*
Y3676410D1*
X4905446Y3688483D1*
X4887196Y3694520D1*
X4862909D1*
X4789212Y3876047D2*
X4783175Y3888120D1*
X4770962Y3900333D1*
X4758889Y3906370D1*
X4734602D1*
X4722389Y3900333D1*
X4710316Y3888120D1*
X4704139Y3876047D1*
X4698102Y3857797D1*
Y3827333D1*
X4704139Y3809224D1*
X4710316Y3797010D1*
X4722389Y3784937D1*
X4734602Y3778760D1*
X4758889D1*
X4770962Y3784937D1*
X4783175Y3797010D1*
X4789212Y3809224D1*
X4907464Y3863833D2*
X4901287Y3845583D1*
X4889214Y3833370D1*
X4870964Y3827333D1*
X4864928D1*
X4846678Y3833370D1*
X4834605Y3845583D1*
X4828428Y3863833D1*
Y3869870D1*
X4834605Y3888120D1*
X4846678Y3900193D1*
X4864928Y3906230D1*
X4870964D1*
X4889214Y3900193D1*
X4901287Y3888120D1*
X4907464Y3863833D1*
Y3833370D1*
X4901287Y3803047D1*
X4889214Y3784797D1*
X4870964Y3778760D1*
X4858891D1*
X4840641Y3784797D1*
X4834605Y3797010D1*
X3658040Y7484988D2*
X3645967Y7478951D1*
X3633753Y7466738D1*
X3627717Y7454665D1*
Y7430378D1*
X3633753Y7418165D1*
X3645967Y7406092D1*
X3658040Y7399915D1*
X3676290Y7393878D1*
X3706753D1*
X3724863Y7399915D1*
X3737076Y7406092D1*
X3749150Y7418165D1*
X3755326Y7430378D1*
Y7454665D1*
X3749150Y7466738D1*
X3737076Y7478951D1*
X3724863Y7484988D1*
X3652144Y7524203D2*
X3645967Y7536417D1*
X3627857Y7554667D1*
X3755326D1*
X3627857Y7630382D2*
X3633894Y7612132D1*
X3652144Y7599919D1*
X3682467Y7593882D1*
X3700717D1*
X3731040Y7599919D1*
X3749290Y7612132D1*
X3755326Y7630382D1*
Y7642455D1*
X3749290Y7660705D1*
X3731040Y7672779D1*
X3700717Y7678955D1*
X3682467D1*
X3652144Y7672779D1*
X3633894Y7660706D1*
X3627857Y7642456D1*
Y7630382D1*
X3652144Y7672779D2*
X3731040Y7599919D1*
X3983502Y7213334D2*
X3977466Y7225407D1*
X3965252Y7237620D1*
X3953179Y7243657D1*
X3928893D1*
X3916679Y7237620D1*
X3904606Y7225407D1*
X3898429Y7213334D1*
X3892393Y7195084D1*
Y7164620D1*
X3898429Y7146510D1*
X3904606Y7134297D1*
X3916679Y7122224D1*
X3928893Y7116047D1*
X3953179D1*
X3965252Y7122224D1*
X3977466Y7134297D1*
X3983502Y7146510D1*
X4022718Y7219230D2*
X4034931Y7225407D1*
X4053181Y7243516D1*
Y7116047D1*
X4092397Y7219230D2*
X4104611Y7225407D1*
X4122861Y7243516D1*
Y7116047D1*
X2229068Y5005220D2*
X2223031Y5017293D1*
X2210818Y5029507D1*
X2198744Y5035543D1*
X2174458D1*
X2162244Y5029507D1*
X2150171Y5017293D1*
X2143994Y5005220D1*
X2137958Y4986970D1*
Y4956507D1*
X2143994Y4938397D1*
X2150171Y4926184D1*
X2162244Y4914111D1*
X2174458Y4907934D1*
X2198744D1*
X2210818Y4914111D1*
X2223031Y4926184D1*
X2229068Y4938397D1*
X2268283Y5011116D2*
X2280497Y5017293D1*
X2298747Y5035403D1*
Y4907934D1*
X2344139Y5005080D2*
Y5011116D1*
X2350176Y5023330D1*
X2356212Y5029366D1*
X2368426Y5035403D1*
X2392712D1*
X2404785Y5029366D1*
X2410822Y5023330D1*
X2416999Y5011116D1*
Y4999043D1*
X2410822Y4986830D1*
X2398749Y4968720D1*
X2337962Y4907934D1*
X2423035D1*
X2594831Y4562877D2*
X2588794Y4574950D1*
X2576581Y4587163D1*
X2564508Y4593200D1*
X2540221D1*
X2528008Y4587163D1*
X2515935Y4574950D1*
X2509758Y4562877D1*
X2503721Y4544627D1*
Y4514163D1*
X2509758Y4496054D1*
X2515935Y4483840D1*
X2528008Y4471767D1*
X2540221Y4465590D1*
X2564508D1*
X2576581Y4471767D1*
X2588794Y4483840D1*
X2594831Y4496054D1*
X2634047Y4568773D2*
X2646260Y4574950D1*
X2664510Y4593060D1*
Y4465590D1*
X2715939Y4593060D2*
X2782622D1*
X2746262Y4544486D1*
X2764512D1*
X2776585Y4538450D1*
X2782622Y4532413D1*
X2788799Y4514163D1*
Y4502090D1*
X2782622Y4483840D1*
X2770549Y4471627D1*
X2752299Y4465590D1*
X2734049D1*
X2715939Y4471627D1*
X2709903Y4477804D1*
X2703726Y4489877D1*
X1463036Y4662254D2*
X1456999Y4674327D1*
X1444786Y4686540D1*
X1432713Y4692577D1*
X1408426D1*
X1396213Y4686540D1*
X1384140Y4674327D1*
X1377963Y4662254D1*
X1371926Y4644004D1*
Y4613540D1*
X1377963Y4595430D1*
X1384140Y4583217D1*
X1396213Y4571144D1*
X1408426Y4564967D1*
X1432713D1*
X1444786Y4571144D1*
X1456999Y4583217D1*
X1463036Y4595430D1*
X1502252Y4668150D2*
X1514465Y4674327D1*
X1532715Y4692436D1*
Y4564967D1*
X1632717D2*
Y4692436D1*
X1571931Y4607504D1*
X1663040D1*
X8403920Y6406021D2*
X8391847Y6399985D1*
X8379633Y6387771D1*
X8373597Y6375698D1*
Y6351412D1*
X8379633Y6339198D1*
X8391847Y6327125D1*
X8403920Y6320948D1*
X8422170Y6314912D1*
X8452633D1*
X8470743Y6320948D1*
X8482956Y6327125D1*
X8495030Y6339198D1*
X8501206Y6351411D1*
Y6375698D1*
X8495030Y6387771D1*
X8482956Y6399984D1*
X8470743Y6406021D1*
X8398024Y6445237D2*
X8391847Y6457450D1*
X8373737Y6475700D1*
X8501206D1*
X8373737Y6587775D2*
Y6527129D1*
X8428347Y6521093D1*
X8422310Y6527129D1*
X8416133Y6545379D1*
Y6563489D1*
X8422310Y6581739D1*
X8434383Y6593952D1*
X8452633Y6599989D1*
X8464706D1*
X8482956Y6593952D1*
X8495170Y6581739D1*
X8501206Y6563489D1*
Y6545379D1*
X8495170Y6527129D1*
X8488993Y6521093D1*
X8476920Y6514916D1*
X9685109Y7913540D2*
X9679073Y7925613D1*
X9666859Y7937827D1*
X9654786Y7943863D1*
X9630500D1*
X9618286Y7937827D1*
X9606213Y7925613D1*
X9600036Y7913540D1*
X9594000Y7895290D1*
Y7864827D1*
X9600036Y7846717D1*
X9606213Y7834504D1*
X9618286Y7822431D1*
X9630500Y7816254D1*
X9654786D1*
X9666859Y7822431D1*
X9679073Y7834504D1*
X9685109Y7846717D1*
X9724325Y7919436D2*
X9736538Y7925613D1*
X9754788Y7943723D1*
Y7816254D1*
X9866864Y7925613D2*
X9860827Y7937686D1*
X9842577Y7943723D1*
X9830504D1*
X9812254Y7937686D1*
X9800041Y7919436D1*
X9794004Y7889113D1*
Y7858790D1*
X9800041Y7834504D1*
X9812254Y7822290D1*
X9830504Y7816254D1*
X9836541D1*
X9854650Y7822290D1*
X9866864Y7834504D1*
X9872900Y7852754D1*
Y7858790D1*
X9866864Y7877040D1*
X9854650Y7889113D1*
X9836541Y7895150D1*
X9830504D1*
X9812254Y7889113D1*
X9800041Y7877040D1*
X9794004Y7858790D1*
X7853284Y7109490D2*
X7847248Y7121563D1*
X7835034Y7133777D1*
X7822961Y7139813D1*
X7798675D1*
X7786461Y7133777D1*
X7774388Y7121563D1*
X7768211Y7109490D1*
X7762175Y7091240D1*
Y7060777D1*
X7768211Y7042667D1*
X7774388Y7030454D1*
X7786461Y7018381D1*
X7798675Y7012204D1*
X7822961D1*
X7835034Y7018381D1*
X7847248Y7030454D1*
X7853284Y7042667D1*
X7892500Y7115386D2*
X7904713Y7121563D1*
X7922963Y7139673D1*
Y7012204D1*
X7986466D2*
X8047252Y7139673D1*
X7962179D1*
X8162334Y7768614D2*
X8156298Y7780687D1*
X8144084Y7792900D1*
X8132011Y7798937D1*
X8107725D1*
X8095511Y7792900D1*
X8083438Y7780687D1*
X8077261Y7768614D1*
X8071225Y7750364D1*
Y7719900D1*
X8077261Y7701790D1*
X8083438Y7689577D1*
X8095511Y7677504D1*
X8107725Y7671327D1*
X8132011D1*
X8144084Y7677504D1*
X8156298Y7689577D1*
X8162334Y7701790D1*
X8201550Y7774510D2*
X8213764Y7780687D1*
X8232014Y7798796D1*
Y7671327D1*
X8301552Y7798796D2*
X8283443Y7792760D1*
X8277266Y7780687D1*
Y7768473D1*
X8283443Y7756400D1*
X8295516Y7750223D1*
X8319802Y7744187D1*
X8338052Y7738150D1*
X8350125Y7725937D1*
X8356162Y7713864D1*
Y7695614D1*
X8350125Y7683540D1*
X8344089Y7677364D1*
X8325839Y7671327D1*
X8301552D1*
X8283443Y7677364D1*
X8277266Y7683540D1*
X8271229Y7695614D1*
Y7713864D1*
X8277266Y7725937D1*
X8289479Y7738150D1*
X8307589Y7744187D1*
X8331875Y7750223D1*
X8344089Y7756400D1*
X8350125Y7768473D1*
Y7780687D1*
X8344089Y7792760D1*
X8325839Y7798796D1*
X8301552D1*
X8099389Y8022174D2*
X8093353Y8034247D1*
X8081139Y8046460D1*
X8069066Y8052497D1*
X8044780D1*
X8032566Y8046460D1*
X8020493Y8034247D1*
X8014316Y8022174D1*
X8008280Y8003924D1*
Y7973460D1*
X8014316Y7955350D1*
X8020493Y7943137D1*
X8032566Y7931064D1*
X8044780Y7924887D1*
X8069066D1*
X8081139Y7931064D1*
X8093353Y7943137D1*
X8099389Y7955350D1*
X8138605Y8028070D2*
X8150818Y8034247D1*
X8169068Y8052356D1*
Y7924887D1*
X8287320Y8009960D2*
X8281144Y7991710D1*
X8269070Y7979497D1*
X8250820Y7973460D1*
X8244784D1*
X8226534Y7979497D1*
X8214461Y7991710D1*
X8208284Y8009960D1*
Y8015997D1*
X8214461Y8034247D1*
X8226534Y8046320D1*
X8244784Y8052356D1*
X8250820D1*
X8269070Y8046320D1*
X8281144Y8034247D1*
X8287320Y8009960D1*
Y7979497D1*
X8281144Y7949174D1*
X8269070Y7930924D1*
X8250820Y7924887D1*
X8238747D1*
X8220497Y7930924D1*
X8214461Y7943137D1*
X6379696Y3704140D2*
X6373660Y3716213D1*
X6361446Y3728427D1*
X6349373Y3734463D1*
X6325086D1*
X6312873Y3728427D1*
X6300800Y3716213D1*
X6294623Y3704140D1*
X6288586Y3685890D1*
Y3655427D1*
X6294623Y3637317D1*
X6300800Y3625104D1*
X6312873Y3613031D1*
X6325086Y3606854D1*
X6349373D1*
X6361446Y3613031D1*
X6373660Y3625104D1*
X6379696Y3637317D1*
X6425089Y3704000D2*
Y3710036D1*
X6431125Y3722250D1*
X6437162Y3728286D1*
X6449375Y3734323D1*
X6473662D1*
X6485735Y3728286D1*
X6491771Y3722250D1*
X6497948Y3710036D1*
Y3697963D1*
X6491771Y3685750D1*
X6479698Y3667640D1*
X6418912Y3606854D1*
X6503985D1*
X6579700Y3734323D2*
X6561450Y3728286D1*
X6549237Y3710036D1*
X6543200Y3679713D1*
Y3661463D1*
X6549237Y3631140D1*
X6561450Y3612890D1*
X6579700Y3606854D1*
X6591774D1*
X6610024Y3612890D1*
X6622097Y3631140D1*
X6628274Y3661463D1*
Y3679713D1*
X6622097Y3710036D1*
X6610024Y3728286D1*
X6591774Y3734323D1*
X6579700D1*
X6622097Y3710036D2*
X6549237Y3631140D1*
X8089598Y1848037D2*
X8083561Y1860110D1*
X8071348Y1872323D1*
X8059274Y1878360D1*
X8034988D1*
X8022774Y1872323D1*
X8010701Y1860110D1*
X8004524Y1848037D1*
X7998488Y1829787D1*
Y1799323D1*
X8004524Y1781214D1*
X8010701Y1769000D1*
X8022774Y1756927D1*
X8034988Y1750750D1*
X8059274D1*
X8071348Y1756927D1*
X8083561Y1769000D1*
X8089598Y1781214D1*
X8134990Y1847896D2*
Y1853933D1*
X8141027Y1866146D1*
X8147063Y1872183D1*
X8159277Y1878220D1*
X8183563D1*
X8195636Y1872183D1*
X8201673Y1866146D1*
X8207850Y1853933D1*
Y1841860D1*
X8201673Y1829646D1*
X8189600Y1811537D1*
X8128813Y1750750D1*
X8213886D1*
X8253102Y1853933D2*
X8265315Y1860110D1*
X8283565Y1878220D1*
Y1750750D1*
X3198226Y3012967D2*
X3192190Y3025040D1*
X3179976Y3037253D1*
X3167903Y3043290D1*
X3143616D1*
X3131403Y3037253D1*
X3119330Y3025040D1*
X3113153Y3012967D1*
X3107116Y2994717D1*
Y2964253D1*
X3113153Y2946144D1*
X3119330Y2933930D1*
X3131403Y2921857D1*
X3143616Y2915680D1*
X3167903D1*
X3179976Y2921857D1*
X3192190Y2933930D1*
X3198226Y2946144D1*
X3243619Y3012826D2*
Y3018863D1*
X3249655Y3031076D1*
X3255692Y3037113D1*
X3267905Y3043150D1*
X3292192D1*
X3304265Y3037113D1*
X3310301Y3031076D1*
X3316478Y3018863D1*
Y3006790D1*
X3310301Y2994576D1*
X3298228Y2976467D1*
X3237442Y2915680D1*
X3322515D1*
X3367907Y3012826D2*
Y3018863D1*
X3373944Y3031076D1*
X3379980Y3037113D1*
X3392194Y3043150D1*
X3416480D1*
X3428554Y3037113D1*
X3434590Y3031076D1*
X3440767Y3018863D1*
Y3006790D1*
X3434590Y2994576D1*
X3422517Y2976467D1*
X3361730Y2915680D1*
X3446804D1*
X9342196Y3031957D2*
X9336160Y3044030D1*
X9323946Y3056243D1*
X9311873Y3062280D1*
X9287586D1*
X9275373Y3056243D1*
X9263300Y3044030D1*
X9257123Y3031957D1*
X9251086Y3013707D1*
Y2983243D1*
X9257123Y2965134D1*
X9263300Y2952920D1*
X9275373Y2940847D1*
X9287586Y2934670D1*
X9311873D1*
X9323946Y2940847D1*
X9336160Y2952920D1*
X9342196Y2965134D1*
X9387589Y3031816D2*
Y3037853D1*
X9393625Y3050066D1*
X9399662Y3056103D1*
X9411875Y3062140D1*
X9436162D1*
X9448235Y3056103D1*
X9454271Y3050066D1*
X9460448Y3037853D1*
Y3025780D1*
X9454271Y3013566D1*
X9442198Y2995457D1*
X9381412Y2934670D1*
X9466485D1*
X9517914Y3062140D2*
X9584597D1*
X9548237Y3013566D1*
X9566487D1*
X9578560Y3007530D1*
X9584597Y3001493D1*
X9590774Y2983243D1*
Y2971170D1*
X9584597Y2952920D1*
X9572524Y2940707D1*
X9554274Y2934670D1*
X9536024D1*
X9517914Y2940707D1*
X9511877Y2946884D1*
X9505700Y2958957D1*
X10118743Y2956861D2*
X10106670Y2950825D1*
X10094457Y2938611D1*
X10088420Y2926538D1*
Y2902252D1*
X10094457Y2890038D1*
X10106670Y2877965D1*
X10118743Y2871788D1*
X10136993Y2865752D1*
X10167457D1*
X10185566Y2871788D1*
X10197780Y2877965D1*
X10209853Y2890038D1*
X10216030Y2902252D1*
Y2926538D1*
X10209853Y2938611D1*
X10197780Y2950825D1*
X10185566Y2956861D1*
X10118884Y3002254D2*
X10112847D1*
X10100634Y3008290D1*
X10094597Y3014327D1*
X10088561Y3026540D1*
Y3050827D1*
X10094597Y3062900D1*
X10100634Y3068937D1*
X10112847Y3075113D1*
X10124920D1*
X10137134Y3068937D1*
X10155243Y3056863D1*
X10216030Y2996077D1*
Y3081150D1*
Y3181152D2*
X10088561D1*
X10173493Y3120366D1*
Y3211475D1*
X10340473Y2945963D2*
X10328400Y2939926D1*
X10316187Y2927713D1*
X10310150Y2915640D1*
Y2891353D1*
X10316187Y2879140D1*
X10328400Y2867067D1*
X10340473Y2860890D1*
X10358723Y2854853D1*
X10389187D1*
X10407296Y2860890D1*
X10419510Y2867067D1*
X10431583Y2879140D1*
X10437760Y2891353D1*
Y2915640D1*
X10431583Y2927713D1*
X10419510Y2939926D1*
X10407296Y2945963D1*
X10340614Y2991355D2*
X10334577Y2991356D1*
X10322364Y2997392D1*
X10316327Y3003429D1*
X10310291Y3015642D1*
Y3039929D1*
X10316327Y3052002D1*
X10322364Y3058038D1*
X10334577Y3064215D1*
X10346650D1*
X10358864Y3058038D1*
X10376973Y3045965D1*
X10437760Y2985178D1*
Y3070251D1*
X10310291Y3182327D2*
Y3121681D1*
X10364900Y3115644D1*
X10358864Y3121681D1*
X10352687Y3139931D1*
Y3158040D1*
X10358864Y3176290D1*
X10370937Y3188504D1*
X10389187Y3194540D1*
X10401260D1*
X10419510Y3188504D1*
X10431723Y3176290D1*
X10437760Y3158040D1*
Y3139931D1*
X10431723Y3121681D1*
X10425546Y3115644D1*
X10413473Y3109467D1*
X8534511Y3063550D2*
X8528475Y3075623D1*
X8516261Y3087837D1*
X8504188Y3093873D1*
X8479902D1*
X8467688Y3087837D1*
X8455615Y3075623D1*
X8449438Y3063550D1*
X8443402Y3045300D1*
Y3014837D1*
X8449438Y2996727D1*
X8455615Y2984514D1*
X8467688Y2972441D1*
X8479902Y2966264D1*
X8504188D1*
X8516261Y2972441D1*
X8528475Y2984514D1*
X8534511Y2996727D1*
X8579904Y3063410D2*
Y3069446D1*
X8585940Y3081660D1*
X8591977Y3087696D1*
X8604190Y3093733D1*
X8628477D1*
X8640550Y3087696D1*
X8646586Y3081660D1*
X8652763Y3069446D1*
Y3057373D1*
X8646586Y3045160D1*
X8634513Y3027050D1*
X8573727Y2966264D1*
X8658800D1*
X8770875Y3075623D2*
X8764839Y3087696D1*
X8746589Y3093733D1*
X8734516D1*
X8716266Y3087696D1*
X8704052Y3069446D1*
X8698016Y3039123D1*
Y3008800D1*
X8704052Y2984514D1*
X8716266Y2972300D1*
X8734516Y2966264D1*
X8740552D1*
X8758662Y2972300D1*
X8770875Y2984514D1*
X8776912Y3002764D1*
Y3008800D1*
X8770875Y3027050D1*
X8758662Y3039123D1*
X8740552Y3045160D1*
X8734516D1*
X8716266Y3039123D1*
X8704052Y3027050D1*
X8698016Y3008800D1*
X8927626Y2693140D2*
X8921590Y2705213D1*
X8909376Y2717427D1*
X8897303Y2723463D1*
X8873016D1*
X8860803Y2717427D1*
X8848730Y2705213D1*
X8842553Y2693140D1*
X8836516Y2674890D1*
Y2644427D1*
X8842553Y2626317D1*
X8848730Y2614104D1*
X8860803Y2602031D1*
X8873016Y2595854D1*
X8897303D1*
X8909376Y2602031D1*
X8921590Y2614104D1*
X8927626Y2626317D1*
X8973019Y2693000D2*
Y2699036D1*
X8979055Y2711250D1*
X8985092Y2717286D1*
X8997305Y2723323D1*
X9021592D1*
X9033665Y2717286D1*
X9039701Y2711250D1*
X9045878Y2699036D1*
Y2686963D1*
X9039701Y2674750D1*
X9027628Y2656640D1*
X8966842Y2595854D1*
X9051915D1*
X9115417D2*
X9176204Y2723323D1*
X9091130D1*
X8977536Y4003740D2*
X8971500Y4015813D1*
X8959286Y4028027D1*
X8947213Y4034063D1*
X8922927D1*
X8910713Y4028027D1*
X8898640Y4015813D1*
X8892463Y4003740D1*
X8886427Y3985490D1*
Y3955027D1*
X8892463Y3936917D1*
X8898640Y3924704D1*
X8910713Y3912631D1*
X8922927Y3906454D1*
X8947213D1*
X8959286Y3912631D1*
X8971500Y3924704D1*
X8977536Y3936917D1*
X9022929Y4003600D2*
Y4009636D1*
X9028965Y4021850D1*
X9035002Y4027886D1*
X9047215Y4033923D1*
X9071502D1*
X9083575Y4027886D1*
X9089612Y4021850D1*
X9095788Y4009636D1*
Y3997563D1*
X9089612Y3985350D1*
X9077538Y3967240D1*
X9016752Y3906454D1*
X9101825D1*
X9171364Y4033923D2*
X9153254Y4027886D1*
X9147077Y4015813D1*
Y4003600D1*
X9153254Y3991527D1*
X9165327Y3985350D1*
X9189614Y3979313D1*
X9207864Y3973277D1*
X9219937Y3961063D1*
X9225973Y3948990D1*
Y3930740D1*
X9219937Y3918667D1*
X9213900Y3912490D1*
X9195650Y3906454D1*
X9171364D1*
X9153254Y3912490D1*
X9147077Y3918667D1*
X9141041Y3930740D1*
Y3948990D1*
X9147077Y3961063D1*
X9159291Y3973277D1*
X9177400Y3979313D1*
X9201687Y3985350D1*
X9213900Y3991527D1*
X9219937Y4003600D1*
Y4015813D1*
X9213900Y4027886D1*
X9195650Y4033923D1*
X9171364D1*
X9254607Y4625498D2*
X9242534Y4619461D1*
X9230320Y4607248D1*
X9224283Y4595175D1*
Y4570888D1*
X9230320Y4558675D1*
X9242533Y4546602D1*
X9254606Y4540425D1*
X9272856Y4534388D1*
X9303320D1*
X9321430Y4540425D1*
X9333643Y4546602D1*
X9345716Y4558675D1*
X9351893Y4570888D1*
Y4595175D1*
X9345716Y4607248D1*
X9333643Y4619461D1*
X9321430Y4625498D1*
X9254747Y4670890D2*
X9248710D1*
X9236497Y4676927D1*
X9230460Y4682964D1*
X9224424Y4695177D1*
Y4719463D1*
X9230460Y4731537D1*
X9236497Y4737573D1*
X9248710Y4743750D1*
X9260784D1*
X9272997Y4737573D1*
X9291107Y4725500D1*
X9351893Y4664713D1*
Y4749786D1*
X9266820Y4868039D2*
X9285070Y4861862D1*
X9297283Y4849789D1*
X9303320Y4831539D1*
Y4825502D1*
X9297283Y4807252D1*
X9285070Y4795179D1*
X9266820Y4789002D1*
X9260784D1*
X9242534Y4795179D1*
X9230460Y4807252D1*
X9224424Y4825502D1*
Y4831539D1*
X9230460Y4849789D1*
X9242534Y4861862D1*
X9266820Y4868039D1*
X9297283D1*
X9327607Y4861862D1*
X9345857Y4849789D1*
X9351893Y4831539D1*
Y4819466D1*
X9345857Y4801216D1*
X9333643Y4795179D1*
X9479073Y4634580D2*
X9467000Y4628543D1*
X9454787Y4616330D1*
X9448750Y4604257D1*
Y4579970D1*
X9454787Y4567757D1*
X9467000Y4555684D1*
X9479073Y4549507D1*
X9497323Y4543470D1*
X9527787D1*
X9545896Y4549507D1*
X9558110Y4555684D1*
X9570183Y4567757D1*
X9576360Y4579970D1*
Y4604256D1*
X9570183Y4616329D1*
X9558110Y4628543D1*
X9545896Y4634580D1*
X9448891Y4686009D2*
Y4752691D1*
X9497464Y4716332D1*
Y4734582D1*
X9503500Y4746655D1*
X9509537Y4752691D1*
X9527787Y4758868D1*
X9539860D1*
X9558110Y4752691D1*
X9570323Y4740618D1*
X9576360Y4722368D1*
Y4704118D1*
X9570323Y4686009D1*
X9564146Y4679972D1*
X9552073Y4673795D1*
X9448891Y4834584D2*
X9454927Y4816334D1*
X9473177Y4804120D1*
X9503500Y4798084D1*
X9521750D1*
X9552073Y4804120D1*
X9570323Y4816334D1*
X9576360Y4834584D1*
Y4846657D1*
X9570323Y4864907D1*
X9552073Y4876980D1*
X9521750Y4883157D1*
X9503500D1*
X9473177Y4876980D1*
X9454927Y4864907D1*
X9448891Y4846657D1*
Y4834584D1*
X9473177Y4876980D2*
X9552073Y4804120D1*
X8090124Y3785570D2*
X8084088Y3797643D1*
X8071874Y3809857D1*
X8059801Y3815893D1*
X8035515D1*
X8023301Y3809857D1*
X8011228Y3797643D1*
X8005051Y3785570D1*
X7999015Y3767320D1*
Y3736857D1*
X8005051Y3718747D1*
X8011228Y3706534D1*
X8023301Y3694461D1*
X8035515Y3688284D1*
X8059801D1*
X8071874Y3694461D1*
X8084088Y3706534D1*
X8090124Y3718747D1*
X8141553Y3815753D2*
X8208236D1*
X8171876Y3767180D1*
X8190126D1*
X8202199Y3761143D1*
X8208236Y3755107D1*
X8214413Y3736857D1*
Y3724784D1*
X8208236Y3706534D1*
X8196163Y3694320D1*
X8177913Y3688284D1*
X8159663D1*
X8141553Y3694320D1*
X8135517Y3700497D1*
X8129340Y3712570D1*
X8253629Y3791466D2*
X8265842Y3797643D1*
X8284092Y3815753D1*
Y3688284D1*
X8076673Y3577300D2*
X8070636Y3589373D1*
X8058423Y3601587D1*
X8046350Y3607623D1*
X8022063D1*
X8009850Y3601587D1*
X7997777Y3589373D1*
X7991600Y3577300D1*
X7985563Y3559050D1*
Y3528587D1*
X7991600Y3510477D1*
X7997777Y3498264D1*
X8009850Y3486191D1*
X8022063Y3480014D1*
X8046350D1*
X8058423Y3486191D1*
X8070636Y3498264D1*
X8076673Y3510477D1*
X8128102Y3607483D2*
X8194785D1*
X8158425Y3558910D1*
X8176675D1*
X8188748Y3552873D1*
X8194785Y3546837D1*
X8200961Y3528587D1*
Y3516514D1*
X8194785Y3498264D1*
X8182711Y3486050D1*
X8164461Y3480014D1*
X8146211D1*
X8128102Y3486050D1*
X8122065Y3492227D1*
X8115888Y3504300D1*
X8246354Y3577160D2*
Y3583196D1*
X8252391Y3595410D1*
X8258427Y3601446D1*
X8270641Y3607483D1*
X8294927D1*
X8307000Y3601446D1*
X8313037Y3595410D1*
X8319214Y3583196D1*
Y3571123D1*
X8313037Y3558910D1*
X8300964Y3540800D1*
X8240177Y3480014D1*
X8325250D1*
X7198213Y1549773D2*
X7186140Y1543736D1*
X7173927Y1531523D1*
X7167890Y1519450D1*
Y1495163D1*
X7173927Y1482950D1*
X7186140Y1470877D1*
X7198213Y1464700D1*
X7216463Y1458663D1*
X7246927D1*
X7265036Y1464700D1*
X7277250Y1470877D1*
X7289323Y1482950D1*
X7295500Y1495163D1*
Y1519450D1*
X7289323Y1531523D1*
X7277250Y1543736D1*
X7265036Y1549773D1*
X7168031Y1601202D2*
Y1667885D1*
X7216604Y1631525D1*
Y1649775D1*
X7222640Y1661848D1*
X7228677Y1667885D1*
X7246927Y1674062D1*
X7259000D1*
X7277250Y1667885D1*
X7289463Y1655811D1*
X7295500Y1637561D1*
Y1619312D1*
X7289463Y1601202D1*
X7283286Y1595165D1*
X7271213Y1588988D1*
X7168031Y1725491D2*
Y1792173D1*
X7216604Y1755814D1*
Y1774064D1*
X7222640Y1786137D1*
X7228677Y1792173D1*
X7246927Y1798350D1*
X7259000D1*
X7277250Y1792173D1*
X7289463Y1780100D1*
X7295500Y1761850D1*
Y1743600D1*
X7289463Y1725491D1*
X7283286Y1719454D1*
X7271213Y1713277D1*
X7218270Y1979661D2*
X7206197Y1973625D1*
X7193983Y1961411D1*
X7187947Y1949338D1*
Y1925052D1*
X7193983Y1912838D1*
X7206197Y1900765D1*
X7218270Y1894588D1*
X7236520Y1888552D1*
X7266983D1*
X7285093Y1894588D1*
X7297306Y1900765D1*
X7309380Y1912838D1*
X7315556Y1925052D1*
Y1949338D1*
X7309380Y1961411D1*
X7297306Y1973625D1*
X7285093Y1979661D1*
X7188087Y2031090D2*
Y2097773D1*
X7236660Y2061413D1*
Y2079663D1*
X7242697Y2091736D1*
X7248733Y2097773D1*
X7266983Y2103950D1*
X7279056D1*
X7297306Y2097773D1*
X7309520Y2085700D1*
X7315556Y2067450D1*
Y2049200D1*
X7309520Y2031090D1*
X7303343Y2025054D1*
X7291270Y2018877D1*
X7315556Y2203952D2*
X7188087D1*
X7273020Y2143166D1*
Y2234275D1*
X7472003Y2358003D2*
X7459930Y2351966D1*
X7447717Y2339753D1*
X7441680Y2327680D1*
Y2303393D1*
X7447717Y2291180D1*
X7459930Y2279107D1*
X7472003Y2272930D1*
X7490253Y2266893D1*
X7520717D1*
X7538826Y2272930D1*
X7551040Y2279107D1*
X7563113Y2291180D1*
X7569290Y2303393D1*
Y2327680D1*
X7563113Y2339753D1*
X7551040Y2351966D1*
X7538826Y2358003D1*
X7441821Y2409432D2*
Y2476115D1*
X7490394Y2439755D1*
Y2458005D1*
X7496430Y2470078D1*
X7502467Y2476115D1*
X7520717Y2482292D1*
X7532790D1*
X7551040Y2476115D1*
X7563253Y2464041D1*
X7569290Y2445791D1*
Y2427542D1*
X7563253Y2409432D1*
X7557076Y2403395D1*
X7545003Y2397218D1*
X7441821Y2594367D2*
Y2533721D1*
X7496430Y2527684D1*
X7490394Y2533721D1*
X7484217Y2551971D1*
Y2570080D1*
X7490394Y2588330D1*
X7502467Y2600544D1*
X7520717Y2606580D1*
X7532790D1*
X7551040Y2600544D1*
X7563253Y2588330D1*
X7569290Y2570080D1*
Y2551971D1*
X7563253Y2533721D1*
X7557076Y2527684D1*
X7545003Y2521507D1*
X5742571Y1629380D2*
X5736535Y1641453D1*
X5724321Y1653667D1*
X5712248Y1659703D1*
X5687962D1*
X5675748Y1653667D1*
X5663675Y1641453D1*
X5657498Y1629380D1*
X5651462Y1611130D1*
Y1580667D1*
X5657498Y1562557D1*
X5663675Y1550344D1*
X5675748Y1538271D1*
X5687962Y1532094D1*
X5712248D1*
X5724321Y1538271D1*
X5736535Y1550344D1*
X5742571Y1562557D1*
X5794000Y1659563D2*
X5860683D1*
X5824323Y1610990D1*
X5842573D1*
X5854646Y1604953D1*
X5860683Y1598917D1*
X5866860Y1580667D1*
Y1568594D1*
X5860683Y1550344D1*
X5848610Y1538130D1*
X5830360Y1532094D1*
X5812110D1*
X5794000Y1538130D1*
X5787964Y1544307D1*
X5781787Y1556380D1*
X5978935Y1641453D2*
X5972899Y1653526D1*
X5954649Y1659563D1*
X5942576D1*
X5924326Y1653526D1*
X5912112Y1635276D1*
X5906076Y1604953D1*
Y1574630D1*
X5912112Y1550344D1*
X5924326Y1538130D1*
X5942576Y1532094D1*
X5948612D1*
X5966722Y1538130D1*
X5978935Y1550344D1*
X5984972Y1568594D1*
Y1574630D1*
X5978935Y1592880D1*
X5966722Y1604953D1*
X5948612Y1610990D1*
X5942576D1*
X5924326Y1604953D1*
X5912112Y1592880D1*
X5906076Y1574630D1*
X5709936Y1400054D2*
X5703900Y1412127D1*
X5691686Y1424340D1*
X5679613Y1430377D1*
X5655326D1*
X5643113Y1424340D1*
X5631040Y1412127D1*
X5624863Y1400054D1*
X5618826Y1381804D1*
Y1351340D1*
X5624863Y1333230D1*
X5631040Y1321017D1*
X5643113Y1308944D1*
X5655326Y1302767D1*
X5679613D1*
X5691686Y1308944D1*
X5703900Y1321017D1*
X5709936Y1333230D1*
X5761365Y1430236D2*
X5828048D1*
X5791688Y1381663D1*
X5809938D1*
X5822011Y1375627D1*
X5828048Y1369590D1*
X5834225Y1351340D1*
Y1339267D1*
X5828048Y1321017D1*
X5815975Y1308804D1*
X5797725Y1302767D1*
X5779475D1*
X5761365Y1308804D1*
X5755329Y1314980D1*
X5749152Y1327054D1*
X5897727Y1302767D2*
X5958514Y1430236D1*
X5873440D1*
X1899140Y3179947D2*
X1893103Y3192020D1*
X1880890Y3204233D1*
X1868816Y3210270D1*
X1844530D1*
X1832316Y3204233D1*
X1820243Y3192020D1*
X1814066Y3179947D1*
X1808030Y3161697D1*
Y3131233D1*
X1814066Y3113124D1*
X1820243Y3100910D1*
X1832316Y3088837D1*
X1844530Y3082660D1*
X1868816D1*
X1880890Y3088837D1*
X1893103Y3100910D1*
X1899140Y3113124D1*
X1950569Y3210130D2*
X2017251D1*
X1980892Y3161556D1*
X1999142D1*
X2011215Y3155520D1*
X2017251Y3149483D1*
X2023428Y3131233D1*
Y3119160D1*
X2017251Y3100910D1*
X2005178Y3088697D1*
X1986928Y3082660D1*
X1968678D1*
X1950569Y3088697D1*
X1944532Y3094874D1*
X1938355Y3106947D1*
X2092967Y3210130D2*
X2074857Y3204093D1*
X2068681Y3192020D1*
Y3179806D1*
X2074857Y3167733D1*
X2086931Y3161556D1*
X2111217Y3155520D1*
X2129467Y3149483D1*
X2141540Y3137270D1*
X2147577Y3125197D1*
Y3106947D1*
X2141540Y3094874D1*
X2135504Y3088697D1*
X2117254Y3082660D1*
X2092967D1*
X2074857Y3088697D1*
X2068681Y3094874D1*
X2062644Y3106947D1*
Y3125197D1*
X2068681Y3137270D1*
X2080894Y3149483D1*
X2099004Y3155520D1*
X2123290Y3161556D1*
X2135504Y3167733D1*
X2141540Y3179806D1*
Y3192020D1*
X2135504Y3204093D1*
X2117254Y3210130D1*
X2092967D1*
X1510857Y2744761D2*
X1498784Y2738725D1*
X1486570Y2726511D1*
X1480533Y2714438D1*
Y2690152D1*
X1486570Y2677938D1*
X1498783Y2665865D1*
X1510856Y2659688D1*
X1529106Y2653652D1*
X1559570D1*
X1577680Y2659688D1*
X1589893Y2665865D1*
X1601966Y2677938D1*
X1608143Y2690152D1*
Y2714438D1*
X1601966Y2726511D1*
X1589893Y2738725D1*
X1577680Y2744761D1*
X1480674Y2796190D2*
Y2862873D1*
X1529247Y2826513D1*
Y2844763D1*
X1535284Y2856836D1*
X1541320Y2862873D1*
X1559570Y2869050D1*
X1571643D1*
X1589893Y2862873D1*
X1602107Y2850800D1*
X1608143Y2832550D1*
Y2814300D1*
X1602107Y2796190D1*
X1595930Y2790154D1*
X1583857Y2783977D1*
X1523070Y2987302D2*
X1541320Y2981125D1*
X1553533Y2969052D1*
X1559570Y2950802D1*
Y2944765D1*
X1553533Y2926515D1*
X1541320Y2914442D1*
X1523070Y2908266D1*
X1517034D1*
X1498784Y2914442D1*
X1486710Y2926516D1*
X1480674Y2944766D1*
Y2950802D1*
X1486710Y2969052D1*
X1498784Y2981125D1*
X1523070Y2987302D1*
X1553533D1*
X1583857Y2981125D1*
X1602107Y2969052D1*
X1608143Y2950802D1*
Y2938729D1*
X1602107Y2920479D1*
X1589893Y2914442D1*
X2184060Y1672191D2*
X2171987Y1666155D1*
X2159773Y1653941D1*
X2153737Y1641868D1*
Y1617582D1*
X2159773Y1605368D1*
X2171987Y1593295D1*
X2184060Y1587118D1*
X2202310Y1581082D1*
X2232773D1*
X2250883Y1587118D1*
X2263096Y1593295D1*
X2275170Y1605368D1*
X2281346Y1617582D1*
Y1641868D1*
X2275170Y1653941D1*
X2263096Y1666155D1*
X2250883Y1672191D1*
X2281346Y1772193D2*
X2153877D1*
X2238810Y1711407D1*
Y1802516D1*
X2153877Y1878232D2*
X2159914Y1859982D1*
X2178164Y1847769D1*
X2208487Y1841732D1*
X2226737D1*
X2257060Y1847769D1*
X2275310Y1859982D1*
X2281346Y1878232D1*
Y1890305D1*
X2275310Y1908555D1*
X2257060Y1920628D1*
X2226737Y1926805D1*
X2208487D1*
X2178164Y1920628D1*
X2159914Y1908555D1*
X2153877Y1890305D1*
Y1878232D1*
X2178164Y1920628D2*
X2257060Y1847769D1*
X2798543Y3064237D2*
X2792506Y3076310D1*
X2780293Y3088523D1*
X2768220Y3094560D1*
X2743933D1*
X2731720Y3088523D1*
X2719646Y3076310D1*
X2713470Y3064237D1*
X2707433Y3045987D1*
Y3015523D1*
X2713470Y2997414D1*
X2719646Y2985200D1*
X2731720Y2973127D1*
X2743933Y2966950D1*
X2768220D1*
X2780293Y2973127D1*
X2792506Y2985200D1*
X2798543Y2997414D1*
X2898545Y2966950D2*
Y3094420D1*
X2837758Y3009487D1*
X2928868D1*
X2968084Y3070133D2*
X2980297Y3076310D1*
X2998547Y3094420D1*
Y2966950D1*
X2436644Y3451104D2*
X2430608Y3463177D1*
X2418394Y3475390D1*
X2406321Y3481427D1*
X2382035D1*
X2369821Y3475390D1*
X2357748Y3463177D1*
X2351571Y3451104D1*
X2345535Y3432854D1*
Y3402390D1*
X2351571Y3384280D1*
X2357748Y3372067D1*
X2369821Y3359994D1*
X2382035Y3353817D1*
X2406321D1*
X2418394Y3359994D1*
X2430608Y3372067D1*
X2436644Y3384280D1*
X2536647Y3353817D2*
Y3481286D1*
X2475860Y3396354D1*
X2566970D1*
X2612362Y3450963D2*
Y3457000D1*
X2618399Y3469213D1*
X2624435Y3475250D1*
X2636649Y3481286D1*
X2660935D1*
X2673009Y3475250D1*
X2679045Y3469213D1*
X2685222Y3457000D1*
Y3444927D1*
X2679045Y3432713D1*
X2666972Y3414604D1*
X2606185Y3353817D1*
X2691259D1*
X6401924Y6018487D2*
X6395888Y6030560D1*
X6383674Y6042773D1*
X6371601Y6048810D1*
X6347315D1*
X6335101Y6042773D1*
X6323028Y6030560D1*
X6316851Y6018487D1*
X6310815Y6000237D1*
Y5969773D1*
X6316851Y5951664D1*
X6323028Y5939450D1*
X6335101Y5927377D1*
X6347315Y5921200D1*
X6371601D1*
X6383674Y5927377D1*
X6395888Y5939450D1*
X6401924Y5951664D1*
X6501927Y5921200D2*
Y6048670D1*
X6441140Y5963737D1*
X6532250D1*
X6583679Y6048670D2*
X6650362D1*
X6614002Y6000096D1*
X6632252D1*
X6644325Y5994060D1*
X6650362Y5988023D1*
X6656539Y5969773D1*
Y5957700D1*
X6650362Y5939450D1*
X6638289Y5927237D1*
X6620039Y5921200D1*
X6601789D1*
X6583679Y5927237D1*
X6577642Y5933414D1*
X6571465Y5945487D1*
X5334630Y5790867D2*
X5328593Y5802940D1*
X5316380Y5815153D1*
X5304306Y5821190D1*
X5280020D1*
X5267806Y5815153D1*
X5255733Y5802940D1*
X5249556Y5790867D1*
X5243520Y5772617D1*
Y5742153D1*
X5249556Y5724044D1*
X5255733Y5711830D1*
X5267806Y5699757D1*
X5280020Y5693580D1*
X5304306D1*
X5316380Y5699757D1*
X5328593Y5711830D1*
X5334630Y5724044D1*
X5434632Y5693580D2*
Y5821050D1*
X5373845Y5736117D1*
X5464955D1*
X5564957Y5693580D2*
Y5821050D1*
X5504170Y5736117D1*
X5595280D1*
X6935908Y7453000D2*
X6929872Y7465073D1*
X6917658Y7477287D1*
X6905585Y7483323D1*
X6881299D1*
X6869085Y7477287D1*
X6857012Y7465073D1*
X6850835Y7453000D1*
X6844799Y7434750D1*
Y7404287D1*
X6850835Y7386177D1*
X6857012Y7373964D1*
X6869085Y7361891D1*
X6881299Y7355714D1*
X6905585D1*
X6917658Y7361891D1*
X6929872Y7373964D1*
X6935908Y7386177D1*
X6975124Y7422537D2*
X7029733D1*
X7047983Y7428714D1*
X7054160Y7434750D1*
X7060197Y7446823D1*
Y7459037D1*
X7054160Y7471110D1*
X7047983Y7477287D1*
X7029733Y7483323D1*
X6975124D1*
Y7355714D1*
X7017660Y7422537D2*
X7060197Y7355714D1*
X7166236Y7422537D2*
X7160199Y7434750D1*
X7141949Y7440787D1*
X7123699D1*
X7105449Y7434750D1*
X7099413Y7422537D1*
X7105449Y7410464D1*
X7117663Y7404287D1*
X7147986Y7398250D1*
X7160199Y7392214D1*
X7166236Y7380000D1*
Y7373964D1*
X7160199Y7361891D1*
X7141949Y7355714D1*
X7123699D1*
X7105449Y7361891D1*
X7099413Y7373964D1*
X7205451Y7458896D2*
X7217665Y7465073D1*
X7235915Y7483183D1*
Y7355714D1*
X7663831Y8752257D2*
X7657794Y8764330D1*
X7645581Y8776543D1*
X7633508Y8782580D1*
X7609221D1*
X7597008Y8776543D1*
X7584935Y8764330D1*
X7578758Y8752257D1*
X7572721Y8734007D1*
Y8703543D1*
X7578758Y8685434D1*
X7584935Y8673220D1*
X7597008Y8661147D1*
X7609221Y8654970D1*
X7633508D1*
X7645581Y8661147D1*
X7657794Y8673220D1*
X7663831Y8685434D1*
X7703046Y8740043D2*
Y8679257D1*
X7709083Y8661147D1*
X7721296Y8654970D1*
X7739546D1*
X7751620Y8661147D1*
X7769870Y8679257D1*
Y8740043D2*
Y8654970D1*
X7809085Y8782580D2*
Y8654970D1*
Y8721793D2*
X7821299Y8734007D1*
X7833372Y8740043D1*
X7851622D1*
X7863695Y8734007D1*
X7875908Y8721793D1*
X7881945Y8703543D1*
Y8691470D1*
X7875908Y8673220D1*
X7863695Y8661147D1*
X7851622Y8654970D1*
X7833372D1*
X7821299Y8661147D1*
X7809085Y8673220D1*
X7921160Y8703543D2*
X7994020D1*
Y8715757D1*
X7987984Y8727970D1*
X7981947Y8734007D1*
X7969734Y8740043D1*
X7951484D1*
X7939410Y8734007D1*
X7927197Y8721793D1*
X7921160Y8703543D1*
Y8691470D1*
X7927197Y8673220D1*
X7939410Y8661147D1*
X7951484Y8654970D1*
X7969734D1*
X7981947Y8661147D1*
X7994020Y8673220D1*
X8100059Y8721793D2*
X8094022Y8734007D1*
X8075772Y8740043D1*
X8057522D1*
X8039272Y8734007D1*
X8033236Y8721793D1*
X8039272Y8709720D1*
X8051486Y8703543D1*
X8081809Y8697507D1*
X8094022Y8691470D1*
X8100059Y8679257D1*
Y8673220D1*
X8094022Y8661147D1*
X8075772Y8654970D1*
X8057522D1*
X8039272Y8661147D1*
X8033236Y8673220D1*
X2883171Y8672803D2*
Y8545194D1*
X2925707D1*
X2943957Y8551371D1*
X2956171Y8563444D1*
X2962207Y8575657D1*
X2968244Y8593767D1*
Y8624230D1*
X2962207Y8642480D1*
X2956171Y8654553D1*
X2943957Y8666767D1*
X2925707Y8672803D1*
X2883171D1*
X3007459Y8648376D2*
X3019673Y8654553D1*
X3037923Y8672663D1*
Y8545194D1*
X1946272Y8061393D2*
Y7933784D1*
X1988809D1*
X2007059Y7939961D1*
X2019272Y7952034D1*
X2025309Y7964247D1*
X2031345Y7982357D1*
Y8012820D1*
X2025309Y8031070D1*
X2019272Y8043143D1*
X2007059Y8055357D1*
X1988809Y8061393D1*
X1946272D1*
X2076738Y8030930D2*
Y8036966D1*
X2082775Y8049180D1*
X2088811Y8055216D1*
X2101025Y8061253D1*
X2125311D1*
X2137384Y8055216D1*
X2143421Y8049180D1*
X2149598Y8036966D1*
Y8024893D1*
X2143421Y8012680D1*
X2131348Y7994570D1*
X2070561Y7933784D1*
X2155634D1*
X3568200Y8471969D2*
X3695810D1*
Y8514506D1*
X3689633Y8532756D1*
X3677560Y8544969D1*
X3665346Y8551006D1*
X3647237Y8557042D1*
X3616773D1*
X3598523Y8551006D1*
X3586450Y8544969D1*
X3574237Y8532756D1*
X3568200Y8514506D1*
Y8471969D1*
X3568341Y8608472D2*
Y8675154D1*
X3616914Y8638795D1*
Y8657044D1*
X3622950Y8669118D1*
X3628987Y8675154D1*
X3647237Y8681331D1*
X3659310D1*
X3677560Y8675154D1*
X3689773Y8663081D1*
X3695810Y8644831D1*
Y8626581D1*
X3689773Y8608471D1*
X3683596Y8602435D1*
X3671523Y8596258D1*
X2775887Y6227155D2*
Y6099545D1*
X2818424D1*
X2836674Y6105722D1*
X2848887Y6117795D1*
X2854924Y6130009D1*
X2860961Y6148118D1*
Y6178582D1*
X2854924Y6196832D1*
X2848887Y6208905D1*
X2836674Y6221118D1*
X2818424Y6227155D1*
X2775887D1*
X2960963Y6099545D2*
Y6227015D1*
X2900176Y6142082D1*
X2991286D1*
X4343567Y7132789D2*
X4471176D1*
X4471177Y7175326D1*
X4465000Y7193576D1*
X4452927Y7205789D1*
X4440713Y7211826D1*
X4422603Y7217862D1*
X4392140D1*
X4373890Y7211826D1*
X4361817Y7205789D1*
X4349603Y7193576D1*
X4343567Y7175326D1*
Y7132789D1*
X4343707Y7329938D2*
Y7269292D1*
X4398317Y7263255D1*
X4392280Y7269291D1*
X4386103Y7287541D1*
Y7305651D1*
X4392280Y7323901D1*
X4404353Y7336114D1*
X4422603Y7342151D1*
X4434676D1*
X4452926Y7336114D1*
X4465140Y7323901D1*
X4471176Y7305651D1*
Y7287541D1*
X4465140Y7269291D1*
X4458963Y7263255D1*
X4446890Y7257078D1*
X9227103Y7998441D2*
X9354713D1*
Y8040978D1*
X9348536Y8059228D1*
X9336463Y8071441D1*
X9324250Y8077478D1*
X9306140Y8083514D1*
X9275677D1*
X9257427Y8077478D1*
X9245354Y8071441D1*
X9233140Y8059228D1*
X9227103Y8040978D1*
Y7998441D1*
X9245354Y8195589D2*
X9233280Y8189553D1*
X9227244Y8171303D1*
Y8159230D1*
X9233280Y8140980D1*
X9251530Y8128766D1*
X9281854Y8122730D1*
X9312177D1*
X9336463Y8128766D1*
X9348677Y8140980D1*
X9354713Y8159230D1*
Y8165266D1*
X9348677Y8183376D1*
X9336463Y8195589D1*
X9318213Y8201626D1*
X9312177D1*
X9293927Y8195589D1*
X9281854Y8183376D1*
X9275817Y8165266D1*
Y8159230D1*
X9281854Y8140980D1*
X9293927Y8128766D1*
X9312177Y8122730D1*
X8437761Y4763512D2*
Y4635902D1*
X8480297D1*
X8498547Y4642079D1*
X8510761Y4654152D1*
X8516797Y4666365D1*
X8522834Y4684475D1*
Y4714939D1*
X8516797Y4733189D1*
X8510761Y4745262D1*
X8498547Y4757475D1*
X8480297Y4763512D1*
X8437761D1*
X8562050D2*
X8568086Y4757475D1*
X8574263Y4763512D1*
X8568086Y4769689D1*
X8562050Y4763512D1*
X8568086Y4720975D2*
Y4635902D1*
X8662052Y4763512D2*
X8649979D1*
X8637765Y4757475D1*
X8631729Y4739225D1*
Y4635902D1*
X8613479Y4720975D2*
X8656015D1*
X8749841Y4763512D2*
X8737767D1*
X8725554Y4757475D1*
X8719517Y4739225D1*
Y4635902D1*
X8701267Y4720975D2*
X8743804D1*
X8789056Y4739085D2*
X8801270Y4745262D1*
X8819520Y4763371D1*
Y4635902D1*
X8864772Y4648115D2*
X8858735Y4641939D1*
X8864772Y4635902D1*
X8870949Y4641939D1*
X8864772Y4648115D1*
X8910165Y4739085D2*
X8922378Y4745262D1*
X8940628Y4763371D1*
Y4635902D1*
X9064917Y4745262D2*
X9052844Y4757475D1*
X9034594Y4763512D1*
X9010307D1*
X8992057Y4757475D1*
X8979844Y4745262D1*
Y4733189D1*
X8986021Y4720975D1*
X8992057Y4714939D1*
X9004130Y4708902D1*
X9040630Y4696689D1*
X9052844Y4690652D1*
X9058880Y4684475D1*
X9064917Y4672402D1*
Y4654152D1*
X9052844Y4642079D1*
X9034594Y4635902D1*
X9010307D1*
X8992057Y4642079D1*
X8979844Y4654152D1*
X9104132Y4763512D2*
X9110169Y4757475D1*
X9116346Y4763512D1*
X9110169Y4769689D1*
X9104132Y4763512D1*
X9110169Y4720975D2*
Y4635902D1*
X9177089Y3862135D2*
Y3734525D1*
X9219626D1*
X9237876Y3740702D1*
X9250089Y3752775D1*
X9256126Y3764989D1*
X9262162Y3783098D1*
Y3813562D1*
X9256126Y3831812D1*
X9250089Y3843885D1*
X9237876Y3856098D1*
X9219626Y3862135D1*
X9177089D1*
X9301378D2*
X9307415Y3856098D1*
X9313592Y3862135D1*
X9307415Y3868312D1*
X9301378Y3862135D1*
X9307415Y3819598D2*
Y3734525D1*
X9401380Y3862135D2*
X9389307D1*
X9377094Y3856098D1*
X9371057Y3837848D1*
Y3734525D1*
X9352807Y3819598D2*
X9395344D1*
X9489169Y3862135D2*
X9477096D1*
X9464883Y3856098D1*
X9458846Y3837848D1*
Y3734525D1*
X9440596Y3819598D2*
X9483133D1*
X9528385Y3837708D2*
X9540598Y3843885D1*
X9558848Y3861995D1*
Y3734525D1*
X9604100Y3746739D2*
X9598064Y3740562D1*
X9604100Y3734525D1*
X9610277Y3740562D1*
X9604100Y3746739D1*
X9655670Y3831671D2*
Y3837708D1*
X9661707Y3849921D1*
X9667743Y3855958D1*
X9679957Y3861995D1*
X9704243D1*
X9716316Y3855958D1*
X9722353Y3849921D1*
X9728530Y3837708D1*
Y3825635D1*
X9722353Y3813421D1*
X9710280Y3795312D1*
X9649493Y3734525D1*
X9734566D1*
X9858855Y3843885D2*
X9846782Y3856098D1*
X9828532Y3862135D1*
X9804245D1*
X9785995Y3856098D1*
X9773782Y3843885D1*
Y3831812D1*
X9779959Y3819598D1*
X9785995Y3813562D1*
X9798068Y3807525D1*
X9834568Y3795312D1*
X9846782Y3789275D1*
X9852818Y3783098D1*
X9858855Y3771025D1*
Y3752775D1*
X9846782Y3740702D1*
X9828532Y3734525D1*
X9804245D1*
X9785995Y3740702D1*
X9773782Y3752775D1*
X9898071Y3862135D2*
X9904107Y3856098D1*
X9910284Y3862135D1*
X9904107Y3868312D1*
X9898071Y3862135D1*
X9904107Y3819598D2*
Y3734525D1*
X2353610Y2397235D2*
Y2269625D1*
X2396147D1*
X2414397Y2275802D1*
X2426610Y2287875D1*
X2432647Y2300089D1*
X2438683Y2318198D1*
Y2348662D1*
X2432647Y2366912D1*
X2426610Y2378985D1*
X2414397Y2391198D1*
X2396147Y2397235D1*
X2353610D1*
X2477899D2*
X2483935Y2391198D1*
X2490112Y2397235D1*
X2483935Y2403412D1*
X2477899Y2397235D1*
X2483935Y2354698D2*
Y2269625D1*
X2577901Y2397235D2*
X2565828D1*
X2553614Y2391198D1*
X2547578Y2372948D1*
Y2269625D1*
X2529328Y2354698D2*
X2571864D1*
X2665690Y2397235D2*
X2653617D1*
X2641403Y2391198D1*
X2635367Y2372948D1*
Y2269625D1*
X2617117Y2354698D2*
X2659653D1*
X2711082Y2366771D2*
Y2372808D1*
X2717119Y2385021D1*
X2723155Y2391058D1*
X2735369Y2397095D1*
X2759655D1*
X2771729Y2391058D1*
X2777765Y2385021D1*
X2783942Y2372808D1*
Y2360735D1*
X2777765Y2348521D1*
X2765692Y2330412D1*
X2704905Y2269625D1*
X2789979D1*
X2835231Y2281839D2*
X2829194Y2275662D1*
X2835231Y2269625D1*
X2841408Y2275662D1*
X2835231Y2281839D1*
X2880623Y2372808D2*
X2892837Y2378985D1*
X2911087Y2397095D1*
Y2269625D1*
X3035376Y2378985D2*
X3023302Y2391198D1*
X3005052Y2397235D1*
X2980766D1*
X2962516Y2391198D1*
X2950302Y2378985D1*
Y2366912D1*
X2956479Y2354698D1*
X2962516Y2348662D1*
X2974589Y2342625D1*
X3011089Y2330412D1*
X3023302Y2324375D1*
X3029339Y2318198D1*
X3035376Y2306125D1*
Y2287875D1*
X3023302Y2275802D1*
X3005052Y2269625D1*
X2980766D1*
X2962516Y2275802D1*
X2950302Y2287875D1*
X3074591Y2397235D2*
X3080628Y2391198D1*
X3086805Y2397235D1*
X3080628Y2403412D1*
X3074591Y2397235D1*
X3080628Y2354698D2*
Y2269625D1*
X3217130Y2366912D2*
X3211093Y2378985D1*
X3198880Y2391198D1*
X3186807Y2397235D1*
X3162520D1*
X3150307Y2391198D1*
X3138234Y2378985D1*
X3132057Y2366912D1*
X3126020Y2348662D1*
Y2318198D1*
X3132057Y2300089D1*
X3138234Y2287875D1*
X3150307Y2275802D1*
X3162520Y2269625D1*
X3186807D1*
X3198880Y2275802D1*
X3211093Y2287875D1*
X3217130Y2300089D1*
X5727032Y2497698D2*
Y2370089D1*
X5769568D1*
X5787818Y2376266D1*
X5800032Y2388339D1*
X5806068Y2400552D1*
X5812105Y2418662D1*
Y2449125D1*
X5806068Y2467375D1*
X5800032Y2479448D1*
X5787818Y2491662D1*
X5769568Y2497698D1*
X5727032D1*
X5851321D2*
X5857357Y2491662D1*
X5863534Y2497698D1*
X5857357Y2503875D1*
X5851321Y2497698D1*
X5857357Y2455162D2*
Y2370089D1*
X5951323Y2497698D2*
X5939250D1*
X5927036Y2491662D1*
X5921000Y2473412D1*
Y2370089D1*
X5902750Y2455162D2*
X5945286D1*
X6039112Y2497698D2*
X6027039D1*
X6014825Y2491662D1*
X6008789Y2473412D1*
Y2370089D1*
X5990539Y2455162D2*
X6033075D1*
X6084504Y2467235D2*
Y2473271D1*
X6090541Y2485485D1*
X6096577Y2491521D1*
X6108791Y2497558D1*
X6133077D1*
X6145150Y2491521D1*
X6151187Y2485485D1*
X6157364Y2473271D1*
Y2461198D1*
X6151187Y2448985D1*
X6139114Y2430875D1*
X6078327Y2370089D1*
X6163400D1*
X6208653Y2382302D2*
X6202616Y2376125D1*
X6208653Y2370089D1*
X6214830Y2376125D1*
X6208653Y2382302D1*
X6260222Y2467235D2*
Y2473271D1*
X6266259Y2485485D1*
X6272295Y2491521D1*
X6284509Y2497558D1*
X6308795D1*
X6320868Y2491521D1*
X6326905Y2485485D1*
X6333082Y2473271D1*
Y2461198D1*
X6326905Y2448985D1*
X6314832Y2430875D1*
X6254045Y2370089D1*
X6339118D1*
X6463407Y2479448D2*
X6451334Y2491662D1*
X6433084Y2497698D1*
X6408797D1*
X6390547Y2491662D1*
X6378334Y2479448D1*
Y2467375D1*
X6384511Y2455162D1*
X6390547Y2449125D1*
X6402620Y2443089D1*
X6439120Y2430875D1*
X6451334Y2424839D1*
X6457370Y2418662D1*
X6463407Y2406589D1*
Y2388339D1*
X6451334Y2376266D1*
X6433084Y2370089D1*
X6408797D1*
X6390547Y2376266D1*
X6378334Y2388339D1*
X6502623Y2497698D2*
X6508659Y2491662D1*
X6514836Y2497698D1*
X6508659Y2503875D1*
X6502623Y2497698D1*
X6508659Y2455162D2*
Y2370089D1*
X6645161Y2467375D2*
X6639125Y2479448D1*
X6626911Y2491662D1*
X6614838Y2497698D1*
X6590552D1*
X6578338Y2491662D1*
X6566265Y2479448D1*
X6560088Y2467375D1*
X6554052Y2449125D1*
Y2418662D1*
X6560088Y2400552D1*
X6566265Y2388339D1*
X6578338Y2376266D1*
X6590552Y2370089D1*
X6614838D1*
X6626911Y2376266D1*
X6639125Y2388339D1*
X6645161Y2400552D1*
X5898252Y3956343D2*
Y3828734D1*
Y3895557D2*
X5886179Y3907770D1*
X5873965Y3913807D1*
X5855715D1*
X5843642Y3907770D1*
X5831429Y3895557D1*
X5825392Y3877307D1*
Y3865234D1*
X5831429Y3846984D1*
X5843642Y3834911D1*
X5855715Y3828734D1*
X5873965D1*
X5886179Y3834911D1*
X5898252Y3846984D1*
X5937468Y3956343D2*
X5943504Y3950307D1*
X5949681Y3956343D1*
X5943504Y3962520D1*
X5937468Y3956343D1*
X5943504Y3913807D2*
Y3828734D1*
X6019220Y3913807D2*
X6007147Y3907770D1*
X5994933Y3895557D1*
X5988897Y3877307D1*
Y3865234D1*
X5994933Y3846984D1*
X6007147Y3834911D1*
X6019220Y3828734D1*
X6037470D1*
X6049683Y3834911D1*
X6061756Y3846984D1*
X6067933Y3865234D1*
Y3877307D1*
X6061756Y3895557D1*
X6049683Y3907770D1*
X6037470Y3913807D1*
X6019220D1*
X6180009Y3956343D2*
Y3828734D1*
Y3895557D2*
X6167935Y3907770D1*
X6155722Y3913807D1*
X6137472D1*
X6125399Y3907770D1*
X6113185Y3895557D1*
X6107149Y3877307D1*
Y3865234D1*
X6113185Y3846984D1*
X6125399Y3834911D1*
X6137472Y3828734D1*
X6155722D1*
X6167935Y3834911D1*
X6180009Y3846984D1*
X6219224Y3931916D2*
X6231438Y3938093D1*
X6249688Y3956203D1*
Y3828734D1*
X6764744Y3802867D2*
Y3675257D1*
Y3742080D2*
X6752671Y3754294D1*
X6740457Y3760330D1*
X6722207D1*
X6710134Y3754294D1*
X6697921Y3742080D1*
X6691884Y3723830D1*
Y3711757D1*
X6697921Y3693507D1*
X6710134Y3681434D1*
X6722207Y3675257D1*
X6740457D1*
X6752671Y3681434D1*
X6764744Y3693507D1*
X6803959Y3802867D2*
X6809996Y3796830D1*
X6816173Y3802867D1*
X6809996Y3809044D1*
X6803959Y3802867D1*
X6809996Y3760330D2*
Y3675257D1*
X6885712Y3760330D2*
X6873639Y3754294D1*
X6861425Y3742080D1*
X6855389Y3723830D1*
Y3711757D1*
X6861425Y3693507D1*
X6873639Y3681434D1*
X6885712Y3675257D1*
X6903962D1*
X6916175Y3681434D1*
X6928248Y3693507D1*
X6934425Y3711757D1*
Y3723830D1*
X6928248Y3742080D1*
X6916175Y3754294D1*
X6903962Y3760330D1*
X6885712D1*
X7046500Y3802867D2*
Y3675257D1*
Y3742080D2*
X7034427Y3754294D1*
X7022214Y3760330D1*
X7003964D1*
X6991891Y3754294D1*
X6979677Y3742080D1*
X6973641Y3723830D1*
Y3711757D1*
X6979677Y3693507D1*
X6991891Y3681434D1*
X7003964Y3675257D1*
X7022214D1*
X7034427Y3681434D1*
X7046500Y3693507D1*
X7091893Y3772403D2*
Y3778440D1*
X7097930Y3790653D1*
X7103966Y3796690D1*
X7116180Y3802726D1*
X7140466D1*
X7152539Y3796690D1*
X7158576Y3790653D1*
X7164753Y3778440D1*
Y3766367D1*
X7158576Y3754153D1*
X7146503Y3736044D1*
X7085716Y3675257D1*
X7170789D1*
X7117764Y4861143D2*
Y4733534D1*
Y4800357D2*
X7105691Y4812570D1*
X7093477Y4818607D1*
X7075227D1*
X7063154Y4812570D1*
X7050941Y4800357D1*
X7044904Y4782107D1*
Y4770034D1*
X7050941Y4751784D1*
X7063154Y4739711D1*
X7075227Y4733534D1*
X7093477D1*
X7105691Y4739711D1*
X7117764Y4751784D1*
X7156979Y4861143D2*
X7163016Y4855107D1*
X7169193Y4861143D1*
X7163016Y4867320D1*
X7156979Y4861143D1*
X7163016Y4818607D2*
Y4733534D1*
X7238732Y4818607D2*
X7226659Y4812570D1*
X7214445Y4800357D1*
X7208409Y4782107D1*
Y4770034D1*
X7214445Y4751784D1*
X7226659Y4739711D1*
X7238732Y4733534D1*
X7256982D1*
X7269195Y4739711D1*
X7281268Y4751784D1*
X7287445Y4770034D1*
Y4782107D1*
X7281268Y4800357D1*
X7269195Y4812570D1*
X7256982Y4818607D1*
X7238732D1*
X7399520Y4861143D2*
Y4733534D1*
Y4800357D2*
X7387447Y4812570D1*
X7375234Y4818607D1*
X7356984D1*
X7344911Y4812570D1*
X7332697Y4800357D1*
X7326661Y4782107D1*
Y4770034D1*
X7332697Y4751784D1*
X7344911Y4739711D1*
X7356984Y4733534D1*
X7375234D1*
X7387447Y4739711D1*
X7399520Y4751784D1*
X7450950Y4861003D2*
X7517632D1*
X7481273Y4812430D1*
X7499523D1*
X7511596Y4806393D1*
X7517632Y4800357D1*
X7523809Y4782107D1*
Y4770034D1*
X7517632Y4751784D1*
X7505559Y4739570D1*
X7487309Y4733534D1*
X7469059D1*
X7450950Y4739570D1*
X7444913Y4745747D1*
X7438736Y4757820D1*
X6537089Y4751933D2*
Y4624324D1*
Y4691147D2*
X6525016Y4703360D1*
X6512802Y4709397D1*
X6494552D1*
X6482479Y4703360D1*
X6470266Y4691147D1*
X6464229Y4672897D1*
Y4660824D1*
X6470266Y4642574D1*
X6482479Y4630501D1*
X6494552Y4624324D1*
X6512802D1*
X6525016Y4630501D1*
X6537089Y4642574D1*
X6576305Y4751933D2*
X6582341Y4745897D1*
X6588518Y4751933D1*
X6582341Y4758110D1*
X6576305Y4751933D1*
X6582341Y4709397D2*
Y4624324D1*
X6658057Y4709397D2*
X6645984Y4703360D1*
X6633770Y4691147D1*
X6627734Y4672897D1*
Y4660824D1*
X6633770Y4642574D1*
X6645984Y4630501D1*
X6658057Y4624324D1*
X6676307D1*
X6688520Y4630501D1*
X6700593Y4642574D1*
X6706770Y4660824D1*
Y4672897D1*
X6700593Y4691147D1*
X6688520Y4703360D1*
X6676307Y4709397D1*
X6658057D1*
X6818845Y4751933D2*
Y4624324D1*
Y4691147D2*
X6806772Y4703360D1*
X6794559Y4709397D1*
X6776309D1*
X6764236Y4703360D1*
X6752022Y4691147D1*
X6745986Y4672897D1*
Y4660824D1*
X6752022Y4642574D1*
X6764236Y4630501D1*
X6776309Y4624324D1*
X6794559D1*
X6806772Y4630501D1*
X6818845Y4642574D1*
X6918848Y4624324D2*
Y4751793D1*
X6858061Y4666860D1*
X6949171D1*
X4955727Y3240095D2*
Y3112485D1*
Y3179308D2*
X4943654Y3191522D1*
X4931441Y3197558D1*
X4913191D1*
X4901117Y3191522D1*
X4888904Y3179308D1*
X4882867Y3161058D1*
Y3148985D1*
X4888904Y3130735D1*
X4901117Y3118662D1*
X4913191Y3112485D1*
X4931441D1*
X4943654Y3118662D1*
X4955727Y3130735D1*
X4994943Y3240095D2*
X5000979Y3234058D1*
X5007156Y3240095D1*
X5000979Y3246272D1*
X4994943Y3240095D1*
X5000979Y3197558D2*
Y3112485D1*
X5076695Y3197558D2*
X5064622Y3191522D1*
X5052408Y3179308D1*
X5046372Y3161058D1*
Y3148985D1*
X5052408Y3130735D1*
X5064622Y3118662D1*
X5076695Y3112485D1*
X5094945D1*
X5107158Y3118662D1*
X5119232Y3130735D1*
X5125408Y3148985D1*
Y3161058D1*
X5119232Y3179308D1*
X5107158Y3191522D1*
X5094945Y3197558D1*
X5076695D1*
X5237484Y3240095D2*
Y3112485D1*
Y3179308D2*
X5225411Y3191522D1*
X5213197Y3197558D1*
X5194947D1*
X5182874Y3191522D1*
X5170661Y3179308D1*
X5164624Y3161058D1*
Y3148985D1*
X5170661Y3130735D1*
X5182874Y3118662D1*
X5194947Y3112485D1*
X5213197D1*
X5225411Y3118662D1*
X5237484Y3130735D1*
X5349559Y3239955D2*
X5288913D1*
X5282876Y3185345D1*
X5288913Y3191381D1*
X5307163Y3197558D1*
X5325273D1*
X5343523Y3191381D1*
X5355736Y3179308D1*
X5361773Y3161058D1*
Y3148985D1*
X5355736Y3130735D1*
X5343523Y3118522D1*
X5325273Y3112485D1*
X5307163D1*
X5288913Y3118522D1*
X5282876Y3124699D1*
X5276699Y3136772D1*
X4824166Y2681175D2*
Y2553565D1*
Y2620388D2*
X4812092Y2632602D1*
X4799879Y2638638D1*
X4781629D1*
X4769556Y2632602D1*
X4757342Y2620388D1*
X4751306Y2602138D1*
Y2590065D1*
X4757342Y2571815D1*
X4769556Y2559742D1*
X4781629Y2553565D1*
X4799879D1*
X4812092Y2559742D1*
X4824166Y2571815D1*
X4863381Y2681175D2*
X4869418Y2675138D1*
X4875595Y2681175D1*
X4869418Y2687352D1*
X4863381Y2681175D1*
X4869418Y2638638D2*
Y2553565D1*
X4945133Y2638638D2*
X4933060Y2632602D1*
X4920847Y2620388D1*
X4914810Y2602138D1*
Y2590065D1*
X4920847Y2571815D1*
X4933060Y2559742D1*
X4945133Y2553565D1*
X4963383D1*
X4975597Y2559742D1*
X4987670Y2571815D1*
X4993847Y2590065D1*
Y2602138D1*
X4987670Y2620388D1*
X4975597Y2632602D1*
X4963383Y2638638D1*
X4945133D1*
X5105922Y2681175D2*
Y2553565D1*
Y2620388D2*
X5093849Y2632602D1*
X5081636Y2638638D1*
X5063386D1*
X5051313Y2632602D1*
X5039099Y2620388D1*
X5033063Y2602138D1*
Y2590065D1*
X5039099Y2571815D1*
X5051313Y2559742D1*
X5063386Y2553565D1*
X5081636D1*
X5093849Y2559742D1*
X5105922Y2571815D1*
X5217998Y2662925D2*
X5211961Y2674998D1*
X5193711Y2681035D1*
X5181638D1*
X5163388Y2674998D1*
X5151174Y2656748D1*
X5145138Y2626425D1*
Y2596102D1*
X5151174Y2571815D1*
X5163388Y2559602D1*
X5181638Y2553565D1*
X5187674D1*
X5205784Y2559602D1*
X5217998Y2571815D1*
X5224034Y2590065D1*
Y2596102D1*
X5217998Y2614352D1*
X5205784Y2626425D1*
X5187674Y2632461D1*
X5181638D1*
X5163388Y2626425D1*
X5151174Y2614352D1*
X5145138Y2596102D1*
X5118371Y7644098D2*
Y7516489D1*
X5160907D1*
X5179157Y7522666D1*
X5191371Y7534739D1*
X5197407Y7546952D1*
X5203444Y7565062D1*
Y7595525D1*
X5197407Y7613775D1*
X5191371Y7625848D1*
X5179157Y7638062D1*
X5160907Y7644098D1*
X5118371D1*
X5242659D2*
X5248696Y7638062D1*
X5254873Y7644098D1*
X5248696Y7650275D1*
X5242659Y7644098D1*
X5248696Y7601562D2*
Y7516489D1*
X5324412Y7601562D2*
X5312338Y7595525D1*
X5300125Y7583312D1*
X5294088Y7565062D1*
Y7552989D1*
X5300125Y7534739D1*
X5312338Y7522666D1*
X5324412Y7516489D1*
X5342662D1*
X5354875Y7522666D1*
X5366948Y7534739D1*
X5373125Y7552989D1*
Y7565062D1*
X5366948Y7583312D1*
X5354875Y7595525D1*
X5342662Y7601562D1*
X5324412D1*
X5485200Y7644098D2*
Y7516489D1*
Y7583312D2*
X5473127Y7595525D1*
X5460914Y7601562D1*
X5442664D1*
X5430591Y7595525D1*
X5418377Y7583312D1*
X5412341Y7565062D1*
Y7552989D1*
X5418377Y7534739D1*
X5430591Y7522666D1*
X5442664Y7516489D1*
X5460914D1*
X5473127Y7522666D1*
X5485200Y7534739D1*
X5585203Y7516489D2*
Y7643958D1*
X5524416Y7559025D1*
X5615526D1*
X5685064Y7643958D2*
X5666955Y7637921D1*
X5660778Y7625848D1*
Y7613635D1*
X5666955Y7601562D1*
X5679028Y7595385D1*
X5703314Y7589348D1*
X5721564Y7583312D1*
X5733637Y7571098D1*
X5739674Y7559025D1*
Y7540775D1*
X5733637Y7528702D1*
X5727601Y7522525D1*
X5709351Y7516489D1*
X5685064D1*
X5666955Y7522525D1*
X5660778Y7528702D1*
X5654741Y7540775D1*
Y7559025D1*
X5660778Y7571098D1*
X5672991Y7583312D1*
X5691101Y7589348D1*
X5715387Y7595385D1*
X5727601Y7601562D1*
X5733637Y7613635D1*
Y7625848D1*
X5727601Y7637921D1*
X5709351Y7643958D1*
X5685064D1*
X5851749D2*
X5791103D1*
X5785067Y7589348D1*
X5791103Y7595385D1*
X5809353Y7601562D1*
X5827463D1*
X5845713Y7595385D1*
X5857926Y7583312D1*
X5863963Y7565062D1*
Y7552989D1*
X5857926Y7534739D1*
X5845713Y7522525D1*
X5827463Y7516489D1*
X5809353D1*
X5791103Y7522525D1*
X5785067Y7528702D1*
X5778890Y7540775D1*
X3556654Y4095158D2*
X3556653Y4016121D1*
X3684263D1*
X3617440D2*
Y4064694D1*
X3556654Y4134374D2*
X3684263Y4134373D1*
Y4189123D1*
X3678086Y4207373D1*
X3672050Y4213410D1*
X3659977Y4219446D1*
X3641727D1*
X3629513Y4213410D1*
X3623477Y4207373D1*
X3617440Y4189123D1*
X3611263Y4207373D1*
X3605227Y4213410D1*
X3593154Y4219447D1*
X3580940D1*
X3568867Y4213410D1*
X3562690Y4207373D1*
X3556654Y4189124D1*
Y4134374D1*
X3617440Y4134373D2*
Y4189123D1*
X3581080Y4258662D2*
X3574904Y4270876D1*
X3556794Y4289126D1*
X3684263D1*
X10078221Y7317087D2*
Y7189477D1*
X10151080D1*
X10190296Y7292660D2*
X10202509Y7298837D1*
X10220759Y7316946D1*
Y7189477D1*
X4313194Y8851417D2*
Y8723807D1*
X4386054D1*
X4504165Y8851417D2*
X4425269D1*
Y8723807D1*
X4504165D1*
X4425269Y8790630D2*
X4473842D1*
X4634491Y8821094D2*
X4628454Y8833167D1*
X4616241Y8845380D1*
X4604168Y8851417D1*
X4579881D1*
X4567668Y8845380D1*
X4555595Y8833167D1*
X4549418Y8821094D1*
X4543381Y8802844D1*
Y8772380D1*
X4549418Y8754270D1*
X4555595Y8742057D1*
X4567668Y8729984D1*
X4579881Y8723807D1*
X4604168D1*
X4616241Y8729984D1*
X4628454Y8742057D1*
X4634491Y8754270D1*
Y8772380D1*
X4604168D1*
X4758779Y8833167D2*
X4746706Y8845380D1*
X4728456Y8851417D1*
X4704170D1*
X4685920Y8845380D1*
X4673706Y8833167D1*
Y8821094D1*
X4679883Y8808880D1*
X4685920Y8802844D1*
X4697993Y8796807D1*
X4734493Y8784594D1*
X4746706Y8778557D1*
X4752743Y8772380D1*
X4758779Y8760307D1*
Y8742057D1*
X4746706Y8729984D1*
X4728456Y8723807D1*
X4704170D1*
X4685920Y8729984D1*
X4673706Y8742057D1*
X3374876Y3943265D2*
X3362663Y3937228D1*
X3350590Y3925015D1*
X3344413Y3912942D1*
X3338376Y3894692D1*
Y3864228D1*
X3344413Y3846119D1*
X3350590Y3833905D1*
X3362663Y3821832D1*
X3374876Y3815655D1*
X3399163D1*
X3411236Y3821832D1*
X3423449Y3833905D1*
X3429486Y3846119D1*
X3435522Y3864228D1*
Y3894692D1*
X3429486Y3912942D1*
X3423449Y3925015D1*
X3411236Y3937228D1*
X3399163Y3943265D1*
X3374876D1*
X3474738Y3900728D2*
Y3773119D1*
Y3882478D2*
X3486951Y3894551D1*
X3499025Y3900728D1*
X3517275D1*
X3529488Y3894551D1*
X3541561Y3882478D1*
X3547738Y3864228D1*
Y3852015D1*
X3541561Y3833905D1*
X3529488Y3821692D1*
X3517275Y3815655D1*
X3499025D1*
X3486951Y3821692D1*
X3474738Y3833905D1*
X3586954Y3918838D2*
X3599167Y3925015D1*
X3617417Y3943125D1*
Y3815655D1*
X8202865Y2880945D2*
X8190651Y2874908D1*
X8178578Y2862695D1*
X8172401Y2850622D1*
X8166365Y2832372D1*
Y2801908D1*
X8172401Y2783799D1*
X8178578Y2771585D1*
X8190651Y2759512D1*
X8202865Y2753335D1*
X8227151D1*
X8239224Y2759512D1*
X8251438Y2771585D1*
X8257474Y2783799D1*
X8263511Y2801908D1*
Y2832372D1*
X8257474Y2850622D1*
X8251438Y2862695D1*
X8239224Y2874908D1*
X8227151Y2880945D1*
X8202865D1*
X8302727Y2838408D2*
Y2710799D1*
Y2820158D2*
X8314940Y2832231D1*
X8327013Y2838408D1*
X8345263D1*
X8357477Y2832231D1*
X8369550Y2820158D1*
X8375727Y2801908D1*
Y2789695D1*
X8369550Y2771585D1*
X8357477Y2759372D1*
X8345263Y2753335D1*
X8327013D1*
X8314940Y2759372D1*
X8302727Y2771585D1*
X8421119Y2850481D2*
Y2856518D1*
X8427156Y2868731D1*
X8433192Y2874768D1*
X8445406Y2880805D1*
X8469692D1*
X8481765Y2874768D1*
X8487802Y2868731D1*
X8493979Y2856518D1*
Y2844445D1*
X8487802Y2832231D1*
X8475729Y2814122D1*
X8414942Y2753335D1*
X8500015D1*
X5589443Y2787765D2*
X5577229Y2781728D1*
X5565156Y2769515D1*
X5558979Y2757442D1*
X5552943Y2739192D1*
Y2708728D1*
X5558979Y2690619D1*
X5565156Y2678405D1*
X5577229Y2666332D1*
X5589443Y2660155D1*
X5613729D1*
X5625802Y2666332D1*
X5638016Y2678405D1*
X5644052Y2690619D1*
X5650089Y2708728D1*
Y2739192D1*
X5644052Y2757442D1*
X5638016Y2769515D1*
X5625802Y2781728D1*
X5613729Y2787765D1*
X5589443D1*
X5689305Y2720942D2*
X5744055D1*
X5762164Y2726978D1*
X5768341Y2733155D1*
X5774378Y2745228D1*
Y2763478D1*
X5768341Y2775551D1*
X5762164Y2781728D1*
X5744055Y2787765D1*
X5689305D1*
Y2660155D1*
X5813593Y2639098D2*
X5928990D1*
X6053278Y2769515D2*
X6041205Y2781728D1*
X6022955Y2787765D1*
X5998669D1*
X5980419Y2781728D1*
X5968205Y2769515D1*
Y2757442D1*
X5974382Y2745228D1*
X5980419Y2739192D1*
X5992492Y2733155D1*
X6028992Y2720942D1*
X6041205Y2714905D1*
X6047242Y2708728D1*
X6053278Y2696655D1*
Y2678405D1*
X6041205Y2666332D1*
X6022955Y2660155D1*
X5998669D1*
X5980419Y2666332D1*
X5968205Y2678405D1*
X6092494Y2787765D2*
X6098531Y2781728D1*
X6104708Y2787765D1*
X6098531Y2793942D1*
X6092494Y2787765D1*
X6098531Y2745228D2*
Y2660155D1*
X6235033Y2757442D2*
X6228996Y2769515D1*
X6216783Y2781728D1*
X6204710Y2787765D1*
X6180423D1*
X6168210Y2781728D1*
X6156137Y2769515D1*
X6149960Y2757442D1*
X6143923Y2739192D1*
Y2708728D1*
X6149960Y2690619D1*
X6156137Y2678405D1*
X6168210Y2666332D1*
X6180423Y2660155D1*
X6204710D1*
X6216783Y2666332D1*
X6228996Y2678405D1*
X6235033Y2690619D1*
X6274249Y2639098D2*
X6389645D1*
X6428860Y2787765D2*
X6477433Y2660155D1*
X6526007Y2787765D1*
X6565222D2*
Y2660155D1*
Y2726978D2*
X6577436Y2739192D1*
X6589509Y2745228D1*
X6607759D1*
X6619832Y2739192D1*
X6632045Y2726978D1*
X6638082Y2708728D1*
Y2696655D1*
X6632045Y2678405D1*
X6619832Y2666332D1*
X6607759Y2660155D1*
X6589509D1*
X6577436Y2666332D1*
X6565222Y2678405D1*
X6677298Y2708728D2*
X6750157D1*
Y2720942D1*
X6744121Y2733155D1*
X6738084Y2739192D1*
X6725871Y2745228D1*
X6707621D1*
X6695548Y2739192D1*
X6683334Y2726978D1*
X6677298Y2708728D1*
Y2696655D1*
X6683334Y2678405D1*
X6695548Y2666332D1*
X6707621Y2660155D1*
X6725871D1*
X6738084Y2666332D1*
X6750157Y2678405D1*
X7598790Y8362984D2*
X7604686Y8350911D1*
X7616900Y8338698D1*
X7629113Y8332661D1*
X7647363Y8326484D1*
X7677686D1*
X7695936Y8332661D1*
X7708009Y8338698D1*
X7720223Y8350911D1*
X7726259Y8362984D1*
Y8387270D1*
X7720223Y8399484D1*
X7708009Y8411557D1*
X7695936Y8417594D1*
X7677686Y8423771D1*
X7647363D1*
X7629113Y8417594D1*
X7616900Y8411557D1*
X7604686Y8399484D1*
X7598790Y8387271D1*
Y8362984D1*
X7701973Y8381234D2*
X7738473Y8417593D1*
X7623217Y8462986D2*
X7617040Y8475200D1*
X7598931Y8493450D1*
X7726400D1*
X1587409Y7087150D2*
X1575336Y7081254D1*
X1563122Y7069040D1*
X1557086Y7056827D1*
X1550909Y7038577D1*
Y7008254D1*
X1557086Y6990004D1*
X1563122Y6977931D1*
X1575336Y6965717D1*
X1587409Y6959681D1*
X1611696D1*
X1623909Y6965717D1*
X1635982Y6977931D1*
X1642019Y6990004D1*
X1648196Y7008254D1*
Y7038577D1*
X1642019Y7056827D1*
X1635982Y7069040D1*
X1623909Y7081254D1*
X1611696Y7087150D1*
X1587409D1*
X1605659Y6983967D2*
X1642019Y6947467D1*
X1693588Y7056686D2*
Y7062723D1*
X1699625Y7074936D1*
X1705661Y7080973D1*
X1717875Y7087010D1*
X1742161D1*
X1754234Y7080973D1*
X1760271Y7074936D1*
X1766448Y7062723D1*
Y7050650D1*
X1760271Y7038436D1*
X1748198Y7020327D1*
X1687411Y6959540D1*
X1772484D1*
X2909386Y7732650D2*
X2897313Y7726754D1*
X2885099Y7714540D1*
X2879063Y7702327D1*
X2872886Y7684077D1*
Y7653754D1*
X2879063Y7635504D1*
X2885099Y7623431D1*
X2897313Y7611217D1*
X2909386Y7605181D1*
X2933672D1*
X2945886Y7611217D1*
X2957959Y7623431D1*
X2963995Y7635504D1*
X2970172Y7653754D1*
Y7684077D1*
X2963995Y7702327D1*
X2957959Y7714540D1*
X2945886Y7726754D1*
X2933672Y7732650D1*
X2909386D1*
X2927636Y7629467D2*
X2963995Y7592967D1*
X3021601Y7732510D2*
X3088284D1*
X3051924Y7683936D1*
X3070174D1*
X3082248Y7677900D1*
X3088284Y7671863D1*
X3094461Y7653613D1*
Y7641540D1*
X3088284Y7623290D1*
X3076211Y7611077D1*
X3057961Y7605040D1*
X3039711D1*
X3021601Y7611077D1*
X3015565Y7617254D1*
X3009388Y7629327D1*
X3537737Y7187123D2*
X3525664Y7181227D1*
X3513451Y7169014D1*
X3507414Y7156800D1*
X3501237Y7138550D1*
Y7108227D1*
X3507414Y7089977D1*
X3513451Y7077904D1*
X3525664Y7065691D1*
X3537737Y7059654D1*
X3562024D1*
X3574237Y7065691D1*
X3586310Y7077904D1*
X3592347Y7089977D1*
X3598524Y7108227D1*
Y7138550D1*
X3592347Y7156800D1*
X3586310Y7169014D1*
X3574237Y7181227D1*
X3562024Y7187123D1*
X3537737D1*
X3555987Y7083941D2*
X3592347Y7047441D1*
X3698526Y7059514D2*
Y7186983D1*
X3637740Y7102050D1*
X3728849D1*
X4348252Y6730307D2*
X4336179Y6724410D1*
X4323966Y6712197D1*
X4317929Y6699984D1*
X4311752Y6681734D1*
Y6651410D1*
X4317929Y6633160D1*
X4323966Y6621087D1*
X4336179Y6608874D1*
X4348252Y6602837D1*
X4372539D1*
X4384752Y6608874D1*
X4396825Y6621087D1*
X4402862Y6633160D1*
X4409039Y6651410D1*
Y6681734D1*
X4402862Y6699984D1*
X4396825Y6712197D1*
X4384752Y6724410D1*
X4372539Y6730307D1*
X4348252D1*
X4366502Y6627124D2*
X4402862Y6590624D1*
X4521114Y6730166D2*
X4460468D1*
X4454431Y6675557D1*
X4460468Y6681593D1*
X4478718Y6687770D1*
X4496828D1*
X4515078Y6681593D1*
X4527291Y6669520D1*
X4533328Y6651270D1*
Y6639197D1*
X4527291Y6620947D1*
X4515078Y6608734D1*
X4496828Y6602697D1*
X4478718D1*
X4460468Y6608734D1*
X4454431Y6614910D1*
X4448255Y6626984D1*
X10227663Y4523364D2*
X10233560Y4511291D1*
X10245773Y4499078D1*
X10257986Y4493041D1*
X10276236Y4486864D1*
X10306560D1*
X10324810Y4493041D1*
X10336883Y4499078D1*
X10349096Y4511291D1*
X10355133Y4523364D1*
Y4547651D1*
X10349096Y4559864D1*
X10336883Y4571937D1*
X10324810Y4577974D1*
X10306560Y4584151D1*
X10276237D1*
X10257987Y4577974D1*
X10245773Y4571937D1*
X10233560Y4559864D1*
X10227663Y4547651D1*
Y4523364D1*
X10330846Y4541614D2*
X10367346Y4577974D1*
X10245914Y4696226D2*
X10233840Y4690190D1*
X10227804Y4671940D1*
Y4659867D1*
X10233840Y4641617D1*
X10252090Y4629403D1*
X10282414Y4623367D1*
X10312737Y4623366D1*
X10337023Y4629403D1*
X10349237Y4641616D1*
X10355273Y4659866D1*
Y4665903D1*
X10349237Y4684013D1*
X10337023Y4696226D1*
X10318773Y4702263D1*
X10312737D1*
X10294487Y4696226D1*
X10282414Y4684013D1*
X10276377Y4665903D1*
Y4659866D1*
X10282414Y4641616D1*
X10294487Y4629403D1*
X10312737Y4623366D1*
X2151093Y3854253D2*
X2156990Y3842180D1*
X2169203Y3829966D1*
X2181416Y3823930D1*
X2199666Y3817753D1*
X2229990D1*
X2248240Y3823930D1*
X2260313Y3829966D1*
X2272526Y3842180D1*
X2278563Y3854253D1*
Y3878539D1*
X2272526Y3890752D1*
X2260313Y3902826D1*
X2248240Y3908862D1*
X2229990Y3915039D1*
X2199667D1*
X2181417Y3908862D1*
X2169203Y3902826D1*
X2156990Y3890753D1*
X2151093Y3878539D1*
Y3854253D1*
X2254276Y3872503D2*
X2290776Y3908862D1*
X2278703Y3978541D2*
X2151234Y4039328D1*
Y3954255D1*
X7510310Y7713514D2*
Y7768124D1*
X7504133Y7786374D1*
X7498097Y7792551D1*
X7486024Y7798587D1*
X7473810D1*
X7461737Y7792551D1*
X7455560Y7786374D1*
X7449523Y7768124D1*
Y7713514D1*
X7577133D1*
X7510310Y7756051D2*
X7577133Y7798587D1*
X7473950Y7837803D2*
X7467774Y7850016D1*
X7449664Y7868266D1*
X7577133D1*
X7280363Y7711063D2*
Y7765672D1*
X7274186Y7783922D1*
X7268150Y7790099D1*
X7256077Y7796136D1*
X7243863D1*
X7231790Y7790099D1*
X7225613Y7783922D1*
X7219577Y7765672D1*
Y7711063D1*
X7347186D1*
X7280363Y7753599D2*
X7347186Y7796136D1*
X7250040Y7841528D2*
X7244004D1*
X7231790Y7847565D1*
X7225754Y7853601D1*
X7219717Y7865815D1*
Y7890101D1*
X7225754Y7902174D1*
X7231790Y7908211D1*
X7244004Y7914388D1*
X7256077D1*
X7268290Y7908211D1*
X7286400Y7896138D1*
X7347186Y7835351D1*
Y7920424D1*
X4258306Y4752600D2*
X4312915D1*
X4331165Y4758777D1*
X4337342Y4764814D1*
X4343379Y4776887D1*
Y4789100D1*
X4337342Y4801173D1*
X4331165Y4807350D1*
X4312915Y4813387D1*
X4258306D1*
Y4685777D1*
X4300842Y4752600D2*
X4343379Y4685777D1*
X4394808Y4813246D2*
X4461491D1*
X4425131Y4764673D1*
X4443381D1*
X4455454Y4758637D1*
X4461491Y4752600D1*
X4467668Y4734350D1*
Y4722277D1*
X4461491Y4704027D1*
X4449418Y4691814D1*
X4431168Y4685777D1*
X4412918D1*
X4394808Y4691814D1*
X4388771Y4697990D1*
X4382595Y4710064D1*
X1803181Y4055187D2*
X1857790D1*
X1876040Y4061364D1*
X1882217Y4067400D1*
X1888254Y4079473D1*
Y4091687D1*
X1882217Y4103760D1*
X1876040Y4109937D1*
X1857790Y4115973D1*
X1803181D1*
Y3988364D1*
X1845717Y4055187D2*
X1888254Y3988364D1*
X1988256D2*
Y4115833D1*
X1927470Y4030900D1*
X2018579D1*
X2143526Y5749530D2*
X2198135D1*
X2216385Y5755707D1*
X2222562Y5761744D1*
X2228599Y5773817D1*
Y5786030D1*
X2222562Y5798103D1*
X2216385Y5804280D1*
X2198135Y5810317D1*
X2143526D1*
Y5682707D1*
X2186062Y5749530D2*
X2228599Y5682707D1*
X2340674Y5810176D2*
X2280028D1*
X2273991Y5755567D1*
X2280028Y5761603D1*
X2298278Y5767780D1*
X2316388D1*
X2334638Y5761603D1*
X2346851Y5749530D1*
X2352888Y5731280D1*
Y5719207D1*
X2346851Y5700957D1*
X2334638Y5688744D1*
X2316388Y5682707D1*
X2298278D1*
X2280028Y5688744D1*
X2273991Y5694920D1*
X2267815Y5706994D1*
X1439458Y4057770D2*
X1494067D1*
X1512317Y4063947D1*
X1518494Y4069984D1*
X1524531Y4082057D1*
Y4094270D1*
X1518494Y4106343D1*
X1512317Y4112520D1*
X1494067Y4118557D1*
X1439458D1*
Y3990947D1*
X1481994Y4057770D2*
X1524531Y3990947D1*
X1636606Y4100307D2*
X1630569Y4112380D1*
X1612319Y4118416D1*
X1600246D1*
X1581996Y4112380D1*
X1569783Y4094130D1*
X1563746Y4063807D1*
Y4033484D1*
X1569783Y4009197D1*
X1581996Y3996984D1*
X1600246Y3990947D1*
X1606283D1*
X1624392Y3996984D1*
X1636606Y4009197D1*
X1642642Y4027447D1*
Y4033484D1*
X1636606Y4051734D1*
X1624392Y4063807D1*
X1606283Y4069843D1*
X1600246D1*
X1581996Y4063807D1*
X1569783Y4051734D1*
X1563746Y4033484D1*
X3398893Y7164043D2*
Y7218652D1*
X3392716Y7236902D1*
X3386680Y7243079D1*
X3374607Y7249116D1*
X3362393D1*
X3350320Y7243079D1*
X3344143Y7236902D1*
X3338107Y7218652D1*
Y7164043D1*
X3465716D1*
X3398893Y7206579D2*
X3465716Y7249116D1*
Y7312618D2*
X3338247Y7373404D1*
Y7288331D1*
X1861933Y7752817D2*
X1916542D1*
X1934792Y7758994D1*
X1940969Y7765030D1*
X1947006Y7777103D1*
Y7789317D1*
X1940969Y7801390D1*
X1934792Y7807567D1*
X1916542Y7813603D1*
X1861933D1*
Y7685994D1*
X1904469Y7752817D2*
X1947006Y7685994D1*
X2016544Y7813463D2*
X1998435Y7807426D1*
X1992258Y7795353D1*
Y7783140D1*
X1998435Y7771067D1*
X2010508Y7764890D1*
X2034794Y7758853D1*
X2053044Y7752817D1*
X2065118Y7740603D1*
X2071154Y7728530D1*
Y7710280D1*
X2065118Y7698207D1*
X2059081Y7692030D1*
X2040831Y7685994D1*
X2016544D1*
X1998435Y7692030D1*
X1992258Y7698207D1*
X1986221Y7710280D1*
Y7728530D1*
X1992258Y7740603D1*
X2004471Y7752817D1*
X2022581Y7758853D1*
X2046868Y7764890D1*
X2059081Y7771067D1*
X2065118Y7783140D1*
Y7795353D1*
X2059081Y7807426D1*
X2040831Y7813463D1*
X2016544D1*
X2743607Y6713541D2*
Y6768151D1*
X2737430Y6786401D1*
X2731393Y6792577D1*
X2719320Y6798614D1*
X2707107D1*
X2695034Y6792577D1*
X2688857Y6786401D1*
X2682820Y6768151D1*
Y6713541D1*
X2810430D1*
X2743607Y6756078D2*
X2810430Y6798614D1*
X2725357Y6916866D2*
X2743607Y6910689D1*
X2755820Y6898616D1*
X2761857Y6880366D1*
Y6874330D1*
X2755820Y6856080D1*
X2743607Y6844007D1*
X2725357Y6837830D1*
X2719320D1*
X2701070Y6844007D1*
X2688997Y6856080D1*
X2682961Y6874330D1*
Y6880366D1*
X2688997Y6898616D1*
X2701070Y6910689D1*
X2725357Y6916866D1*
X2755820D1*
X2786143Y6910689D1*
X2804393Y6898616D1*
X2810430Y6880366D1*
Y6868293D1*
X2804393Y6850043D1*
X2792180Y6844006D1*
X2473956Y7567837D2*
X2528566D1*
X2546816Y7574014D1*
X2552993Y7580050D1*
X2559029Y7592123D1*
Y7604337D1*
X2552993Y7616410D1*
X2546816Y7622587D1*
X2528566Y7628623D1*
X2473956D1*
Y7501014D1*
X2516493Y7567837D2*
X2559029Y7501014D1*
X2598245Y7604196D2*
X2610458Y7610373D1*
X2628708Y7628483D1*
Y7501014D1*
X2704424Y7628483D2*
X2686174Y7622446D1*
X2673961Y7604196D1*
X2667924Y7573873D1*
Y7555623D1*
X2673961Y7525300D1*
X2686174Y7507050D1*
X2704424Y7501014D1*
X2716497D1*
X2734747Y7507050D1*
X2746820Y7525300D1*
X2752997Y7555623D1*
Y7573873D1*
X2746820Y7604196D1*
X2734747Y7622446D1*
X2716497Y7628483D1*
X2704424D1*
X2746820Y7604196D2*
X2673961Y7525300D1*
X3851891Y7629653D2*
X3906501D1*
X3924751Y7635830D1*
X3930928Y7641867D1*
X3936964Y7653940D1*
Y7666153D1*
X3930928Y7678226D1*
X3924751Y7684403D1*
X3906501Y7690440D1*
X3851891D1*
Y7562830D1*
X3894428Y7629653D2*
X3936964Y7562830D1*
X3976180Y7666013D2*
X3988393Y7672190D1*
X4006643Y7690300D1*
Y7562830D1*
X4045859Y7666013D2*
X4058072Y7672190D1*
X4076322Y7690300D1*
Y7562830D1*
X1906813Y7381493D2*
X1961422D1*
X1979672Y7387670D1*
X1985849Y7393707D1*
X1991886Y7405780D1*
Y7417993D1*
X1985849Y7430066D1*
X1979672Y7436243D1*
X1961422Y7442280D1*
X1906813D1*
Y7314670D1*
X1949349Y7381493D2*
X1991886Y7314670D1*
X2031102Y7417853D2*
X2043315Y7424030D1*
X2061565Y7442140D1*
Y7314670D1*
X2106958Y7411816D2*
Y7417853D1*
X2112994Y7430066D1*
X2119031Y7436103D1*
X2131244Y7442140D1*
X2155531D1*
X2167604Y7436103D1*
X2173640Y7430066D1*
X2179817Y7417853D1*
Y7405780D1*
X2173640Y7393566D1*
X2161567Y7375457D1*
X2100781Y7314670D1*
X2185854D1*
X4062390Y7976840D2*
Y8031449D1*
X4056213Y8049699D1*
X4050177Y8055876D1*
X4038104Y8061913D1*
X4025890D1*
X4013817Y8055876D1*
X4007640Y8049699D1*
X4001603Y8031449D1*
Y7976840D1*
X4129213D1*
X4062390Y8019376D2*
X4129213Y8061913D1*
X4026030Y8101128D2*
X4019854Y8113342D1*
X4001744Y8131592D1*
X4129213D1*
X4001744Y8183021D2*
Y8249704D1*
X4050317Y8213344D1*
Y8231594D1*
X4056354Y8243667D1*
X4062390Y8249704D1*
X4080640Y8255881D1*
X4092713D1*
X4110963Y8249704D1*
X4123177Y8237631D1*
X4129213Y8219381D1*
Y8201131D1*
X4123177Y8183021D1*
X4117000Y8176984D1*
X4104927Y8170807D1*
X2320991Y6969960D2*
X2375601D1*
X2393851Y6976137D1*
X2400028Y6982174D1*
X2406064Y6994247D1*
Y7006460D1*
X2400028Y7018533D1*
X2393851Y7024710D1*
X2375601Y7030747D1*
X2320991D1*
Y6903137D1*
X2363528Y6969960D2*
X2406064Y6903137D1*
X2445280Y7006320D2*
X2457493Y7012497D1*
X2475743Y7030606D1*
Y6903137D1*
X2575746D2*
Y7030606D1*
X2514959Y6945674D1*
X2606069D1*
X2132593Y6126323D2*
Y6180933D1*
X2126416Y6199183D1*
X2120380Y6205360D1*
X2108307Y6211396D1*
X2096093D1*
X2084020Y6205360D1*
X2077843Y6199183D1*
X2071807Y6180933D1*
Y6126323D1*
X2199416D1*
X2132593Y6168860D2*
X2199416Y6211396D1*
X2096234Y6250612D2*
X2090057Y6262825D1*
X2071947Y6281075D1*
X2199416D1*
X2071947Y6393150D2*
Y6332504D1*
X2126557Y6326468D1*
X2120520Y6332504D1*
X2114343Y6350754D1*
Y6368864D1*
X2120520Y6387114D1*
X2132593Y6399327D1*
X2150843Y6405364D1*
X2162916D1*
X2181166Y6399327D1*
X2193380Y6387114D1*
X2199416Y6368864D1*
Y6350754D1*
X2193380Y6332504D1*
X2187203Y6326468D1*
X2175130Y6320291D1*
X1747883Y6481298D2*
Y6535908D1*
X1741706Y6554158D1*
X1735670Y6560335D1*
X1723597Y6566371D1*
X1711383D1*
X1699310Y6560335D1*
X1693133Y6554158D1*
X1687097Y6535908D1*
Y6481298D1*
X1814706D1*
X1747883Y6523835D2*
X1814706Y6566371D1*
X1711524Y6605587D2*
X1705347Y6617800D1*
X1687237Y6636050D1*
X1814706D1*
X1705347Y6748126D2*
X1693274Y6742089D1*
X1687237Y6723839D1*
Y6711766D1*
X1693274Y6693516D1*
X1711524Y6681303D1*
X1741847Y6675266D1*
X1772170D1*
X1796456Y6681302D1*
X1808670Y6693516D1*
X1814706Y6711766D1*
Y6717802D1*
X1808670Y6735912D1*
X1796456Y6748126D1*
X1778206Y6754162D1*
X1772170D1*
X1753920Y6748126D1*
X1741847Y6735912D1*
X1735810Y6717802D1*
Y6711766D1*
X1741847Y6693516D1*
X1753920Y6681302D1*
X1772170Y6675266D1*
X4746787Y7156770D2*
Y7211379D1*
X4740610Y7229629D1*
X4734573Y7235806D1*
X4722500Y7241843D1*
X4710287D1*
X4698214Y7235806D1*
X4692037Y7229629D1*
X4686000Y7211379D1*
Y7156770D1*
X4813610D1*
X4746787Y7199306D2*
X4813610Y7241843D1*
X4710427Y7281058D2*
X4704250Y7293272D1*
X4686141Y7311522D1*
X4813610D1*
Y7375024D2*
X4686141Y7435811D1*
Y7350738D1*
X2182110Y8540577D2*
X2236719D1*
X2254969Y8546754D1*
X2261146Y8552790D1*
X2267183Y8564863D1*
Y8577077D1*
X2261146Y8589150D1*
X2254969Y8595327D1*
X2236719Y8601363D1*
X2182110D1*
Y8473754D1*
X2224646Y8540577D2*
X2267183Y8473754D1*
X2306398Y8576936D2*
X2318612Y8583113D1*
X2336862Y8601223D1*
Y8473754D1*
X2406401Y8601223D2*
X2388291Y8595186D1*
X2382114Y8583113D1*
Y8570900D1*
X2388291Y8558827D1*
X2400364Y8552650D1*
X2424651Y8546613D1*
X2442901Y8540577D1*
X2454974Y8528363D1*
X2461010Y8516290D1*
Y8498040D1*
X2454974Y8485967D1*
X2448937Y8479790D1*
X2430687Y8473754D1*
X2406401D1*
X2388291Y8479790D1*
X2382114Y8485967D1*
X2376078Y8498040D1*
Y8516290D1*
X2382114Y8528363D1*
X2394328Y8540577D1*
X2412437Y8546613D1*
X2436724Y8552650D1*
X2448937Y8558827D1*
X2454974Y8570900D1*
Y8583113D1*
X2448937Y8595186D1*
X2430687Y8601223D1*
X2406401D1*
X3751401Y6289430D2*
X3806011D1*
X3824261Y6295607D1*
X3830438Y6301644D1*
X3836474Y6313717D1*
Y6325930D1*
X3830438Y6338003D1*
X3824261Y6344180D1*
X3806011Y6350217D1*
X3751401D1*
Y6222607D1*
X3793938Y6289430D2*
X3836474Y6222607D1*
X3875690Y6325790D2*
X3887903Y6331967D1*
X3906153Y6350076D1*
Y6222607D1*
X4024406Y6307680D2*
X4018229Y6289430D1*
X4006156Y6277217D1*
X3987906Y6271180D1*
X3981869D1*
X3963619Y6277217D1*
X3951546Y6289430D1*
X3945369Y6307680D1*
Y6313717D1*
X3951546Y6331967D1*
X3963619Y6344040D1*
X3981869Y6350076D1*
X3987906D1*
X4006156Y6344040D1*
X4018229Y6331967D1*
X4024406Y6307680D1*
Y6277217D1*
X4018229Y6246894D1*
X4006156Y6228644D1*
X3987906Y6222607D1*
X3975832D1*
X3957582Y6228644D1*
X3951546Y6240857D1*
X8252661Y7470500D2*
X8307271D1*
X8325521Y7476677D1*
X8331698Y7482714D1*
X8337734Y7494787D1*
Y7507000D1*
X8331698Y7519073D1*
X8325521Y7525250D1*
X8307271Y7531287D1*
X8252661D1*
Y7403677D1*
X8295198Y7470500D2*
X8337734Y7403677D1*
X8383127Y7500823D2*
Y7506860D1*
X8389164Y7519073D1*
X8395200Y7525110D1*
X8407414Y7531146D1*
X8431700D1*
X8443773Y7525110D1*
X8449810Y7519073D1*
X8455987Y7506860D1*
Y7494787D1*
X8449810Y7482573D1*
X8437737Y7464464D1*
X8376950Y7403677D1*
X8462023D1*
X8537739Y7531146D2*
X8519489Y7525110D1*
X8507275Y7506860D1*
X8501239Y7476537D1*
Y7458287D1*
X8507275Y7427964D1*
X8519489Y7409714D1*
X8537739Y7403677D1*
X8549812D1*
X8568062Y7409714D1*
X8580135Y7427964D1*
X8586312Y7458287D1*
Y7476537D1*
X8580135Y7506860D1*
X8568062Y7525110D1*
X8549812Y7531146D1*
X8537739D1*
X8580135Y7506860D2*
X8507275Y7427964D1*
X8930546Y8328393D2*
X8985156D1*
X9003406Y8334570D1*
X9009583Y8340607D1*
X9015619Y8352680D1*
Y8364893D1*
X9009583Y8376966D1*
X9003406Y8383143D1*
X8985156Y8389180D1*
X8930546D1*
Y8261570D1*
X8973083Y8328393D2*
X9015619Y8261570D1*
X9061012Y8358716D2*
Y8364753D1*
X9067048Y8376966D1*
X9073085Y8383003D1*
X9085298Y8389040D1*
X9109585D1*
X9121658Y8383003D1*
X9127695Y8376966D1*
X9133871Y8364753D1*
Y8352680D1*
X9127695Y8340466D1*
X9115621Y8322357D1*
X9054835Y8261570D1*
X9139908D1*
X9179124Y8364753D2*
X9191337Y8370930D1*
X9209587Y8389040D1*
Y8261570D1*
X8687193Y8068628D2*
Y8123238D1*
X8681016Y8141488D1*
X8674980Y8147665D1*
X8662907Y8153701D1*
X8650693D1*
X8638620Y8147665D1*
X8632443Y8141488D1*
X8626407Y8123238D1*
Y8068628D1*
X8754016D1*
X8687193Y8111165D2*
X8754016Y8153701D1*
X8656870Y8199094D2*
X8650834D1*
X8638620Y8205130D1*
X8632584Y8211167D1*
X8626547Y8223380D1*
Y8247667D1*
X8632584Y8259740D1*
X8638620Y8265777D1*
X8650834Y8271953D1*
X8662907D1*
X8675120Y8265777D1*
X8693230Y8253703D1*
X8754016Y8192917D1*
Y8277990D1*
X8656870Y8323383D2*
X8650834D1*
X8638620Y8329419D1*
X8632584Y8335456D1*
X8626547Y8347669D1*
Y8371956D1*
X8632584Y8384029D1*
X8638620Y8390065D1*
X8650834Y8396242D1*
X8662907D1*
X8675120Y8390065D1*
X8693230Y8377992D1*
X8754016Y8317206D1*
Y8402279D1*
X7386908Y7450003D2*
X7441518D1*
X7459768Y7456180D1*
X7465945Y7462217D1*
X7471981Y7474290D1*
Y7486503D1*
X7465945Y7498576D1*
X7459768Y7504753D1*
X7441518Y7510790D1*
X7386908D1*
Y7383180D1*
X7429445Y7450003D2*
X7471981Y7383180D1*
X7517374Y7480326D2*
Y7486363D1*
X7523410Y7498576D1*
X7529447Y7504613D1*
X7541660Y7510650D1*
X7565947D1*
X7578020Y7504613D1*
X7584056Y7498576D1*
X7590233Y7486363D1*
Y7474290D1*
X7584056Y7462076D1*
X7571983Y7443967D1*
X7511197Y7383180D1*
X7596270D1*
X7647699Y7510650D2*
X7714382D1*
X7678022Y7462076D1*
X7696272D1*
X7708345Y7456040D1*
X7714382Y7450003D1*
X7720559Y7431753D1*
Y7419680D1*
X7714382Y7401430D1*
X7702309Y7389217D1*
X7684059Y7383180D1*
X7665809D1*
X7647699Y7389217D1*
X7641662Y7395394D1*
X7635486Y7407467D1*
X4705220Y3426343D2*
X4759829D1*
X4778079Y3432520D1*
X4784256Y3438557D1*
X4790293Y3450630D1*
Y3462843D1*
X4784256Y3474916D1*
X4778079Y3481093D1*
X4759829Y3487130D1*
X4705220D1*
Y3359520D1*
X4747756Y3426343D2*
X4790293Y3359520D1*
X4835685Y3456666D2*
Y3462703D1*
X4841722Y3474916D1*
X4847759Y3480953D1*
X4859972Y3486990D1*
X4884259D1*
X4896332Y3480953D1*
X4902368Y3474916D1*
X4908545Y3462703D1*
Y3450630D1*
X4902368Y3438416D1*
X4890295Y3420307D1*
X4829509Y3359520D1*
X4914582D1*
X5014584D2*
Y3486990D1*
X4953797Y3402057D1*
X5044907D1*
X4048197Y2820448D2*
Y2875058D1*
X4042020Y2893308D1*
X4035983Y2899485D1*
X4023910Y2905521D1*
X4011697D1*
X3999624Y2899485D1*
X3993447Y2893308D1*
X3987410Y2875058D1*
Y2820448D1*
X4115020D1*
X4048197Y2862985D2*
X4115020Y2905521D1*
X4017874Y2950914D2*
X4011837D1*
X3999624Y2956950D1*
X3993587Y2962987D1*
X3987551Y2975200D1*
Y2999487D1*
X3993587Y3011560D1*
X3999624Y3017597D1*
X4011837Y3023773D1*
X4023910D1*
X4036124Y3017597D1*
X4054233Y3005523D1*
X4115020Y2944737D1*
Y3029810D1*
X3987551Y3141885D2*
Y3081239D1*
X4042160Y3075203D1*
X4036124Y3081239D1*
X4029947Y3099489D1*
Y3117599D1*
X4036124Y3135849D1*
X4048197Y3148062D1*
X4066447Y3154099D1*
X4078520D1*
X4096770Y3148062D1*
X4108983Y3135849D1*
X4115020Y3117599D1*
Y3099489D1*
X4108983Y3081239D1*
X4102806Y3075202D1*
X4090733Y3069026D1*
X4271080Y2643537D2*
Y2698146D1*
X4264903Y2716396D1*
X4258867Y2722573D1*
X4246794Y2728610D1*
X4234580D1*
X4222507Y2722573D1*
X4216330Y2716396D1*
X4210293Y2698146D1*
Y2643537D1*
X4337903D1*
X4271080Y2686073D2*
X4337903Y2728610D1*
X4240757Y2774002D2*
X4234720D1*
X4222507Y2780039D1*
X4216470Y2786075D1*
X4210434Y2798289D1*
Y2822575D1*
X4216470Y2834648D1*
X4222507Y2840685D1*
X4234720Y2846862D1*
X4246794D1*
X4259007Y2840685D1*
X4277117Y2828612D1*
X4337903Y2767825D1*
Y2852898D1*
X4228544Y2964974D2*
X4216470Y2958937D1*
X4210434Y2940687D1*
Y2928614D1*
X4216470Y2910364D1*
X4234720Y2898151D1*
X4265044Y2892114D1*
X4295367D1*
X4319653Y2898151D1*
X4331867Y2910364D1*
X4337903Y2928614D1*
Y2934651D1*
X4331867Y2952760D1*
X4319653Y2964974D1*
X4301403Y2971010D1*
X4295367D1*
X4277117Y2964974D1*
X4265043Y2952760D1*
X4259007Y2934651D1*
Y2928614D1*
X4265044Y2910364D1*
X4277117Y2898151D1*
X4295367Y2892114D1*
X4634250Y2963082D2*
Y3017691D1*
X4628073Y3035941D1*
X4622037Y3042118D1*
X4609964Y3048155D1*
X4597750D1*
X4585677Y3042118D1*
X4579500Y3035941D1*
X4573463Y3017691D1*
Y2963082D1*
X4701073D1*
X4634250Y3005618D2*
X4701073Y3048155D1*
X4603927Y3093547D2*
X4597890D1*
X4585677Y3099584D1*
X4579640Y3105620D1*
X4573604Y3117834D1*
Y3142120D1*
X4579640Y3154193D1*
X4585677Y3160230D1*
X4597890Y3166407D1*
X4609964D1*
X4622177Y3160230D1*
X4640287Y3148157D1*
X4701073Y3087370D1*
Y3172443D1*
Y3235945D2*
X4573604Y3296732D1*
Y3211659D1*
X3022367Y3820089D2*
Y3874698D1*
X3016190Y3892948D1*
X3010153Y3899125D1*
X2998080Y3905162D1*
X2985867D1*
X2973794Y3899125D1*
X2967617Y3892948D1*
X2961580Y3874698D1*
Y3820089D1*
X3089190D1*
X3022367Y3862625D2*
X3089190Y3905161D1*
X2992044Y3950554D2*
X2986007D1*
X2973794Y3956591D1*
X2967757Y3962627D1*
X2961721Y3974841D1*
Y3999127D1*
X2967757Y4011200D1*
X2973794Y4017237D1*
X2986007Y4023414D1*
X2998080D1*
X3010294Y4017237D1*
X3028403Y4005164D1*
X3089190Y3944377D1*
Y4029450D1*
X2961721Y4098989D2*
X2967757Y4080879D1*
X2979830Y4074702D1*
X2992044D1*
X3004117Y4080879D1*
X3010294Y4092952D1*
X3016330Y4117239D1*
X3022367Y4135489D1*
X3034580Y4147562D1*
X3046653Y4153598D1*
X3064903D1*
X3076976Y4147562D1*
X3083153Y4141525D1*
X3089190Y4123275D1*
Y4098989D1*
X3083153Y4080879D1*
X3076976Y4074702D1*
X3064903Y4068666D1*
X3046653D1*
X3034580Y4074702D1*
X3022367Y4086916D1*
X3016330Y4105025D1*
X3010294Y4129312D1*
X3004117Y4141525D1*
X2992044Y4147562D1*
X2979830D1*
X2967757Y4141525D1*
X2961721Y4123275D1*
Y4098989D1*
X1614913Y3635077D2*
X1669523D1*
X1687773Y3641254D1*
X1693950Y3647290D1*
X1699986Y3659363D1*
Y3671577D1*
X1693950Y3683650D1*
X1687773Y3689827D1*
X1669523Y3695863D1*
X1614913D1*
Y3568254D1*
X1657450Y3635077D2*
X1699986Y3568254D1*
X1745379Y3665400D2*
Y3671436D1*
X1751415Y3683650D1*
X1757452Y3689686D1*
X1769665Y3695723D1*
X1793952D1*
X1806025Y3689686D1*
X1812061Y3683650D1*
X1818238Y3671436D1*
Y3659363D1*
X1812061Y3647150D1*
X1799988Y3629040D1*
X1739202Y3568254D1*
X1824275D1*
X1942527Y3653327D2*
X1936350Y3635077D1*
X1924277Y3622863D1*
X1906027Y3616827D1*
X1899990D1*
X1881740Y3622863D1*
X1869667Y3635077D1*
X1863490Y3653327D1*
Y3659363D1*
X1869667Y3677613D1*
X1881740Y3689686D1*
X1899990Y3695723D1*
X1906027D1*
X1924277Y3689686D1*
X1936350Y3677613D1*
X1942527Y3653327D1*
Y3622863D1*
X1936350Y3592540D1*
X1924277Y3574290D1*
X1906027Y3568254D1*
X1893954D1*
X1875704Y3574290D1*
X1869667Y3586504D1*
X1938927Y1585385D2*
Y1639995D1*
X1932750Y1658245D1*
X1926713Y1664421D1*
X1914640Y1670458D1*
X1902427D1*
X1890354Y1664422D1*
X1884177Y1658245D1*
X1878140Y1639995D1*
Y1585385D1*
X2005750D1*
X1938927Y1627922D2*
X2005750Y1670458D1*
X1878281Y1721887D2*
Y1788570D1*
X1926854Y1752210D1*
Y1770460D1*
X1932890Y1782533D1*
X1938927Y1788570D1*
X1957177Y1794747D1*
X1969250D1*
X1987500Y1788570D1*
X1999713Y1776497D1*
X2005750Y1758247D1*
Y1739997D1*
X1999713Y1721887D1*
X1993536Y1715850D1*
X1981463Y1709674D1*
X1878281Y1870462D2*
X1884317Y1852212D1*
X1902567Y1839999D1*
X1932890Y1833962D1*
X1951140D1*
X1981463Y1839999D1*
X1999713Y1852212D1*
X2005750Y1870462D1*
Y1882535D1*
X1999713Y1900785D1*
X1981463Y1912858D1*
X1951140Y1919035D1*
X1932890D1*
X1902567Y1912858D1*
X1884317Y1900785D1*
X1878281Y1882535D1*
Y1870462D1*
X1902567Y1912858D2*
X1981463Y1839999D1*
X2866053Y2583407D2*
X2920662D1*
X2938912Y2589584D1*
X2945089Y2595620D1*
X2951126Y2607693D1*
Y2619907D1*
X2945089Y2631980D1*
X2938912Y2638157D1*
X2920662Y2644193D1*
X2866053D1*
Y2516584D1*
X2908589Y2583407D2*
X2951126Y2516584D1*
X3002555Y2644053D2*
X3069238D1*
X3032878Y2595480D1*
X3051128D1*
X3063201Y2589443D1*
X3069238Y2583407D1*
X3075415Y2565157D1*
Y2553084D1*
X3069238Y2534834D1*
X3057165Y2522620D1*
X3038915Y2516584D1*
X3020665D1*
X3002555Y2522620D1*
X2996519Y2528797D1*
X2990342Y2540870D1*
X3114630Y2619766D2*
X3126844Y2625943D1*
X3145094Y2644053D1*
Y2516584D1*
X6648870Y1343332D2*
Y1397941D1*
X6642693Y1416191D1*
X6636657Y1422368D1*
X6624584Y1428405D1*
X6612370D1*
X6600297Y1422368D1*
X6594120Y1416191D1*
X6588083Y1397941D1*
Y1343332D1*
X6715693D1*
X6648870Y1385868D2*
X6715693Y1428405D1*
X6588224Y1479834D2*
Y1546516D1*
X6636797Y1510157D1*
Y1528407D1*
X6642834Y1540480D1*
X6648870Y1546516D1*
X6667120Y1552693D1*
X6679193D1*
X6697443Y1546516D1*
X6709657Y1534443D1*
X6715693Y1516193D1*
Y1497943D1*
X6709657Y1479834D1*
X6703480Y1473797D1*
X6691407Y1467620D1*
X6618547Y1598086D2*
X6612510D1*
X6600297Y1604122D1*
X6594260Y1610159D1*
X6588224Y1622372D1*
Y1646659D1*
X6594260Y1658732D1*
X6600297Y1664769D1*
X6612510Y1670945D1*
X6624584D1*
X6636797Y1664769D1*
X6654907Y1652695D1*
X6715693Y1591909D1*
Y1676982D1*
X6845130Y2335675D2*
Y2390285D1*
X6838953Y2408535D1*
X6832917Y2414711D1*
X6820844Y2420748D1*
X6808630D1*
X6796557Y2414712D1*
X6790380Y2408535D1*
X6784343Y2390285D1*
Y2335675D1*
X6911953D1*
X6845130Y2378212D2*
X6911953Y2420748D1*
X6784484Y2472177D2*
Y2538860D1*
X6833057Y2502500D1*
Y2520750D1*
X6839094Y2532823D1*
X6845130Y2538860D1*
X6863380Y2545037D1*
X6875453D1*
X6893703Y2538860D1*
X6905917Y2526787D1*
X6911953Y2508537D1*
Y2490287D1*
X6905917Y2472177D1*
X6899740Y2466140D1*
X6887667Y2459964D1*
X6784484Y2596466D2*
Y2663148D1*
X6833057Y2626789D1*
Y2645039D1*
X6839093Y2657112D1*
X6845130Y2663148D1*
X6863380Y2669325D1*
X6875453D1*
X6893703Y2663148D1*
X6905917Y2651075D1*
X6911953Y2632825D1*
Y2614575D1*
X6905917Y2596466D1*
X6899740Y2590429D1*
X6887667Y2584252D1*
X5705470Y1819827D2*
X5760079D1*
X5778329Y1826004D1*
X5784506Y1832040D1*
X5790543Y1844113D1*
Y1856327D1*
X5784506Y1868400D1*
X5778329Y1874577D1*
X5760079Y1880613D1*
X5705470D1*
Y1753004D1*
X5748006Y1819827D2*
X5790543Y1753004D1*
X5841972Y1880473D2*
X5908655D1*
X5872295Y1831900D1*
X5890545D1*
X5902618Y1825863D1*
X5908655Y1819827D1*
X5914832Y1801577D1*
Y1789504D1*
X5908655Y1771254D1*
X5896582Y1759040D1*
X5878332Y1753004D1*
X5860082D1*
X5841972Y1759040D1*
X5835935Y1765217D1*
X5829759Y1777290D1*
X6014834Y1753004D2*
Y1880473D1*
X5954047Y1795540D1*
X6045157D1*
X9317221Y2480993D2*
X9371831D1*
X9390081Y2487170D1*
X9396258Y2493207D1*
X9402294Y2505280D1*
Y2517493D1*
X9396258Y2529566D1*
X9390081Y2535743D1*
X9371831Y2541780D1*
X9317221D1*
Y2414170D1*
X9359758Y2480993D2*
X9402294Y2414170D1*
X9453724Y2541640D2*
X9520406D1*
X9484047Y2493066D1*
X9502297D1*
X9514370Y2487030D1*
X9520406Y2480993D1*
X9526583Y2462743D1*
Y2450670D1*
X9520406Y2432420D1*
X9508333Y2420207D1*
X9490083Y2414170D1*
X9471833D1*
X9453724Y2420207D1*
X9447687Y2426384D1*
X9441510Y2438457D1*
X9638659Y2541640D2*
X9578012D1*
X9571976Y2487030D1*
X9578012Y2493066D1*
X9596262Y2499243D1*
X9614372D1*
X9632622Y2493066D1*
X9644835Y2480993D1*
X9650872Y2462743D1*
Y2450670D1*
X9644835Y2432420D1*
X9632622Y2420207D1*
X9614372Y2414170D1*
X9596262D1*
X9578012Y2420207D1*
X9571976Y2426384D1*
X9565799Y2438457D1*
X9034130Y1653380D2*
Y1707990D1*
X9027953Y1726240D1*
X9021917Y1732417D1*
X9009844Y1738453D1*
X8997630D1*
X8985557Y1732417D1*
X8979380Y1726240D1*
X8973343Y1707990D1*
Y1653380D1*
X9100953D1*
X9034130Y1695917D2*
X9100953Y1738453D1*
X8973484Y1789882D2*
Y1856565D1*
X9022057Y1820205D1*
Y1838455D1*
X9028094Y1850528D1*
X9034130Y1856565D1*
X9052380Y1862742D1*
X9064453D1*
X9082703Y1856565D1*
X9094917Y1844492D1*
X9100953Y1826242D1*
Y1807992D1*
X9094917Y1789882D1*
X9088740Y1783846D1*
X9076667Y1777669D1*
X8991594Y1974817D2*
X8979520Y1968781D1*
X8973484Y1950531D1*
Y1938457D1*
X8979520Y1920207D1*
X8997770Y1907994D1*
X9028094Y1901957D1*
X9058417D1*
X9082703Y1907994D1*
X9094917Y1920207D1*
X9100953Y1938457D1*
Y1944494D1*
X9094917Y1962604D1*
X9082703Y1974817D1*
X9064453Y1980854D1*
X9058417D1*
X9040167Y1974817D1*
X9028093Y1962604D1*
X9022057Y1944494D1*
Y1938457D1*
X9028094Y1920207D1*
X9040167Y1907994D1*
X9058417Y1901957D1*
X8554201Y1635350D2*
X8608811D1*
X8627061Y1641527D1*
X8633238Y1647564D1*
X8639274Y1659637D1*
Y1671850D1*
X8633238Y1683923D1*
X8627061Y1690100D1*
X8608811Y1696137D1*
X8554201D1*
Y1568527D1*
X8596738Y1635350D2*
X8639274Y1568527D1*
X8690704Y1695996D2*
X8757386D1*
X8721027Y1647423D1*
X8739277D1*
X8751350Y1641387D1*
X8757386Y1635350D1*
X8763563Y1617100D1*
Y1605027D1*
X8757386Y1586777D1*
X8745313Y1574564D1*
X8727063Y1568527D1*
X8708813D1*
X8690704Y1574564D1*
X8684667Y1580740D1*
X8678490Y1592814D1*
X8827065Y1568527D2*
X8887852Y1695996D1*
X8802779D1*
X7644272Y1632573D2*
X7698881D1*
X7717131Y1638750D1*
X7723308Y1644787D1*
X7729345Y1656860D1*
Y1669073D1*
X7723308Y1681146D1*
X7717131Y1687323D1*
X7698881Y1693360D1*
X7644272D1*
Y1565750D1*
X7686808Y1632573D2*
X7729345Y1565750D1*
X7780774Y1693220D2*
X7847456D1*
X7811097Y1644646D1*
X7829347D1*
X7841420Y1638610D1*
X7847456Y1632573D1*
X7853633Y1614323D1*
Y1602250D1*
X7847456Y1584000D1*
X7835383Y1571787D1*
X7817133Y1565750D1*
X7798883D1*
X7780774Y1571787D1*
X7774737Y1577964D1*
X7768560Y1590037D1*
X7923172Y1693220D2*
X7905063Y1687183D1*
X7898886Y1675110D1*
Y1662896D1*
X7905063Y1650823D1*
X7917136Y1644646D1*
X7941422Y1638610D1*
X7959672Y1632573D1*
X7971745Y1620360D1*
X7977782Y1608287D1*
Y1590037D1*
X7971745Y1577964D1*
X7965709Y1571787D1*
X7947459Y1565750D1*
X7923172D1*
X7905063Y1571787D1*
X7898886Y1577964D1*
X7892849Y1590037D1*
Y1608287D1*
X7898886Y1620360D1*
X7911099Y1632573D1*
X7929209Y1638610D1*
X7953495Y1644646D1*
X7965709Y1650823D1*
X7971745Y1662896D1*
Y1675110D1*
X7965709Y1687183D1*
X7947459Y1693220D1*
X7923172D1*
X9392940Y5008590D2*
X9447549D1*
X9465799Y5014767D1*
X9471976Y5020804D1*
X9478013Y5032877D1*
Y5045090D1*
X9471976Y5057163D1*
X9465799Y5063340D1*
X9447549Y5069377D1*
X9392940D1*
Y4941767D1*
X9435476Y5008590D2*
X9478013Y4941767D1*
X9529442Y5069236D2*
X9596125D1*
X9559765Y5020663D1*
X9578015D1*
X9590088Y5014627D1*
X9596125Y5008590D1*
X9602301Y4990340D1*
Y4978267D1*
X9596125Y4960017D1*
X9584051Y4947804D1*
X9565801Y4941767D1*
X9547551D1*
X9529442Y4947804D1*
X9523405Y4953980D1*
X9517228Y4966054D1*
X9720554Y5026840D2*
X9714377Y5008590D1*
X9702304Y4996377D1*
X9684054Y4990340D1*
X9678017D1*
X9659767Y4996377D1*
X9647694Y5008590D1*
X9641517Y5026840D1*
Y5032877D1*
X9647694Y5051127D1*
X9659767Y5063200D1*
X9678017Y5069236D1*
X9684054D1*
X9702304Y5063200D1*
X9714377Y5051127D1*
X9720554Y5026840D1*
Y4996377D1*
X9714377Y4966054D1*
X9702304Y4947804D1*
X9684054Y4941767D1*
X9671981D1*
X9653731Y4947804D1*
X9647694Y4960017D1*
X7302200Y3676813D2*
Y3731423D1*
X7296023Y3749673D1*
X7289987Y3755850D1*
X7277914Y3761886D1*
X7265700D1*
X7253627Y3755850D1*
X7247450Y3749673D1*
X7241413Y3731423D1*
Y3676813D1*
X7369023D1*
X7302200Y3719350D2*
X7369023Y3761886D1*
Y3861888D2*
X7241554Y3861889D1*
X7326487Y3801102D1*
Y3892212D1*
X7241554Y3967927D2*
X7247590Y3949677D1*
X7265840Y3937464D1*
X7296164Y3931427D1*
X7314414D1*
X7344737Y3937464D1*
X7362987Y3949677D1*
X7369023Y3967927D1*
Y3980000D1*
X7362987Y3998250D1*
X7344737Y4010323D1*
X7314413Y4016500D1*
X7296163D1*
X7265840Y4010323D1*
X7247590Y3998250D1*
X7241554Y3980000D1*
Y3967927D1*
X7265840Y4010323D2*
X7344737Y3937464D1*
X9398405Y5238273D2*
X9453014D1*
X9471264Y5244450D1*
X9477441Y5250487D1*
X9483478Y5262560D1*
Y5274773D1*
X9477441Y5286846D1*
X9471264Y5293023D1*
X9453014Y5299060D1*
X9398405D1*
Y5171450D1*
X9440941Y5238273D2*
X9483478Y5171450D1*
X9583480D2*
Y5298920D1*
X9522693Y5213987D1*
X9613803D1*
X9653019Y5274633D2*
X9665232Y5280810D1*
X9683482Y5298920D1*
Y5171450D1*
X6553553Y4127473D2*
X6608163D1*
X6626413Y4133650D1*
X6632590Y4139687D1*
X6638626Y4151760D1*
Y4163973D1*
X6632590Y4176046D1*
X6626413Y4182223D1*
X6608163Y4188260D1*
X6553553D1*
Y4060650D1*
X6596090Y4127473D2*
X6638626Y4060650D1*
X6738628D2*
Y4188120D1*
X6677842Y4103187D1*
X6768951D1*
X6814344Y4157796D2*
Y4163833D1*
X6820381Y4176046D1*
X6826417Y4182083D1*
X6838631Y4188120D1*
X6862917D1*
X6874990Y4182083D1*
X6881027Y4176046D1*
X6887204Y4163833D1*
Y4151760D1*
X6881027Y4139546D1*
X6868954Y4121437D1*
X6808167Y4060650D1*
X6893240D1*
X9687760Y2602803D2*
X9742369D1*
X9760619Y2608980D1*
X9766796Y2615017D1*
X9772833Y2627090D1*
Y2639303D1*
X9766796Y2651376D1*
X9760619Y2657553D1*
X9742369Y2663590D1*
X9687760D1*
Y2535980D1*
X9730296Y2602803D2*
X9772833Y2535980D1*
X9872835D2*
Y2663450D1*
X9812049Y2578517D1*
X9903158D1*
X9954587Y2663450D2*
X10021270D1*
X9984910Y2614876D1*
X10003160D1*
X10015233Y2608840D1*
X10021270Y2602803D1*
X10027447Y2584553D1*
Y2572480D1*
X10021270Y2554230D1*
X10009197Y2542017D1*
X9990947Y2535980D1*
X9972697D1*
X9954587Y2542017D1*
X9948551Y2548194D1*
X9942374Y2560267D1*
X9112445Y2264397D2*
X9167054D1*
X9185304Y2270574D1*
X9191481Y2276610D1*
X9197518Y2288683D1*
Y2300897D1*
X9191481Y2312970D1*
X9185304Y2319147D1*
X9167054Y2325183D1*
X9112445D1*
Y2197574D1*
X9154981Y2264397D2*
X9197518Y2197574D1*
X9297520D2*
Y2325043D1*
X9236734Y2240110D1*
X9327843D1*
X9427845Y2197574D2*
Y2325043D1*
X9367059Y2240110D1*
X9458169D1*
X7118553Y4423043D2*
X7173163D1*
X7191413Y4429220D1*
X7197590Y4435257D1*
X7203626Y4447330D1*
Y4459543D1*
X7197590Y4471616D1*
X7191413Y4477793D1*
X7173163Y4483830D1*
X7118553D1*
Y4356220D1*
X7161090Y4423043D2*
X7203626Y4356220D1*
X7303628D2*
Y4483690D1*
X7242842Y4398757D1*
X7333951D1*
X7446027Y4483690D2*
X7385381D1*
X7379344Y4429080D1*
X7385381Y4435116D1*
X7403631Y4441293D1*
X7421740D1*
X7439990Y4435116D1*
X7452204Y4423043D1*
X7458240Y4404793D1*
Y4392720D1*
X7452204Y4374470D1*
X7439990Y4362257D1*
X7421740Y4356220D1*
X7403631D1*
X7385381Y4362257D1*
X7379344Y4368434D1*
X7373167Y4380507D1*
X6541568Y6247457D2*
X6596178D1*
X6614428Y6253634D1*
X6620605Y6259670D1*
X6626641Y6271743D1*
Y6283957D1*
X6620605Y6296030D1*
X6614428Y6302207D1*
X6596178Y6308243D1*
X6541568D1*
Y6180634D1*
X6584105Y6247457D2*
X6626641Y6180634D1*
X6726644D2*
Y6308103D1*
X6665857Y6223170D1*
X6756967D1*
X6869042Y6289993D2*
X6863005Y6302066D1*
X6844755Y6308103D1*
X6832682D1*
X6814432Y6302066D1*
X6802219Y6283816D1*
X6796182Y6253493D1*
Y6223170D1*
X6802219Y6198884D1*
X6814432Y6186670D1*
X6832682Y6180634D1*
X6838719D1*
X6856828Y6186670D1*
X6869042Y6198884D1*
X6875078Y6217134D1*
Y6223170D1*
X6869042Y6241420D1*
X6856828Y6253493D1*
X6838719Y6259530D1*
X6832682D1*
X6814432Y6253493D1*
X6802219Y6241420D1*
X6796182Y6223170D1*
X4412746Y6276260D2*
X4467356D1*
X4485606Y6282437D1*
X4491783Y6288474D1*
X4497820Y6300547D1*
Y6312760D1*
X4491783Y6324833D1*
X4485606Y6331010D1*
X4467356Y6337047D1*
X4412746D1*
Y6209437D1*
X4455283Y6276260D2*
X4497820Y6209437D1*
X4597822D2*
Y6336906D1*
X4537035Y6251974D1*
X4628145D1*
X4691647Y6209437D2*
X4752434Y6336906D1*
X4667360D1*
X6266723Y5827943D2*
X6321333D1*
X6339583Y5834120D1*
X6345760Y5840157D1*
X6351796Y5852230D1*
Y5864443D1*
X6345760Y5876516D1*
X6339583Y5882693D1*
X6321333Y5888730D1*
X6266723D1*
Y5761120D1*
X6309260Y5827943D2*
X6351796Y5761120D1*
X6451799D2*
Y5888590D1*
X6391012Y5803657D1*
X6482122D1*
X6551660Y5888590D2*
X6533551Y5882553D1*
X6527374Y5870480D1*
Y5858266D1*
X6533551Y5846193D1*
X6545624Y5840016D1*
X6569910Y5833980D1*
X6588160Y5827943D1*
X6600234Y5815730D1*
X6606270Y5803657D1*
Y5785407D1*
X6600234Y5773334D1*
X6594197Y5767157D1*
X6575947Y5761120D1*
X6551660D1*
X6533551Y5767157D1*
X6527374Y5773334D1*
X6521337Y5785407D1*
Y5803657D1*
X6527374Y5815730D1*
X6539587Y5827943D1*
X6557697Y5833980D1*
X6581984Y5840016D1*
X6594197Y5846193D1*
X6600234Y5858266D1*
Y5870480D1*
X6594197Y5882553D1*
X6575947Y5888590D1*
X6551660D1*
X4647375Y6664360D2*
X4701984D1*
X4720234Y6670537D1*
X4726411Y6676574D1*
X4732448Y6688647D1*
Y6700860D1*
X4726411Y6712933D1*
X4720234Y6719110D1*
X4701984Y6725147D1*
X4647375D1*
Y6597537D1*
X4689911Y6664360D2*
X4732448Y6597537D1*
X4832450D2*
Y6725006D1*
X4771663Y6640074D1*
X4862773D1*
X4981025Y6682610D2*
X4974848Y6664360D1*
X4962775Y6652147D1*
X4944525Y6646110D1*
X4938489D1*
X4920239Y6652147D1*
X4908166Y6664360D1*
X4901989Y6682610D1*
Y6688647D1*
X4908166Y6706897D1*
X4920239Y6718970D1*
X4938489Y6725006D1*
X4944525D1*
X4962775Y6718970D1*
X4974848Y6706897D1*
X4981025Y6682610D1*
Y6652147D1*
X4974848Y6621824D1*
X4962775Y6603574D1*
X4944525Y6597537D1*
X4932452D1*
X4914202Y6603574D1*
X4908166Y6615787D1*
X5661588Y7220160D2*
X5716198D1*
X5734448Y7226337D1*
X5740625Y7232374D1*
X5746661Y7244447D1*
Y7256660D1*
X5740625Y7268733D1*
X5734448Y7274910D1*
X5716198Y7280947D1*
X5661588D1*
Y7153337D1*
X5704125Y7220160D2*
X5746661Y7153337D1*
X5858736Y7280806D2*
X5798090D1*
X5792054Y7226197D1*
X5798090Y7232233D1*
X5816340Y7238410D1*
X5834450D1*
X5852700Y7232233D1*
X5864913Y7220160D1*
X5870950Y7201910D1*
Y7189837D1*
X5864913Y7171587D1*
X5852700Y7159374D1*
X5834450Y7153337D1*
X5816340D1*
X5798090Y7159374D1*
X5792054Y7165550D1*
X5785877Y7177624D1*
X5946666Y7280806D2*
X5928416Y7274770D1*
X5916202Y7256520D1*
X5910166Y7226197D1*
Y7207947D1*
X5916202Y7177624D1*
X5928416Y7159374D1*
X5946666Y7153337D1*
X5958739D1*
X5976989Y7159374D1*
X5989062Y7177624D1*
X5995239Y7207947D1*
Y7226197D1*
X5989062Y7256520D1*
X5976989Y7274770D1*
X5958739Y7280806D1*
X5946666D1*
X5989062Y7256520D2*
X5916202Y7177624D1*
X6980156Y6719740D2*
X7034766D1*
X7053016Y6725917D1*
X7059193Y6731954D1*
X7065229Y6744027D1*
Y6756240D1*
X7059193Y6768313D1*
X7053016Y6774490D1*
X7034766Y6780527D1*
X6980156D1*
Y6652917D1*
X7022693Y6719740D2*
X7065229Y6652917D1*
X7177305Y6780386D2*
X7116658D1*
X7110622Y6725777D1*
X7116658Y6731813D1*
X7134908Y6737990D1*
X7153018D1*
X7171268Y6731813D1*
X7183481Y6719740D1*
X7189518Y6701490D1*
Y6689417D1*
X7183481Y6671167D1*
X7171268Y6658954D1*
X7153018Y6652917D1*
X7134908D1*
X7116658Y6658954D1*
X7110622Y6665130D1*
X7104445Y6677204D1*
X7228734Y6756100D2*
X7240947Y6762277D1*
X7259197Y6780386D1*
Y6652917D1*
X7210898Y7186673D2*
X7265508D1*
X7283758Y7192850D1*
X7289935Y7198887D1*
X7295971Y7210960D1*
Y7223173D1*
X7289935Y7235246D1*
X7283758Y7241423D1*
X7265508Y7247460D1*
X7210898D1*
Y7119850D1*
X7253435Y7186673D2*
X7295971Y7119850D1*
X7408046Y7247320D2*
X7347400D1*
X7341364Y7192710D1*
X7347400Y7198746D1*
X7365650Y7204923D1*
X7383760D1*
X7402010Y7198746D1*
X7414223Y7186673D1*
X7420260Y7168423D1*
Y7156350D1*
X7414223Y7138100D1*
X7402010Y7125887D1*
X7383760Y7119850D1*
X7365650D1*
X7347400Y7125887D1*
X7341364Y7132064D1*
X7335187Y7144137D1*
X7465652Y7216996D2*
Y7223033D1*
X7471689Y7235246D1*
X7477726Y7241283D1*
X7489939Y7247320D1*
X7514226D1*
X7526299Y7241283D1*
X7532335Y7235246D1*
X7538512Y7223033D1*
Y7210960D1*
X7532335Y7198746D1*
X7520262Y7180637D1*
X7459476Y7119850D1*
X7544549D1*
X5354187Y7060298D2*
Y7114908D1*
X5348010Y7133158D1*
X5341973Y7139335D1*
X5329900Y7145371D1*
X5317687D1*
X5305614Y7139335D1*
X5299437Y7133158D1*
X5293400Y7114908D1*
Y7060298D1*
X5421010D1*
X5354187Y7102835D2*
X5421010Y7145371D1*
X5293541Y7257447D2*
Y7196800D1*
X5348150Y7190764D1*
X5342114Y7196800D1*
X5335937Y7215050D1*
Y7233160D1*
X5342114Y7251410D1*
X5354187Y7263623D1*
X5372437Y7269660D1*
X5384510D1*
X5402760Y7263623D1*
X5414973Y7251410D1*
X5421010Y7233160D1*
Y7215050D1*
X5414973Y7196800D1*
X5408796Y7190764D1*
X5396723Y7184587D1*
X5293541Y7321089D2*
Y7387772D1*
X5342114Y7351412D1*
Y7369662D1*
X5348150Y7381735D1*
X5354187Y7387772D1*
X5372437Y7393949D1*
X5384510D1*
X5402760Y7387772D1*
X5414973Y7375699D1*
X5421010Y7357449D1*
Y7339199D1*
X5414973Y7321089D1*
X5408796Y7315052D1*
X5396723Y7308876D1*
X9500233Y8787168D2*
X9554842D1*
X9573092Y8793345D1*
X9579269Y8799382D1*
X9585306Y8811455D1*
Y8823668D1*
X9579269Y8835741D1*
X9573092Y8841918D1*
X9554842Y8847955D1*
X9500233D1*
Y8720345D1*
X9542769Y8787168D2*
X9585306Y8720345D1*
X9721808D2*
X9673094Y8847955D1*
X9624521Y8720345D1*
X9642771Y8762882D2*
X9703558D1*
X9803560Y8847955D2*
Y8720345D1*
X9761024Y8847955D2*
X9846097D1*
X9964208D2*
X9885312D1*
Y8720345D1*
X9964208D1*
X9885312Y8787168D2*
X9933885D1*
X10003424Y8847955D2*
X10088497Y8720345D1*
Y8847955D2*
X10003424Y8720345D1*
X10127713Y8784080D2*
X10197905D1*
X10297907Y8847955D2*
Y8750809D1*
X10291871Y8732559D1*
X10285694Y8726522D1*
X10273621Y8720345D1*
X10261407D1*
X10249334Y8726522D1*
X10243298Y8732559D1*
X10237121Y8750809D1*
Y8762882D1*
X8083070Y3954946D2*
X8070857Y3942873D1*
X8064820Y3924623D1*
Y3900336D1*
X8070857Y3882086D1*
X8083070Y3869873D1*
X8095143D1*
X8107357Y3876050D1*
X8113393Y3882086D1*
X8119430Y3894159D1*
X8131643Y3930659D1*
X8137680Y3942873D1*
X8143857Y3948909D1*
X8155930Y3954946D1*
X8174180D1*
X8186253Y3942872D1*
X8192430Y3924622D1*
Y3900336D1*
X8186253Y3882086D1*
X8174180Y3869873D1*
X8064820Y3994161D2*
X8070857Y4000198D1*
X8064820Y4006375D1*
X8058643Y4000198D1*
X8064820Y3994161D1*
X8107357Y4000198D2*
X8192430D1*
X8064820Y4045590D2*
X8192430D1*
Y4100340D1*
X8186253Y4118590D1*
X8180216Y4124627D1*
X8168143Y4130663D1*
X8149893D1*
X8137680Y4124627D1*
X8131643Y4118590D1*
X8125607Y4100340D1*
X8119430Y4118590D1*
X8113393Y4124627D1*
X8101320Y4130663D1*
X8089107D1*
X8077034Y4124627D1*
X8070857Y4118590D1*
X8064820Y4100340D1*
Y4045590D1*
X8125607D2*
Y4100340D1*
X8064820Y4230666D2*
X8161966D1*
X8180216Y4224629D1*
X8186253Y4218452D1*
X8192430Y4206379D1*
Y4194166D1*
X8186253Y4182092D1*
X8180216Y4176056D1*
X8161966Y4169879D1*
X8149893D1*
X8064820Y4312418D2*
X8192430D1*
X8064820Y4269881D2*
Y4354954D1*
X4487129Y2310582D2*
X4475056Y2322795D1*
X4456806Y2328832D1*
X4432520D1*
X4414270Y2322795D1*
X4402056Y2310582D1*
Y2298509D1*
X4408233Y2286295D1*
X4414270Y2280259D1*
X4426343Y2274222D1*
X4462843Y2262009D1*
X4475056Y2255972D1*
X4481093Y2249795D1*
X4487129Y2237722D1*
Y2219472D1*
X4475056Y2207399D1*
X4456806Y2201222D1*
X4432520D1*
X4414270Y2207399D1*
X4402056Y2219472D1*
X4526345Y2328832D2*
X4532382Y2322795D1*
X4538559Y2328832D1*
X4532382Y2335009D1*
X4526345Y2328832D1*
X4532382Y2286295D2*
Y2201222D1*
X4668884Y2298509D2*
X4662847Y2310582D1*
X4650634Y2322795D1*
X4638561Y2328832D1*
X4614274D1*
X4602061Y2322795D1*
X4589988Y2310582D1*
X4583811Y2298509D1*
X4577774Y2280259D1*
Y2249795D1*
X4583811Y2231685D1*
X4589988Y2219472D1*
X4602061Y2207399D1*
X4614274Y2201222D1*
X4638561D1*
X4650634Y2207399D1*
X4662847Y2219472D1*
X4668884Y2231685D1*
X4708100Y2328832D2*
Y2201222D1*
X4762850D1*
X4781100Y2207399D1*
X4787136Y2213435D1*
X4793173Y2225509D1*
Y2243759D1*
X4787136Y2255972D1*
X4781100Y2262009D1*
X4762850Y2268045D1*
X4781100Y2274222D1*
X4787136Y2280259D1*
X4793173Y2292332D1*
Y2304545D1*
X4787136Y2316618D1*
X4781100Y2322795D1*
X4762850Y2328832D1*
X4708100D1*
Y2268045D2*
X4762850D1*
X4893175Y2328832D2*
Y2231685D1*
X4887138Y2213435D1*
X4880961Y2207399D1*
X4868888Y2201222D1*
X4856675D1*
X4844602Y2207399D1*
X4838565Y2213435D1*
X4832388Y2231685D1*
Y2243759D1*
X4974927Y2328832D2*
Y2201222D1*
X4932391Y2328832D2*
X5017464D1*
X6044574Y7634755D2*
X6032501Y7646968D1*
X6014251Y7653005D1*
X5989964D1*
X5971714Y7646968D1*
X5959501Y7634755D1*
Y7622682D1*
X5965677Y7610468D1*
X5971714Y7604432D1*
X5983787Y7598395D1*
X6020287Y7586182D1*
X6032501Y7580145D1*
X6038537Y7573968D1*
X6044574Y7561895D1*
Y7543645D1*
X6032501Y7531572D1*
X6014251Y7525395D1*
X5989964D1*
X5971714Y7531572D1*
X5959501Y7543645D1*
X6168862Y7653005D2*
Y7525395D1*
X6083789Y7653005D1*
Y7525395D1*
X6280938Y7634755D2*
X6274901Y7646828D1*
X6256651Y7652865D1*
X6244578D1*
X6226328Y7646828D1*
X6214115Y7628578D1*
X6208078Y7598255D1*
Y7567932D1*
X6214115Y7543645D1*
X6226328Y7531432D1*
X6244578Y7525395D1*
X6250615D1*
X6268724Y7531432D1*
X6280938Y7543645D1*
X6286974Y7561895D1*
Y7567932D1*
X6280938Y7586182D1*
X6268724Y7598255D1*
X6250615Y7604291D1*
X6244578D1*
X6226328Y7598255D1*
X6214115Y7586182D1*
X6208078Y7567932D1*
X6399050Y7652865D2*
X6338403D1*
X6332367Y7598255D1*
X6338403Y7604291D1*
X6356653Y7610468D1*
X6374763D1*
X6393013Y7604291D1*
X6405226Y7592218D1*
X6411263Y7573968D1*
Y7561895D1*
X6405226Y7543645D1*
X6393013Y7531432D1*
X6374763Y7525395D1*
X6356653D1*
X6338403Y7531432D1*
X6332367Y7537609D1*
X6326190Y7549682D1*
X6450479Y7653005D2*
Y7525395D1*
X6535552Y7653005D2*
Y7525395D1*
X6450479Y7592218D2*
X6535552D1*
X6574767Y7653005D2*
X6623340Y7525395D1*
X6671914Y7653005D1*
X6711129D2*
Y7525395D1*
X6753666D1*
X6771916Y7531572D1*
X6784129Y7543645D1*
X6790166Y7555859D1*
X6796202Y7573968D1*
Y7604432D1*
X6790166Y7622682D1*
X6784129Y7634755D1*
X6771916Y7646968D1*
X6753666Y7653005D1*
X6711129D1*
X6865741Y7652865D2*
X6847631Y7646828D1*
X6841455Y7634755D1*
Y7622541D1*
X6847631Y7610468D1*
X6859705Y7604291D1*
X6883991Y7598255D1*
X6902241Y7592218D1*
X6914314Y7580005D1*
X6920351Y7567932D1*
Y7549682D1*
X6914314Y7537609D1*
X6908278Y7531432D1*
X6890028Y7525395D1*
X6865741D1*
X6847631Y7531432D1*
X6841455Y7537609D1*
X6835418Y7549682D1*
Y7567932D1*
X6841455Y7580005D1*
X6853668Y7592218D1*
X6871778Y7598255D1*
X6896064Y7604291D1*
X6908278Y7610468D1*
X6914314Y7622541D1*
Y7634755D1*
X6908278Y7646828D1*
X6890028Y7652865D1*
X6865741D1*
X6965743Y7622541D2*
Y7628578D1*
X6971780Y7640791D1*
X6977816Y7646828D1*
X6990030Y7652865D1*
X7014316D1*
X7026389Y7646828D1*
X7032426Y7640791D1*
X7038603Y7628578D1*
Y7616505D1*
X7032426Y7604291D1*
X7020353Y7586182D1*
X6959566Y7525395D1*
X7044639D1*
X7253090Y5799965D2*
X7240877Y5787892D1*
X7234840Y5769642D1*
Y5745355D1*
X7240877Y5727105D1*
X7253090Y5714892D1*
X7265163D1*
X7277377Y5721069D1*
X7283413Y5727105D1*
X7289450Y5739178D1*
X7301663Y5775678D1*
X7307700Y5787892D1*
X7313877Y5793928D1*
X7325950Y5799965D1*
X7344200D1*
X7356273Y5787891D1*
X7362450Y5769642D1*
Y5745355D1*
X7356273Y5727105D1*
X7344200Y5714892D1*
X7234840Y5839180D2*
X7362450Y5869644D1*
X7234840Y5899967D1*
X7362450Y5930290D1*
X7234840Y5960753D1*
Y5999969D2*
X7362450D1*
Y6042505D1*
X7356273Y6060755D1*
X7344200Y6072969D1*
X7331986Y6079005D1*
X7313877Y6085042D1*
X7283413D1*
X7265163Y6079005D1*
X7253090Y6072969D1*
X7240877Y6060755D1*
X7234840Y6042506D1*
Y5999969D1*
X5431784Y5606820D2*
Y5515710D1*
X5437820Y5497460D1*
X5450034Y5485387D1*
X5468284Y5479210D1*
X5480357D1*
X5498607Y5485387D1*
X5510820Y5497460D1*
X5516857Y5515710D1*
Y5606820D1*
X5556073Y5582393D2*
X5568286Y5588570D1*
X5586536Y5606680D1*
Y5479210D1*
X8438600Y7583363D2*
X8529710D1*
X8547960Y7589399D1*
X8560033Y7601613D1*
X8566210Y7619863D1*
Y7631936D1*
X8560033Y7650186D1*
X8547960Y7662399D1*
X8529710Y7668436D1*
X8438600D1*
X8438741Y7780511D2*
Y7719865D1*
X8493350Y7713828D1*
X8487314Y7719865D1*
X8481137Y7738115D1*
Y7756224D1*
X8487314Y7774474D1*
X8499387Y7786688D1*
X8517637Y7792724D1*
X8529710D1*
X8547960Y7786688D1*
X8560173Y7774474D1*
X8566210Y7756224D1*
Y7738115D1*
X8560173Y7719865D1*
X8553996Y7713828D1*
X8541923Y7707651D1*
X7909467Y6829701D2*
X8000576D1*
X8018826Y6835738D1*
X8030900Y6847951D1*
X8037076Y6866201D1*
X8037077Y6878274D1*
X8030900Y6896524D1*
X8018826Y6908737D1*
X8000577Y6914774D1*
X7909467D1*
X7952003Y7033026D2*
X7970253Y7026849D1*
X7982467Y7014776D1*
X7988503Y6996526D1*
Y6990490D1*
X7982467Y6972240D1*
X7970253Y6960167D1*
X7952003Y6953990D1*
X7945967D1*
X7927717Y6960167D1*
X7915644Y6972240D1*
X7909607Y6990490D1*
Y6996526D1*
X7915644Y7014776D1*
X7927717Y7026849D1*
X7952003Y7033026D1*
X7982467D1*
X8012790Y7026849D1*
X8031040Y7014776D1*
X8037076Y6996526D1*
Y6984453D1*
X8031040Y6966203D1*
X8018826Y6960166D1*
X3540448Y5063540D2*
X3631558D1*
X3649808Y5069577D1*
X3661881Y5081790D1*
X3668058Y5100040D1*
Y5112113D1*
X3661881Y5130363D1*
X3649808Y5142576D1*
X3631558Y5148613D1*
X3540449D1*
X3570912Y5194006D2*
X3564875D1*
X3552662Y5200042D1*
X3546625Y5206079D1*
X3540589Y5218292D1*
Y5242579D1*
X3546625Y5254652D1*
X3552662Y5260688D1*
X3564875Y5266865D1*
X3576949D1*
X3589162Y5260688D1*
X3607272Y5248615D1*
X3668058Y5187829D1*
Y5272902D1*
X3540589Y5384977D2*
Y5324331D1*
X3595199Y5318294D1*
X3589162Y5324331D1*
X3582985Y5342581D1*
Y5360690D1*
X3589162Y5378940D1*
X3601235Y5391154D1*
X3619485Y5397190D1*
X3631558D1*
X3649808Y5391154D1*
X3662022Y5378940D1*
X3668058Y5360690D1*
Y5342581D1*
X3662022Y5324331D1*
X3655845Y5318294D1*
X3643772Y5312117D1*
X3604323Y5436406D2*
Y5506598D1*
X3540589Y5558027D2*
Y5624710D1*
X3589162Y5588351D1*
Y5606601D1*
X3595198Y5618674D1*
X3601235Y5624710D1*
X3619485Y5630887D1*
X3631558D1*
X3649808Y5624710D1*
X3662021Y5612637D1*
X3668058Y5594387D1*
Y5576137D1*
X3662021Y5558027D1*
X3655845Y5551991D1*
X3643772Y5545814D1*
X3662021Y5682316D2*
X3668058Y5676139D1*
X3662021Y5670103D1*
X3655845Y5676139D1*
X3662021Y5682316D1*
X3674095D1*
X3686308Y5676139D1*
X3692345Y5670103D1*
X3540589Y5733745D2*
Y5800428D1*
X3589162Y5764068D1*
Y5782318D1*
X3595198Y5794392D1*
X3601235Y5800428D1*
X3619485Y5806605D1*
X3631558D1*
X3649808Y5800428D1*
X3662021Y5788355D1*
X3668058Y5770105D1*
Y5751855D1*
X3662021Y5733745D1*
X3655845Y5727709D1*
X3643771Y5721532D1*
X3601235Y5918821D2*
X3589022Y5906607D1*
X3582985Y5894394D1*
Y5876284D1*
X3589022Y5864071D1*
X3601235Y5851998D1*
X3619485Y5845821D1*
X3631558D1*
X3649808Y5851998D1*
X3661881Y5864071D1*
X3668058Y5876284D1*
Y5894394D1*
X3661881Y5906607D1*
X3649808Y5918821D1*
X3582985Y5988359D2*
X3589022Y5976286D1*
X3601235Y5964073D1*
X3619485Y5958036D1*
X3631558D1*
X3649808Y5964073D1*
X3661881Y5976286D1*
X3668058Y5988359D1*
Y6006609D1*
X3661881Y6018823D1*
X3649808Y6030896D1*
X3631558Y6037073D1*
X3619485D1*
X3601235Y6030896D1*
X3589022Y6018823D1*
X3582985Y6006609D1*
Y5988359D1*
Y6076289D2*
X3668058D1*
X3607271D2*
X3589022Y6094539D1*
X3582985Y6106752D1*
Y6124862D1*
X3589022Y6137075D1*
X3607271Y6143112D1*
X3668058D1*
X3582985Y6182327D2*
X3668058Y6218827D1*
X3582985Y6255187D1*
X1395397Y4892335D2*
X1486506D1*
X1504756Y4898371D1*
X1516830Y4910585D1*
X1523006Y4928835D1*
X1523007Y4940908D1*
X1516830Y4959158D1*
X1504756Y4971371D1*
X1486507Y4977408D1*
X1395397D1*
X1395537Y5028837D2*
Y5095520D1*
X1444110Y5059160D1*
Y5077410D1*
X1450147Y5089483D1*
X1456183Y5095519D1*
X1474433Y5101696D1*
X1486506D1*
X1504756Y5095519D1*
X1516970Y5083446D1*
X1523006Y5065196D1*
Y5046946D1*
X1516970Y5028837D1*
X1510793Y5022800D1*
X1498720Y5016623D1*
X1544064Y5140912D2*
Y5256308D1*
X1437933Y5295524D2*
X1523006D1*
X1474433D2*
X1456183Y5301701D1*
X1443970Y5313774D1*
X1437933Y5325987D1*
Y5344237D1*
X1474433Y5383453D2*
Y5456313D1*
X1462220D1*
X1450006Y5450276D1*
X1443970Y5444240D1*
X1437933Y5432026D1*
Y5413776D1*
X1443970Y5401703D1*
X1456183Y5389490D1*
X1474433Y5383453D1*
X1486506D1*
X1504756Y5389490D1*
X1516829Y5401703D1*
X1523006Y5413776D1*
Y5432026D1*
X1516829Y5444240D1*
X1504756Y5456313D1*
X1443970Y5568388D2*
X1541256D1*
X1559366Y5562351D1*
X1565543Y5556315D1*
X1571579Y5544101D1*
Y5525851D1*
X1565543Y5513778D1*
X1462220Y5568388D2*
X1450147Y5556315D1*
X1443970Y5544101D1*
Y5525851D1*
X1450147Y5513778D1*
X1462220Y5501565D1*
X1480470Y5495528D1*
X1492683D1*
X1510793Y5501565D1*
X1523006Y5513778D1*
X1529043Y5525851D1*
Y5544101D1*
X1523006Y5556315D1*
X1510793Y5568388D1*
X1437933Y5607604D2*
X1498720D1*
X1516829Y5613640D1*
X1523006Y5625854D1*
Y5644104D1*
X1516829Y5656177D1*
X1498720Y5674427D1*
X1437933D2*
X1523006D1*
X1395397Y5713642D2*
X1523006D1*
X1419824Y5752858D2*
X1413647Y5765071D1*
X1395537Y5783321D1*
X1523006D1*
X1395537Y5859037D2*
X1401574Y5840787D1*
X1419824Y5828574D1*
X1450147Y5822537D1*
X1468397D1*
X1498720Y5828574D1*
X1516970Y5840787D1*
X1523006Y5859037D1*
Y5871110D1*
X1516970Y5889360D1*
X1498720Y5901433D1*
X1468397Y5907610D1*
X1450147D1*
X1419824Y5901433D1*
X1401574Y5889360D1*
X1395537Y5871110D1*
Y5859037D1*
X1419824Y5901433D2*
X1498720Y5828574D1*
X1437933Y5946826D2*
X1523006Y5983326D1*
X1437933Y6019686D1*
X3335587Y8145033D2*
X3426696D1*
X3444946Y8151069D1*
X3457020Y8163283D1*
X3463196Y8181533D1*
X3463197Y8193606D1*
X3457020Y8211856D1*
X3444946Y8224069D1*
X3426697Y8230106D1*
X3335587D1*
X3463196Y8330108D2*
X3335727D1*
X3420660Y8269321D1*
Y8360431D1*
X3484254Y8399647D2*
Y8515043D1*
X3335587Y8554259D2*
X3463196Y8554258D1*
X3396373D2*
X3384160Y8566472D1*
X3378123Y8578545D1*
Y8596795D1*
X3384160Y8608868D1*
X3396373Y8621082D1*
X3414623Y8627118D1*
X3426696D1*
X3444946Y8621082D1*
X3457019Y8608868D1*
X3463196Y8596795D1*
Y8578545D1*
X3457019Y8566472D1*
X3444946Y8554258D1*
X3378123Y8739193D2*
X3463196D1*
X3396373D2*
X3384160Y8727120D1*
X3378123Y8714907D1*
Y8696797D1*
X3384160Y8684584D1*
X3396373Y8672511D1*
X3414623Y8666334D1*
X3426696D1*
X3444946Y8672511D1*
X3457019Y8684584D1*
X3463196Y8696797D1*
Y8714907D1*
X3457019Y8727120D1*
X3444946Y8739193D1*
X3335587Y8796659D2*
X3438910D1*
X3457019Y8802696D1*
X3463196Y8814909D1*
Y8826982D1*
X3378123Y8778409D2*
Y8820946D1*
X3335587Y8884448D2*
X3438910D1*
X3457019Y8890484D1*
X3463196Y8902698D1*
Y8914771D1*
X3378123Y8866198D2*
Y8908734D1*
X3360014Y8953987D2*
X3353837Y8966200D1*
X3335727Y8984450D1*
X3463196D1*
X3335727Y9060166D2*
X3341764Y9041916D1*
X3360014Y9029702D1*
X3390337Y9023666D1*
X3408587D1*
X3438910Y9029702D1*
X3457160Y9041916D1*
X3463196Y9060166D1*
Y9072239D1*
X3457160Y9090489D1*
X3438910Y9102562D1*
X3408587Y9108739D1*
X3390337D1*
X3360014Y9102562D1*
X3341764Y9090489D1*
X3335727Y9072239D1*
Y9060166D1*
X3360014Y9102562D2*
X3438910Y9029702D1*
X3378123Y9147955D2*
X3463196Y9184454D1*
X3378123Y9220814D1*
X4956641Y1850313D2*
Y1759204D1*
X4962678Y1740954D1*
X4974891Y1728881D1*
X4993141Y1722704D1*
X5005214D1*
X5023464Y1728881D1*
X5035678Y1740954D1*
X5041714Y1759204D1*
Y1850313D1*
X5153790Y1832063D2*
X5147753Y1844136D1*
X5129503Y1850173D1*
X5117430D1*
X5099180Y1844136D1*
X5086967Y1825886D1*
X5080930Y1795563D1*
Y1765240D1*
X5086967Y1740954D1*
X5099180Y1728740D1*
X5117430Y1722704D1*
X5123467D1*
X5141576Y1728740D1*
X5153790Y1740954D1*
X5159826Y1759204D1*
Y1765240D1*
X5153790Y1783490D1*
X5141576Y1795563D1*
X5123467Y1801600D1*
X5117430D1*
X5099180Y1795563D1*
X5086967Y1783490D1*
X5080930Y1765240D1*
X5241579Y1850313D2*
Y1722704D1*
X5199042Y1850313D2*
X5284115D1*
X5390154Y1789527D2*
X5384117Y1801740D1*
X5365867Y1807777D1*
X5347617D1*
X5329367Y1801740D1*
X5323331Y1789527D1*
X5329367Y1777454D1*
X5341581Y1771277D1*
X5371904Y1765240D1*
X5384117Y1759204D1*
X5390154Y1746990D1*
Y1740954D1*
X5384117Y1728881D1*
X5365867Y1722704D1*
X5347617D1*
X5329367Y1728881D1*
X5323331Y1740954D1*
X5429369Y1850313D2*
X5435406Y1844277D1*
X5441583Y1850313D1*
X5435406Y1856490D1*
X5429369Y1850313D1*
X5435406Y1807777D2*
Y1722704D1*
X5553799Y1789527D2*
X5541585Y1801740D1*
X5529372Y1807777D1*
X5511262D1*
X5499049Y1801740D1*
X5486976Y1789527D1*
X5480799Y1771277D1*
Y1759204D1*
X5486976Y1740954D1*
X5499049Y1728881D1*
X5511262Y1722704D1*
X5529372D1*
X5541585Y1728881D1*
X5553799Y1740954D1*
X8068090Y4502798D2*
X8159200D1*
X8177450Y4508834D1*
X8189523Y4521048D1*
X8195700Y4539298D1*
Y4551371D1*
X8189523Y4569621D1*
X8177450Y4581834D1*
X8159200Y4587871D1*
X8068090D1*
X8195700Y4651373D2*
X8068231Y4712159D1*
Y4627086D1*
X8068090Y4793912D2*
X8195700Y4793911D1*
X8068090Y4751375D2*
Y4836448D1*
X8128877Y4942487D2*
X8116663Y4936450D1*
X8110627Y4918200D1*
Y4899950D1*
X8116663Y4881700D1*
X8128877Y4875664D1*
X8140950Y4881700D1*
X8147127Y4893914D1*
X8153163Y4924237D1*
X8159200Y4936450D1*
X8171413Y4942487D1*
X8177450D1*
X8189523Y4936450D1*
X8195700Y4918200D1*
Y4899950D1*
X8189523Y4881700D1*
X8177450Y4875664D1*
X8068090Y4981703D2*
X8074127Y4987739D1*
X8068090Y4993916D1*
X8061913Y4987739D1*
X8068090Y4981703D1*
X8110627Y4987739D2*
X8195700D1*
X5253750Y6730112D2*
Y6639002D1*
X5259786Y6620752D1*
X5272000Y6608679D1*
X5290250Y6602502D1*
X5302323D1*
X5320573Y6608679D1*
X5332786Y6620752D1*
X5338823Y6639002D1*
Y6730112D1*
X5408361Y6729971D2*
X5390252Y6723935D1*
X5384075Y6711862D1*
Y6699648D1*
X5390252Y6687575D1*
X5402325Y6681398D1*
X5426611Y6675362D1*
X5444861Y6669325D1*
X5456934Y6657112D1*
X5462971Y6645039D1*
Y6626789D1*
X5456934Y6614715D1*
X5450898Y6608539D1*
X5432648Y6602502D1*
X5408361D1*
X5390252Y6608539D1*
X5384075Y6614715D1*
X5378038Y6626789D1*
Y6645039D1*
X5384075Y6657112D1*
X5396288Y6669325D1*
X5414398Y6675362D1*
X5438684Y6681398D1*
X5450898Y6687575D1*
X5456934Y6699648D1*
Y6711862D1*
X5450898Y6723935D1*
X5432648Y6729971D1*
X5408361D1*
X5502187Y6581444D2*
X5617583D1*
X5656798Y6730112D2*
X5662835Y6724075D1*
X5669012Y6730112D1*
X5662835Y6736289D1*
X5656798Y6730112D1*
X5662835Y6687575D2*
Y6602502D1*
X5714405Y6699648D2*
Y6705685D1*
X5720441Y6717898D1*
X5726478Y6723935D1*
X5738691Y6729971D1*
X5762978D1*
X5775051Y6723935D1*
X5781087Y6717898D1*
X5787264Y6705685D1*
Y6693612D1*
X5781087Y6681398D1*
X5769014Y6663289D1*
X5708228Y6602502D1*
X5793301D1*
X5905516Y6669325D2*
X5893303Y6681539D1*
X5881089Y6687575D1*
X5862980D1*
X5850766Y6681539D1*
X5838693Y6669325D1*
X5832516Y6651075D1*
Y6639002D1*
X5838693Y6620752D1*
X5850766Y6608679D1*
X5862980Y6602502D1*
X5881089D1*
X5893303Y6608679D1*
X5905516Y6620752D1*
X5956946Y6608539D2*
X5950769Y6602502D1*
X5944732Y6608539D1*
X5950769Y6614715D1*
X5956946Y6608539D1*
Y6596465D1*
X5950769Y6584252D1*
X5944732Y6578215D1*
X5996161Y6730112D2*
Y6602502D1*
Y6669325D2*
X6008375Y6681539D1*
X6020448Y6687575D1*
X6038698D1*
X6050771Y6681539D1*
X6062984Y6669325D1*
X6069021Y6651075D1*
Y6639002D1*
X6062984Y6620752D1*
X6050771Y6608679D1*
X6038698Y6602502D1*
X6020448D1*
X6008375Y6608679D1*
X5996161Y6620752D1*
X6108237Y6687575D2*
Y6626789D1*
X6114273Y6608679D1*
X6126487Y6602502D1*
X6144737D1*
X6156810Y6608679D1*
X6175060Y6626789D1*
Y6687575D2*
Y6602502D1*
X6262848Y6730112D2*
X6250775D1*
X6238562Y6724075D1*
X6232525Y6705825D1*
Y6602502D1*
X6214275Y6687575D2*
X6256812D1*
X6350637Y6730112D2*
X6338564D1*
X6326351Y6724075D1*
X6320314Y6705825D1*
Y6602502D1*
X6302064Y6687575D2*
X6344601D1*
X7029181Y1267285D2*
Y1139675D1*
X7114254Y1267285D2*
X7029181Y1182212D1*
X7059504Y1212675D2*
X7114254Y1139675D1*
X7196006Y1267285D2*
Y1139675D1*
X7153469Y1267285D2*
X7238542D1*
X7277758D2*
Y1139675D1*
X7362831Y1267285D2*
Y1139675D1*
X7277758Y1206498D2*
X7362831D1*
X7610566Y1249035D2*
X7598493Y1261248D1*
X7580243Y1267285D1*
X7555957D1*
X7537707Y1261248D1*
X7525493Y1249035D1*
Y1236962D1*
X7531670Y1224748D1*
X7537707Y1218712D1*
X7549780Y1212675D1*
X7586280Y1200462D1*
X7598493Y1194425D1*
X7604530Y1188248D1*
X7610566Y1176175D1*
Y1157925D1*
X7598493Y1145852D1*
X7580243Y1139675D1*
X7555957D1*
X7537707Y1145852D1*
X7525493Y1157925D1*
X7649782Y1267285D2*
X7655819Y1261248D1*
X7661996Y1267285D1*
X7655819Y1273462D1*
X7649782Y1267285D1*
X7655819Y1224748D2*
Y1139675D1*
X7792321Y1236962D2*
X7786284Y1249035D1*
X7774071Y1261248D1*
X7761998Y1267285D1*
X7737711D1*
X7725498Y1261248D1*
X7713425Y1249035D1*
X7707248Y1236962D1*
X7701211Y1218712D1*
Y1188248D1*
X7707248Y1170139D1*
X7713425Y1157925D1*
X7725498Y1145852D1*
X7737711Y1139675D1*
X7761998D1*
X7774071Y1145852D1*
X7786284Y1157925D1*
X7792321Y1170139D1*
X7954983Y1267285D2*
X8003556Y1139675D1*
X8052129Y1267285D1*
X8103558Y1267145D2*
X8170241D1*
X8133881Y1218571D1*
X8152131D1*
X8164204Y1212535D1*
X8170241Y1206498D1*
X8176418Y1188248D1*
Y1176175D1*
X8170241Y1157925D1*
X8158168Y1145712D1*
X8139918Y1139675D1*
X8121668D1*
X8103558Y1145712D1*
X8097522Y1151889D1*
X8091345Y1163962D1*
X8436226Y1139675D2*
Y1267285D1*
X8387653Y1139675D1*
X8339080Y1267285D1*
Y1139675D1*
X8475442Y1267285D2*
Y1139675D1*
X8599731Y1249035D2*
X8587658Y1261248D1*
X8569408Y1267285D1*
X8545121D1*
X8526871Y1261248D1*
X8514658Y1249035D1*
Y1236962D1*
X8520835Y1224748D1*
X8526871Y1218712D1*
X8538944Y1212675D1*
X8575444Y1200462D1*
X8587658Y1194425D1*
X8593694Y1188248D1*
X8599731Y1176175D1*
Y1157925D1*
X8587658Y1145852D1*
X8569408Y1139675D1*
X8545121D1*
X8526871Y1145852D1*
X8514658Y1157925D1*
X8681483Y1267285D2*
Y1139675D1*
X8638946Y1267285D2*
X8724019D1*
X8775449Y1145712D2*
X8769272Y1139675D1*
X8763235Y1145712D1*
X8769272Y1151889D1*
X8775449Y1145712D1*
Y1133639D1*
X8769272Y1121425D1*
X8763235Y1115389D1*
X9023184Y1249035D2*
X9011111Y1261248D1*
X8992861Y1267285D1*
X8968574D1*
X8950324Y1261248D1*
X8938111Y1249035D1*
Y1236962D1*
X8944288Y1224748D1*
X8950324Y1218712D1*
X8962397Y1212675D1*
X8998897Y1200462D1*
X9011111Y1194425D1*
X9017147Y1188248D1*
X9023184Y1176175D1*
Y1157925D1*
X9011111Y1145852D1*
X8992861Y1139675D1*
X8968574D1*
X8950324Y1145852D1*
X8938111Y1157925D1*
X9062399Y1188248D2*
X9135259D1*
Y1200462D1*
X9129223Y1212675D1*
X9123186Y1218712D1*
X9110973Y1224748D1*
X9092723D1*
X9080649Y1218712D1*
X9068436Y1206498D1*
X9062399Y1188248D1*
Y1176175D1*
X9068436Y1157925D1*
X9080649Y1145852D1*
X9092723Y1139675D1*
X9110973D1*
X9123186Y1145852D1*
X9135259Y1157925D1*
X9174475Y1224748D2*
Y1097139D1*
Y1206498D2*
X9186688Y1218571D1*
X9198761Y1224748D1*
X9217011D1*
X9229225Y1218571D1*
X9241298Y1206498D1*
X9247475Y1188248D1*
Y1176035D1*
X9241298Y1157925D1*
X9229225Y1145712D1*
X9217011Y1139675D1*
X9198761D1*
X9186688Y1145712D1*
X9174475Y1157925D1*
X9416314Y1236821D2*
Y1242858D1*
X9422350Y1255071D1*
X9428387Y1261108D1*
X9440600Y1267145D1*
X9464887D1*
X9476960Y1261108D1*
X9482997Y1255071D1*
X9489173Y1242858D1*
Y1230785D1*
X9482997Y1218571D1*
X9470923Y1200462D1*
X9410137Y1139675D1*
X9495210D1*
X9570926Y1267145D2*
X9552676Y1261108D1*
X9540462Y1242858D1*
X9534426Y1212535D1*
Y1194285D1*
X9540462Y1163962D1*
X9552676Y1145712D1*
X9570926Y1139675D1*
X9582999D1*
X9601249Y1145712D1*
X9613322Y1163962D1*
X9619499Y1194285D1*
Y1212535D1*
X9613322Y1242858D1*
X9601249Y1261108D1*
X9582999Y1267145D1*
X9570926D1*
X9613322Y1242858D2*
X9540462Y1163962D1*
X9658714Y1242858D2*
X9670928Y1249035D1*
X9689178Y1267145D1*
Y1139675D1*
X9758717Y1267145D2*
X9740607Y1261108D1*
X9734430Y1249035D1*
Y1236821D1*
X9740607Y1224748D1*
X9752680Y1218571D1*
X9776967Y1212535D1*
X9795217Y1206498D1*
X9807290Y1194285D1*
X9813326Y1182212D1*
Y1163962D1*
X9807290Y1151889D1*
X9801253Y1145712D1*
X9783003Y1139675D1*
X9758717D1*
X9740607Y1145712D1*
X9734430Y1151889D1*
X9728394Y1163962D1*
Y1182212D1*
X9734430Y1194285D1*
X9746644Y1206498D1*
X9764753Y1212535D1*
X9789040Y1218571D1*
X9801253Y1224748D1*
X9807290Y1236821D1*
Y1249035D1*
X9801253Y1261108D1*
X9783003Y1267145D1*
X9758717D1*
X5981780Y8334029D2*
D156*
Y8202797D1*
X5916248Y8268329D2*
X6047480D1*
X6094538Y8345063D2*
X6196626Y8191932D1*
Y8345063D2*
X6094538Y8191932D1*
X5789586Y7920069D2*
Y7788837D1*
X5724055Y7854369D2*
X5855286D1*
X5902345Y7931103D2*
X5960633Y7858159D1*
Y7777972D1*
X6018920Y7931103D2*
X5960633Y7858159D1*
X4987505Y7902769D2*
D157*
X4885529D1*
X4953475Y7854140D1*
Y7927028D1*
X4885529Y7982659D2*
X4890358Y7968171D1*
X4900017Y7963229D1*
X4909788D1*
X4919446Y7968171D1*
X4924388Y7977829D1*
X4929217Y7997259D1*
X4934046Y8011859D1*
X4943817Y8021517D1*
X4953475Y8026346D1*
X4968075D1*
X4977734Y8021517D1*
X4982675Y8016688D1*
X4987505Y8002088D1*
Y7982659D1*
X4982675Y7968171D1*
X4977734Y7963229D1*
X4968075Y7958400D1*
X4953475D1*
X4943817Y7963229D1*
X4934046Y7973000D1*
X4929217Y7987488D1*
X4924388Y8006917D1*
X4919446Y8016688D1*
X4909788Y8021517D1*
X4900017D1*
X4890358Y8016688D1*
X4885529Y8002088D1*
Y7982659D1*
X4919446Y8057719D2*
X4987504Y8086919D1*
X4919446Y8116006D1*
Y8246136D2*
X5021534D1*
X4934046D2*
X4924388Y8255907D1*
X4919446Y8265565D1*
Y8280165D1*
X4924388Y8289936D1*
X4934046Y8299595D1*
X4948646Y8304536D1*
X4958417D1*
X4972904Y8299595D1*
X4982675Y8289936D1*
X4987504Y8280165D1*
Y8265565D1*
X4982675Y8255907D1*
X4972904Y8246136D1*
X4885417Y8335909D2*
X4890246Y8340738D1*
X4885417Y8345679D1*
X4880475Y8340738D1*
X4885417Y8335909D1*
X4919446Y8340738D2*
X4987504D1*
X4948646Y8377052D2*
Y8435340D1*
X4938875D1*
X4929104Y8430510D1*
X4924275Y8425681D1*
X4919446Y8415910D1*
Y8401310D1*
X4924275Y8391652D1*
X4934046Y8381881D1*
X4948646Y8377052D1*
X4958304D1*
X4972904Y8381881D1*
X4982563Y8391652D1*
X4987504Y8401310D1*
Y8415910D1*
X4982563Y8425681D1*
X4972904Y8435340D1*
X4919446Y8466712D2*
Y8520171D1*
X4987504Y8466712D1*
Y8520171D1*
X4919446Y8575802D2*
X4924275Y8566143D1*
X4934046Y8556373D1*
X4948646Y8551543D1*
X4958304D1*
X4972904Y8556373D1*
X4982563Y8566143D1*
X4987504Y8575802D1*
Y8590402D1*
X4982563Y8600173D1*
X4972904Y8609831D1*
X4958304Y8614773D1*
X4948646D1*
X4934046Y8609831D1*
X4924275Y8600173D1*
X4919446Y8590402D1*
Y8575802D1*
X5137359Y8024768D2*
Y7976251D1*
X5181047Y7971422D1*
X5176218Y7976251D1*
X5171276Y7990851D1*
Y8005339D1*
X5176218Y8019939D1*
X5185876Y8029709D1*
X5200476Y8034538D1*
X5210135D1*
X5224735Y8029709D1*
X5234505Y8019938D1*
X5239335Y8005338D1*
Y7990851D1*
X5234505Y7976251D1*
X5229564Y7971422D1*
X5219905Y7966480D1*
X5171276Y8065911D2*
X5239335Y8095111D1*
X5171276Y8124199D1*
Y8254328D2*
X5273364D1*
X5185876D2*
X5176218Y8264099D1*
X5171276Y8273757D1*
Y8288357D1*
X5176218Y8298128D1*
X5185876Y8307787D1*
X5200476Y8312728D1*
X5210247D1*
X5224734Y8307787D1*
X5234505Y8298128D1*
X5239334Y8288357D1*
Y8273757D1*
X5234505Y8264099D1*
X5224734Y8254328D1*
X5137247Y8344101D2*
X5142076Y8348930D1*
X5137247Y8353872D1*
X5132305Y8348930D1*
X5137247Y8344101D1*
X5171276Y8348930D2*
X5239334D1*
X5200476Y8385244D2*
Y8443532D1*
X5190705D1*
X5180934Y8438703D1*
X5176105Y8433873D1*
X5171276Y8424103D1*
Y8409503D1*
X5176105Y8399844D1*
X5185876Y8390073D1*
X5200476Y8385244D1*
X5210134D1*
X5224734Y8390073D1*
X5234393Y8399844D1*
X5239334Y8409503D1*
Y8424103D1*
X5234393Y8433873D1*
X5224734Y8443532D1*
X5171276Y8474904D2*
Y8528363D1*
X5239334Y8474904D1*
Y8528363D1*
X5171276Y8583994D2*
X5176105Y8574335D1*
X5185876Y8564565D1*
X5200476Y8559735D1*
X5210134D1*
X5224734Y8564565D1*
X5234393Y8574335D1*
X5239334Y8583994D1*
Y8598594D1*
X5234393Y8608365D1*
X5224734Y8618023D1*
X5210134Y8622965D1*
X5200476D1*
X5185876Y8618023D1*
X5176105Y8608365D1*
X5171276Y8598594D1*
Y8583994D1*
X5463329Y8038903D2*
Y8082591D1*
X5458388Y8097191D1*
X5453559Y8102133D1*
X5443900Y8106962D1*
X5434129D1*
X5424471Y8102133D1*
X5419529Y8097191D1*
X5414700Y8082591D1*
Y8038903D1*
X5516788D1*
X5463329Y8072933D2*
X5516788Y8106962D1*
X5429300Y8206393D2*
X5419529Y8196734D1*
X5414700Y8182134D1*
Y8162705D1*
X5419529Y8148105D1*
X5429300Y8138334D1*
X5438959D1*
X5448729Y8143276D1*
X5453559Y8148105D1*
X5458388Y8157764D1*
X5468159Y8186963D1*
X5472988Y8196734D1*
X5477929Y8201563D1*
X5487588Y8206393D1*
X5502188D1*
X5511846Y8196734D1*
X5516788Y8182134D1*
Y8162705D1*
X5511846Y8148105D1*
X5502188Y8138334D1*
X5516788Y8286394D2*
X5414813D1*
X5482759Y8237765D1*
Y8310653D1*
X5414812Y8366284D2*
X5419642Y8351796D1*
X5429300Y8346855D1*
X5439071D1*
X5448729Y8351796D1*
X5453671Y8361455D1*
X5458500Y8380884D1*
X5463329Y8395484D1*
X5473100Y8405142D1*
X5482759Y8409972D1*
X5497359D1*
X5507017Y8405142D1*
X5511959Y8400313D1*
X5516788Y8385713D1*
Y8366284D1*
X5511959Y8351796D1*
X5507017Y8346855D1*
X5497359Y8342025D1*
X5482759D1*
X5473100Y8346855D1*
X5463329Y8356625D1*
X5458500Y8371113D1*
X5453671Y8390542D1*
X5448729Y8400313D1*
X5439071Y8405142D1*
X5429300D1*
X5419642Y8400313D1*
X5414812Y8385713D1*
Y8366284D1*
Y8499632D2*
Y8451115D1*
X5458500Y8446286D1*
X5453671Y8451115D1*
X5448729Y8465715D1*
Y8480203D1*
X5453671Y8494803D1*
X5463329Y8504573D1*
X5477929Y8509403D1*
X5487588D1*
X5502188Y8504573D1*
X5511959Y8494803D1*
X5516788Y8480203D1*
Y8465715D1*
X5511959Y8451115D1*
X5507017Y8446286D1*
X5497359Y8441344D1*
X5465800Y8540775D2*
Y8596929D1*
X5708669Y8021943D2*
Y8065631D1*
X5703728Y8080231D1*
X5698899Y8085173D1*
X5689240Y8090002D1*
X5679469D1*
X5669811Y8085173D1*
X5664869Y8080231D1*
X5660040Y8065631D1*
Y8021943D1*
X5762128D1*
X5708669Y8055973D2*
X5762128Y8090002D1*
X5674640Y8189433D2*
X5664869Y8179774D1*
X5660040Y8165174D1*
Y8145745D1*
X5664869Y8131145D1*
X5674640Y8121374D1*
X5684299D1*
X5694069Y8126316D1*
X5698899Y8131145D1*
X5703728Y8140804D1*
X5713499Y8170003D1*
X5718328Y8179774D1*
X5723269Y8184603D1*
X5732928Y8189433D1*
X5747528D1*
X5757186Y8179774D1*
X5762128Y8165174D1*
Y8145745D1*
X5757186Y8131145D1*
X5747528Y8121374D1*
X5762128Y8269434D2*
X5660153D1*
X5728099Y8220805D1*
Y8293693D1*
X5660152Y8349324D2*
X5664982Y8334836D1*
X5674640Y8329895D1*
X5684411D1*
X5694069Y8334836D1*
X5699011Y8344495D1*
X5703840Y8363924D1*
X5708669Y8378524D1*
X5718440Y8388182D1*
X5728099Y8393012D1*
X5742699D1*
X5752357Y8388182D1*
X5757299Y8383353D1*
X5762128Y8368753D1*
Y8349324D1*
X5757299Y8334836D1*
X5752357Y8329895D1*
X5742699Y8325065D1*
X5728099D1*
X5718440Y8329895D1*
X5708669Y8339665D1*
X5703840Y8354153D1*
X5699011Y8373582D1*
X5694069Y8383353D1*
X5684411Y8388182D1*
X5674640D1*
X5664982Y8383353D1*
X5660152Y8368753D1*
Y8349324D1*
Y8482672D2*
Y8434155D1*
X5703840Y8429326D1*
X5699011Y8434155D1*
X5694069Y8448755D1*
Y8463243D1*
X5699011Y8477843D1*
X5708669Y8487613D1*
X5723269Y8492443D1*
X5732928D1*
X5747528Y8487613D1*
X5757299Y8477843D1*
X5762128Y8463243D1*
Y8448755D1*
X5757299Y8434155D1*
X5752357Y8429326D1*
X5742699Y8424384D1*
X5667396Y8567503D2*
X5754884D1*
X5711196Y8523815D2*
Y8611303D1*
X6629557Y8126697D2*
X6731645Y8165555D1*
X6629557Y8204414D1*
X6748491Y8235786D2*
Y8328103D1*
X6629557Y8359476D2*
X6731644Y8359475D1*
Y8403275D1*
X6726703Y8417875D1*
X6721874Y8422705D1*
X6712215Y8427534D1*
X6697615D1*
X6687845Y8422705D1*
X6683015Y8417875D1*
X6678186Y8403275D1*
X6673245Y8417875D1*
X6668415Y8422705D1*
X6658757Y8427534D1*
X6648986D1*
X6639328Y8422705D1*
X6634386Y8417875D1*
X6629557Y8403275D1*
Y8359476D1*
X6678186Y8359475D2*
Y8403275D1*
X6731644Y8536736D2*
X6629557Y8497765D1*
X6731644Y8458906D1*
X6697615Y8473506D2*
Y8522136D1*
X6629557Y8602137D2*
X6731644D1*
X6629557Y8568108D2*
Y8636167D1*
X6838396Y7798528D2*
Y7851874D1*
X6877254Y7822786D1*
Y7837386D1*
X6882084Y7847044D1*
X6886913Y7851874D1*
X6901513Y7856815D1*
X6911171D1*
X6925771Y7851874D1*
X6935542Y7842215D1*
X6940371Y7827615D1*
Y7813015D1*
X6935542Y7798528D1*
X6930600Y7793698D1*
X6920942Y7788757D1*
X6935542Y7897958D2*
X6940371Y7893017D1*
X6935542Y7888188D1*
X6930600Y7893017D1*
X6935542Y7897958D1*
X6945200D1*
X6954971Y7893017D1*
X6959800Y7888187D1*
X6838396Y7939102D2*
Y7992448D1*
X6877254Y7963360D1*
Y7977960D1*
X6882084Y7987619D1*
X6886913Y7992448D1*
X6901513Y7997389D1*
X6911171D1*
X6925771Y7992448D1*
X6935542Y7982789D1*
X6940371Y7968189D1*
Y7953589D1*
X6935542Y7939102D1*
X6930600Y7934272D1*
X6920942Y7929331D1*
X6838284Y8028762D2*
X6940371Y8067620D1*
X6838284Y8106479D1*
X6957217Y8137851D2*
Y8230168D1*
X6862542Y8334428D2*
X6852883Y8329599D1*
X6843113Y8319828D1*
X6838283Y8310170D1*
Y8290741D1*
X6843113Y8280970D1*
X6852883Y8271312D1*
X6862542Y8266370D1*
X6877142Y8261541D1*
X6901513D1*
X6916000Y8266370D1*
X6925771Y8271312D1*
X6935430Y8280970D1*
X6940371Y8290741D1*
Y8310170D1*
X6935430Y8319828D1*
X6925771Y8329599D1*
X6916000Y8334428D1*
X6838283Y8365801D2*
X6911171D1*
X6925771Y8370630D1*
X6935430Y8380401D1*
X6940371Y8395001D1*
Y8404659D1*
X6935430Y8419259D1*
X6925771Y8429030D1*
X6911171Y8433859D1*
X6838283D1*
Y8465232D2*
X6940371D1*
Y8509032D1*
X6935430Y8523632D1*
X6930600Y8528461D1*
X6920942Y8533290D1*
X6906342D1*
X6896571Y8528461D1*
X6891742Y8523632D1*
X6886913Y8509032D1*
X6881971Y8523632D1*
X6877142Y8528461D1*
X6867483Y8533290D1*
X6857713D1*
X6848054Y8528461D1*
X6843113Y8523632D1*
X6838283Y8509032D1*
Y8465232D1*
X6886913D2*
Y8509032D1*
X6838283Y8627780D2*
Y8564663D1*
X6940371D1*
Y8627780D1*
X6886913Y8564663D2*
Y8603521D1*
X7105377Y8421082D2*
X7095606Y8411423D1*
X7090777Y8396823D1*
Y8377394D1*
X7095606Y8362794D1*
X7105377Y8353023D1*
X7115035D1*
X7124806Y8357965D1*
X7129635Y8362794D1*
X7134464Y8372453D1*
X7144235Y8401653D1*
X7149065Y8411423D1*
X7154006Y8416253D1*
X7163665Y8421082D1*
X7178265D1*
X7187923Y8411423D1*
X7192865Y8396823D1*
Y8377394D1*
X7187923Y8362794D1*
X7178264Y8353023D1*
X7090777Y8452454D2*
X7192865D1*
Y8486483D1*
X7187923Y8501083D1*
X7178265Y8510854D1*
X7168494Y8515683D1*
X7154006Y8520513D1*
X7129635D1*
X7115035Y8515683D1*
X7105377Y8510854D1*
X7095606Y8501084D1*
X7090777Y8486484D1*
Y8452454D1*
X7192864Y8629714D2*
X7090777Y8590744D1*
X7192864Y8551885D1*
X7158835Y8566485D2*
Y8615114D1*
X7370580Y8427825D2*
X7360809Y8418167D1*
X7355980Y8403567D1*
Y8384138D1*
X7360809Y8369538D1*
X7370580Y8359767D1*
X7380239D1*
X7390009Y8364708D1*
X7394839Y8369538D1*
X7399668Y8379196D1*
X7409439Y8408396D1*
X7414268Y8418167D1*
X7419209Y8422996D1*
X7428868Y8427825D1*
X7443468D1*
X7453126Y8418167D1*
X7458068Y8403567D1*
Y8384137D1*
X7453126Y8369538D1*
X7443468Y8359767D1*
X7380239Y8532085D2*
X7370580Y8527256D1*
X7360809Y8517485D1*
X7355980Y8507827D1*
Y8488398D1*
X7360809Y8478627D1*
X7370580Y8468968D1*
X7380239Y8464027D1*
X7394839Y8459198D1*
X7419209D1*
X7433697Y8464027D1*
X7443468Y8468968D1*
X7453126Y8478627D1*
X7458068Y8488398D1*
Y8507827D1*
X7453126Y8517485D1*
X7443468Y8527256D1*
X7433697Y8532085D1*
X7355980Y8563458D2*
X7458068D1*
Y8621745D1*
X8253673Y8247658D2*
D158*
Y8211271D1*
X8286438Y8207649D1*
X8282816Y8211271D1*
X8279110Y8222221D1*
Y8233086D1*
X8282817Y8244036D1*
X8290060Y8251365D1*
X8301010Y8254986D1*
X8308254D1*
X8319204Y8251364D1*
X8326532Y8244036D1*
X8330154Y8233086D1*
Y8222221D1*
X8326532Y8211271D1*
X8322826Y8207649D1*
X8315582Y8203943D1*
X8253589Y8278516D2*
X8330154Y8307659D1*
X8253589Y8336803D1*
X8342789Y8360333D2*
Y8429570D1*
X8264538Y8504144D2*
X8257210Y8496900D1*
X8253588Y8485950D1*
Y8471378D1*
X8257210Y8460428D1*
X8264538Y8453100D1*
X8271782D1*
X8279110Y8456806D1*
X8282732Y8460428D1*
X8286354Y8467672D1*
X8293682Y8489572D1*
X8297304Y8496900D1*
X8301010Y8500522D1*
X8308254Y8504144D1*
X8319204D1*
X8326448Y8496900D1*
X8330154Y8485950D1*
Y8471378D1*
X8326448Y8460428D1*
X8319204Y8453100D1*
X8253588Y8527673D2*
X8257210Y8531295D1*
X8253588Y8535001D1*
X8249882Y8531295D1*
X8253588Y8527673D1*
X8279110Y8531295D2*
X8330154D1*
X8271782Y8613196D2*
X8264538Y8609574D1*
X8257210Y8602246D1*
X8253588Y8595003D1*
Y8580431D1*
X8257210Y8573103D1*
X8264538Y8565859D1*
X8271782Y8562153D1*
X8282732Y8558531D1*
X8301010D1*
X8311876Y8562152D1*
X8319204Y8565859D1*
X8326448Y8573102D1*
X8330154Y8580431D1*
Y8595002D1*
X8326448Y8602246D1*
X8319204Y8609574D1*
X8311876Y8613196D1*
X8520325Y8340409D2*
X8596891Y8369553D1*
X8520325Y8398697D1*
Y8422226D2*
X8596891D1*
Y8455076D1*
X8593185Y8466026D1*
X8589563Y8469648D1*
X8582319Y8473270D1*
X8571369D1*
X8564041Y8469648D1*
X8560419Y8466026D1*
X8556797Y8455076D1*
X8553091Y8466026D1*
X8549469Y8469648D1*
X8542225Y8473270D1*
X8534897D1*
X8527653Y8469648D1*
X8523947Y8466026D1*
X8520325Y8455076D1*
Y8422226D1*
X8556797D2*
Y8455076D1*
X8596891Y8555171D2*
X8520325Y8525943D1*
X8596891Y8496799D1*
X8571369Y8507749D2*
Y8544221D1*
X8520325Y8604223D2*
X8596891D1*
X8520325Y8578701D2*
Y8629745D1*
X9055385Y8473863D2*
X9048057Y8466619D1*
X9044435Y8455669D1*
Y8441097D1*
X9048057Y8430147D1*
X9055385Y8422819D1*
X9062629D1*
X9069957Y8426526D1*
X9073579Y8430147D1*
X9077201Y8437391D1*
X9084529Y8459291D1*
X9088151Y8466619D1*
X9091857Y8470241D1*
X9099101Y8473863D1*
X9110051D1*
X9117295Y8466619D1*
X9121001Y8455669D1*
Y8441097D1*
X9117295Y8430147D1*
X9110051Y8422819D1*
X9044435Y8497393D2*
X9121001Y8497392D1*
Y8522914D1*
X9117295Y8533864D1*
X9110051Y8541192D1*
X9102723Y8544814D1*
X9091857Y8548436D1*
X9073579D1*
X9062629Y8544814D1*
X9055385Y8541192D1*
X9048057Y8533864D1*
X9044435Y8522914D1*
Y8497393D1*
X9121001Y8630337D2*
X9044435Y8601109D1*
X9121001Y8571966D1*
X9095479Y8582916D2*
Y8619387D1*
X9292939Y8477543D2*
X9285610Y8470299D1*
X9281988Y8459349D1*
Y8444777D1*
X9285610Y8433827D1*
X9292938Y8426499D1*
X9300182D1*
X9307510Y8430206D1*
X9311132Y8433827D1*
X9314754Y8441071D1*
X9322082Y8462971D1*
X9325704Y8470299D1*
X9329410Y8473921D1*
X9336654Y8477543D1*
X9347604D1*
X9354848Y8470299D1*
X9358554Y8459349D1*
Y8444777D1*
X9354848Y8433827D1*
X9347604Y8426499D1*
X9300182Y8555738D2*
X9292939Y8552116D1*
X9285610Y8544788D1*
X9281989Y8537544D1*
Y8522972D1*
X9285610Y8515644D1*
X9292939Y8508401D1*
X9300182Y8504694D1*
X9311132Y8501072D1*
X9329410D1*
X9340276Y8504694D1*
X9347604Y8508400D1*
X9354848Y8515644D1*
X9358554Y8522972D1*
Y8537544D1*
X9354848Y8544788D1*
X9347604Y8552116D1*
X9340276Y8555738D1*
X9281989Y8579268D2*
X9358554Y8579267D1*
Y8622983D1*
X9776148Y6116918D2*
Y6040353D1*
X9750626Y6116918D2*
X9801670D1*
X9825199Y6069496D2*
X9868915D1*
Y6076824D1*
X9865293Y6084153D1*
X9861671Y6087774D1*
X9854343Y6091396D1*
X9843393D1*
X9836149Y6087774D1*
X9828821Y6080446D1*
X9825199Y6069496D1*
Y6062253D1*
X9828821Y6051303D1*
X9836149Y6044059D1*
X9843393Y6040353D1*
X9854343D1*
X9861671Y6044059D1*
X9868915Y6051303D1*
X9892444Y6091396D2*
Y6040353D1*
Y6076824D2*
X9903394Y6087774D1*
X9910722Y6091396D1*
X9921588D1*
X9928916Y6087774D1*
X9932538Y6076824D1*
Y6040353D1*
Y6076824D2*
X9943488Y6087774D1*
X9950816Y6091396D1*
X9961682D1*
X9969010Y6087774D1*
X9972716Y6076824D1*
Y6040353D1*
X9996245Y6091396D2*
Y6014831D1*
Y6080446D2*
X10003574Y6087690D1*
X10010817Y6091396D1*
X10021767D1*
X10029095Y6087690D1*
X10036339Y6080446D1*
X10040045Y6069496D1*
Y6062168D1*
X10036339Y6051303D1*
X10029095Y6043974D1*
X10021767Y6040353D1*
X10010817D1*
X10003574Y6043974D1*
X9996245Y6051303D1*
X10063575Y6027718D2*
X10132813D1*
X10207386Y6105968D2*
X10200142Y6113296D1*
X10189192Y6116918D1*
X10174620D1*
X10163670Y6113296D1*
X10156342Y6105968D1*
Y6098724D1*
X10160048Y6091396D1*
X10163670Y6087774D1*
X10170914Y6084153D1*
X10192814Y6076824D1*
X10200142Y6073203D1*
X10203764Y6069496D1*
X10207386Y6062253D1*
Y6051303D1*
X10200142Y6044059D1*
X10189192Y6040353D1*
X10174620D1*
X10163670Y6044059D1*
X10156342Y6051303D1*
X10230915Y6116918D2*
X10234537Y6113296D1*
X10238243Y6116918D1*
X10234537Y6120624D1*
X10230915Y6116918D1*
X10234537Y6091396D2*
Y6040353D1*
X2517202Y1713027D2*
D157*
Y1610939D1*
X2483173Y1713027D2*
X2551232D1*
X2582604Y1649797D2*
X2640892D1*
Y1659568D1*
X2636063Y1669339D1*
X2631233Y1674168D1*
X2621463Y1678997D1*
X2606863D1*
X2597204Y1674168D1*
X2587433Y1664397D1*
X2582604Y1649797D1*
Y1640139D1*
X2587433Y1625539D1*
X2597204Y1615880D1*
X2606863Y1610939D1*
X2621463D1*
X2631233Y1615880D1*
X2640892Y1625539D1*
X2672264Y1678997D2*
Y1610939D1*
Y1659568D2*
X2686864Y1674168D1*
X2696635Y1678997D1*
X2711123D1*
X2720894Y1674168D1*
X2725723Y1659568D1*
Y1610939D1*
Y1659568D2*
X2740323Y1674168D1*
X2750094Y1678997D1*
X2764581D1*
X2774352Y1674168D1*
X2779294Y1659568D1*
Y1610939D1*
X2810666Y1678997D2*
Y1576910D1*
Y1664397D2*
X2820437Y1674056D1*
X2830095Y1678997D1*
X2844695D1*
X2854466Y1674056D1*
X2864125Y1664397D1*
X2869066Y1649797D1*
Y1640027D1*
X2864125Y1625539D1*
X2854466Y1615768D1*
X2844695Y1610939D1*
X2830095D1*
X2820437Y1615768D1*
X2810666Y1625539D1*
X2900439Y1594093D2*
X2992756D1*
X3092187Y1698427D2*
X3082528Y1708197D1*
X3067928Y1713027D1*
X3048499D1*
X3033899Y1708197D1*
X3024128Y1698427D1*
Y1688768D1*
X3029070Y1678997D1*
X3033899Y1674168D1*
X3043557Y1669339D1*
X3072757Y1659568D1*
X3082528Y1654739D1*
X3087357Y1649797D1*
X3092187Y1640139D1*
Y1625539D1*
X3082528Y1615880D1*
X3067928Y1610939D1*
X3048499D1*
X3033899Y1615880D1*
X3024128Y1625539D1*
X3123559Y1713027D2*
X3128388Y1708197D1*
X3133330Y1713027D1*
X3128388Y1717968D1*
X3123559Y1713027D1*
X3128388Y1678997D2*
Y1610939D1*
X3237590Y1688768D2*
X3232761Y1698427D1*
X3222990Y1708197D1*
X3213332Y1713027D1*
X3193903D1*
X3184132Y1708197D1*
X3174473Y1698427D1*
X3169532Y1688768D1*
X3164703Y1674168D1*
Y1649797D1*
X3169532Y1635310D1*
X3174473Y1625539D1*
X3184132Y1615880D1*
X3193903Y1610939D1*
X3213332D1*
X3222990Y1615880D1*
X3232761Y1625539D1*
X3237590Y1635310D1*
X2857443Y1421123D2*
X2896302Y1319036D1*
X2935160Y1421123D1*
X2966533D2*
Y1319036D1*
Y1372494D2*
X2976303Y1382265D1*
X2985962Y1387094D1*
X3000562D1*
X3010220Y1382265D1*
X3019991Y1372494D1*
X3024820Y1357894D1*
Y1348236D1*
X3019991Y1333636D1*
X3010220Y1323977D1*
X3000562Y1319036D1*
X2985962D1*
X2976303Y1323977D1*
X2966533Y1333636D1*
X3056193Y1357894D2*
X3114481D1*
Y1367665D1*
X3109651Y1377436D1*
X3104822Y1382265D1*
X3095051Y1387094D1*
X3080451D1*
X3070793Y1382265D1*
X3061022Y1372494D1*
X3056193Y1357894D1*
Y1348236D1*
X3061022Y1333636D1*
X3070793Y1323977D1*
X3080451Y1319036D1*
X3095051D1*
X3104822Y1323977D1*
X3114481Y1333636D1*
X3145853Y1302189D2*
X3238170D1*
X3337601Y1406523D2*
X3327943Y1416294D1*
X3313343Y1421123D1*
X3293913D1*
X3279313Y1416294D1*
X3269543Y1406523D1*
Y1396865D1*
X3274484Y1387094D1*
X3279313Y1382265D1*
X3288972Y1377436D1*
X3318172Y1367665D1*
X3327943Y1362836D1*
X3332772Y1357894D1*
X3337601Y1348236D1*
Y1333636D1*
X3327943Y1323977D1*
X3313343Y1319036D1*
X3293913D1*
X3279313Y1323977D1*
X3269543Y1333636D1*
X3368974Y1421123D2*
X3373803Y1416294D1*
X3378744Y1421123D1*
X3373803Y1426065D1*
X3368974Y1421123D1*
X3373803Y1387094D2*
Y1319036D1*
X3483005Y1396865D2*
X3478175Y1406523D1*
X3468405Y1416294D1*
X3458746Y1421123D1*
X3439317D1*
X3429546Y1416294D1*
X3419888Y1406523D1*
X3414946Y1396865D1*
X3410117Y1382265D1*
Y1357894D1*
X3414946Y1343406D1*
X3419888Y1333636D1*
X3429546Y1323977D1*
X3439317Y1319036D1*
X3458746D1*
X3468405Y1323977D1*
X3478175Y1333636D1*
X3483005Y1343406D1*
X5141453Y3602577D2*
X5180312Y3500489D1*
X5219170Y3602577D1*
X5250543D2*
Y3500489D1*
Y3553947D2*
X5260313Y3563718D1*
X5269972Y3568547D1*
X5284572D1*
X5294230Y3563718D1*
X5304001Y3553947D1*
X5308830Y3539347D1*
Y3529689D1*
X5304001Y3515089D1*
X5294230Y3505430D1*
X5284572Y3500489D1*
X5269972D1*
X5260313Y3505430D1*
X5250543Y3515089D1*
X5340203Y3539347D2*
X5398491D1*
Y3549118D1*
X5393661Y3558889D1*
X5388832Y3563718D1*
X5379061Y3568547D1*
X5364461D1*
X5354803Y3563718D1*
X5345032Y3553947D1*
X5340203Y3539347D1*
Y3529689D1*
X5345032Y3515089D1*
X5354803Y3505430D1*
X5364461Y3500489D1*
X5379061D1*
X5388832Y3505430D1*
X5398491Y3515089D1*
X5429863Y3483643D2*
X5522180D1*
X5621611Y3587977D2*
X5611953Y3597747D1*
X5597353Y3602577D1*
X5577923D1*
X5563323Y3597747D1*
X5553553Y3587977D1*
Y3578318D1*
X5558494Y3568547D1*
X5563323Y3563718D1*
X5572982Y3558889D1*
X5602182Y3549118D1*
X5611953Y3544289D1*
X5616782Y3539347D1*
X5621611Y3529689D1*
Y3515089D1*
X5611953Y3505430D1*
X5597353Y3500489D1*
X5577923D1*
X5563323Y3505430D1*
X5553553Y3515089D1*
X5652984Y3602577D2*
X5657813Y3597747D1*
X5662754Y3602577D1*
X5657813Y3607518D1*
X5652984Y3602577D1*
X5657813Y3568547D2*
Y3500489D1*
X2203713Y1422480D2*
X2242572Y1320392D1*
X2281430Y1422480D1*
X2312803D2*
Y1320392D1*
Y1373851D2*
X2322573Y1383621D1*
X2332232Y1388451D1*
X2346832D1*
X2356490Y1383621D1*
X2366261Y1373851D1*
X2371090Y1359251D1*
Y1349592D1*
X2366261Y1334992D1*
X2356490Y1325334D1*
X2346832Y1320392D1*
X2332232D1*
X2322573Y1325334D1*
X2312803Y1334992D1*
X2402463Y1303546D2*
X2494780D1*
X2594211Y1407880D2*
X2584552Y1417651D1*
X2569952Y1422480D1*
X2550523D1*
X2535923Y1417651D1*
X2526152Y1407880D1*
Y1398221D1*
X2531094Y1388451D1*
X2535923Y1383621D1*
X2545582Y1378792D1*
X2574782Y1369021D1*
X2584552Y1364192D1*
X2589382Y1359251D1*
X2594211Y1349592D1*
Y1334992D1*
X2584552Y1325334D1*
X2569952Y1320392D1*
X2550523D1*
X2535923Y1325334D1*
X2526152Y1334992D1*
X2625583Y1422480D2*
X2630413Y1417651D1*
X2635354Y1422480D1*
X2630413Y1427421D1*
X2625583Y1422480D1*
X2630413Y1388451D2*
Y1320392D1*
X2739614Y1398221D2*
X2734785Y1407880D1*
X2725014Y1417651D1*
X2715356Y1422480D1*
X2695927D1*
X2686156Y1417651D1*
X2676497Y1407880D1*
X2671556Y1398221D1*
X2666727Y1383621D1*
Y1359251D1*
X2671556Y1344763D1*
X2676497Y1334992D1*
X2686156Y1325334D1*
X2695927Y1320392D1*
X2715356D1*
X2725014Y1325334D1*
X2734785Y1334992D1*
X2739614Y1344763D1*
X1510603Y1430027D2*
X1549462Y1327939D1*
X1588320Y1430027D1*
X1678093Y1381397D2*
X1668322Y1391168D1*
X1658551Y1395997D1*
X1644063D1*
X1634293Y1391168D1*
X1624634Y1381397D1*
X1619693Y1366797D1*
Y1357139D1*
X1624634Y1342539D1*
X1634293Y1332880D1*
X1644063Y1327939D1*
X1658551D1*
X1668322Y1332880D1*
X1678093Y1342539D1*
X1709465Y1311093D2*
X1801782D1*
X1901213Y1415427D2*
X1891555Y1425197D1*
X1876955Y1430027D1*
X1857525D1*
X1842925Y1425197D1*
X1833155Y1415427D1*
Y1405768D1*
X1838096Y1395997D1*
X1842925Y1391168D1*
X1852584Y1386339D1*
X1881784Y1376568D1*
X1891555Y1371739D1*
X1896384Y1366797D1*
X1901213Y1357139D1*
Y1342539D1*
X1891555Y1332880D1*
X1876955Y1327939D1*
X1857525D1*
X1842925Y1332880D1*
X1833155Y1342539D1*
X1932586Y1430027D2*
X1937415Y1425197D1*
X1942356Y1430027D1*
X1937415Y1434968D1*
X1932586Y1430027D1*
X1937415Y1395997D2*
Y1327939D1*
X2046617Y1405768D2*
X2041787Y1415427D1*
X2032017Y1425197D1*
X2022358Y1430027D1*
X2002929D1*
X1993158Y1425197D1*
X1983500Y1415427D1*
X1978558Y1405768D1*
X1973729Y1391168D1*
Y1366797D1*
X1978558Y1352310D1*
X1983500Y1342539D1*
X1993158Y1332880D1*
X2002929Y1327939D1*
X2022358D1*
X2032017Y1332880D1*
X2041787Y1342539D1*
X2046617Y1352310D1*
X9772996Y5623392D2*
D158*
X9802140Y5546826D1*
X9831283Y5623392D1*
X9898613Y5586920D2*
X9891285Y5594248D1*
X9883957Y5597870D1*
X9873091D1*
X9865763Y5594248D1*
X9858519Y5586920D1*
X9854813Y5575970D1*
Y5568726D1*
X9858519Y5557776D1*
X9865763Y5550532D1*
X9873091Y5546826D1*
X9883957D1*
X9891285Y5550532D1*
X9898613Y5557776D1*
X9922142Y5534191D2*
X9991380D1*
X10065953Y5612442D2*
X10058709Y5619770D1*
X10047759Y5623392D1*
X10033187D1*
X10022237Y5619770D1*
X10014909Y5612442D1*
Y5605198D1*
X10018615Y5597870D1*
X10022237Y5594248D1*
X10029481Y5590626D1*
X10051381Y5583298D1*
X10058709Y5579676D1*
X10062331Y5575970D1*
X10065953Y5568726D1*
Y5557776D1*
X10058709Y5550532D1*
X10047759Y5546826D1*
X10033187D1*
X10022237Y5550532D1*
X10014909Y5557776D1*
X10089483Y5623392D2*
X10093104Y5619770D1*
X10096811Y5623392D1*
X10093104Y5627098D1*
X10089483Y5623392D1*
X10093104Y5597870D2*
Y5546826D1*
X9772862Y5894318D2*
X9802006Y5817753D1*
X9831150Y5894318D1*
X9854679D2*
Y5817753D1*
Y5857846D2*
X9862008Y5865174D1*
X9869251Y5868796D1*
X9880201D1*
X9887445Y5865174D1*
X9894773Y5857846D1*
X9898395Y5846896D1*
Y5839653D1*
X9894773Y5828703D1*
X9887445Y5821459D1*
X9880201Y5817753D1*
X9869251D1*
X9862008Y5821459D1*
X9854679Y5828703D1*
X9921925Y5805118D2*
X9991162D1*
X10065736Y5883368D2*
X10058492Y5890696D1*
X10047542Y5894318D1*
X10032970D1*
X10022020Y5890696D1*
X10014692Y5883368D1*
Y5876124D1*
X10018398Y5868796D1*
X10022020Y5865174D1*
X10029264Y5861553D1*
X10051164Y5854224D1*
X10058492Y5850603D1*
X10062114Y5846896D1*
X10065736Y5839653D1*
Y5828703D1*
X10058492Y5821459D1*
X10047542Y5817753D1*
X10032970D1*
X10022020Y5821459D1*
X10014692Y5828703D1*
X10089265Y5894318D2*
X10092887Y5890696D1*
X10096593Y5894318D1*
X10092887Y5898024D1*
X10089265Y5894318D1*
X10092887Y5868796D2*
Y5817753D1*
X9774189Y5428268D2*
X9803333Y5351703D1*
X9832477Y5428268D1*
X9856006D2*
Y5351703D1*
Y5391796D2*
X9863334Y5399124D1*
X9870578Y5402746D1*
X9881528D1*
X9888772Y5399124D1*
X9896100Y5391796D1*
X9899722Y5380846D1*
Y5373603D1*
X9896100Y5362653D1*
X9888772Y5355409D1*
X9881528Y5351703D1*
X9870578D1*
X9863334Y5355409D1*
X9856006Y5362653D1*
X9923251Y5380846D2*
X9966967D1*
Y5388174D1*
X9963345Y5395503D1*
X9959723Y5399124D1*
X9952395Y5402746D1*
X9941445D1*
X9934201Y5399124D1*
X9926873Y5391796D1*
X9923251Y5380846D1*
Y5373603D1*
X9926873Y5362653D1*
X9934201Y5355409D1*
X9941445Y5351703D1*
X9952395D1*
X9959723Y5355409D1*
X9966967Y5362653D1*
X9990496Y5339068D2*
X10059734D1*
X10134307Y5417318D2*
X10127064Y5424646D1*
X10116114Y5428268D1*
X10101542D1*
X10090592Y5424646D1*
X10083264Y5417318D1*
Y5410074D1*
X10086970Y5402746D1*
X10090592Y5399124D1*
X10097836Y5395503D1*
X10119736Y5388174D1*
X10127064Y5384553D1*
X10130686Y5380846D1*
X10134307Y5373603D1*
Y5362653D1*
X10127064Y5355409D1*
X10116114Y5351703D1*
X10101542D1*
X10090592Y5355409D1*
X10083264Y5362653D1*
X10157837Y5428268D2*
X10161459Y5424646D1*
X10165165Y5428268D1*
X10161459Y5431974D1*
X10157837Y5428268D1*
X10161459Y5402746D2*
Y5351703D1*
X3795660Y2535932D2*
D155*
Y2408323D1*
X3850410D1*
X3868660Y2414500D1*
X3874697Y2420536D1*
X3880733Y2432609D1*
Y2450859D1*
X3874697Y2463073D1*
X3868660Y2469109D1*
X3850410Y2475146D1*
X3868660Y2481323D1*
X3874697Y2487359D1*
X3880733Y2499432D1*
Y2511646D1*
X3874697Y2523719D1*
X3868660Y2529896D1*
X3850410Y2535932D1*
X3795660D1*
Y2475146D2*
X3850410D1*
X3431737Y2095857D2*
X3425701Y2107930D1*
X3413487Y2120143D1*
X3401414Y2126180D1*
X3377128D1*
X3364914Y2120143D1*
X3352841Y2107930D1*
X3346664Y2095857D1*
X3340628Y2077607D1*
Y2047143D1*
X3346664Y2029033D1*
X3352841Y2016820D1*
X3364914Y2004747D1*
X3377128Y1998570D1*
X3401414D1*
X3413487Y2004747D1*
X3425701Y2016820D1*
X3431737Y2029033D1*
X4734883Y2130056D2*
X4655987D1*
Y2002447D1*
X4734883D1*
X4655987Y2069270D2*
X4704560D1*
M02*
