G04 DipTrace 3.2.0.1*
G04 RS-485_PCB.GTS*
%MOMM*%
G04 #@! TF.FileFunction,Soldermask,Top*
G04 #@! TF.Part,Single*
%ADD37C,2.1*%
%ADD38C,2.5*%
%ADD46R,1.05X1.05*%
%ADD48R,3.45X2.35*%
%ADD50R,1.15X2.35*%
%ADD52R,1.8X0.5*%
%ADD54R,0.5X1.8*%
%ADD56R,2.2X0.8*%
%ADD58C,2.07*%
%ADD60C,1.95*%
%ADD62R,1.25X0.85*%
%ADD64C,6.7*%
%ADD66O,1.25X1.35*%
%ADD68R,1.25X1.35*%
%ADD70C,1.7*%
%ADD72R,1.7X1.7*%
%ADD74R,1.724X1.62233*%
%ADD76R,1.3X1.2*%
%ADD78R,1.2X1.3*%
%FSLAX35Y35*%
G04*
G71*
G90*
G75*
G01*
G04 TopMask*
%LPD*%
D78*
X6472303Y2654970D3*
Y2484970D3*
D76*
X3487717Y3668620D3*
X3657717D3*
D78*
X2734440Y3252490D3*
Y3422490D3*
X4399327Y2510183D3*
Y2340183D3*
D76*
X4213560Y2705003D3*
X4043560D3*
X4325020Y3693777D3*
X4155020D3*
D78*
X5531330Y3452010D3*
Y3622010D3*
D76*
X3150370Y2058037D3*
X3320370D3*
X3131743Y2353343D3*
X3301743D3*
X5156363Y4362107D3*
X5326363D3*
X4753353Y4220953D3*
X4583353D3*
X7468537Y5048537D3*
X7638537D3*
D74*
X2379567Y2418750D3*
X2608167D3*
D72*
X6846887Y2673033D3*
D70*
Y2927033D3*
Y3181033D3*
Y3435033D3*
D68*
X3715380Y6491617D3*
D66*
X3590380D3*
X3465380D3*
X3340380D3*
X3215380D3*
X3090380D3*
X2965380D3*
X2840380D3*
X2715380D3*
D68*
X5386947Y6484360D3*
D66*
X5261947D3*
X5136947D3*
X5011947D3*
X4886947D3*
X4761947D3*
X4636947D3*
D68*
X8549843Y6481730D3*
D66*
X8424843D3*
X8299843D3*
X8174843D3*
X8049843D3*
X7924843D3*
X7799843D3*
D64*
X10421020Y6416477D3*
D62*
X8283650Y5928427D3*
Y5738427D3*
X8513650Y5833427D3*
D78*
X7893627Y5668353D3*
Y5838353D3*
X7399657Y5723953D3*
Y5893953D3*
D76*
X4132313Y3039767D3*
X3962313D3*
X6397670Y4844640D3*
X6227670D3*
X7924627Y4351973D3*
X7754627D3*
X8021783Y4743333D3*
X7851783D3*
X5494230Y4735853D3*
X5664230D3*
X4270167Y4602737D3*
X4100167D3*
X5333960Y4218903D3*
X5163960D3*
X4112040Y4884253D3*
X4282040D3*
D60*
X8641263Y3238507D3*
Y2984507D3*
X8387263Y3361507D3*
Y3107507D3*
D37*
X8641263Y3488507D3*
D38*
X8387263Y2861507D3*
D58*
X10175843Y3227037D3*
Y2973037D3*
X9921843Y3350037D3*
Y3096037D3*
D37*
X10175843Y3477037D3*
D38*
X9921843Y2850037D3*
D56*
X6708620Y5037087D3*
Y4910087D3*
Y4783087D3*
Y4656087D3*
X7248620D3*
Y4783087D3*
Y4910087D3*
Y5037087D3*
D54*
X4594447Y2693497D3*
X4644447D3*
X4694447D3*
X4744447D3*
X4794447D3*
X4844447D3*
X4894447D3*
X4944447D3*
X4994447D3*
X5044447D3*
X5094447D3*
X5144447D3*
D52*
X5289447Y2838497D3*
Y2888497D3*
Y2938497D3*
Y2988497D3*
Y3038497D3*
Y3088497D3*
Y3138497D3*
Y3188497D3*
Y3238497D3*
Y3288497D3*
Y3338497D3*
Y3388497D3*
D54*
X5144447Y3533497D3*
X5094447D3*
X5044447D3*
X4994447D3*
X4944447D3*
X4894447D3*
X4844447D3*
X4794447D3*
X4744447D3*
X4694447D3*
X4644447D3*
X4594447D3*
D52*
X4449447Y3388497D3*
Y3338497D3*
Y3288497D3*
Y3238497D3*
Y3188497D3*
Y3138497D3*
Y3088497D3*
Y3038497D3*
Y2988497D3*
Y2938497D3*
Y2888497D3*
Y2838497D3*
D50*
X3482740Y3378987D3*
X3252740D3*
X3022740D3*
D48*
X3252740Y2798987D3*
D46*
X8285050Y4369180D3*
Y4559180D3*
X8485050Y4464180D3*
D56*
X5132750Y4492257D3*
Y4619257D3*
Y4746257D3*
Y4873257D3*
X4592750D3*
Y4746257D3*
Y4619257D3*
Y4492257D3*
M02*
