G04 DipTrace 3.2.0.1*
G04 RS-485_PCB.GBL*
%MOMM*%
G04 #@! TF.FileFunction,Copper,L2,Bot*
G04 #@! TF.Part,Single*
G04 #@! TA.AperFunction,Conductor*
%ADD13C,0.3*%
%ADD14C,0.5*%
G04 #@! TA.AperFunction,CopperBalancing*
%ADD15C,0.635*%
G04 #@! TA.AperFunction,ComponentPad*
%ADD19R,1.5X1.5*%
%ADD20C,1.5*%
%ADD21R,1.05X1.15*%
%ADD22O,1.05X1.15*%
%ADD23C,6.5*%
%ADD26C,1.75*%
%ADD27C,1.87*%
G04 #@! TA.AperFunction,ViaPad*
%ADD36C,0.57*%
%FSLAX35Y35*%
G04*
G71*
G90*
G75*
G01*
G04 Bottom*
%LPD*%
X3466340Y3809267D2*
D14*
X3403620Y3871987D1*
Y4137340D1*
X5001043Y3700103D2*
D13*
X5030300Y3729360D1*
X5502950D1*
X5506380Y3725930D1*
X6043220D1*
X6419957Y4102667D1*
Y4606857D1*
X6409083Y4617730D1*
X6215013Y4727393D2*
X6207587Y4719967D1*
X7403380Y4653120D2*
Y4648170D1*
X7814550Y5057893D2*
X7818177Y5061520D1*
X7403380Y4653120D2*
X7808153Y5057893D1*
X7814550D1*
X7403380Y4653120D2*
X7329107Y4727393D1*
X6215013D1*
X7917693Y6324213D2*
X7814550Y6221070D1*
Y5057893D1*
X6215013Y4727393D2*
Y4823717D1*
X6518253Y5126957D1*
X7745487D1*
X7814550Y5057893D1*
X7205353Y3211723D2*
X7486420D1*
X8526277Y4251580D1*
X8066380Y5091127D2*
X8526277Y4631230D1*
Y4251580D1*
X4978147Y2469603D2*
X4816537D1*
X3892980Y2928957D2*
X3887673D1*
X3882367Y2923650D1*
X3951360Y2658297D2*
X3946053D1*
X3484340Y2743210D2*
X3489647D1*
X2718900Y3541397D2*
Y3564267D1*
X3425040Y2354363D2*
X3434967D1*
X3420740Y2059370D2*
Y2354363D1*
X3425040D1*
X3484340Y2413663D1*
Y2572700D1*
Y2743210D1*
X3670087Y2928957D1*
X3757547D1*
X3887673D1*
X3892980D2*
X3951360Y2870577D1*
Y2658297D1*
X4206097Y2361103D2*
X3951360Y2615840D1*
Y2658297D1*
X3484340Y2572700D2*
X3481040Y2569400D1*
X2846283D1*
X2529940Y2885743D1*
Y3505250D1*
X2566087Y3541397D1*
X2718900D1*
X3757547Y3559103D2*
X3751967D1*
X3982790Y3591623D2*
X3790067D1*
X3757547Y3559103D1*
Y2928957D1*
X4271017Y2888497D2*
Y2797487D1*
X4607423Y2461080D1*
X4808013D1*
X4816537Y2469603D1*
X5542300Y3236797D2*
X5787133D1*
X6288600Y2735330D1*
X3420740Y2059370D2*
X5612640D1*
X6288600Y2735330D1*
X5696923Y3565680D2*
X5709200Y3553403D1*
X6195860D1*
X6589587Y3198990D1*
X6607543Y3181033D1*
X6846887D1*
X8038860Y3076707D2*
X7585750D1*
X7340370D1*
X7205353Y3211723D1*
X9503267Y3105703D2*
X9343773D1*
X8731190Y2493120D1*
X8169337D1*
X7585750Y3076707D1*
X5011947Y6704257D2*
X5276993D1*
X2838930Y6708813D2*
X2826653D1*
X3090380D2*
X2838930D1*
X3090380D2*
X3336657D1*
X3346357Y6699113D1*
X3591890D1*
X5275477Y4964207D2*
Y6220830D1*
X5011947Y6484360D1*
X5456300Y4359863D2*
X5155433Y4660730D1*
Y4924607D1*
X5195033Y4964207D1*
X5275477D1*
X4889577Y4217417D2*
X5032023Y4359863D1*
X5456300D1*
X4669883Y4007647D2*
X4879653Y4217417D1*
X4889577D1*
X4761947Y6709733D2*
X5006470D1*
X5011947Y6704257D1*
X4761947Y6709733D2*
X3591890D1*
Y6699113D1*
X8162730Y6693740D2*
X7903117D1*
X8341973D2*
X8162730D1*
X5276993Y6704257D2*
X7903117D1*
Y6693740D1*
X10421020Y6416477D2*
X9329953D1*
X9004723Y6741707D1*
X8389940D1*
X8341973Y6693740D1*
X8093830Y3602877D2*
X8292593Y3852770D1*
X5263237Y3791033D2*
X5666317D1*
X5960833Y4085550D1*
Y4250503D1*
X6088383Y4378053D1*
Y4967747D1*
X6853057Y5732420D1*
X5386947Y5613533D2*
Y4911853D1*
X5318837Y4843743D1*
X4295923Y6354803D2*
Y6295493D1*
X4533183Y6058233D1*
X4212647Y3436673D2*
X4875730Y4099757D1*
X5515933D1*
X5694703Y4463360D2*
X5603593Y4554470D1*
X5457810D1*
X3522603Y6333560D2*
X3653553D1*
X3801077Y6186037D1*
X3830733Y5113703D2*
Y5382157D1*
X4270167Y4501520D2*
X4125897Y4434477D1*
Y3261717D1*
X6154657Y3407207D2*
X6116010Y3445853D1*
X4328613D1*
X6661320Y2929770D2*
X6621447D1*
X6414837Y3136380D1*
X5537783Y3871883D2*
X4870937D1*
X4722340Y3723287D1*
X7224373Y2931717D2*
X7503480D1*
X7854360Y2580837D1*
Y2588813D1*
X9002687Y2851970D2*
X8998697D1*
Y3147027D1*
X8903003Y3242720D1*
X9632670Y3816883D2*
X9465207D1*
X9038570Y3390247D1*
X5652397Y3959713D2*
X5638893Y3973217D1*
X4881797D1*
X4847450Y3938870D1*
X8575253Y6052663D2*
X8667847D1*
X8787673Y5932837D1*
X5700077Y2584610D2*
X5274697Y2159230D1*
X4750283D1*
X4516213Y2393300D1*
Y2418057D1*
X5092533Y2494057D2*
X4921807Y2323333D1*
D36*
X3466340Y3809267D3*
X3403620Y4137340D3*
X5001043Y3700103D3*
X6409083Y4617730D3*
X6215013Y4727393D3*
X7403380Y4653120D3*
X7814550Y5057893D3*
X7403380Y4653120D3*
X7814550Y5057893D3*
X7403380Y4653120D3*
X6215013Y4727393D3*
X7917693Y6324213D3*
X7814550Y5057893D3*
X6215013Y4727393D3*
X7814550Y5057893D3*
X7205353Y3211723D3*
X8526277Y4251580D3*
X8066380Y5091127D3*
X4978147Y2469603D3*
X4816537D3*
D3*
X3892980Y2928957D3*
X3951360Y2658297D3*
X3484340Y2743210D3*
X2718900Y3541397D3*
X3425040Y2354363D3*
X3420740Y2059370D3*
X3425040Y2354363D3*
D3*
X3484340Y2743210D3*
D3*
X3892980Y2928957D3*
X3951360Y2658297D3*
X4206097Y2361103D3*
X3951360Y2658297D3*
X2718900Y3541397D3*
X3757547Y3559103D3*
X3982790Y3591623D3*
X3757547Y3559103D3*
D3*
X4271017Y2888497D3*
X5542300Y3236797D3*
X6288600Y2735330D3*
X3420740Y2059370D3*
X5696923Y3565680D3*
X8038860Y3076707D3*
X7205353Y3211723D3*
X9503267Y3105703D3*
X5011947Y6704257D3*
X5276993D3*
X2838930Y6708813D3*
X3090380D3*
X2838930D3*
X3591890Y6699113D3*
X3090380Y6708813D3*
X3346357Y6699113D3*
X5275477Y4964207D3*
X5456300Y4359863D3*
X5275477Y4964207D3*
X4889577Y4217417D3*
X5456300Y4359863D3*
X4669883Y4007647D3*
X4889577Y4217417D3*
X4761947Y6709733D3*
X5011947Y6704257D3*
X4761947Y6709733D3*
X8162730Y6693740D3*
X7903117D3*
X8341973D3*
X8162730D3*
X7903117D3*
X8341973D3*
X8093830Y3602877D3*
X8292593Y3852770D3*
X5263237Y3791033D3*
X6853057Y5732420D3*
X5386947Y5613533D3*
X5318837Y4843743D3*
X4295923Y6354803D3*
X4533183Y6058233D3*
X4212647Y3436673D3*
X5515933Y4099757D3*
X5694703Y4463360D3*
X5457810Y4554470D3*
X3522603Y6333560D3*
X3801077Y6186037D3*
X3830733Y5113703D3*
Y5382157D3*
X3801077Y6186037D3*
X4270167Y4501520D3*
X4125897Y3261717D3*
X6154657Y3407207D3*
X4328613Y3445853D3*
X6661320Y2929770D3*
X6414837Y3136380D3*
X5537783Y3871883D3*
X4722340Y3723287D3*
X7224373Y2931717D3*
X7854360Y2588813D3*
X9002687Y2851970D3*
X8903003Y3242720D3*
X9632670Y3816883D3*
X9038570Y3390247D3*
X8903003Y3242720D3*
X5652397Y3959713D3*
X4847450Y3938870D3*
X8575253Y6052663D3*
X8787673Y5932837D3*
X5700077Y2584610D3*
X4516213Y2418057D3*
X5092533Y2494057D3*
X4921807Y2323333D3*
X1088147Y6855083D2*
D15*
X10911903D1*
X1088147Y6791917D2*
X2784977D1*
X2892923D2*
X3036357D1*
X3144397D2*
X3316267D1*
X3376453D2*
X3561813D1*
X5056910D2*
X5232060D1*
X5321960D2*
X8317437D1*
X9077260D2*
X10300953D1*
X10541063D2*
X10911903D1*
X1088147Y6728750D2*
X2738857D1*
X9140423D2*
X10177270D1*
X10664837D2*
X10911903D1*
X1088147Y6665583D2*
X2747060D1*
X9203587D2*
X10111643D1*
X10730373D2*
X10911903D1*
X1088147Y6602417D2*
X2652817D1*
X3841480D2*
X4591030D1*
X4682937D2*
X4715993D1*
X4807897D2*
X4841043D1*
X4932860D2*
X4966007D1*
X5057910D2*
X5090967D1*
X5182873D2*
X5216020D1*
X5513093D2*
X7762450D1*
X7837313D2*
X7867817D1*
X7962273D2*
X8012373D1*
X8087233D2*
X8127490D1*
X8212287D2*
X8262387D1*
X8675947D2*
X9021267D1*
X9266753D2*
X10069260D1*
X10772753D2*
X10911903D1*
X1088147Y6539250D2*
X2597127D1*
X3841480D2*
X4521670D1*
X5513093D2*
X7685797D1*
X8675947D2*
X9084430D1*
X9329917D2*
X10042100D1*
X10799917D2*
X10911903D1*
X1088147Y6476083D2*
X2589743D1*
X3841480D2*
X4510823D1*
X5513093D2*
X7673673D1*
X8675947D2*
X9147593D1*
X10815137D2*
X10911903D1*
X1088147Y6412917D2*
X2614627D1*
X3841480D2*
X4213413D1*
X4378420D2*
X4530967D1*
X5513093D2*
X7692087D1*
X8675947D2*
X9210757D1*
X10819603D2*
X10911903D1*
X1088147Y6349750D2*
X3421813D1*
X3760087D2*
X4193910D1*
X4397923D2*
X5023793D1*
X5269280D2*
X7819053D1*
X8016323D2*
X9275470D1*
X10813953D2*
X10911903D1*
X1088147Y6286583D2*
X3432750D1*
X3823250D2*
X4207763D1*
X4427547D2*
X5086957D1*
X5332443D2*
X7757347D1*
X8012130D2*
X10044470D1*
X10797547D2*
X10911903D1*
X1088147Y6223417D2*
X3640927D1*
X3895620D2*
X4245317D1*
X4490710D2*
X5150120D1*
X5364070D2*
X7725900D1*
X7939577D2*
X10073180D1*
X10768837D2*
X10911903D1*
X1088147Y6160250D2*
X3702450D1*
X3899720D2*
X4308480D1*
X4553873D2*
X5186853D1*
X5364160D2*
X7725900D1*
X7903210D2*
X10117660D1*
X10724447D2*
X10911903D1*
X1088147Y6097083D2*
X3759143D1*
X3842937D2*
X4371643D1*
X4627063D2*
X5186853D1*
X5364160D2*
X7725900D1*
X7903210D2*
X8484053D1*
X8746127D2*
X10186930D1*
X10655177D2*
X10911903D1*
X1088147Y6033917D2*
X4434170D1*
X4632170D2*
X5186853D1*
X5364160D2*
X7725900D1*
X7903210D2*
X8474937D1*
X8809290D2*
X10327840D1*
X10514173D2*
X10911903D1*
X1088147Y5970750D2*
X4487853D1*
X4578577D2*
X5186853D1*
X5364160D2*
X7725900D1*
X7903210D2*
X8519233D1*
X8882027D2*
X10911903D1*
X1088147Y5907583D2*
X5186853D1*
X5364160D2*
X7725900D1*
X7903210D2*
X8688947D1*
X8886400D2*
X10911903D1*
X1088147Y5844417D2*
X5186853D1*
X5364160D2*
X7725900D1*
X7903210D2*
X8744457D1*
X8830893D2*
X10911903D1*
X1088147Y5781250D2*
X5186853D1*
X5364160D2*
X6764313D1*
X6941803D2*
X7725900D1*
X7903210D2*
X10911903D1*
X1088147Y5718083D2*
X5186853D1*
X5364160D2*
X6716007D1*
X6954110D2*
X7725900D1*
X7903210D2*
X10911903D1*
X1088147Y5654917D2*
X5186853D1*
X5479643D2*
X6652840D1*
X6915737D2*
X7725900D1*
X7903210D2*
X10911903D1*
X1088147Y5591750D2*
X5186853D1*
X5486570D2*
X6589677D1*
X6835073D2*
X7725900D1*
X7903210D2*
X10911903D1*
X1088147Y5528583D2*
X5186853D1*
X5475540D2*
X6526513D1*
X6771910D2*
X7725900D1*
X7903210D2*
X10911903D1*
X1088147Y5465417D2*
X3777007D1*
X3884410D2*
X5186853D1*
X5475540D2*
X6463350D1*
X6708743D2*
X7725900D1*
X7903210D2*
X10911903D1*
X1088147Y5402250D2*
X3730707D1*
X3930710D2*
X5186853D1*
X5475540D2*
X6400187D1*
X6645580D2*
X7725900D1*
X7903210D2*
X10911903D1*
X1088147Y5339083D2*
X3738817D1*
X3922600D2*
X5186853D1*
X5475540D2*
X6337020D1*
X6582417D2*
X7725900D1*
X7903210D2*
X10911903D1*
X1088147Y5275917D2*
X3742100D1*
X3919410D2*
X5186853D1*
X5475540D2*
X6273857D1*
X6519253D2*
X7725900D1*
X7903210D2*
X10911903D1*
X1088147Y5212750D2*
X3742100D1*
X3919410D2*
X5186853D1*
X5475540D2*
X6210693D1*
X6456087D2*
X7725900D1*
X7903210D2*
X10911903D1*
X1088147Y5149583D2*
X3735537D1*
X3925880D2*
X5186853D1*
X5475540D2*
X6147530D1*
X6392923D2*
X6418207D1*
X7903210D2*
X7984117D1*
X8148577D2*
X10911903D1*
X1088147Y5086417D2*
X3732530D1*
X3928887D2*
X5186853D1*
X5475540D2*
X6084363D1*
X6329760D2*
X6354977D1*
X7912327D2*
X7964340D1*
X8193783D2*
X10911903D1*
X1088147Y5023250D2*
X3792867D1*
X3868640D2*
X5131343D1*
X5475540D2*
X6021293D1*
X6266597D2*
X6291813D1*
X6537300D2*
X7650797D1*
X7910230D2*
X7992413D1*
X8256947D2*
X10911903D1*
X1088147Y4960083D2*
X5074833D1*
X5475540D2*
X5999780D1*
X6203433D2*
X6228597D1*
X6474137D2*
X7587633D1*
X7833030D2*
X8074717D1*
X8320113D2*
X10911903D1*
X1088147Y4896917D2*
X5066813D1*
X5474267D2*
X5999780D1*
X6410970D2*
X7524470D1*
X7769863D2*
X8137880D1*
X8383277D2*
X10911903D1*
X1088147Y4833750D2*
X5066813D1*
X5431610D2*
X5999780D1*
X6347807D2*
X7461303D1*
X7706700D2*
X8201043D1*
X8446440D2*
X10911903D1*
X1088147Y4770583D2*
X5066813D1*
X5387040D2*
X5999780D1*
X7643537D2*
X8264210D1*
X8509603D2*
X10911903D1*
X1088147Y4707417D2*
X5066813D1*
X5244030D2*
X5999780D1*
X7580373D2*
X8327373D1*
X8572860D2*
X10911903D1*
X1088147Y4644250D2*
X5068453D1*
X5294617D2*
X5418090D1*
X5497600D2*
X5999780D1*
X6268967D2*
X6310680D1*
X6507493D2*
X7289497D1*
X7517207D2*
X8390537D1*
X8613873D2*
X10911903D1*
X1088147Y4581083D2*
X4210497D1*
X4329837D2*
X5112387D1*
X5699670D2*
X5999780D1*
X6177000D2*
X6314233D1*
X6508587D2*
X7333883D1*
X7472910D2*
X8437660D1*
X8614877D2*
X10911903D1*
X1088147Y4517917D2*
X4103857D1*
X4370853D2*
X5175550D1*
X5779787D2*
X5999780D1*
X6177000D2*
X6331280D1*
X6508587D2*
X8437660D1*
X8614877D2*
X10911903D1*
X1088147Y4454750D2*
X4039780D1*
X4360100D2*
X5238713D1*
X5484110D2*
X5580603D1*
X5796467D2*
X5999780D1*
X6177000D2*
X6331280D1*
X6508587D2*
X8437660D1*
X8614877D2*
X10911903D1*
X1088147Y4391583D2*
X4037230D1*
X4235230D2*
X4941030D1*
X5553017D2*
X5624900D1*
X5764473D2*
X5979183D1*
X6177000D2*
X6331280D1*
X6508587D2*
X8437660D1*
X8614877D2*
X10911903D1*
X1088147Y4328417D2*
X4037230D1*
X4214540D2*
X4877867D1*
X5553107D2*
X5916020D1*
X6160410D2*
X6331280D1*
X6508587D2*
X8437660D1*
X8614877D2*
X10911903D1*
X1088147Y4265250D2*
X4037230D1*
X4214540D2*
X4800210D1*
X5060100D2*
X5434950D1*
X5477637D2*
X5873543D1*
X6098340D2*
X6331280D1*
X6508587D2*
X8417243D1*
X8627457D2*
X10911903D1*
X1088147Y4202083D2*
X3326657D1*
X3480540D2*
X4037230D1*
X4214540D2*
X4741603D1*
X4996933D2*
X5872177D1*
X6049487D2*
X6331280D1*
X6508587D2*
X8354080D1*
X8614603D2*
X10911903D1*
X1088147Y4138917D2*
X3301500D1*
X3505790D2*
X4037230D1*
X4214540D2*
X4678440D1*
X5609707D2*
X5872177D1*
X6049487D2*
X6331280D1*
X6508587D2*
X8290913D1*
X8536310D2*
X10911903D1*
X1088147Y4075750D2*
X3304963D1*
X3502233D2*
X4037230D1*
X4214540D2*
X4596137D1*
X5614993D2*
X5828337D1*
X6048850D2*
X6270303D1*
X6504030D2*
X8227750D1*
X8473147D2*
X10911903D1*
X1088147Y4012583D2*
X3304963D1*
X3502233D2*
X4037230D1*
X4214540D2*
X4567880D1*
X5738587D2*
X5765170D1*
X6010567D2*
X6207137D1*
X6452623D2*
X8164587D1*
X8409980D2*
X10911903D1*
X1088147Y3949417D2*
X3304963D1*
X3502233D2*
X4037230D1*
X4214540D2*
X4587477D1*
X5947403D2*
X6143973D1*
X6389460D2*
X8101423D1*
X8346817D2*
X10911903D1*
X1088147Y3886250D2*
X3304963D1*
X3529670D2*
X4037230D1*
X4214540D2*
X4539533D1*
X5884240D2*
X6080810D1*
X6326297D2*
X8038257D1*
X8388653D2*
X9414560D1*
X9705073D2*
X10911903D1*
X1088147Y3823083D2*
X3319000D1*
X3567493D2*
X4037230D1*
X4214540D2*
X4476370D1*
X5821077D2*
X6017647D1*
X6263133D2*
X7975093D1*
X8390020D2*
X9348663D1*
X9734603D2*
X10911903D1*
X1088147Y3759917D2*
X3377880D1*
X3554827D2*
X4037230D1*
X4214540D2*
X4413207D1*
X4881727D2*
X4919887D1*
X6199970D2*
X7911930D1*
X8330230D2*
X9285497D1*
X9716010D2*
X10911903D1*
X1088147Y3696750D2*
X4037230D1*
X4214540D2*
X4350043D1*
X4595437D2*
X4623937D1*
X4820750D2*
X4898923D1*
X6136803D2*
X7848767D1*
X8280007D2*
X9222333D1*
X9467820D2*
X10911903D1*
X1088147Y3633583D2*
X2668220D1*
X2769603D2*
X3690967D1*
X4214540D2*
X4286787D1*
X4532273D2*
X4682360D1*
X4762327D2*
X4925810D1*
X5076323D2*
X5622983D1*
X6220750D2*
X7785510D1*
X8229787D2*
X8542020D1*
X8740567D2*
X9159170D1*
X9404657D2*
X10097517D1*
X10254137D2*
X10911903D1*
X1088147Y3570417D2*
X2472347D1*
X2816543D2*
X3656057D1*
X4469110D2*
X5594913D1*
X6306337D2*
X6796760D1*
X6897053D2*
X7722347D1*
X7967833D2*
X7997333D1*
X8190320D2*
X8483323D1*
X8799173D2*
X9096007D1*
X9341493D2*
X10024690D1*
X10326960D2*
X10911903D1*
X1088147Y3507250D2*
X2441357D1*
X2814720D2*
X3668910D1*
X3846220D2*
X3931043D1*
X6376517D2*
X6717920D1*
X6975803D2*
X7659183D1*
X7904670D2*
X8328740D1*
X8818863D2*
X9032840D1*
X9278327D2*
X9881773D1*
X9961920D2*
X9999900D1*
X10351843D2*
X10911903D1*
X1088147Y3444083D2*
X2441267D1*
X2618577D2*
X3668910D1*
X3846220D2*
X4037230D1*
X6446700D2*
X6698507D1*
X6995217D2*
X7596020D1*
X7841503D2*
X8249990D1*
X8814123D2*
X8952997D1*
X9215163D2*
X9785067D1*
X10351297D2*
X10911903D1*
X1088147Y3380917D2*
X2441267D1*
X2618577D2*
X3668910D1*
X3846220D2*
X4037230D1*
X6516790D2*
X6708897D1*
X6984827D2*
X7532853D1*
X7778340D2*
X8227387D1*
X8782220D2*
X8936863D1*
X9152000D2*
X9757723D1*
X10325137D2*
X10911903D1*
X1088147Y3317750D2*
X2441267D1*
X2618577D2*
X3668910D1*
X3846220D2*
X4037230D1*
X4214540D2*
X5484717D1*
X5808223D2*
X6114080D1*
X6195230D2*
X6328270D1*
X6586973D2*
X6759937D1*
X6933783D2*
X7469690D1*
X7715177D2*
X8232400D1*
X8780580D2*
X8837060D1*
X9107520D2*
X9757997D1*
X10314930D2*
X10911903D1*
X1088147Y3254583D2*
X2441267D1*
X2618577D2*
X3668910D1*
X3846220D2*
X4024013D1*
X4227753D2*
X5441787D1*
X5892077D2*
X6398453D1*
X6975073D2*
X7113310D1*
X7652013D2*
X8268947D1*
X9013823D2*
X9786070D1*
X10340633D2*
X10911903D1*
X1088147Y3191417D2*
X2441267D1*
X2618577D2*
X3668910D1*
X3846220D2*
X4054457D1*
X4197313D2*
X5451630D1*
X5955243D2*
X6330093D1*
X6995123D2*
X7105380D1*
X7588850D2*
X8250810D1*
X8795073D2*
X8815787D1*
X9074343D2*
X9454117D1*
X9552403D2*
X9786070D1*
X10338993D2*
X10911903D1*
X1088147Y3128250D2*
X2441267D1*
X2618577D2*
X3668910D1*
X3846220D2*
X5772920D1*
X6018407D2*
X6313050D1*
X6985373D2*
X7152047D1*
X8125970D2*
X8227477D1*
X8756243D2*
X8894757D1*
X9087377D2*
X9243570D1*
X9602717D2*
X9757997D1*
X10309097D2*
X10911903D1*
X1088147Y3065083D2*
X2441267D1*
X2618577D2*
X3668910D1*
X3846220D2*
X5836083D1*
X6081570D2*
X6344497D1*
X6608850D2*
X6758023D1*
X6935697D2*
X7229247D1*
X8140280D2*
X8232033D1*
X8779760D2*
X8910067D1*
X9087377D2*
X9180407D1*
X9596337D2*
X9757723D1*
X10314017D2*
X10911903D1*
X1088147Y3001917D2*
X2441267D1*
X2618577D2*
X3625707D1*
X3961427D2*
X5899247D1*
X6144733D2*
X6426617D1*
X6974253D2*
X7152867D1*
X8105100D2*
X8249533D1*
X8801453D2*
X8910067D1*
X9087377D2*
X9117243D1*
X9362730D2*
X9785160D1*
X10340360D2*
X10911903D1*
X1088147Y2938750D2*
X2441267D1*
X2618577D2*
X3557163D1*
X4005907D2*
X4183153D1*
X4358913D2*
X5962413D1*
X6207897D2*
X6489780D1*
X6995033D2*
X7122517D1*
X7846427D2*
X8204780D1*
X8795530D2*
X8910067D1*
X9299563D2*
X9744873D1*
X10339267D2*
X10911903D1*
X1088147Y2875583D2*
X2441903D1*
X2662780D2*
X3494000D1*
X4039813D2*
X4169757D1*
X4372313D2*
X6025577D1*
X6271063D2*
X6552947D1*
X6985920D2*
X7140380D1*
X7909590D2*
X8189103D1*
X8757613D2*
X8903507D1*
X9236400D2*
X9724913D1*
X10310100D2*
X10911903D1*
X1088147Y2812417D2*
X2480550D1*
X2726037D2*
X3411787D1*
X3676230D2*
X3862687D1*
X4039993D2*
X4182333D1*
X4378783D2*
X6088830D1*
X6351817D2*
X6698233D1*
X6995490D2*
X7500043D1*
X7972753D2*
X8195030D1*
X8579513D2*
X8909067D1*
X9173237D2*
X9726917D1*
X10116780D2*
X10162137D1*
X10189633D2*
X10911903D1*
X1088147Y2749250D2*
X2543713D1*
X2789200D2*
X3382347D1*
X3613067D2*
X3862687D1*
X4039993D2*
X4198010D1*
X4441947D2*
X6151997D1*
X6389733D2*
X6698233D1*
X6995490D2*
X7563207D1*
X8035920D2*
X8224833D1*
X8549707D2*
X8864587D1*
X9110073D2*
X9751710D1*
X10091987D2*
X10911903D1*
X1088147Y2686083D2*
X2606877D1*
X2852363D2*
X3395747D1*
X3572963D2*
X3853297D1*
X4049383D2*
X4259717D1*
X4505113D2*
X6116630D1*
X6377157D2*
X6698233D1*
X6995490D2*
X7626370D1*
X8099083D2*
X8302127D1*
X8472327D2*
X8801423D1*
X9046910D2*
X9815053D1*
X10028640D2*
X10911903D1*
X1088147Y2622917D2*
X2670043D1*
X3572963D2*
X3856030D1*
X4066973D2*
X4322880D1*
X4568277D2*
X5605940D1*
X5794187D2*
X6053467D1*
X6298953D2*
X6698233D1*
X6995490D2*
X7689533D1*
X8162247D2*
X8738257D1*
X8983743D2*
X10911903D1*
X1088147Y2559750D2*
X2733207D1*
X3572963D2*
X3884833D1*
X4130137D2*
X4386043D1*
X4631440D2*
X4777790D1*
X4855293D2*
X4939390D1*
X5168563D2*
X5552530D1*
X5798927D2*
X5990303D1*
X6235790D2*
X6698233D1*
X6995490D2*
X7752697D1*
X7951973D2*
X7979977D1*
X8920580D2*
X10911903D1*
X1088147Y2496583D2*
X2801567D1*
X3572963D2*
X3947907D1*
X4193303D2*
X4449210D1*
X5194630D2*
X5489363D1*
X5744240D2*
X5927137D1*
X6172533D2*
X7822150D1*
X7886623D2*
X8043180D1*
X8857417D2*
X10911903D1*
X1088147Y2433417D2*
X3364573D1*
X3572963D2*
X4011070D1*
X4275243D2*
X4415303D1*
X5173030D2*
X5426200D1*
X5671597D2*
X5863973D1*
X6109370D2*
X8106343D1*
X8794160D2*
X10911903D1*
X1088147Y2370250D2*
X3324197D1*
X3560567D2*
X4074233D1*
X4307780D2*
X4426877D1*
X4661973D2*
X4831930D1*
X5091453D2*
X5362947D1*
X5608433D2*
X5800810D1*
X6046207D2*
X10911903D1*
X1088147Y2307083D2*
X3335407D1*
X3514720D2*
X4120627D1*
X4291557D2*
X4479743D1*
X4725137D2*
X4821083D1*
X5028290D2*
X5299780D1*
X5545267D2*
X5737647D1*
X5983040D2*
X10911903D1*
X1088147Y2243917D2*
X3336410D1*
X3513720D2*
X4542907D1*
X4788303D2*
X4861917D1*
X4981713D2*
X5236617D1*
X5482103D2*
X5674483D1*
X5919877D2*
X10911903D1*
X1088147Y2180750D2*
X3336410D1*
X3513720D2*
X4606070D1*
X5418940D2*
X5611317D1*
X5856713D2*
X10911903D1*
X1088147Y2117583D2*
X3320640D1*
X5793550D2*
X10911903D1*
X1088147Y2054417D2*
X3299950D1*
X5730387D2*
X10911903D1*
X1088147Y1991250D2*
X3326930D1*
X5665763D2*
X10911903D1*
X1088147Y1928083D2*
X10911903D1*
X1088147Y1864917D2*
X10911903D1*
X1088147Y1801750D2*
X10911903D1*
X1088147Y1738583D2*
X10911903D1*
X1088147Y1675417D2*
X10911903D1*
X1088147Y1612250D2*
X10911903D1*
X1088147Y1549083D2*
X10911903D1*
X1088147Y1485917D2*
X10911903D1*
X1088147Y1422750D2*
X10911903D1*
X1088147Y1359583D2*
X10911903D1*
X1088147Y1296417D2*
X10911903D1*
X1088147Y1233250D2*
X10911903D1*
X1088147Y1170083D2*
X10911903D1*
X1088147Y1106917D2*
X10911903D1*
X6727930Y2815323D2*
X6758830D1*
X6746273Y2826420D1*
X6731770Y2843397D1*
X6723283Y2856760D1*
X6711370Y2848097D1*
X6697977Y2841270D1*
X6683683Y2836627D1*
X6668837Y2834277D1*
X6653803D1*
X6638957Y2836627D1*
X6624663Y2841270D1*
X6611247Y2848113D1*
X6596017Y2851507D1*
X6584087Y2856450D1*
X6573077Y2863197D1*
X6563260Y2871583D1*
X6391370Y3043470D1*
X6378180Y3047880D1*
X6364787Y3054707D1*
X6352627Y3063540D1*
X6341997Y3074170D1*
X6333163Y3086330D1*
X6326337Y3099723D1*
X6321693Y3114017D1*
X6319343Y3128863D1*
Y3143897D1*
X6321693Y3158743D1*
X6326337Y3173037D1*
X6333163Y3186430D1*
X6341997Y3198590D1*
X6352627Y3209220D1*
X6364787Y3218053D1*
X6378180Y3224880D1*
X6392473Y3229523D1*
X6407320Y3231873D1*
X6422353D1*
X6431407Y3230677D1*
X6249537Y3394367D1*
X6245760Y3377607D1*
X6240007Y3363720D1*
X6232153Y3350903D1*
X6222390Y3339473D1*
X6210960Y3329710D1*
X6198143Y3321857D1*
X6184257Y3316103D1*
X6169640Y3312597D1*
X6154657Y3311417D1*
X6139673Y3312597D1*
X6125057Y3316103D1*
X6111170Y3321857D1*
X6098353Y3329710D1*
X6086923Y3339473D1*
X6077160Y3350903D1*
X6069343Y3363563D1*
X4377587D1*
X4365270Y3357353D1*
X4350977Y3352710D1*
X4336130Y3350360D1*
X4321097D1*
X4306250Y3352710D1*
X4291957Y3357353D1*
X4276683Y3365437D1*
X4262697Y3355000D1*
X4249303Y3348173D1*
X4235010Y3343530D1*
X4220163Y3341180D1*
X4208213Y3341057D1*
X4208187Y3310740D1*
X4214397Y3298373D1*
X4219040Y3284080D1*
X4221390Y3269233D1*
Y3254200D1*
X4219040Y3239353D1*
X4214397Y3225060D1*
X4207570Y3211667D1*
X4198737Y3199507D1*
X4188107Y3188877D1*
X4175947Y3180043D1*
X4162553Y3173217D1*
X4148260Y3168573D1*
X4133413Y3166223D1*
X4118380D1*
X4103533Y3168573D1*
X4089240Y3173217D1*
X4075847Y3180043D1*
X4063687Y3188877D1*
X4053057Y3199507D1*
X4044223Y3211667D1*
X4037397Y3225060D1*
X4032753Y3239353D1*
X4030403Y3254200D1*
Y3269233D1*
X4032753Y3284080D1*
X4037397Y3298373D1*
X4043603Y3310663D1*
X4043607Y3517563D1*
X4032840Y3509950D1*
X4019447Y3503123D1*
X4005153Y3498480D1*
X3990307Y3496130D1*
X3975273D1*
X3960427Y3498480D1*
X3946133Y3503123D1*
X3933843Y3509330D1*
X3839783Y3509333D1*
X3839837Y3011227D1*
X3863380Y3020060D1*
X3877997Y3023567D1*
X3892980Y3024747D1*
X3907963Y3023567D1*
X3922580Y3020060D1*
X3936467Y3014307D1*
X3949283Y3006453D1*
X3960713Y2996690D1*
X3970477Y2985260D1*
X3978330Y2972443D1*
X3984083Y2958557D1*
X3985780Y2952533D1*
X4013933Y2924020D1*
X4021523Y2913573D1*
X4027387Y2902067D1*
X4031377Y2889787D1*
X4033397Y2877033D1*
X4033650Y2707333D1*
X4039860Y2694953D1*
X4044503Y2680660D1*
X4046853Y2665813D1*
Y2650780D1*
X4045023Y2638557D1*
X4229643Y2453933D1*
X4242753Y2449603D1*
X4256147Y2442777D1*
X4268307Y2433943D1*
X4278937Y2423313D1*
X4287770Y2411153D1*
X4294597Y2397760D1*
X4299240Y2383467D1*
X4301590Y2368620D1*
Y2353587D1*
X4299240Y2338740D1*
X4294597Y2324447D1*
X4287770Y2311053D1*
X4278937Y2298893D1*
X4268307Y2288263D1*
X4256147Y2279430D1*
X4242753Y2272603D1*
X4228460Y2267960D1*
X4213613Y2265610D1*
X4198580D1*
X4183733Y2267960D1*
X4169440Y2272603D1*
X4156047Y2279430D1*
X4143887Y2288263D1*
X4133257Y2298893D1*
X4124423Y2311053D1*
X4117597Y2324447D1*
X4113297Y2337527D1*
X3888787Y2562397D1*
X3881197Y2572843D1*
X3875333Y2584350D1*
X3871343Y2596630D1*
X3866010Y2614810D1*
X3860257Y2628697D1*
X3856750Y2643313D1*
X3855570Y2658297D1*
X3856750Y2673280D1*
X3860257Y2687897D1*
X3866010Y2701783D1*
X3869067Y2707243D1*
X3869070Y2836123D1*
X3856323Y2840457D1*
X3844033Y2846663D1*
X3704227Y2846667D1*
X3577140Y2719633D1*
X3572840Y2706553D1*
X3566633Y2694263D1*
X3566377Y2407207D1*
X3564357Y2394453D1*
X3560367Y2382173D1*
X3554503Y2370667D1*
X3546913Y2360220D1*
X3517843Y2330790D1*
X3513540Y2317707D1*
X3507333Y2305417D1*
X3507330Y2140263D1*
X4652780Y2140327D1*
X4453640Y2339857D1*
X4446050Y2350303D1*
X4434540Y2368007D1*
X4427713Y2381400D1*
X4423070Y2395693D1*
X4420720Y2410540D1*
Y2425573D1*
X4423070Y2440420D1*
X4427713Y2454713D1*
X4434540Y2468107D1*
X4443373Y2480267D1*
X4454003Y2490897D1*
X4458040Y2494080D1*
X4208443Y2744043D1*
X4200853Y2754490D1*
X4194990Y2765997D1*
X4191000Y2778277D1*
X4188980Y2791030D1*
X4188727Y2839503D1*
X4182517Y2851840D1*
X4177873Y2866133D1*
X4175523Y2880980D1*
Y2896013D1*
X4177873Y2910860D1*
X4182517Y2925153D1*
X4189343Y2938547D1*
X4198177Y2950707D1*
X4208807Y2961337D1*
X4220967Y2970170D1*
X4234360Y2976997D1*
X4248653Y2981640D1*
X4263500Y2983990D1*
X4278533D1*
X4293380Y2981640D1*
X4307673Y2976997D1*
X4321067Y2970170D1*
X4333227Y2961337D1*
X4343857Y2950707D1*
X4352690Y2938547D1*
X4359517Y2925153D1*
X4364160Y2910860D1*
X4366510Y2896013D1*
Y2880980D1*
X4364160Y2866133D1*
X4359517Y2851840D1*
X4353310Y2839550D1*
X4362203Y2822677D1*
X4641463Y2543417D1*
X4755353Y2543370D1*
X4766487Y2551277D1*
X4779880Y2558103D1*
X4794173Y2562747D1*
X4809020Y2565097D1*
X4824053D1*
X4838900Y2562747D1*
X4853193Y2558103D1*
X4865483Y2551897D1*
X4929103Y2551893D1*
X4941490Y2558103D1*
X4955783Y2562747D1*
X4970630Y2565097D1*
X4985663D1*
X5000510Y2562747D1*
X5014803Y2558103D1*
X5019693Y2556267D1*
X5030323Y2566897D1*
X5042483Y2575730D1*
X5055877Y2582557D1*
X5070170Y2587200D1*
X5085017Y2589550D1*
X5100050D1*
X5114897Y2587200D1*
X5129190Y2582557D1*
X5142583Y2575730D1*
X5154743Y2566897D1*
X5165373Y2556267D1*
X5174207Y2544107D1*
X5181033Y2530713D1*
X5185677Y2516420D1*
X5188027Y2501573D1*
Y2486540D1*
X5185677Y2471693D1*
X5181033Y2457400D1*
X5174207Y2444007D1*
X5165373Y2431847D1*
X5154743Y2421217D1*
X5142583Y2412383D1*
X5129190Y2405557D1*
X5116110Y2401257D1*
X5014667Y2299817D1*
X5010307Y2286677D1*
X5003480Y2273283D1*
X4994647Y2261123D1*
X4984017Y2250493D1*
X4971627Y2241530D1*
X5240557Y2241520D1*
X5607267Y2608177D1*
X5611577Y2621267D1*
X5618403Y2634660D1*
X5627237Y2646820D1*
X5637867Y2657450D1*
X5650027Y2666283D1*
X5663420Y2673110D1*
X5677713Y2677753D1*
X5692560Y2680103D1*
X5707593D1*
X5722440Y2677753D1*
X5736733Y2673110D1*
X5750127Y2666283D1*
X5762287Y2657450D1*
X5772917Y2646820D1*
X5781750Y2634660D1*
X5788577Y2621267D1*
X5793220Y2606973D1*
X5795570Y2592127D1*
Y2577093D1*
X5793220Y2562247D1*
X5788577Y2547953D1*
X5781750Y2534560D1*
X5772917Y2522400D1*
X5762287Y2511770D1*
X5750127Y2502937D1*
X5736733Y2496110D1*
X5723653Y2491810D1*
X5372147Y2140303D1*
X5577183Y2140327D1*
X6172290Y2735393D1*
X5753033Y3154523D1*
X5591260Y3154507D1*
X5578957Y3148297D1*
X5564663Y3143653D1*
X5549817Y3141303D1*
X5534783D1*
X5519937Y3143653D1*
X5505643Y3148297D1*
X5492250Y3155123D1*
X5480090Y3163957D1*
X5469460Y3174587D1*
X5460627Y3186747D1*
X5453800Y3200140D1*
X5449157Y3214433D1*
X5446807Y3229280D1*
Y3244313D1*
X5449157Y3259160D1*
X5453800Y3273453D1*
X5460627Y3286847D1*
X5469460Y3299007D1*
X5480090Y3309637D1*
X5492250Y3318470D1*
X5505643Y3325297D1*
X5519937Y3329940D1*
X5534783Y3332290D1*
X5549817D1*
X5564663Y3329940D1*
X5578957Y3325297D1*
X5591247Y3319090D1*
X5793590Y3318833D1*
X5806343Y3316813D1*
X5818623Y3312823D1*
X5830130Y3306960D1*
X5840577Y3299370D1*
X5960817Y3179490D1*
X6312130Y2828173D1*
X6325257Y2823830D1*
X6338650Y2817003D1*
X6350810Y2808170D1*
X6361440Y2797540D1*
X6370273Y2785380D1*
X6377100Y2771987D1*
X6381743Y2757693D1*
X6384093Y2742847D1*
Y2727813D1*
X6381743Y2712967D1*
X6377100Y2698673D1*
X6370273Y2685280D1*
X6361440Y2673120D1*
X6350810Y2662490D1*
X6338650Y2653657D1*
X6325257Y2646830D1*
X6312177Y2642530D1*
X5664750Y1995463D1*
X5654303Y1987873D1*
X5642797Y1982010D1*
X5630517Y1978020D1*
X5617763Y1976000D1*
X5447973Y1975747D1*
X3451060D1*
X3438643Y1969537D1*
X3424350Y1964893D1*
X3409503Y1962543D1*
X3394470D1*
X3379623Y1964893D1*
X3365330Y1969537D1*
X3351937Y1976363D1*
X3339777Y1985197D1*
X3329147Y1995827D1*
X3320313Y2007987D1*
X3313487Y2021380D1*
X3308843Y2035673D1*
X3306493Y2050520D1*
Y2065553D1*
X3308843Y2080400D1*
X3313487Y2094693D1*
X3320313Y2108087D1*
X3329147Y2120247D1*
X3339777Y2130877D1*
X3342753Y2133223D1*
X3342750Y2305400D1*
X3336540Y2317707D1*
X3331897Y2332000D1*
X3329547Y2346847D1*
Y2361880D1*
X3331897Y2376727D1*
X3336540Y2391020D1*
X3343367Y2404413D1*
X3352200Y2416573D1*
X3362830Y2427203D1*
X3374990Y2436037D1*
X3388383Y2442863D1*
X3401463Y2447163D1*
X3402050Y2487037D1*
X2839827Y2487363D1*
X2827073Y2489383D1*
X2814793Y2493373D1*
X2803287Y2499237D1*
X2792840Y2506827D1*
X2672600Y2626707D1*
X2467367Y2832300D1*
X2459777Y2842747D1*
X2453913Y2854253D1*
X2449923Y2866533D1*
X2447903Y2879287D1*
X2447650Y3049077D1*
X2447903Y3511707D1*
X2449923Y3524460D1*
X2453913Y3536740D1*
X2459777Y3548247D1*
X2467367Y3558693D1*
X2507900Y3599583D1*
X2517717Y3607970D1*
X2528727Y3614717D1*
X2540657Y3619660D1*
X2553213Y3622673D1*
X2566087Y3623687D1*
X2661880D1*
X2675903Y3634430D1*
X2687410Y3640293D1*
X2699690Y3644283D1*
X2712443Y3646303D1*
X2725357D1*
X2738110Y3644283D1*
X2750390Y3640293D1*
X2761897Y3634430D1*
X2772343Y3626840D1*
X2781473Y3617710D1*
X2790013Y3605567D1*
X2800573Y3591447D1*
X2807400Y3578053D1*
X2812043Y3563760D1*
X2814393Y3548913D1*
Y3533880D1*
X2812043Y3519033D1*
X2807400Y3504740D1*
X2800573Y3491347D1*
X2791740Y3479187D1*
X2781110Y3468557D1*
X2768950Y3459723D1*
X2755557Y3452897D1*
X2741263Y3448253D1*
X2726417Y3445903D1*
X2711383D1*
X2696537Y3448253D1*
X2682243Y3452897D1*
X2669953Y3459103D1*
X2612230Y3458583D1*
Y2919820D1*
X2880407Y2651650D1*
X3402000Y2651690D1*
X3402050Y2694197D1*
X3395840Y2706553D1*
X3391197Y2720847D1*
X3388847Y2735693D1*
Y2750727D1*
X3391197Y2765573D1*
X3395840Y2779867D1*
X3402667Y2793260D1*
X3411500Y2805420D1*
X3422130Y2816050D1*
X3434290Y2824883D1*
X3447683Y2831710D1*
X3460763Y2836010D1*
X3616643Y2991530D1*
X3627090Y2999120D1*
X3638597Y3004983D1*
X3650877Y3008973D1*
X3663630Y3010993D1*
X3675283Y3011247D1*
X3675257Y3510010D1*
X3669047Y3522447D1*
X3664403Y3536740D1*
X3662053Y3551587D1*
Y3566620D1*
X3664403Y3581467D1*
X3669047Y3595760D1*
X3675873Y3609153D1*
X3684707Y3621313D1*
X3695337Y3631943D1*
X3707497Y3640777D1*
X3720890Y3647603D1*
X3734083Y3651937D1*
X3747070Y3661787D1*
X3758577Y3667650D1*
X3770857Y3671640D1*
X3783610Y3673660D1*
X3933803Y3673913D1*
X3946133Y3680123D1*
X3960427Y3684767D1*
X3975273Y3687117D1*
X3990307D1*
X4005153Y3684767D1*
X4019447Y3680123D1*
X4032840Y3673297D1*
X4043593Y3665573D1*
X4044147Y4443900D1*
X4046627Y4456573D1*
X4051060Y4468700D1*
X4057337Y4479987D1*
X4065300Y4490150D1*
X4074753Y4498947D1*
X4085470Y4506153D1*
X4190983Y4555467D1*
X4202433Y4569253D1*
X4213863Y4579017D1*
X4226680Y4586870D1*
X4240567Y4592623D1*
X4255183Y4596130D1*
X4270167Y4597310D1*
X4285150Y4596130D1*
X4299767Y4592623D1*
X4313653Y4586870D1*
X4326470Y4579017D1*
X4337900Y4569253D1*
X4347663Y4557823D1*
X4355517Y4545007D1*
X4361270Y4531120D1*
X4364777Y4516503D1*
X4365957Y4501520D1*
X4364777Y4486537D1*
X4361270Y4471920D1*
X4355517Y4458033D1*
X4347663Y4445217D1*
X4337900Y4433787D1*
X4326470Y4424023D1*
X4313653Y4416170D1*
X4299767Y4410417D1*
X4285150Y4406910D1*
X4270167Y4405730D1*
X4260463Y4406283D1*
X4208220Y4381990D1*
X4208187Y3548630D1*
X4600903Y3941307D1*
X4592387Y3951343D1*
X4584533Y3964160D1*
X4578780Y3978047D1*
X4575273Y3992663D1*
X4574093Y4007647D1*
X4575273Y4022630D1*
X4578780Y4037247D1*
X4584533Y4051133D1*
X4592387Y4063950D1*
X4602150Y4075380D1*
X4613580Y4085143D1*
X4626397Y4092997D1*
X4640283Y4098750D1*
X4646307Y4100447D1*
X4801887Y4256027D1*
X4807903Y4267467D1*
X4816737Y4279627D1*
X4827367Y4290257D1*
X4839527Y4299090D1*
X4852920Y4305917D1*
X4866000Y4310217D1*
X4978580Y4422437D1*
X4989027Y4430027D1*
X5000533Y4435890D1*
X5012813Y4439880D1*
X5025567Y4441900D1*
X5195357Y4442153D1*
X5257610D1*
X5092860Y4607287D1*
X5085270Y4617733D1*
X5079407Y4629240D1*
X5075417Y4641520D1*
X5073397Y4654273D1*
X5073143Y4824063D1*
X5073397Y4931063D1*
X5075417Y4943817D1*
X5079407Y4956097D1*
X5085270Y4967603D1*
X5092860Y4978050D1*
X5136847Y5022393D1*
X5146663Y5030780D1*
X5157673Y5037527D1*
X5169603Y5042470D1*
X5182160Y5045483D1*
X5188603Y5046243D1*
X5193187Y5057540D1*
Y6186747D1*
X5020137Y6359793D1*
X5002547Y6359940D1*
X4983983Y6362880D1*
X4966107Y6368690D1*
X4949453Y6377170D1*
X4932787Y6368690D1*
X4914910Y6362880D1*
X4896347Y6359940D1*
X4877547D1*
X4858983Y6362880D1*
X4841107Y6368690D1*
X4824453Y6377170D1*
X4807787Y6368690D1*
X4789910Y6362880D1*
X4771347Y6359940D1*
X4752547D1*
X4733983Y6362880D1*
X4716107Y6368690D1*
X4699453Y6377170D1*
X4682787Y6368690D1*
X4664910Y6362880D1*
X4646347Y6359940D1*
X4627547D1*
X4608983Y6362880D1*
X4591107Y6368690D1*
X4574357Y6377223D1*
X4559150Y6388270D1*
X4545857Y6401563D1*
X4534810Y6416770D1*
X4526277Y6433520D1*
X4520467Y6451397D1*
X4517527Y6469960D1*
Y6498760D1*
X4520467Y6517323D1*
X4526277Y6535200D1*
X4534810Y6551950D1*
X4545857Y6567157D1*
X4559150Y6580450D1*
X4574357Y6591497D1*
X4591107Y6600030D1*
X4608983Y6605840D1*
X4627547Y6608780D1*
X4646347D1*
X4664910Y6605840D1*
X4682787Y6600030D1*
X4699440Y6591550D1*
X4716107Y6600030D1*
X4733983Y6605840D1*
X4752547Y6608780D1*
X4771347D1*
X4789910Y6605840D1*
X4807787Y6600030D1*
X4824440Y6591550D1*
X4841107Y6600030D1*
X4858983Y6605840D1*
X4877547Y6608780D1*
X4896347D1*
X4914910Y6605840D1*
X4932787Y6600030D1*
X4949440Y6591550D1*
X4966107Y6600030D1*
X4983983Y6605840D1*
X5003687Y6608827D1*
X4989583Y6611113D1*
X4975290Y6615757D1*
X4961897Y6622583D1*
X4954790Y6627433D1*
X4810963Y6627443D1*
X4798603Y6621233D1*
X4784310Y6616590D1*
X4769463Y6614240D1*
X4754430D1*
X4739583Y6616590D1*
X4725290Y6621233D1*
X4713000Y6627440D1*
X3655527Y6627443D1*
X3641940Y6617440D1*
X3640120Y6616420D1*
X3835170Y6616407D1*
Y6366827D1*
X3736640D1*
X3824593Y6278897D1*
X3837733Y6274537D1*
X3851127Y6267710D1*
X3863287Y6258877D1*
X3873917Y6248247D1*
X3882750Y6236087D1*
X3889577Y6222693D1*
X3894220Y6208400D1*
X3896570Y6193553D1*
Y6178520D1*
X3894220Y6163673D1*
X3889577Y6149380D1*
X3882750Y6135987D1*
X3873917Y6123827D1*
X3863287Y6113197D1*
X3851127Y6104363D1*
X3837733Y6097537D1*
X3823440Y6092893D1*
X3808593Y6090543D1*
X3793560D1*
X3778713Y6092893D1*
X3764420Y6097537D1*
X3751027Y6104363D1*
X3738867Y6113197D1*
X3728237Y6123827D1*
X3719403Y6135987D1*
X3712577Y6149380D1*
X3708277Y6162460D1*
X3619467Y6251270D1*
X3571613D1*
X3559260Y6245060D1*
X3544967Y6240417D1*
X3530120Y6238067D1*
X3515087D1*
X3500240Y6240417D1*
X3485947Y6245060D1*
X3472553Y6251887D1*
X3460393Y6260720D1*
X3449763Y6271350D1*
X3440930Y6283510D1*
X3434103Y6296903D1*
X3429460Y6311197D1*
X3427110Y6326043D1*
Y6341077D1*
X3429460Y6355923D1*
X3434413Y6370883D1*
X3419540Y6375947D1*
X3402887Y6384427D1*
X3386220Y6375947D1*
X3368343Y6370137D1*
X3349780Y6367197D1*
X3330980D1*
X3312417Y6370137D1*
X3294540Y6375947D1*
X3277887Y6384427D1*
X3261220Y6375947D1*
X3243343Y6370137D1*
X3224780Y6367197D1*
X3205980D1*
X3187417Y6370137D1*
X3169540Y6375947D1*
X3152887Y6384427D1*
X3136220Y6375947D1*
X3118343Y6370137D1*
X3099780Y6367197D1*
X3080980D1*
X3062417Y6370137D1*
X3044540Y6375947D1*
X3027887Y6384427D1*
X3011220Y6375947D1*
X2993343Y6370137D1*
X2974780Y6367197D1*
X2955980D1*
X2937417Y6370137D1*
X2919540Y6375947D1*
X2902887Y6384427D1*
X2886220Y6375947D1*
X2868343Y6370137D1*
X2849780Y6367197D1*
X2830980D1*
X2812417Y6370137D1*
X2794540Y6375947D1*
X2777887Y6384427D1*
X2761220Y6375947D1*
X2743343Y6370137D1*
X2724780Y6367197D1*
X2705980D1*
X2687417Y6370137D1*
X2669540Y6375947D1*
X2652790Y6384480D1*
X2637583Y6395527D1*
X2624290Y6408820D1*
X2613243Y6424027D1*
X2604710Y6440777D1*
X2598900Y6458653D1*
X2595960Y6477217D1*
Y6506017D1*
X2598900Y6524580D1*
X2604710Y6542457D1*
X2613243Y6559207D1*
X2624290Y6574413D1*
X2637583Y6587707D1*
X2652790Y6598753D1*
X2669540Y6607287D1*
X2687417Y6613097D1*
X2705980Y6616037D1*
X2724780D1*
X2743343Y6613097D1*
X2761220Y6607287D1*
X2777873Y6598807D1*
X2794540Y6607287D1*
X2812417Y6613097D1*
X2820740Y6614753D1*
X2809330Y6617710D1*
X2795443Y6623463D1*
X2782627Y6631317D1*
X2771197Y6641080D1*
X2761433Y6652510D1*
X2753580Y6665327D1*
X2747827Y6679213D1*
X2744320Y6693830D1*
X2743140Y6708813D1*
X2744320Y6723797D1*
X2747827Y6738413D1*
X2753580Y6752300D1*
X2761433Y6765117D1*
X2771197Y6776547D1*
X2782627Y6786310D1*
X2795443Y6794163D1*
X2809330Y6799917D1*
X2823947Y6803423D1*
X2838930Y6804603D1*
X2853913Y6803423D1*
X2868530Y6799917D1*
X2882417Y6794163D1*
X2887877Y6791107D1*
X3041363Y6791103D1*
X3053723Y6797313D1*
X3068017Y6801957D1*
X3082863Y6804307D1*
X3097897D1*
X3112743Y6801957D1*
X3127037Y6797313D1*
X3139327Y6791107D1*
X3319613Y6791103D1*
X3331373Y6793723D1*
X3346357Y6794903D1*
X3361340Y6793723D1*
X3375957Y6790217D1*
X3389843Y6784463D1*
X3395303Y6781407D1*
X3542777Y6781403D1*
X3555233Y6787613D1*
X3569527Y6792257D1*
X3584373Y6794607D1*
X3599407D1*
X3615223Y6792023D1*
X4712893D1*
X4725290Y6798233D1*
X4739583Y6802877D1*
X4754430Y6805227D1*
X4769463D1*
X4784310Y6802877D1*
X4798603Y6798233D1*
X4810893Y6792027D1*
X4973497Y6792023D1*
X4989583Y6797400D1*
X5004430Y6799750D1*
X5019463D1*
X5034310Y6797400D1*
X5048603Y6792757D1*
X5060893Y6786550D1*
X5228053Y6786547D1*
X5240337Y6792757D1*
X5254630Y6797400D1*
X5269477Y6799750D1*
X5284510D1*
X5299357Y6797400D1*
X5313650Y6792757D1*
X5325940Y6786550D1*
X7880753Y6786883D1*
X7895600Y6789233D1*
X7910633D1*
X7925480Y6786883D1*
X7939773Y6782240D1*
X7952063Y6776033D1*
X8113753Y6776030D1*
X8126073Y6782240D1*
X8140367Y6786883D1*
X8155213Y6789233D1*
X8170247D1*
X8185093Y6786883D1*
X8199387Y6782240D1*
X8211677Y6776033D1*
X8292977Y6776030D1*
X8305317Y6782240D1*
X8318397Y6786540D1*
X8336497Y6804280D1*
X8346943Y6811870D1*
X8358447Y6817733D1*
X8370730Y6821723D1*
X8383483Y6823743D1*
X8553273Y6823997D1*
X9011180Y6823743D1*
X9023933Y6821723D1*
X9036217Y6817733D1*
X9047720Y6811870D1*
X9058167Y6804280D1*
X9178407Y6684400D1*
X9364087Y6498720D1*
X10037520Y6498767D1*
X10047220Y6535490D1*
X10054953Y6557500D1*
X10063983Y6579010D1*
X10074277Y6599947D1*
X10085797Y6620233D1*
X10098503Y6639800D1*
X10112347Y6658577D1*
X10127287Y6676500D1*
X10143263Y6693500D1*
X10160220Y6709520D1*
X10178103Y6724507D1*
X10196843Y6738403D1*
X10216377Y6751160D1*
X10236633Y6762733D1*
X10257543Y6773080D1*
X10279030Y6782167D1*
X10301020Y6789963D1*
X10323433Y6796433D1*
X10346190Y6801563D1*
X10369217Y6805330D1*
X10392423Y6807723D1*
X10415730Y6808730D1*
X10439057Y6808353D1*
X10462320Y6806587D1*
X10485437Y6803440D1*
X10508327Y6798927D1*
X10530907Y6793063D1*
X10553097Y6785863D1*
X10574823Y6777360D1*
X10596003Y6767577D1*
X10616567Y6756557D1*
X10636437Y6744330D1*
X10655543Y6730943D1*
X10673823Y6716447D1*
X10691207Y6700890D1*
X10707637Y6684327D1*
X10723050Y6666813D1*
X10737397Y6648417D1*
X10750627Y6629200D1*
X10762690Y6609230D1*
X10773543Y6588580D1*
X10783150Y6567320D1*
X10791477Y6545527D1*
X10798493Y6523277D1*
X10804173Y6500647D1*
X10808500Y6477723D1*
X10811457Y6454580D1*
X10813310Y6416477D1*
X10812617Y6393157D1*
X10810537Y6369920D1*
X10807080Y6346847D1*
X10802260Y6324020D1*
X10796090Y6301523D1*
X10788593Y6279430D1*
X10779797Y6257823D1*
X10769730Y6236773D1*
X10758430Y6216363D1*
X10745940Y6196660D1*
X10732297Y6177733D1*
X10717553Y6159653D1*
X10701763Y6142480D1*
X10684980Y6126277D1*
X10667263Y6111097D1*
X10648673Y6097000D1*
X10629280Y6084033D1*
X10609150Y6072240D1*
X10588353Y6061667D1*
X10566967Y6052347D1*
X10545063Y6044313D1*
X10522720Y6037600D1*
X10500017Y6032223D1*
X10477037Y6028207D1*
X10453857Y6025563D1*
X10430560Y6024303D1*
X10407230Y6024430D1*
X10383950Y6025943D1*
X10360800Y6028837D1*
X10337863Y6033100D1*
X10315220Y6038723D1*
X10292953Y6045680D1*
X10271137Y6053950D1*
X10249853Y6063500D1*
X10229173Y6074300D1*
X10209170Y6086307D1*
X10189917Y6099487D1*
X10171483Y6113783D1*
X10153930Y6129153D1*
X10137323Y6145537D1*
X10121720Y6162880D1*
X10107173Y6181120D1*
X10093737Y6200193D1*
X10081460Y6220033D1*
X10070383Y6240563D1*
X10060547Y6261720D1*
X10051983Y6283420D1*
X10044727Y6305593D1*
X10037603Y6334147D1*
X9323497Y6334440D1*
X9310743Y6336460D1*
X9298463Y6340450D1*
X9286957Y6346313D1*
X9276510Y6353903D1*
X9156270Y6473783D1*
X8970590Y6659463D1*
X8431327Y6659417D1*
X8423647Y6643690D1*
X8414813Y6631530D1*
X8404183Y6620900D1*
X8392023Y6612067D1*
X8378630Y6605240D1*
X8364337Y6600597D1*
X8349490Y6598247D1*
X8344117Y6598033D1*
X8362337Y6588920D1*
X8379003Y6597400D1*
X8396880Y6603210D1*
X8415443Y6606150D1*
X8430053Y6606520D1*
X8669633D1*
Y6356940D1*
X8415443Y6357310D1*
X8396880Y6360250D1*
X8379003Y6366060D1*
X8362350Y6374540D1*
X8345683Y6366060D1*
X8327807Y6360250D1*
X8309243Y6357310D1*
X8290443D1*
X8271880Y6360250D1*
X8254003Y6366060D1*
X8237350Y6374540D1*
X8220683Y6366060D1*
X8202807Y6360250D1*
X8184243Y6357310D1*
X8165443D1*
X8146880Y6360250D1*
X8129003Y6366060D1*
X8112350Y6374540D1*
X8095683Y6366060D1*
X8077807Y6360250D1*
X8059243Y6357310D1*
X8040443D1*
X8021880Y6360250D1*
X8003833Y6366137D1*
X8008797Y6353813D1*
X8012303Y6339197D1*
X8013483Y6324213D1*
X8012303Y6309230D1*
X8008797Y6294613D1*
X8003043Y6280727D1*
X7995190Y6267910D1*
X7985427Y6256480D1*
X7973997Y6246717D1*
X7961180Y6238863D1*
X7947293Y6233110D1*
X7941270Y6231413D1*
X7896800Y6186947D1*
X7896840Y5106993D1*
X7903050Y5094550D1*
X7907693Y5080257D1*
X7910043Y5065410D1*
Y5050377D1*
X7907693Y5035530D1*
X7903050Y5021237D1*
X7896223Y5007843D1*
X7887390Y4995683D1*
X7876760Y4985053D1*
X7864600Y4976220D1*
X7851207Y4969393D1*
X7836913Y4964750D1*
X7830023Y4963380D1*
X7496207Y4629570D1*
X7491880Y4616463D1*
X7485053Y4603070D1*
X7476220Y4590910D1*
X7465590Y4580280D1*
X7453430Y4571447D1*
X7440037Y4564620D1*
X7425743Y4559977D1*
X7410897Y4557627D1*
X7395863D1*
X7381017Y4559977D1*
X7366723Y4564620D1*
X7353330Y4571447D1*
X7341170Y4580280D1*
X7330540Y4590910D1*
X7321707Y4603070D1*
X7314880Y4616463D1*
X7310580Y4629543D1*
X7294987Y4645140D1*
X6500863Y4645103D1*
X6503693Y4632713D1*
X6504873Y4617730D1*
X6503693Y4602747D1*
X6502243Y4595453D1*
X6501993Y4096210D1*
X6499973Y4083457D1*
X6495983Y4071177D1*
X6490120Y4059670D1*
X6482530Y4049223D1*
X6362650Y3928983D1*
X6096663Y3663357D1*
X6086217Y3655767D1*
X6074710Y3649903D1*
X6062430Y3645913D1*
X6049677Y3643893D1*
X5879887Y3643640D1*
X5753227Y3643177D1*
X5762177Y3635707D1*
X6204450Y3635243D1*
X6217147Y3632893D1*
X6229320Y3628583D1*
X6240670Y3622423D1*
X6250913Y3614563D1*
X6641163Y3263283D1*
X6730863Y3263323D1*
X6738690Y3273443D1*
X6754477Y3289230D1*
X6772540Y3302357D1*
X6782290Y3308253D1*
X6763250Y3319917D1*
X6746273Y3334420D1*
X6731770Y3351397D1*
X6720107Y3370437D1*
X6711560Y3391063D1*
X6706350Y3412773D1*
X6704597Y3435033D1*
X6706350Y3457293D1*
X6711560Y3479003D1*
X6720107Y3499630D1*
X6731770Y3518670D1*
X6746273Y3535647D1*
X6763250Y3550150D1*
X6782290Y3561813D1*
X6802917Y3570360D1*
X6824627Y3575570D1*
X6846887Y3577323D1*
X6869147Y3575570D1*
X6890857Y3570360D1*
X6911483Y3561813D1*
X6930523Y3550150D1*
X6947500Y3535647D1*
X6962003Y3518670D1*
X6973667Y3499630D1*
X6982213Y3479003D1*
X6987423Y3457293D1*
X6989177Y3435033D1*
X6987423Y3412773D1*
X6982213Y3391063D1*
X6973667Y3370437D1*
X6962003Y3351397D1*
X6947500Y3334420D1*
X6930523Y3319917D1*
X6911050Y3308050D1*
X6930523Y3296150D1*
X6947500Y3281647D1*
X6962003Y3264670D1*
X6973667Y3245630D1*
X6982213Y3225003D1*
X6987423Y3203293D1*
X6989177Y3181033D1*
X6987423Y3158773D1*
X6982213Y3137063D1*
X6973667Y3116437D1*
X6962003Y3097397D1*
X6947500Y3080420D1*
X6930523Y3065917D1*
X6911050Y3054050D1*
X6930523Y3042150D1*
X6947500Y3027647D1*
X6962003Y3010670D1*
X6973667Y2991630D1*
X6982213Y2971003D1*
X6987423Y2949293D1*
X6989177Y2927033D1*
X6987423Y2904773D1*
X6982213Y2883063D1*
X6973667Y2862437D1*
X6962003Y2843397D1*
X6947500Y2826420D1*
X6934877Y2815350D1*
X6989177Y2815323D1*
Y2530743D1*
X6704597D1*
Y2815323D1*
X6727930D1*
X6725373Y3001037D2*
X6738690Y3019443D1*
X6754477Y3035230D1*
X6772540Y3048357D1*
X6782290Y3054253D1*
X6763250Y3065917D1*
X6746273Y3080420D1*
X6731770Y3097397D1*
X6730220Y3098743D1*
X6601087Y3098997D1*
X6588333Y3101017D1*
X6576053Y3105007D1*
X6564547Y3110870D1*
X6554100Y3118460D1*
X6532927Y3139273D1*
X6506960Y3162647D1*
X6522523Y3145070D1*
X6643623Y3023970D1*
X6661320Y3025560D1*
X6676303Y3024380D1*
X6690920Y3020873D1*
X6704807Y3015120D1*
X6717623Y3007267D1*
X6725320Y3000953D1*
X3527887Y6598807D2*
X3544540Y6607287D1*
X3554600Y6610893D1*
X3542943Y6616820D1*
X3395470Y6616823D1*
X3380230Y6609587D1*
X3394763Y6603350D1*
X3402873Y6598807D1*
X3419540Y6607287D1*
X3437417Y6613097D1*
X3455980Y6616037D1*
X3474780D1*
X3493343Y6613097D1*
X3511220Y6607287D1*
X3527873Y6598807D1*
X3277887D2*
X3294540Y6607287D1*
X3307287Y6611650D1*
X3296307Y6617440D1*
X3283867Y6626533D1*
X3139327Y6626523D1*
X3127037Y6620313D1*
X3112743Y6615670D1*
X3109083Y6614943D1*
X3127397Y6610543D1*
X3144763Y6603350D1*
X3152873Y6598807D1*
X3169540Y6607287D1*
X3187417Y6613097D1*
X3205980Y6616037D1*
X3224780D1*
X3243343Y6613097D1*
X3261220Y6607287D1*
X3277873Y6598807D1*
X3027887D2*
X3044540Y6607287D1*
X3062417Y6613097D1*
X3071460Y6614897D1*
X3053723Y6620313D1*
X3041433Y6626520D1*
X2887947Y6626523D1*
X2875587Y6620313D1*
X2861293Y6615670D1*
X2859120Y6614933D1*
X2877397Y6610543D1*
X2894763Y6603350D1*
X2902873Y6598807D1*
X2919540Y6607287D1*
X2937417Y6613097D1*
X2955980Y6616037D1*
X2974780D1*
X2993343Y6613097D1*
X3011220Y6607287D1*
X3027873Y6598807D1*
X3060780Y6617710D1*
X3046893Y6623463D1*
X3041433Y6626520D1*
X5288393Y6609150D2*
X5506737D1*
Y6359570D1*
X5252730Y6359933D1*
X5338050Y6274273D1*
X5345640Y6263827D1*
X5351503Y6252320D1*
X5355493Y6240040D1*
X5357513Y6227287D1*
X5357767Y6057497D1*
Y5704853D1*
X5371963Y5708143D1*
X5386947Y5709323D1*
X5401930Y5708143D1*
X5416547Y5704637D1*
X5430433Y5698883D1*
X5443250Y5691030D1*
X5454680Y5681267D1*
X5464443Y5669837D1*
X5472297Y5657020D1*
X5478050Y5643133D1*
X5481557Y5628517D1*
X5482737Y5613533D1*
X5481557Y5598550D1*
X5478050Y5583933D1*
X5472297Y5570047D1*
X5469240Y5564587D1*
X5468983Y4905397D1*
X5466963Y4892643D1*
X5462973Y4880363D1*
X5457110Y4868857D1*
X5449520Y4858410D1*
X5411687Y4820217D1*
X5407337Y4807087D1*
X5400510Y4793693D1*
X5391677Y4781533D1*
X5381047Y4770903D1*
X5368887Y4762070D1*
X5355493Y4755243D1*
X5341200Y4750600D1*
X5326353Y4748250D1*
X5311320D1*
X5296473Y4750600D1*
X5282180Y4755243D1*
X5268787Y4762070D1*
X5256627Y4770903D1*
X5245997Y4781533D1*
X5237733Y4792837D1*
X5237723Y4694827D1*
X5363200Y4569453D1*
X5366707Y4584070D1*
X5372460Y4597957D1*
X5380313Y4610773D1*
X5390077Y4622203D1*
X5401507Y4631967D1*
X5414323Y4639820D1*
X5428210Y4645573D1*
X5442827Y4649080D1*
X5457810Y4650260D1*
X5472793Y4649080D1*
X5487410Y4645573D1*
X5501297Y4639820D1*
X5506757Y4636763D1*
X5610050Y4636507D1*
X5622803Y4634487D1*
X5635083Y4630497D1*
X5646590Y4624633D1*
X5657037Y4617043D1*
X5718173Y4556263D1*
X5731360Y4551860D1*
X5744753Y4545033D1*
X5756913Y4536200D1*
X5767543Y4525570D1*
X5776377Y4513410D1*
X5783203Y4500017D1*
X5787847Y4485723D1*
X5790197Y4470877D1*
Y4455843D1*
X5787847Y4440997D1*
X5783203Y4426703D1*
X5776377Y4413310D1*
X5767543Y4401150D1*
X5756913Y4390520D1*
X5744753Y4381687D1*
X5731360Y4374860D1*
X5717067Y4370217D1*
X5702220Y4367867D1*
X5687187D1*
X5672340Y4370217D1*
X5658047Y4374860D1*
X5644653Y4381687D1*
X5632493Y4390520D1*
X5621863Y4401150D1*
X5613030Y4413310D1*
X5606203Y4426703D1*
X5601903Y4439783D1*
X5569553Y4472137D1*
X5506887Y4472180D1*
X5494467Y4465970D1*
X5480173Y4461327D1*
X5472707Y4459850D1*
X5479863Y4452677D1*
X5492957Y4448363D1*
X5506350Y4441537D1*
X5518510Y4432703D1*
X5529140Y4422073D1*
X5537973Y4409913D1*
X5544800Y4396520D1*
X5549443Y4382227D1*
X5551793Y4367380D1*
Y4352347D1*
X5549443Y4337500D1*
X5544800Y4323207D1*
X5537973Y4309813D1*
X5529140Y4297653D1*
X5518510Y4287023D1*
X5506350Y4278190D1*
X5492957Y4271363D1*
X5478663Y4266720D1*
X5463817Y4264370D1*
X5448783D1*
X5433937Y4266720D1*
X5419643Y4271363D1*
X5407353Y4277570D1*
X5066103Y4277573D1*
X4982387Y4193850D1*
X4978553Y4182053D1*
X5466993Y4182047D1*
X5479277Y4188257D1*
X5493570Y4192900D1*
X5508417Y4195250D1*
X5523450D1*
X5538297Y4192900D1*
X5552590Y4188257D1*
X5565983Y4181430D1*
X5578143Y4172597D1*
X5588773Y4161967D1*
X5597607Y4149807D1*
X5604433Y4136413D1*
X5609077Y4122120D1*
X5611427Y4107273D1*
Y4092240D1*
X5609077Y4077393D1*
X5604433Y4063100D1*
X5600867Y4055527D1*
X5652397Y4055503D1*
X5667380Y4054323D1*
X5681997Y4050817D1*
X5695883Y4045063D1*
X5708700Y4037210D1*
X5720130Y4027447D1*
X5729893Y4016017D1*
X5737747Y4003200D1*
X5743500Y3989313D1*
X5744543Y3985610D1*
X5878497Y4119587D1*
X5878797Y4256960D1*
X5880817Y4269713D1*
X5884807Y4281993D1*
X5890670Y4293500D1*
X5898260Y4303947D1*
X6006087Y4412133D1*
X6006347Y4974203D1*
X6008367Y4986957D1*
X6012357Y4999237D1*
X6018220Y5010743D1*
X6025810Y5021190D1*
X6145690Y5141430D1*
X6760220Y5755957D1*
X6764557Y5769077D1*
X6771383Y5782470D1*
X6780217Y5794630D1*
X6790847Y5805260D1*
X6803007Y5814093D1*
X6816400Y5820920D1*
X6830693Y5825563D1*
X6845540Y5827913D1*
X6860573D1*
X6875420Y5825563D1*
X6889713Y5820920D1*
X6903107Y5814093D1*
X6915267Y5805260D1*
X6925897Y5794630D1*
X6934730Y5782470D1*
X6941557Y5769077D1*
X6946200Y5754783D1*
X6948550Y5739937D1*
Y5724903D1*
X6946200Y5710057D1*
X6941557Y5695763D1*
X6934730Y5682370D1*
X6925897Y5670210D1*
X6915267Y5659580D1*
X6903107Y5650747D1*
X6889713Y5643920D1*
X6876633Y5639620D1*
X6170650Y4933640D1*
X6170673Y4895833D1*
X6464810Y5189530D1*
X6475257Y5197120D1*
X6486763Y5202983D1*
X6499043Y5206973D1*
X6511797Y5208993D1*
X6681587Y5209247D1*
X7732293D1*
X7732513Y6227527D1*
X7734533Y6240280D1*
X7738523Y6252560D1*
X7744387Y6264067D1*
X7751977Y6274513D1*
X7824873Y6347767D1*
X7829083Y6360567D1*
X7809243Y6357310D1*
X7790443D1*
X7771880Y6360250D1*
X7754003Y6366060D1*
X7737253Y6374593D1*
X7722047Y6385640D1*
X7708753Y6398933D1*
X7697707Y6414140D1*
X7689173Y6430890D1*
X7683363Y6448767D1*
X7680423Y6467330D1*
Y6496130D1*
X7683363Y6514693D1*
X7689173Y6532570D1*
X7697707Y6549320D1*
X7708753Y6564527D1*
X7722047Y6577820D1*
X7737253Y6588867D1*
X7754003Y6597400D1*
X7771880Y6603210D1*
X7790443Y6606150D1*
X7809243D1*
X7827807Y6603210D1*
X7845683Y6597400D1*
X7862337Y6588920D1*
X7879003Y6597400D1*
X7885103Y6599653D1*
X7873517Y6602637D1*
X7859630Y6608390D1*
X7846813Y6616243D1*
X7839763Y6621957D1*
X5325967Y6621967D1*
X5313650Y6615757D1*
X5299357Y6611113D1*
X5287807Y6609153D1*
X5267123Y6608947D1*
X5254630Y6611113D1*
X5240337Y6615757D1*
X5228047Y6621963D1*
X5060887Y6621967D1*
X5048603Y6615757D1*
X5034310Y6611113D1*
X5021347Y6608780D1*
X5039910Y6605840D1*
X5057787Y6600030D1*
X5074440Y6591550D1*
X5091107Y6600030D1*
X5108983Y6605840D1*
X5127547Y6608780D1*
X5146347D1*
X5164910Y6605840D1*
X5182787Y6600030D1*
X5199440Y6591550D1*
X5216107Y6600030D1*
X5233983Y6605840D1*
X5252547Y6608780D1*
X5261947Y6609150D1*
X8237350Y6588920D2*
X8254003Y6597400D1*
X8271880Y6603210D1*
X8290443Y6606150D1*
X8302597Y6606413D1*
X8293027Y6611447D1*
X8211727Y6611450D1*
X8197153Y6604417D1*
X8211860Y6600657D1*
X8229227Y6593463D1*
X8237337Y6588920D1*
X8112350D2*
X8129003Y6597400D1*
X8138923Y6600967D1*
X8126073Y6605240D1*
X8113783Y6611447D1*
X7952093Y6611450D1*
X7940333Y6605500D1*
X7952807Y6603210D1*
X7970683Y6597400D1*
X7987337Y6588920D1*
X8004003Y6597400D1*
X8021880Y6603210D1*
X8040443Y6606150D1*
X8059243D1*
X8077807Y6603210D1*
X8095683Y6597400D1*
X8112337Y6588920D1*
X8126073Y6605240D1*
X8113783Y6611447D1*
X8795577Y3226363D2*
X8791777Y3202370D1*
X8784270Y3179270D1*
X8773243Y3157630D1*
X8758967Y3137980D1*
X8741790Y3120803D1*
X8729680Y3111563D1*
X8741790Y3102210D1*
X8758967Y3085033D1*
X8773243Y3065383D1*
X8784270Y3043743D1*
X8791777Y3020643D1*
X8795577Y2996650D1*
Y2972363D1*
X8791777Y2948370D1*
X8784270Y2925270D1*
X8773243Y2903630D1*
X8758967Y2883980D1*
X8741790Y2866803D1*
X8722140Y2852527D1*
X8700500Y2841500D1*
X8677400Y2833993D1*
X8653407Y2830193D1*
X8629120D1*
X8605127Y2833993D1*
X8582027Y2841500D1*
X8578707Y2843030D1*
X8574240Y2816617D1*
X8570143Y2802087D1*
X8564917Y2787920D1*
X8558593Y2774210D1*
X8551217Y2761037D1*
X8542830Y2748480D1*
X8533483Y2736623D1*
X8523233Y2725537D1*
X8512147Y2715287D1*
X8500290Y2705940D1*
X8487733Y2697553D1*
X8474560Y2690177D1*
X8460850Y2683853D1*
X8446683Y2678627D1*
X8432153Y2674530D1*
X8417343Y2671583D1*
X8402350Y2669810D1*
X8387263Y2669217D1*
X8372177Y2669810D1*
X8357183Y2671583D1*
X8342373Y2674530D1*
X8327843Y2678627D1*
X8313677Y2683853D1*
X8299967Y2690177D1*
X8286793Y2697553D1*
X8274237Y2705940D1*
X8262380Y2715287D1*
X8251293Y2725537D1*
X8241043Y2736623D1*
X8231697Y2748480D1*
X8223310Y2761037D1*
X8215933Y2774210D1*
X8209610Y2787920D1*
X8204383Y2802087D1*
X8200287Y2816617D1*
X8197340Y2831427D1*
X8195567Y2846420D1*
X8194973Y2861507D1*
X8195567Y2876593D1*
X8197340Y2891587D1*
X8200287Y2906397D1*
X8204383Y2920927D1*
X8209610Y2935093D1*
X8215933Y2948803D1*
X8223310Y2961977D1*
X8231697Y2974533D1*
X8241043Y2986390D1*
X8251293Y2997477D1*
X8266317Y3010830D1*
X8255283Y3026630D1*
X8244257Y3048270D1*
X8236750Y3071370D1*
X8232950Y3095363D1*
Y3119650D1*
X8236750Y3143643D1*
X8244257Y3166743D1*
X8255283Y3188383D1*
X8269560Y3208033D1*
X8286737Y3225210D1*
X8298847Y3234450D1*
X8286737Y3243803D1*
X8269560Y3260980D1*
X8255283Y3280630D1*
X8244257Y3302270D1*
X8236750Y3325370D1*
X8232950Y3349363D1*
Y3373650D1*
X8236750Y3397643D1*
X8244257Y3420743D1*
X8255283Y3442383D1*
X8269560Y3462033D1*
X8286737Y3479210D1*
X8306387Y3493487D1*
X8328027Y3504513D1*
X8351127Y3512020D1*
X8375120Y3515820D1*
X8399407D1*
X8423400Y3512020D1*
X8446500Y3504513D1*
X8468140Y3493487D1*
X8469050Y3492880D1*
X8471093Y3515460D1*
X8477407Y3541747D1*
X8487753Y3566723D1*
X8501877Y3589777D1*
X8519437Y3610333D1*
X8539993Y3627893D1*
X8563047Y3642017D1*
X8588023Y3652363D1*
X8614310Y3658677D1*
X8641263Y3660797D1*
X8668217Y3658677D1*
X8694503Y3652363D1*
X8719480Y3642017D1*
X8742533Y3627893D1*
X8763090Y3610333D1*
X8780650Y3589777D1*
X8794773Y3566723D1*
X8805120Y3541747D1*
X8811433Y3515460D1*
X8813553Y3488507D1*
X8811433Y3461553D1*
X8805120Y3435267D1*
X8794773Y3410290D1*
X8780650Y3387237D1*
X8763090Y3366680D1*
X8746393Y3352163D1*
X8758967Y3339033D1*
X8773243Y3319383D1*
X8784270Y3297743D1*
X8791777Y3274643D1*
X8795577Y3250650D1*
Y3226363D1*
X10336137Y3214420D2*
X10332190Y3189500D1*
X10324393Y3165503D1*
X10312940Y3143023D1*
X10298110Y3122613D1*
X10280267Y3104770D1*
X10274343Y3100100D1*
X10289540Y3086733D1*
X10305927Y3067547D1*
X10319107Y3046033D1*
X10328763Y3022723D1*
X10334653Y2998190D1*
X10336633Y2973037D1*
X10334653Y2947883D1*
X10328763Y2923350D1*
X10319107Y2900040D1*
X10305927Y2878527D1*
X10289540Y2859340D1*
X10270353Y2842953D1*
X10248840Y2829773D1*
X10225530Y2820117D1*
X10200997Y2814227D1*
X10175843Y2812247D1*
X10150690Y2814227D1*
X10126157Y2820117D1*
X10112563Y2825290D1*
X10108820Y2805147D1*
X10104723Y2790617D1*
X10099497Y2776450D1*
X10093173Y2762740D1*
X10085797Y2749567D1*
X10077410Y2737010D1*
X10068063Y2725153D1*
X10057813Y2714067D1*
X10046727Y2703817D1*
X10034870Y2694470D1*
X10022313Y2686083D1*
X10009140Y2678707D1*
X9995430Y2672383D1*
X9981263Y2667157D1*
X9966733Y2663060D1*
X9951923Y2660113D1*
X9936930Y2658340D1*
X9921843Y2657747D1*
X9906757Y2658340D1*
X9891763Y2660113D1*
X9876953Y2663060D1*
X9862423Y2667157D1*
X9848257Y2672383D1*
X9834547Y2678707D1*
X9821373Y2686083D1*
X9808817Y2694470D1*
X9796960Y2703817D1*
X9785873Y2714067D1*
X9775623Y2725153D1*
X9766277Y2737010D1*
X9757890Y2749567D1*
X9750513Y2762740D1*
X9744190Y2776450D1*
X9738963Y2790617D1*
X9734867Y2805147D1*
X9731920Y2819957D1*
X9730147Y2834950D1*
X9729553Y2850037D1*
X9730147Y2865123D1*
X9731920Y2880117D1*
X9734867Y2894927D1*
X9738963Y2909457D1*
X9744190Y2923623D1*
X9750513Y2937333D1*
X9757890Y2950507D1*
X9766277Y2963063D1*
X9775623Y2974920D1*
X9796310Y2995653D1*
X9784747Y3012023D1*
X9773293Y3034503D1*
X9765497Y3058500D1*
X9761550Y3083420D1*
Y3108653D1*
X9765497Y3133573D1*
X9773293Y3157570D1*
X9784747Y3180050D1*
X9799577Y3200460D1*
X9817420Y3218303D1*
X9823343Y3222973D1*
X9808147Y3236340D1*
X9791760Y3255527D1*
X9778580Y3277040D1*
X9768923Y3300350D1*
X9763033Y3324883D1*
X9761053Y3350037D1*
X9763033Y3375190D1*
X9768923Y3399723D1*
X9778580Y3423033D1*
X9791760Y3444547D1*
X9808147Y3463733D1*
X9827333Y3480120D1*
X9848847Y3493300D1*
X9872157Y3502957D1*
X9896690Y3508847D1*
X9921843Y3510827D1*
X9946997Y3508847D1*
X9971530Y3502957D1*
X9994840Y3493300D1*
X10003920Y3488217D1*
X10005673Y3503990D1*
X10011987Y3530277D1*
X10022333Y3555253D1*
X10036457Y3578307D1*
X10054017Y3598863D1*
X10074573Y3616423D1*
X10097627Y3630547D1*
X10122603Y3640893D1*
X10148890Y3647207D1*
X10175843Y3649327D1*
X10202797Y3647207D1*
X10229083Y3640893D1*
X10254060Y3630547D1*
X10277113Y3616423D1*
X10297670Y3598863D1*
X10315230Y3578307D1*
X10329353Y3555253D1*
X10339700Y3530277D1*
X10346013Y3503990D1*
X10348133Y3477037D1*
X10346013Y3450083D1*
X10339700Y3423797D1*
X10329353Y3398820D1*
X10315230Y3375767D1*
X10297670Y3355210D1*
X10285703Y3344423D1*
X10298110Y3331460D1*
X10312940Y3311050D1*
X10324393Y3288570D1*
X10332190Y3264573D1*
X10336137Y3239653D1*
Y3214420D1*
X3382970Y3762117D2*
X3333443Y3812050D1*
X3324930Y3823767D1*
X3318357Y3836670D1*
X3313880Y3850443D1*
X3311613Y3864747D1*
X3311330Y3988653D1*
Y4111610D1*
X3308127Y4129823D1*
Y4144857D1*
X3310477Y4159703D1*
X3315120Y4173997D1*
X3321947Y4187390D1*
X3330780Y4199550D1*
X3341410Y4210180D1*
X3353570Y4219013D1*
X3366963Y4225840D1*
X3381257Y4230483D1*
X3396103Y4232833D1*
X3411137D1*
X3425983Y4230483D1*
X3440277Y4225840D1*
X3453670Y4219013D1*
X3465830Y4210180D1*
X3476460Y4199550D1*
X3485293Y4187390D1*
X3492120Y4173997D1*
X3496763Y4159703D1*
X3499113Y4144857D1*
Y4129823D1*
X3496763Y4114977D1*
X3495910Y4111953D1*
Y3910297D1*
X3513413Y3892710D1*
X3528550Y3882107D1*
X3539180Y3871477D1*
X3548013Y3859317D1*
X3554840Y3845923D1*
X3559483Y3831630D1*
X3561833Y3816783D1*
Y3801750D1*
X3559483Y3786903D1*
X3554840Y3772610D1*
X3548013Y3759217D1*
X3539180Y3747057D1*
X3528550Y3736427D1*
X3516390Y3727593D1*
X3502997Y3720767D1*
X3488703Y3716123D1*
X3473857Y3713773D1*
X3458823D1*
X3443977Y3716123D1*
X3429683Y3720767D1*
X3416290Y3727593D1*
X3404130Y3736427D1*
X3393500Y3747057D1*
X3384667Y3759217D1*
X3383130Y3761960D1*
X5482807Y3647070D2*
X5080853D1*
X5068777Y3632370D1*
X5057347Y3622607D1*
X5044530Y3614753D1*
X5030643Y3609000D1*
X5016027Y3605493D1*
X5001043Y3604313D1*
X4986060Y3605493D1*
X4971443Y3609000D1*
X4957557Y3614753D1*
X4944740Y3622607D1*
X4933310Y3632370D1*
X4923547Y3643800D1*
X4915693Y3656617D1*
X4909940Y3670503D1*
X4906433Y3685120D1*
X4905253Y3700103D1*
X4906433Y3715087D1*
X4909940Y3729703D1*
X4915693Y3743590D1*
X4923547Y3756407D1*
X4933310Y3767837D1*
X4944740Y3777600D1*
X4957557Y3785453D1*
X4967060Y3789587D1*
X4904957Y3789593D1*
X4815243Y3699813D1*
X4810840Y3686630D1*
X4804013Y3673237D1*
X4795180Y3661077D1*
X4784550Y3650447D1*
X4772390Y3641613D1*
X4758997Y3634787D1*
X4744703Y3630143D1*
X4729857Y3627793D1*
X4714823D1*
X4699977Y3630143D1*
X4685683Y3634787D1*
X4672290Y3641613D1*
X4660130Y3650447D1*
X4649500Y3661077D1*
X4640667Y3673237D1*
X4633840Y3686630D1*
X4629197Y3700923D1*
X4626847Y3715770D1*
Y3730803D1*
X4627340Y3734973D1*
X4420447Y3528097D1*
X5608757Y3528143D1*
X5603780Y3543317D1*
X5601430Y3558163D1*
Y3573197D1*
X5603780Y3588043D1*
X5608423Y3602337D1*
X5615250Y3615730D1*
X5624083Y3627890D1*
X5634713Y3638520D1*
X5641327Y3643650D1*
X5499923Y3643893D1*
X5487147Y3645920D1*
X5799960Y3808220D2*
X6009050D1*
X6337637Y4136723D1*
X6337667Y4553930D1*
X6327410Y4567680D1*
X6320583Y4581073D1*
X6315940Y4595367D1*
X6313590Y4610213D1*
Y4625247D1*
X6315940Y4640093D1*
X6317350Y4645097D1*
X6264067Y4645103D1*
X6251670Y4638893D1*
X6237377Y4634250D1*
X6222530Y4631900D1*
X6207497D1*
X6192650Y4634250D1*
X6178357Y4638893D1*
X6170680Y4642517D1*
X6170420Y4371597D1*
X6168400Y4358843D1*
X6164410Y4346563D1*
X6158547Y4335057D1*
X6150957Y4324610D1*
X6043130Y4216423D1*
X6042870Y4079093D1*
X6040850Y4066340D1*
X6036860Y4054060D1*
X6030997Y4042553D1*
X6023407Y4032107D1*
X5903527Y3911867D1*
X5799827Y3808167D1*
X7403390Y4769507D2*
X7678590Y5044707D1*
X6552297Y5044667D1*
X6317417Y4809743D1*
X7335563Y4809430D1*
X7348317Y4807410D1*
X7360597Y4803420D1*
X7372103Y4797557D1*
X7382550Y4789967D1*
X7387313Y4785563D1*
X7496180Y4629543D2*
X7491880Y4616463D1*
X7485053Y4603070D1*
X7476220Y4590910D1*
X7465590Y4580280D1*
X7453430Y4571447D1*
X7440037Y4564620D1*
X7425743Y4559977D1*
X7410897Y4557627D1*
X7395863D1*
X7381017Y4559977D1*
X7366723Y4564620D1*
X7353330Y4571447D1*
X7341170Y4580280D1*
X7330540Y4590910D1*
X7321707Y4603070D1*
X7314880Y4616463D1*
X7310580Y4629543D1*
X7314880Y4616463D1*
X7321707Y4603070D1*
X7330540Y4590910D1*
X7341170Y4580280D1*
X7353330Y4571447D1*
X7366723Y4564620D1*
X7381017Y4559977D1*
X7395863Y4557627D1*
X7410897D1*
X7425743Y4559977D1*
X7440037Y4564620D1*
X7453430Y4571447D1*
X7465590Y4580280D1*
X7476220Y4590910D1*
X7485053Y4603070D1*
X7491880Y4616463D1*
X7496180Y4629543D1*
X6263960Y4645100D2*
X6251670Y4638893D1*
X6237377Y4634250D1*
X6222530Y4631900D1*
X6207497D1*
X6192650Y4634250D1*
X6178357Y4638893D1*
X6171527Y4642043D1*
X6185413Y4636290D1*
X6200030Y4632783D1*
X6215013Y4631603D1*
X6229997Y4632783D1*
X6244613Y4636290D1*
X6258500Y4642043D1*
X6263960Y4645100D1*
X7896843Y5106840D2*
X7903050Y5094550D1*
X7907693Y5080257D1*
X7910043Y5065410D1*
Y5050377D1*
X7907693Y5035530D1*
X7903050Y5021237D1*
X7896223Y5007843D1*
X7887390Y4995683D1*
X7876760Y4985053D1*
X7864600Y4976220D1*
X7851207Y4969393D1*
X7836913Y4964750D1*
X7830023Y4963380D1*
X7844150Y4966790D1*
X7858037Y4972543D1*
X7870853Y4980397D1*
X7882283Y4990160D1*
X7892047Y5001590D1*
X7899900Y5014407D1*
X7905653Y5028293D1*
X7909160Y5042910D1*
X7910340Y5057893D1*
X7909160Y5072877D1*
X7905653Y5087493D1*
X7899900Y5101380D1*
X7896843Y5106840D1*
X7903050Y5094550D1*
X7907693Y5080257D1*
X7910043Y5065410D1*
Y5050377D1*
X7907693Y5035530D1*
X7903050Y5021237D1*
X7896223Y5007843D1*
X7887390Y4995683D1*
X7876760Y4985053D1*
X7864600Y4976220D1*
X7851207Y4969393D1*
X7836913Y4964750D1*
X7830023Y4963380D1*
X4842830Y2377570D2*
X4831520Y2374993D1*
X4816537Y2373813D1*
X4801553Y2374993D1*
X4786137Y2378797D1*
X4647140Y2378790D1*
X4784313Y2241573D1*
X4871757Y2241660D1*
X4859597Y2250493D1*
X4848967Y2261123D1*
X4840133Y2273283D1*
X4833307Y2286677D1*
X4828663Y2300970D1*
X4826313Y2315817D1*
Y2330850D1*
X4828663Y2345697D1*
X4833307Y2359990D1*
X4840133Y2373383D1*
X4842890Y2377513D1*
X4831520Y2374993D1*
X4816537Y2373813D1*
X4801553Y2374993D1*
X4786137Y2378797D1*
X4755503Y2543370D2*
X4766487Y2551277D1*
X4779880Y2558103D1*
X4794173Y2562747D1*
X4809020Y2565097D1*
X4824053D1*
X4838900Y2562747D1*
X4853193Y2558103D1*
X4865483Y2551897D1*
X3517840Y2330787D2*
X3513540Y2317707D1*
X3507333Y2305417D1*
X3342747D2*
X3336540Y2317707D1*
X3331897Y2332000D1*
X3329547Y2346847D1*
Y2361880D1*
X3331897Y2376727D1*
X3336540Y2391020D1*
X3343367Y2404413D1*
X3352200Y2416573D1*
X3362830Y2427203D1*
X3374990Y2436037D1*
X3388383Y2442863D1*
X3401463Y2447163D1*
X3388383Y2442863D1*
X3374990Y2436037D1*
X3362830Y2427203D1*
X3352200Y2416573D1*
X3343367Y2404413D1*
X3336540Y2391020D1*
X3331897Y2376727D1*
X3329547Y2361880D1*
Y2346847D1*
X3331897Y2332000D1*
X3336540Y2317707D1*
X3342747Y2305417D1*
X3517840Y2330787D2*
X3513540Y2317707D1*
X3507333Y2305417D1*
X3577140Y2719633D2*
X3572840Y2706553D1*
X3566633Y2694263D1*
X3402047D2*
X3395840Y2706553D1*
X3391197Y2720847D1*
X3388847Y2735693D1*
Y2750727D1*
X3391197Y2765573D1*
X3395840Y2779867D1*
X3402667Y2793260D1*
X3411500Y2805420D1*
X3422130Y2816050D1*
X3434290Y2824883D1*
X3447683Y2831710D1*
X3460763Y2836010D1*
X3447683Y2831710D1*
X3434290Y2824883D1*
X3422130Y2816050D1*
X3411500Y2805420D1*
X3402667Y2793260D1*
X3395840Y2779867D1*
X3391197Y2765573D1*
X3388847Y2750727D1*
Y2735693D1*
X3391197Y2720847D1*
X3395840Y2706553D1*
X3402047Y2694263D1*
X3577140Y2719633D2*
X3572840Y2706553D1*
X3566633Y2694263D1*
X3869063Y2836253D2*
X3856323Y2840457D1*
X3844033Y2846663D1*
Y3011250D2*
X3856323Y3017457D1*
X3870617Y3022100D1*
X3885463Y3024450D1*
X3900497D1*
X3915343Y3022100D1*
X3929637Y3017457D1*
X3943030Y3010630D1*
X3955190Y3001797D1*
X3965820Y2991167D1*
X3974653Y2979007D1*
X3981480Y2965613D1*
X3985780Y2952533D1*
X3869383Y2608783D2*
X3862860Y2621640D1*
X3858217Y2635933D1*
X3855867Y2650780D1*
Y2665813D1*
X3858217Y2680660D1*
X3862860Y2694953D1*
X3869067Y2707243D1*
X3862860Y2694953D1*
X3858217Y2680660D1*
X3855867Y2665813D1*
Y2650780D1*
X3858217Y2635933D1*
X3862860Y2621640D1*
X3869383Y2608783D1*
X4033653Y2707243D2*
X4039860Y2694953D1*
X4044503Y2680660D1*
X4046853Y2665813D1*
Y2650780D1*
X4045023Y2638557D1*
X4046853Y2650780D1*
Y2665813D1*
X4044503Y2680660D1*
X4039860Y2694953D1*
X4033653Y2707243D1*
X2790323Y3605140D2*
X2800573Y3591447D1*
X2807400Y3578053D1*
X2812043Y3563760D1*
X2814393Y3548913D1*
Y3533880D1*
X2812043Y3519033D1*
X2807400Y3504740D1*
X2800573Y3491347D1*
X2791740Y3479187D1*
X2781110Y3468557D1*
X2768950Y3459723D1*
X2755557Y3452897D1*
X2741263Y3448253D1*
X2726417Y3445903D1*
X2711383D1*
X2696537Y3448253D1*
X2682243Y3452897D1*
X2669953Y3459103D1*
X3675253Y3510157D2*
X3669047Y3522447D1*
X3664403Y3536740D1*
X3662053Y3551587D1*
Y3566620D1*
X3664403Y3581467D1*
X3669047Y3595760D1*
X3675873Y3609153D1*
X3684707Y3621313D1*
X3695337Y3631943D1*
X3707497Y3640777D1*
X3720890Y3647603D1*
X3734083Y3651937D1*
X3720890Y3647603D1*
X3707497Y3640777D1*
X3695337Y3631943D1*
X3684707Y3621313D1*
X3675873Y3609153D1*
X3669047Y3595760D1*
X3664403Y3581467D1*
X3662053Y3566620D1*
Y3551587D1*
X3664403Y3536740D1*
X3669047Y3522447D1*
X3675253Y3510157D1*
X3450933Y1975743D2*
X3438643Y1969537D1*
X3424350Y1964893D1*
X3409503Y1962543D1*
X3394470D1*
X3379623Y1964893D1*
X3365330Y1969537D1*
X3351937Y1976363D1*
X3339777Y1985197D1*
X3329147Y1995827D1*
X3320313Y2007987D1*
X3313487Y2021380D1*
X3308843Y2035673D1*
X3306493Y2050520D1*
Y2065553D1*
X3308843Y2080400D1*
X3313487Y2094693D1*
X3320313Y2108087D1*
X3329147Y2120247D1*
X3339777Y2130877D1*
X3342753Y2133223D1*
X7286947Y3014117D2*
X7282183Y3018520D1*
X7181777Y3118923D2*
X7168697Y3123223D1*
X7155303Y3130050D1*
X7143143Y3138883D1*
X7132513Y3149513D1*
X7123680Y3161673D1*
X7116853Y3175067D1*
X7112210Y3189360D1*
X7109860Y3204207D1*
Y3219240D1*
X7112210Y3234087D1*
X7116853Y3248380D1*
X7123680Y3261773D1*
X7132513Y3273933D1*
X7143143Y3284563D1*
X7155303Y3293397D1*
X7168697Y3300223D1*
X7182990Y3304867D1*
X7197837Y3307217D1*
X7212870D1*
X7227717Y3304867D1*
X7242010Y3300223D1*
X7254300Y3294017D1*
X7242010Y3300223D1*
X7227717Y3304867D1*
X7212870Y3307217D1*
X7197837D1*
X7182990Y3304867D1*
X7168697Y3300223D1*
X7155303Y3293397D1*
X7143143Y3284563D1*
X7132513Y3273933D1*
X7123680Y3261773D1*
X7116853Y3248380D1*
X7112210Y3234087D1*
X7109860Y3219240D1*
Y3204207D1*
X7112210Y3189360D1*
X7116853Y3175067D1*
X7123680Y3161673D1*
X7132513Y3149513D1*
X7143143Y3138883D1*
X7155303Y3130050D1*
X7168697Y3123223D1*
X7181833Y3118867D1*
X7282183Y3018520D1*
X7273320Y3014010D1*
X7261030Y3020217D1*
X7246737Y3024860D1*
X7231890Y3027210D1*
X7216857D1*
X7202010Y3024860D1*
X7187717Y3020217D1*
X7174323Y3013390D1*
X7162163Y3004557D1*
X7151533Y2993927D1*
X7142700Y2981767D1*
X7135873Y2968373D1*
X7131230Y2954080D1*
X7128880Y2939233D1*
Y2924200D1*
X7131230Y2909353D1*
X7135873Y2895060D1*
X7142700Y2881667D1*
X7151533Y2869507D1*
X7162163Y2858877D1*
X7174323Y2850043D1*
X7187717Y2843217D1*
X7202010Y2838573D1*
X7216857Y2836223D1*
X7231890D1*
X7246737Y2838573D1*
X7261030Y2843217D1*
X7273337Y2849427D1*
X7469347Y2849473D1*
X7765383Y2553450D1*
X7772687Y2538763D1*
X7781520Y2526603D1*
X7792150Y2515973D1*
X7804310Y2507140D1*
X7817703Y2500313D1*
X7831997Y2495670D1*
X7846843Y2493320D1*
X7861877D1*
X7876723Y2495670D1*
X7891017Y2500313D1*
X7904410Y2507140D1*
X7916570Y2515973D1*
X7927200Y2526603D1*
X7936033Y2538763D1*
X7942860Y2552157D1*
X7947503Y2566450D1*
X7949853Y2581297D1*
X7949830Y2596250D1*
X8115893Y2430547D1*
X8126340Y2422957D1*
X8137847Y2417093D1*
X8150127Y2413103D1*
X8162880Y2411083D1*
X8311190Y2410830D1*
X8737647Y2411083D1*
X8750400Y2413103D1*
X8762680Y2417093D1*
X8774187Y2422957D1*
X8784633Y2430547D1*
X8873987Y2519543D1*
X9377940Y3023413D1*
X9454320Y3023410D1*
X9466610Y3017203D1*
X9480903Y3012560D1*
X9495750Y3010210D1*
X9510783D1*
X9525630Y3012560D1*
X9539923Y3017203D1*
X9553317Y3024030D1*
X9565477Y3032863D1*
X9576107Y3043493D1*
X9584940Y3055653D1*
X9591767Y3069047D1*
X9596410Y3083340D1*
X9598760Y3098187D1*
Y3113220D1*
X9596410Y3128067D1*
X9591767Y3142360D1*
X9584940Y3155753D1*
X9576107Y3167913D1*
X9565477Y3178543D1*
X9553317Y3187377D1*
X9539923Y3194203D1*
X9525630Y3198847D1*
X9510783Y3201197D1*
X9495750D1*
X9480903Y3198847D1*
X9466610Y3194203D1*
X9454150Y3187993D1*
X9337317Y3187740D1*
X9324563Y3185720D1*
X9312283Y3181730D1*
X9300777Y3175867D1*
X9290330Y3168277D1*
X9200977Y3079280D1*
X9080987Y2959357D1*
X9080733Y3153483D1*
X9078713Y3166237D1*
X9074723Y3178517D1*
X9068860Y3190023D1*
X9061270Y3200470D1*
X8995803Y3266297D1*
X8991503Y3279377D1*
X8984677Y3292770D1*
X8975843Y3304930D1*
X8965213Y3315560D1*
X8953053Y3324393D1*
X8939660Y3331220D1*
X8925367Y3335863D1*
X8910520Y3338213D1*
X8895487D1*
X8880640Y3335863D1*
X8866347Y3331220D1*
X8852953Y3324393D1*
X8840793Y3315560D1*
X8830163Y3304930D1*
X8821330Y3292770D1*
X8814503Y3279377D1*
X8809860Y3265083D1*
X8807510Y3250237D1*
Y3235203D1*
X8809860Y3220357D1*
X8814503Y3206063D1*
X8821330Y3192670D1*
X8830163Y3180510D1*
X8840793Y3169880D1*
X8852953Y3161047D1*
X8866347Y3154220D1*
X8879473Y3149873D1*
X8916407Y3112920D1*
X8916413Y2893457D1*
X8911583Y2881570D1*
X8908077Y2866953D1*
X8906897Y2851970D1*
X8908077Y2836987D1*
X8911583Y2822370D1*
X8917337Y2808483D1*
X8921973Y2800277D1*
X8697163Y2575410D1*
X8203427Y2575407D1*
X7784473Y2994417D1*
X7989913Y2994413D1*
X8002203Y2988207D1*
X8016497Y2983563D1*
X8031343Y2981213D1*
X8046377D1*
X8061223Y2983563D1*
X8075517Y2988207D1*
X8088910Y2995033D1*
X8101070Y3003867D1*
X8111700Y3014497D1*
X8120533Y3026657D1*
X8127360Y3040050D1*
X8132003Y3054343D1*
X8134353Y3069190D1*
Y3084223D1*
X8132003Y3099070D1*
X8127360Y3113363D1*
X8120533Y3126757D1*
X8111700Y3138917D1*
X8101070Y3149547D1*
X8088910Y3158380D1*
X8075517Y3165207D1*
X8061223Y3169850D1*
X8046377Y3172200D1*
X8031343D1*
X8016497Y3169850D1*
X8002203Y3165207D1*
X7989800Y3158997D1*
X7550110Y3159037D1*
X7998207Y3607133D1*
X7998337Y3595360D1*
X8000687Y3580513D1*
X8005330Y3566220D1*
X8012157Y3552827D1*
X8020990Y3540667D1*
X8031620Y3530037D1*
X8043780Y3521203D1*
X8057173Y3514377D1*
X8071467Y3509733D1*
X8086313Y3507383D1*
X8101347D1*
X8116193Y3509733D1*
X8130487Y3514377D1*
X8143880Y3521203D1*
X8156040Y3530037D1*
X8166670Y3540667D1*
X8175503Y3552827D1*
X8182330Y3566220D1*
X8186973Y3580513D1*
X8188767Y3590043D1*
X8326577Y3763287D1*
X8336080Y3767420D1*
X8348897Y3775273D1*
X8360327Y3785037D1*
X8370090Y3796467D1*
X8377943Y3809283D1*
X8383697Y3823170D1*
X8387203Y3837787D1*
X8388383Y3852770D1*
X8387203Y3867753D1*
X8383697Y3882370D1*
X8377943Y3896257D1*
X8370090Y3909073D1*
X8360327Y3920503D1*
X8348897Y3930267D1*
X8336080Y3938120D1*
X8331370Y3940297D1*
X8549853Y4158780D1*
X8562933Y4163080D1*
X8576327Y4169907D1*
X8588487Y4178740D1*
X8599117Y4189370D1*
X8607950Y4201530D1*
X8614777Y4214923D1*
X8619420Y4229217D1*
X8621770Y4244063D1*
Y4259097D1*
X8619420Y4273943D1*
X8614777Y4288237D1*
X8608567Y4300643D1*
X8608313Y4637687D1*
X8606293Y4650440D1*
X8602303Y4662720D1*
X8596440Y4674227D1*
X8588850Y4684673D1*
X8471050Y4802833D1*
X8159180Y5114703D1*
X8154880Y5127783D1*
X8148053Y5141177D1*
X8139220Y5153337D1*
X8128590Y5163967D1*
X8116430Y5172800D1*
X8103037Y5179627D1*
X8088743Y5184270D1*
X8073897Y5186620D1*
X8058863D1*
X8044017Y5184270D1*
X8029723Y5179627D1*
X8016330Y5172800D1*
X8004170Y5163967D1*
X7993540Y5153337D1*
X7984707Y5141177D1*
X7977880Y5127783D1*
X7973237Y5113490D1*
X7970887Y5098643D1*
Y5083610D1*
X7973237Y5068763D1*
X7977880Y5054470D1*
X7984707Y5041077D1*
X7993540Y5028917D1*
X8004170Y5018287D1*
X8016330Y5009453D1*
X8029723Y5002627D1*
X8042913Y4998217D1*
X8443987Y4597113D1*
X8443983Y4300527D1*
X8437777Y4288237D1*
X8433457Y4275137D1*
X7452267Y3294013D1*
X7254300D1*
X2887877Y6626520D2*
X2875587Y6620313D1*
X2861293Y6615670D1*
X2858267Y6615067D1*
X2820863Y6614817D2*
X2809330Y6617710D1*
X2795443Y6623463D1*
X2782627Y6631317D1*
X2771197Y6641080D1*
X2761433Y6652510D1*
X2753580Y6665327D1*
X2747827Y6679213D1*
X2744320Y6693830D1*
X2743140Y6708813D1*
X2744320Y6723797D1*
X2747827Y6738413D1*
X2753580Y6752300D1*
X2761433Y6765117D1*
X2771197Y6776547D1*
X2782627Y6786310D1*
X2795443Y6794163D1*
X2809330Y6799917D1*
X2823947Y6803423D1*
X2838930Y6804603D1*
X2853913Y6803423D1*
X2868530Y6799917D1*
X2882417Y6794163D1*
X2887877Y6791107D1*
X3139327Y6626520D2*
X3127037Y6620313D1*
X3112743Y6615670D1*
X3109083Y6614943D1*
X3071677D2*
X3060780Y6617710D1*
X3041433Y6791107D2*
X3053723Y6797313D1*
X3068017Y6801957D1*
X3082863Y6804307D1*
X3097897D1*
X3112743Y6801957D1*
X3127037Y6797313D1*
X3139327Y6791107D1*
X5479877Y4452663D2*
X5492957Y4448363D1*
X5506350Y4441537D1*
X5518510Y4432703D1*
X5529140Y4422073D1*
X5537973Y4409913D1*
X5544800Y4396520D1*
X5549443Y4382227D1*
X5551793Y4367380D1*
Y4352347D1*
X5549443Y4337500D1*
X5544800Y4323207D1*
X5537973Y4309813D1*
X5529140Y4297653D1*
X5518510Y4287023D1*
X5506350Y4278190D1*
X5492957Y4271363D1*
X5478663Y4266720D1*
X5463817Y4264370D1*
X5448783D1*
X5433937Y4266720D1*
X5419643Y4271363D1*
X5407353Y4277570D1*
X4982377Y4193840D2*
X4978553Y4182053D1*
X4802050Y4256183D2*
X4807903Y4267467D1*
X4816737Y4279627D1*
X4827367Y4290257D1*
X4839527Y4299090D1*
X4852920Y4305917D1*
X4866000Y4310217D1*
X5060893Y6621963D2*
X5048603Y6615757D1*
X5034310Y6611113D1*
X5020310Y6608863D1*
X5003583D2*
X4989583Y6611113D1*
X4975290Y6615757D1*
X4961897Y6622583D1*
X4954790Y6627433D1*
X4973717Y6792030D2*
X4989583Y6797400D1*
X5004430Y6799750D1*
X5019463D1*
X5034310Y6797400D1*
X5048603Y6792757D1*
X5060893Y6786550D1*
X4810893Y6627440D2*
X4798603Y6621233D1*
X4784310Y6616590D1*
X4769463Y6614240D1*
X4754430D1*
X4739583Y6616590D1*
X4725290Y6621233D1*
X4713000Y6627440D1*
Y6792027D2*
X4725290Y6798233D1*
X4739583Y6802877D1*
X4754430Y6805227D1*
X4769463D1*
X4784310Y6802877D1*
X4798603Y6798233D1*
X4810893Y6792027D1*
X8211677Y6611447D2*
X8197153Y6604417D1*
X8138927Y6601003D2*
X8126073Y6605240D1*
X8113783Y6776033D2*
X8126073Y6782240D1*
X8140367Y6786883D1*
X8155213Y6789233D1*
X8170247D1*
X8185093Y6786883D1*
X8199387Y6782240D1*
X8211677Y6776033D1*
X7952063Y6611447D2*
X7940333Y6605500D1*
X7885107Y6599730D2*
X7873517Y6602637D1*
X7859630Y6608390D1*
X7846813Y6616243D1*
X7839763Y6621957D1*
X7879540Y6786540D2*
X7895600Y6789233D1*
X7910633D1*
X7925480Y6786883D1*
X7939773Y6782240D1*
X7952063Y6776033D1*
X8431337Y6659427D2*
X8423647Y6643690D1*
X8414813Y6631530D1*
X8404183Y6620900D1*
X8392023Y6612067D1*
X8378630Y6605240D1*
X8364337Y6600597D1*
X8349490Y6598247D1*
X8344117Y6598033D1*
X8302620Y6606483D1*
X8293027Y6611447D1*
Y6776033D2*
X8305317Y6782240D1*
X8318397Y6786540D1*
X4385887Y6321907D2*
X4556677Y6151117D1*
X4569840Y6146733D1*
X4583233Y6139907D1*
X4595393Y6131073D1*
X4606023Y6120443D1*
X4614857Y6108283D1*
X4621683Y6094890D1*
X4626327Y6080597D1*
X4628677Y6065750D1*
Y6050717D1*
X4626327Y6035870D1*
X4621683Y6021577D1*
X4614857Y6008183D1*
X4606023Y5996023D1*
X4595393Y5985393D1*
X4583233Y5976560D1*
X4569840Y5969733D1*
X4555547Y5965090D1*
X4540700Y5962740D1*
X4525667D1*
X4510820Y5965090D1*
X4496527Y5969733D1*
X4483133Y5976560D1*
X4470973Y5985393D1*
X4460343Y5996023D1*
X4451510Y6008183D1*
X4444683Y6021577D1*
X4440383Y6034657D1*
X4233350Y6242050D1*
X4225760Y6252497D1*
X4219897Y6264003D1*
X4215907Y6276283D1*
X4213887Y6289037D1*
X4213633Y6295520D1*
X4210573Y6311317D1*
X4204820Y6325203D1*
X4201313Y6339820D1*
X4200133Y6354803D1*
X4201313Y6369787D1*
X4204820Y6384403D1*
X4210573Y6398290D1*
X4218427Y6411107D1*
X4228190Y6422537D1*
X4239620Y6432300D1*
X4252437Y6440153D1*
X4266323Y6445907D1*
X4280940Y6449413D1*
X4295923Y6450593D1*
X4310907Y6449413D1*
X4325523Y6445907D1*
X4339410Y6440153D1*
X4352227Y6432300D1*
X4363657Y6422537D1*
X4373420Y6411107D1*
X4381273Y6398290D1*
X4387027Y6384403D1*
X4390533Y6369787D1*
X4391713Y6354803D1*
X4390533Y6339820D1*
X4387027Y6325203D1*
X4385837Y6321977D1*
X3748443Y5162650D2*
Y5333090D1*
X3742233Y5345500D1*
X3737590Y5359793D1*
X3735240Y5374640D1*
Y5389673D1*
X3737590Y5404520D1*
X3742233Y5418813D1*
X3749060Y5432207D1*
X3757893Y5444367D1*
X3768523Y5454997D1*
X3780683Y5463830D1*
X3794077Y5470657D1*
X3808370Y5475300D1*
X3823217Y5477650D1*
X3838250D1*
X3853097Y5475300D1*
X3867390Y5470657D1*
X3880783Y5463830D1*
X3892943Y5454997D1*
X3903573Y5444367D1*
X3912407Y5432207D1*
X3919233Y5418813D1*
X3923877Y5404520D1*
X3926227Y5389673D1*
Y5374640D1*
X3923877Y5359793D1*
X3919233Y5345500D1*
X3913027Y5333210D1*
X3913023Y5162770D1*
X3919233Y5150360D1*
X3923877Y5136067D1*
X3926227Y5121220D1*
Y5106187D1*
X3923877Y5091340D1*
X3919233Y5077047D1*
X3912407Y5063653D1*
X3903573Y5051493D1*
X3892943Y5040863D1*
X3880783Y5032030D1*
X3867390Y5025203D1*
X3853097Y5020560D1*
X3838250Y5018210D1*
X3823217D1*
X3808370Y5020560D1*
X3794077Y5025203D1*
X3780683Y5032030D1*
X3768523Y5040863D1*
X3757893Y5051493D1*
X3749060Y5063653D1*
X3742233Y5077047D1*
X3737590Y5091340D1*
X3735240Y5106187D1*
Y5121220D1*
X3737590Y5136067D1*
X3742233Y5150360D1*
X3748440Y5162650D1*
X3824653Y6278837D2*
X3837733Y6274537D1*
X3851127Y6267710D1*
X3863287Y6258877D1*
X3873917Y6248247D1*
X3882750Y6236087D1*
X3889577Y6222693D1*
X3894220Y6208400D1*
X3896570Y6193553D1*
Y6178520D1*
X3894220Y6163673D1*
X3889577Y6149380D1*
X3882750Y6135987D1*
X3873917Y6123827D1*
X3863287Y6113197D1*
X3851127Y6104363D1*
X3837733Y6097537D1*
X3823440Y6092893D1*
X3808593Y6090543D1*
X3793560D1*
X3778713Y6092893D1*
X3764420Y6097537D1*
X3751027Y6104363D1*
X3738867Y6113197D1*
X3728237Y6123827D1*
X3719403Y6135987D1*
X3712577Y6149380D1*
X3708277Y6162460D1*
X9583723Y3734593D2*
X9499323D1*
X9131477Y3366777D1*
X9127070Y3353590D1*
X9120243Y3340197D1*
X9111410Y3328037D1*
X9100780Y3317407D1*
X9088620Y3308573D1*
X9075227Y3301747D1*
X9060933Y3297103D1*
X9046087Y3294753D1*
X9031053D1*
X9016207Y3297103D1*
X9001913Y3301747D1*
X8988520Y3308573D1*
X8976360Y3317407D1*
X8965730Y3328037D1*
X8956897Y3340197D1*
X8950070Y3353590D1*
X8945427Y3367883D1*
X8943077Y3382730D1*
Y3397763D1*
X8945427Y3412610D1*
X8950070Y3426903D1*
X8956897Y3440297D1*
X8965730Y3452457D1*
X8976360Y3463087D1*
X8988520Y3471920D1*
X9001913Y3478747D1*
X9014993Y3483047D1*
X9411763Y3879457D1*
X9422210Y3887047D1*
X9433717Y3892910D1*
X9445997Y3896900D1*
X9458750Y3898920D1*
X9583607Y3899173D1*
X9596013Y3905383D1*
X9610307Y3910027D1*
X9625153Y3912377D1*
X9640187D1*
X9655033Y3910027D1*
X9669327Y3905383D1*
X9682720Y3898557D1*
X9694880Y3889723D1*
X9705510Y3879093D1*
X9714343Y3866933D1*
X9721170Y3853540D1*
X9725813Y3839247D1*
X9728163Y3824400D1*
Y3809367D1*
X9725813Y3794520D1*
X9721170Y3780227D1*
X9714343Y3766833D1*
X9705510Y3754673D1*
X9694880Y3744043D1*
X9682720Y3735210D1*
X9669327Y3728383D1*
X9655033Y3723740D1*
X9640187Y3721390D1*
X9625153D1*
X9610307Y3723740D1*
X9596013Y3728383D1*
X9583723Y3734590D1*
X8879427Y3149920D2*
X8866347Y3154220D1*
X8852953Y3161047D1*
X8840793Y3169880D1*
X8830163Y3180510D1*
X8821330Y3192670D1*
X8814503Y3206063D1*
X8809860Y3220357D1*
X8807510Y3235203D1*
Y3250237D1*
X8809860Y3265083D1*
X8814503Y3279377D1*
X8821330Y3292770D1*
X8830163Y3304930D1*
X8840793Y3315560D1*
X8852953Y3324393D1*
X8866347Y3331220D1*
X8880640Y3335863D1*
X8895487Y3338213D1*
X8910520D1*
X8925367Y3335863D1*
X8939660Y3331220D1*
X8953053Y3324393D1*
X8965213Y3315560D1*
X8975843Y3304930D1*
X8984677Y3292770D1*
X8991503Y3279377D1*
X8995803Y3266297D1*
X8624200Y6134953D2*
X8674303Y6134700D1*
X8687057Y6132680D1*
X8699337Y6128690D1*
X8710843Y6122827D1*
X8721290Y6115237D1*
X8811173Y6025713D1*
X8824330Y6021337D1*
X8837723Y6014510D1*
X8849883Y6005677D1*
X8860513Y5995047D1*
X8869347Y5982887D1*
X8876173Y5969493D1*
X8880817Y5955200D1*
X8883167Y5940353D1*
Y5925320D1*
X8880817Y5910473D1*
X8876173Y5896180D1*
X8869347Y5882787D1*
X8860513Y5870627D1*
X8849883Y5859997D1*
X8837723Y5851163D1*
X8824330Y5844337D1*
X8810037Y5839693D1*
X8795190Y5837343D1*
X8780157D1*
X8765310Y5839693D1*
X8751017Y5844337D1*
X8737623Y5851163D1*
X8725463Y5859997D1*
X8714833Y5870627D1*
X8706000Y5882787D1*
X8699173Y5896180D1*
X8694873Y5909260D1*
X8633777Y5970357D1*
X8618740Y5967313D1*
X8604853Y5961560D1*
X8590237Y5958053D1*
X8575253Y5956873D1*
X8560270Y5958053D1*
X8545653Y5961560D1*
X8531767Y5967313D1*
X8518950Y5975167D1*
X8507520Y5984930D1*
X8497757Y5996360D1*
X8489903Y6009177D1*
X8484150Y6023063D1*
X8480643Y6037680D1*
X8479463Y6052663D1*
X8480643Y6067647D1*
X8484150Y6082263D1*
X8489903Y6096150D1*
X8497757Y6108967D1*
X8507520Y6120397D1*
X8518950Y6130160D1*
X8531767Y6138013D1*
X8545653Y6143767D1*
X8560270Y6147273D1*
X8575253Y6148453D1*
X8590237Y6147273D1*
X8604853Y6143767D1*
X8618740Y6138013D1*
X8624200Y6134957D1*
X10918190Y6918250D2*
X1081733D1*
X1081750Y1081757D1*
X10918267Y1081750D1*
X10918250Y6918243D1*
D19*
X6846887Y2673033D3*
D20*
Y2927033D3*
Y3181033D3*
Y3435033D3*
D21*
X3715380Y6491617D3*
D22*
X3590380D3*
X3465380D3*
X3340380D3*
X3215380D3*
X3090380D3*
X2965380D3*
X2840380D3*
X2715380D3*
D21*
X5386947Y6484360D3*
D22*
X5261947D3*
X5136947D3*
X5011947D3*
X4886947D3*
X4761947D3*
X4636947D3*
D21*
X8549843Y6481730D3*
D22*
X8424843D3*
X8299843D3*
X8174843D3*
X8049843D3*
X7924843D3*
X7799843D3*
D23*
X10421020Y6416477D3*
D26*
X8641263Y3238507D3*
Y2984507D3*
X8387263Y3361507D3*
Y3107507D3*
D27*
X10175843Y3227037D3*
Y2973037D3*
X9921843Y3350037D3*
Y3096037D3*
M02*
