G04 DipTrace 3.2.0.1*
G04 RS-485_PCB.GTO*
%MOMM*%
G04 #@! TF.FileFunction,Legend,Top*
G04 #@! TF.Part,Single*
%ADD10C,0.25*%
%ADD24O,0.39172X0.39127*%
%ADD29O,0.399X0.401*%
%ADD32O,0.39124X0.39193*%
%ADD80C,0.19608*%
%FSLAX35Y35*%
G04*
G71*
G90*
G75*
G01*
G04 TopSilk*
%LPD*%
X2271267Y2514150D2*
D10*
X2716467D1*
Y2323350D1*
X2271267D1*
Y2514150D1*
X6973887Y3562033D2*
X6719887D1*
X6973887Y2546033D2*
Y3562033D1*
X6719887Y2546033D2*
Y3562033D1*
X6973887Y2546033D2*
X6719887D1*
X3805407Y6616648D2*
X2625380D1*
Y6531713D2*
Y6616648D1*
X3805407Y6386658D2*
Y6436658D1*
X2625380Y6386658D2*
Y6441626D1*
X3805407Y6386658D2*
X2625380D1*
X3805407Y6571662D2*
Y6616648D1*
X5476947Y6609360D2*
X4546947D1*
Y6524444D2*
Y6609360D1*
X5476947Y6379360D2*
Y6434353D1*
X4546947Y6379360D2*
Y6434353D1*
X5476947Y6379360D2*
X4546947D1*
X5476947Y6564372D2*
Y6609360D1*
X8639843Y6606730D2*
X7709843D1*
Y6521814D2*
Y6606730D1*
X8639843Y6376730D2*
Y6431723D1*
X7709843Y6376730D2*
Y6431723D1*
X8639843Y6376730D2*
X7709843D1*
X8639843Y6561742D2*
Y6606730D1*
D24*
X8246289Y6006783D3*
X8373650Y5983413D2*
D10*
Y5683427D1*
X8423650D1*
Y5983413D1*
X8373650D1*
X8791263Y3628507D2*
X8231263D1*
Y2698507D1*
X8791263D1*
Y3628507D1*
X10325843Y3617037D2*
X9765843D1*
Y2687037D1*
X10325843D1*
Y3617037D1*
X6848602Y5096592D2*
Y4596582D1*
X7108638Y5096592D2*
Y4596582D1*
X6848602D2*
X7108638D1*
X6928596Y5096592D2*
X6848602D1*
X7028644D2*
X7108638D1*
X6928596D2*
G03X7028644Y5096592I50024J23D01*
G01*
X4569447Y2813397D2*
X5169447D1*
Y3413597D1*
X4569447D1*
Y2813397D1*
G36*
D2*
X4649447D1*
X4569447Y2893497D1*
Y2813397D1*
G37*
D29*
X4524397Y2693447D3*
D32*
X3580096Y3455680D3*
X3582736Y3228986D2*
D10*
X2922768D1*
X3582736Y2948987D2*
X2922768D1*
Y3228986D2*
Y2948987D1*
X3582736Y3228986D2*
Y2948987D1*
X8345036Y4309180D2*
X8425064D1*
Y4629180D1*
X8345036D1*
Y4309180D1*
X8365043Y4324188D2*
X8365055Y4324536D1*
X8365092Y4324883D1*
X8365152Y4325226D1*
X8365237Y4325564D1*
X8365345Y4325895D1*
X8365475Y4326218D1*
X8365628Y4326532D1*
X8365803Y4326833D1*
X8365998Y4327122D1*
X8366213Y4327397D1*
X8366447Y4327656D1*
X8366698Y4327898D1*
X8366965Y4328122D1*
X8367248Y4328327D1*
X8367544Y4328511D1*
X8367852Y4328675D1*
X8368171Y4328817D1*
X8368499Y4328936D1*
X8368835Y4329032D1*
X8369176Y4329104D1*
X8369522Y4329153D1*
X8369870Y4329177D1*
X8370219D1*
X8370568Y4329153D1*
X8370913Y4329104D1*
X8371255Y4329032D1*
X8371590Y4328936D1*
X8371918Y4328817D1*
X8372237Y4328675D1*
X8372546Y4328511D1*
X8372842Y4328327D1*
X8373124Y4328122D1*
X8373392Y4327898D1*
X8373643Y4327656D1*
X8373876Y4327397D1*
X8374091Y4327122D1*
X8374286Y4326833D1*
X8374461Y4326532D1*
X8374614Y4326218D1*
X8374745Y4325895D1*
X8374853Y4325564D1*
X8374937Y4325226D1*
X8374998Y4324883D1*
X8375034Y4324536D1*
X8375047Y4324188D1*
X8375034Y4323840D1*
X8374998Y4323493D1*
X8374937Y4323150D1*
X8374853Y4322812D1*
X8374745Y4322481D1*
X8374614Y4322158D1*
X8374461Y4321844D1*
X8374286Y4321543D1*
X8374091Y4321254D1*
X8373876Y4320979D1*
X8373643Y4320720D1*
X8373392Y4320478D1*
X8373124Y4320254D1*
X8372842Y4320049D1*
X8372546Y4319865D1*
X8372237Y4319701D1*
X8371918Y4319559D1*
X8371590Y4319440D1*
X8371255Y4319344D1*
X8370913Y4319272D1*
X8370568Y4319223D1*
X8370219Y4319199D1*
X8369870D1*
X8369522Y4319223D1*
X8369176Y4319272D1*
X8368835Y4319344D1*
X8368499Y4319440D1*
X8368171Y4319559D1*
X8367852Y4319701D1*
X8367544Y4319865D1*
X8367248Y4320049D1*
X8366965Y4320254D1*
X8366698Y4320478D1*
X8366447Y4320720D1*
X8366213Y4320979D1*
X8365998Y4321254D1*
X8365803Y4321543D1*
X8365628Y4321844D1*
X8365475Y4322158D1*
X8365345Y4322481D1*
X8365237Y4322812D1*
X8365152Y4323150D1*
X8365092Y4323493D1*
X8365055Y4323840D1*
X8365043Y4324188D1*
X4992768Y4432752D2*
Y4932762D1*
X4732732Y4432752D2*
Y4932762D1*
X4992768D2*
X4732732D1*
X4912774Y4432752D2*
X4992768D1*
X4812726D2*
X4732732D1*
X4912774D2*
G03X4812726Y4432752I-50024J-23D01*
G01*
X6266640Y2580685D2*
D80*
X6254567Y2574649D1*
X6242353Y2562436D1*
X6236317Y2550362D1*
Y2526076D1*
X6242353Y2513862D1*
X6254567Y2501789D1*
X6266640Y2495612D1*
X6284890Y2489576D1*
X6315353D1*
X6333463Y2495612D1*
X6345676Y2501789D1*
X6357750Y2513862D1*
X6363926Y2526076D1*
Y2550362D1*
X6357750Y2562435D1*
X6345676Y2574649D1*
X6333463Y2580685D1*
X6260744Y2619901D2*
X6254567Y2632115D1*
X6236457Y2650365D1*
X6363926Y2650364D1*
X3614504Y3874284D2*
X3608467Y3886357D1*
X3596254Y3898570D1*
X3584181Y3904607D1*
X3559894D1*
X3547681Y3898570D1*
X3535608Y3886357D1*
X3529431Y3874284D1*
X3523394Y3856034D1*
Y3825570D1*
X3529431Y3807460D1*
X3535608Y3795247D1*
X3547681Y3783174D1*
X3559894Y3776997D1*
X3584181D1*
X3596254Y3783174D1*
X3608467Y3795247D1*
X3614504Y3807460D1*
X3659896Y3874143D2*
Y3880180D1*
X3665933Y3892393D1*
X3671969Y3898430D1*
X3684183Y3904466D1*
X3708469D1*
X3720543Y3898430D1*
X3726579Y3892393D1*
X3732756Y3880180D1*
Y3868107D1*
X3726579Y3855893D1*
X3714506Y3837784D1*
X3653719Y3776997D1*
X3738793D1*
X2528777Y3320901D2*
X2516704Y3314864D1*
X2504490Y3302651D1*
X2498453Y3290578D1*
Y3266291D1*
X2504490Y3254078D1*
X2516703Y3242005D1*
X2528776Y3235828D1*
X2547026Y3229791D1*
X2577490D1*
X2595600Y3235828D1*
X2607813Y3242005D1*
X2619886Y3254078D1*
X2626063Y3266291D1*
Y3290577D1*
X2619886Y3302651D1*
X2607813Y3314864D1*
X2595600Y3320901D1*
X2498594Y3372330D2*
Y3439012D1*
X2547167Y3402653D1*
Y3420903D1*
X2553204Y3432976D1*
X2559240Y3439012D1*
X2577490Y3445189D1*
X2589563D1*
X2607813Y3439012D1*
X2620027Y3426939D1*
X2626063Y3408689D1*
Y3390439D1*
X2620027Y3372330D1*
X2613850Y3366293D1*
X2601777Y3360116D1*
X4175657Y2497856D2*
X4163584Y2491819D1*
X4151370Y2479606D1*
X4145333Y2467533D1*
Y2443246D1*
X4151370Y2431033D1*
X4163583Y2418960D1*
X4175656Y2412783D1*
X4193906Y2406746D1*
X4224370D1*
X4242480Y2412783D1*
X4254693Y2418960D1*
X4266766Y2431033D1*
X4272943Y2443246D1*
Y2467533D1*
X4266766Y2479606D1*
X4254693Y2491819D1*
X4242480Y2497856D1*
X4272943Y2597858D2*
X4145474D1*
X4230407Y2537071D1*
Y2628181D1*
X4084960Y2910667D2*
X4078924Y2922740D1*
X4066710Y2934953D1*
X4054637Y2940990D1*
X4030351D1*
X4018137Y2934953D1*
X4006064Y2922740D1*
X3999887Y2910667D1*
X3993851Y2892417D1*
Y2861953D1*
X3999887Y2843844D1*
X4006064Y2831630D1*
X4018137Y2819557D1*
X4030351Y2813380D1*
X4054637D1*
X4066710Y2819557D1*
X4078924Y2831630D1*
X4084960Y2843844D1*
X4197036Y2940850D2*
X4136390D1*
X4130353Y2886240D1*
X4136390Y2892276D1*
X4154640Y2898453D1*
X4172749D1*
X4190999Y2892276D1*
X4203213Y2880203D1*
X4209249Y2861953D1*
Y2849880D1*
X4203213Y2831630D1*
X4190999Y2819417D1*
X4172749Y2813380D1*
X4154640D1*
X4136390Y2819417D1*
X4130353Y2825594D1*
X4124176Y2837667D1*
X4226519Y3899440D2*
X4220482Y3911513D1*
X4208269Y3923727D1*
X4196196Y3929763D1*
X4171909D1*
X4159696Y3923727D1*
X4147623Y3911513D1*
X4141446Y3899440D1*
X4135409Y3881190D1*
Y3850727D1*
X4141446Y3832617D1*
X4147623Y3820404D1*
X4159696Y3808331D1*
X4171909Y3802154D1*
X4196196D1*
X4208269Y3808331D1*
X4220482Y3820404D1*
X4226519Y3832617D1*
X4338594Y3911513D2*
X4332558Y3923586D1*
X4314308Y3929623D1*
X4302235D1*
X4283985Y3923586D1*
X4271771Y3905336D1*
X4265735Y3875013D1*
Y3844690D1*
X4271771Y3820404D1*
X4283985Y3808190D1*
X4302235Y3802154D1*
X4308271D1*
X4326381Y3808190D1*
X4338594Y3820404D1*
X4344631Y3838654D1*
Y3844690D1*
X4338594Y3862940D1*
X4326381Y3875013D1*
X4308271Y3881050D1*
X4302235D1*
X4283985Y3875013D1*
X4271771Y3862940D1*
X4265735Y3844690D1*
X5325667Y3520421D2*
X5313594Y3514384D1*
X5301380Y3502171D1*
X5295343Y3490098D1*
Y3465811D1*
X5301380Y3453598D1*
X5313593Y3441525D1*
X5325666Y3435348D1*
X5343916Y3429311D1*
X5374380D1*
X5392490Y3435348D1*
X5404703Y3441525D1*
X5416776Y3453598D1*
X5422953Y3465811D1*
Y3490097D1*
X5416776Y3502171D1*
X5404703Y3514384D1*
X5392490Y3520421D1*
X5422953Y3583923D2*
X5295484Y3644709D1*
Y3559636D1*
X3202931Y2242474D2*
X3196894Y2254547D1*
X3184681Y2266760D1*
X3172608Y2272797D1*
X3148321D1*
X3136108Y2266760D1*
X3124034Y2254547D1*
X3117858Y2242474D1*
X3111821Y2224224D1*
Y2193760D1*
X3117858Y2175650D1*
X3124034Y2163437D1*
X3136108Y2151364D1*
X3148321Y2145187D1*
X3172608D1*
X3184681Y2151364D1*
X3196894Y2163437D1*
X3202931Y2175650D1*
X3272469Y2272656D2*
X3254360Y2266620D1*
X3248183Y2254547D1*
Y2242333D1*
X3254360Y2230260D1*
X3266433Y2224083D1*
X3290719Y2218047D1*
X3308969Y2212010D1*
X3321042Y2199797D1*
X3327079Y2187724D1*
Y2169474D1*
X3321042Y2157400D1*
X3315006Y2151224D1*
X3296756Y2145187D1*
X3272469D1*
X3254360Y2151224D1*
X3248183Y2157400D1*
X3242146Y2169474D1*
Y2187724D1*
X3248183Y2199797D1*
X3260396Y2212010D1*
X3278506Y2218047D1*
X3302792Y2224083D1*
X3315006Y2230260D1*
X3321042Y2242333D1*
Y2254547D1*
X3315006Y2266620D1*
X3296756Y2272656D1*
X3272469D1*
X3203172Y2559007D2*
X3197135Y2571080D1*
X3184922Y2583293D1*
X3172849Y2589330D1*
X3148562D1*
X3136349Y2583293D1*
X3124276Y2571080D1*
X3118099Y2559007D1*
X3112062Y2540757D1*
Y2510293D1*
X3118099Y2492184D1*
X3124276Y2479970D1*
X3136349Y2467897D1*
X3148562Y2461720D1*
X3172849D1*
X3184922Y2467897D1*
X3197135Y2479970D1*
X3203172Y2492184D1*
X3321424Y2546793D2*
X3315247Y2528543D1*
X3303174Y2516330D1*
X3284924Y2510293D1*
X3278888D1*
X3260638Y2516330D1*
X3248565Y2528543D1*
X3242388Y2546793D1*
Y2552830D1*
X3248565Y2571080D1*
X3260638Y2583153D1*
X3278888Y2589190D1*
X3284924D1*
X3303174Y2583153D1*
X3315247Y2571080D1*
X3321424Y2546793D1*
Y2516330D1*
X3315247Y2486007D1*
X3303174Y2467757D1*
X3284924Y2461720D1*
X3272851D1*
X3254601Y2467757D1*
X3248565Y2479970D1*
X5637421Y4409600D2*
X5631385Y4421673D1*
X5619171Y4433887D1*
X5607098Y4439923D1*
X5582811D1*
X5570598Y4433887D1*
X5558525Y4421673D1*
X5552348Y4409600D1*
X5546311Y4391350D1*
Y4360887D1*
X5552348Y4342777D1*
X5558525Y4330564D1*
X5570598Y4318491D1*
X5582811Y4312314D1*
X5607098D1*
X5619171Y4318491D1*
X5631385Y4330564D1*
X5637421Y4342777D1*
X5737423Y4312314D2*
Y4439783D1*
X5676637Y4354850D1*
X5767746D1*
X5819176Y4439783D2*
X5885858D1*
X5849499Y4391210D1*
X5867749D1*
X5879822Y4385173D1*
X5885858Y4379137D1*
X5892035Y4360887D1*
Y4348814D1*
X5885858Y4330564D1*
X5873785Y4318350D1*
X5855535Y4312314D1*
X5837285D1*
X5819176Y4318350D1*
X5813139Y4324527D1*
X5806962Y4336600D1*
X4254060Y4271740D2*
X4248023Y4283813D1*
X4235810Y4296027D1*
X4223736Y4302063D1*
X4199450D1*
X4187236Y4296027D1*
X4175163Y4283813D1*
X4168986Y4271740D1*
X4162950Y4253490D1*
Y4223027D1*
X4168986Y4204917D1*
X4175163Y4192704D1*
X4187236Y4180631D1*
X4199450Y4174454D1*
X4223736D1*
X4235810Y4180631D1*
X4248023Y4192704D1*
X4254060Y4204917D1*
X4354062Y4174454D2*
Y4301923D1*
X4293275Y4216990D1*
X4384385D1*
X4484387Y4174454D2*
Y4301923D1*
X4423600Y4216990D1*
X4514710D1*
X7662948Y5239700D2*
X7656912Y5251773D1*
X7644698Y5263987D1*
X7632625Y5270023D1*
X7608339D1*
X7596125Y5263987D1*
X7584052Y5251773D1*
X7577875Y5239700D1*
X7571839Y5221450D1*
Y5190987D1*
X7577875Y5172877D1*
X7584052Y5160664D1*
X7596125Y5148591D1*
X7608339Y5142414D1*
X7632625D1*
X7644698Y5148591D1*
X7656912Y5160664D1*
X7662948Y5172877D1*
X7702164Y5209237D2*
X7756773D1*
X7775023Y5215414D1*
X7781200Y5221450D1*
X7787237Y5233523D1*
Y5245737D1*
X7781200Y5257810D1*
X7775023Y5263987D1*
X7756773Y5270023D1*
X7702164D1*
Y5142414D1*
X7744700Y5209237D2*
X7787237Y5142414D1*
X7893276Y5209237D2*
X7887239Y5221450D1*
X7868989Y5227487D1*
X7850739D1*
X7832489Y5221450D1*
X7826453Y5209237D1*
X7832489Y5197164D1*
X7844703Y5190987D1*
X7875026Y5184950D1*
X7887239Y5178914D1*
X7893276Y5166700D1*
Y5160664D1*
X7887239Y5148591D1*
X7868989Y5142414D1*
X7850739D1*
X7832489Y5148591D1*
X7826453Y5160664D1*
X7932491Y5245596D2*
X7944705Y5251773D1*
X7962955Y5269883D1*
Y5142414D1*
X2436401Y2700137D2*
X2357364D1*
Y2572527D1*
Y2639350D2*
X2405938D1*
X2475617Y2700137D2*
Y2572527D1*
X2530367D1*
X2548617Y2578704D1*
X2554653Y2584740D1*
X2560690Y2596814D1*
Y2615064D1*
X2554653Y2627277D1*
X2548617Y2633314D1*
X2530367Y2639350D1*
X2548617Y2645527D1*
X2554653Y2651564D1*
X2560690Y2663637D1*
Y2675850D1*
X2554653Y2687923D1*
X2548617Y2694100D1*
X2530367Y2700137D1*
X2475617D1*
Y2639350D2*
X2530367D1*
X2599905Y2675710D2*
X2612119Y2681887D1*
X2630369Y2699996D1*
Y2572527D1*
X6533900Y3049587D2*
X6631046D1*
X6649296Y3043551D1*
X6655333Y3037374D1*
X6661510Y3025301D1*
Y3013087D1*
X6655333Y3001014D1*
X6649296Y2994978D1*
X6631046Y2988801D1*
X6618973D1*
X6558327Y3088803D2*
X6552150Y3101016D1*
X6534041Y3119266D1*
X6661510D1*
X3198116Y6928075D2*
Y6830929D1*
X3192079Y6812679D1*
X3185902Y6806642D1*
X3173829Y6800465D1*
X3161616D1*
X3149542Y6806642D1*
X3143506Y6812679D1*
X3137329Y6830929D1*
Y6843002D1*
X3243508Y6897611D2*
Y6903648D1*
X3249545Y6915861D1*
X3255581Y6921898D1*
X3267795Y6927935D1*
X3292081D1*
X3304154Y6921898D1*
X3310191Y6915861D1*
X3316368Y6903648D1*
Y6891575D1*
X3310191Y6879361D1*
X3298118Y6861252D1*
X3237331Y6800465D1*
X3322404D1*
X4985019Y6872540D2*
Y6775394D1*
X4978982Y6757144D1*
X4972805Y6751107D1*
X4960732Y6744930D1*
X4948519D1*
X4936446Y6751107D1*
X4930409Y6757144D1*
X4924232Y6775394D1*
Y6787467D1*
X5036448Y6872400D2*
X5103131D1*
X5066771Y6823826D1*
X5085021D1*
X5097094Y6817790D1*
X5103131Y6811753D1*
X5109308Y6793503D1*
Y6781430D1*
X5103131Y6763180D1*
X5091058Y6750967D1*
X5072808Y6744930D1*
X5054558D1*
X5036448Y6750967D1*
X5030411Y6757144D1*
X5024235Y6769217D1*
X8144897Y6860260D2*
Y6763114D1*
X8138861Y6744864D1*
X8132684Y6738827D1*
X8120611Y6732650D1*
X8108397D1*
X8096324Y6738827D1*
X8090288Y6744864D1*
X8084111Y6763114D1*
Y6775187D1*
X8244900Y6732650D2*
Y6860120D1*
X8184113Y6775187D1*
X8275223D1*
X7992470Y5885097D2*
X7998366Y5873024D1*
X8010580Y5860811D1*
X8022793Y5854774D1*
X8041043Y5848597D1*
X8071366D1*
X8089616Y5854774D1*
X8101689Y5860811D1*
X8113903Y5873024D1*
X8119939Y5885097D1*
Y5909384D1*
X8113903Y5921597D1*
X8101689Y5933670D1*
X8089616Y5939707D1*
X8071366Y5945884D1*
X8041043D1*
X8022793Y5939707D1*
X8010580Y5933670D1*
X7998366Y5921597D1*
X7992470Y5909384D1*
Y5885097D1*
X8095653Y5903347D2*
X8132153Y5939707D1*
X8016897Y5985100D2*
X8010720Y5997313D1*
X7992611Y6015563D1*
X8120080D1*
X7718427Y5675978D2*
Y5730587D1*
X7712250Y5748837D1*
X7706213Y5755014D1*
X7694140Y5761051D1*
X7681927D1*
X7669854Y5755014D1*
X7663677Y5748837D1*
X7657640Y5730587D1*
Y5675978D1*
X7785250D1*
X7718427Y5718514D2*
X7785250Y5761050D1*
X7682067Y5800266D2*
X7675890Y5812480D1*
X7657781Y5830730D1*
X7785250Y5830729D1*
X7224457Y5704273D2*
Y5758882D1*
X7218280Y5777132D1*
X7212243Y5783309D1*
X7200170Y5789346D1*
X7187957D1*
X7175884Y5783309D1*
X7169707Y5777132D1*
X7163670Y5758882D1*
Y5704273D1*
X7291280D1*
X7224457Y5746809D2*
X7291280Y5789346D1*
X7194134Y5834738D2*
X7188097D1*
X7175884Y5840775D1*
X7169847Y5846811D1*
X7163811Y5859025D1*
Y5883311D1*
X7169847Y5895384D1*
X7175884Y5901421D1*
X7188097Y5907598D1*
X7200170D1*
X7212384Y5901421D1*
X7230493Y5889348D1*
X7291280Y5828561D1*
Y5913634D1*
X3875112Y3192460D2*
X3929722D1*
X3947972Y3198637D1*
X3954149Y3204674D1*
X3960185Y3216747D1*
Y3228960D1*
X3954149Y3241033D1*
X3947972Y3247210D1*
X3929722Y3253247D1*
X3875112D1*
Y3125637D1*
X3917649Y3192460D2*
X3960185Y3125637D1*
X4011615Y3253106D2*
X4078297D1*
X4041938Y3204533D1*
X4060188D1*
X4072261Y3198497D1*
X4078297Y3192460D1*
X4084474Y3174210D1*
Y3162137D1*
X4078297Y3143887D1*
X4066224Y3131674D1*
X4047974Y3125637D1*
X4029724D1*
X4011615Y3131674D1*
X4005578Y3137850D1*
X3999401Y3149924D1*
X6204971Y5019840D2*
X6259580D1*
X6277830Y5026017D1*
X6284007Y5032054D1*
X6290044Y5044127D1*
Y5056340D1*
X6284007Y5068413D1*
X6277830Y5074590D1*
X6259580Y5080627D1*
X6204971D1*
Y4953017D1*
X6247507Y5019840D2*
X6290044Y4953017D1*
X6390046D2*
Y5080486D1*
X6329260Y4995554D1*
X6420369D1*
X7734946Y4527173D2*
X7789555D1*
X7807805Y4533350D1*
X7813982Y4539387D1*
X7820019Y4551460D1*
Y4563673D1*
X7813982Y4575746D1*
X7807805Y4581923D1*
X7789555Y4587960D1*
X7734946D1*
Y4460350D1*
X7777482Y4527173D2*
X7820019Y4460350D1*
X7932094Y4587820D2*
X7871448D1*
X7865411Y4533210D1*
X7871448Y4539246D1*
X7889698Y4545423D1*
X7907808D1*
X7926058Y4539246D1*
X7938271Y4527173D1*
X7944308Y4508923D1*
Y4496850D1*
X7938271Y4478600D1*
X7926058Y4466387D1*
X7907808Y4460350D1*
X7889698D1*
X7871448Y4466387D1*
X7865411Y4472564D1*
X7859235Y4484637D1*
X7900438Y4896783D2*
X7955047D1*
X7973297Y4902960D1*
X7979474Y4908997D1*
X7985511Y4921070D1*
Y4933283D1*
X7979474Y4945356D1*
X7973297Y4951533D1*
X7955047Y4957570D1*
X7900438D1*
Y4829960D1*
X7942974Y4896783D2*
X7985511Y4829960D1*
X8097586Y4939320D2*
X8091549Y4951393D1*
X8073299Y4957430D1*
X8061226D1*
X8042976Y4951393D1*
X8030763Y4933143D1*
X8024726Y4902820D1*
Y4872497D1*
X8030763Y4848210D1*
X8042976Y4835997D1*
X8061226Y4829960D1*
X8067263D1*
X8085372Y4835997D1*
X8097586Y4848210D1*
X8103622Y4866460D1*
Y4872497D1*
X8097586Y4890747D1*
X8085372Y4902820D1*
X8067263Y4908856D1*
X8061226D1*
X8042976Y4902820D1*
X8030763Y4890747D1*
X8024726Y4872497D1*
X5761772Y4742997D2*
X5816381D1*
X5834631Y4749174D1*
X5840808Y4755210D1*
X5846845Y4767283D1*
Y4779497D1*
X5840808Y4791570D1*
X5834631Y4797747D1*
X5816381Y4803783D1*
X5761772D1*
Y4676174D1*
X5804308Y4742997D2*
X5846845Y4676174D1*
X5946847D2*
Y4803643D1*
X5886060Y4718710D1*
X5977170D1*
X6089245Y4785533D2*
X6083209Y4797606D1*
X6064959Y4803643D1*
X6052886D1*
X6034636Y4797606D1*
X6022422Y4779356D1*
X6016386Y4749033D1*
Y4718710D1*
X6022422Y4694424D1*
X6034636Y4682210D1*
X6052886Y4676174D1*
X6058922D1*
X6077032Y4682210D1*
X6089245Y4694424D1*
X6095282Y4712674D1*
Y4718710D1*
X6089245Y4736960D1*
X6077032Y4749033D1*
X6058922Y4755070D1*
X6052886D1*
X6034636Y4749033D1*
X6022422Y4736960D1*
X6016386Y4718710D1*
X3659753Y4608113D2*
X3714363D1*
X3732613Y4614290D1*
X3738790Y4620327D1*
X3744826Y4632400D1*
Y4644613D1*
X3738790Y4656686D1*
X3732613Y4662863D1*
X3714363Y4668900D1*
X3659753D1*
Y4541290D1*
X3702290Y4608113D2*
X3744826Y4541290D1*
X3844828D2*
Y4668760D1*
X3784042Y4583827D1*
X3875151D1*
X3938654Y4541290D2*
X3999440Y4668760D1*
X3914367D1*
X5560293Y4212867D2*
X5614903D1*
X5633153Y4219044D1*
X5639330Y4225080D1*
X5645366Y4237153D1*
Y4249367D1*
X5639330Y4261440D1*
X5633153Y4267617D1*
X5614903Y4273653D1*
X5560293D1*
Y4146044D1*
X5602830Y4212867D2*
X5645366Y4146044D1*
X5745369D2*
Y4273513D1*
X5684582Y4188580D1*
X5775692D1*
X5845230Y4273513D2*
X5827121Y4267476D1*
X5820944Y4255403D1*
Y4243190D1*
X5827121Y4231117D1*
X5839194Y4224940D1*
X5863480Y4218903D1*
X5881730Y4212867D1*
X5893804Y4200653D1*
X5899840Y4188580D1*
Y4170330D1*
X5893804Y4158257D1*
X5887767Y4152080D1*
X5869517Y4146044D1*
X5845230D1*
X5827121Y4152080D1*
X5820944Y4158257D1*
X5814907Y4170330D1*
Y4188580D1*
X5820944Y4200653D1*
X5833157Y4212867D1*
X5851267Y4218903D1*
X5875554Y4224940D1*
X5887767Y4231117D1*
X5893804Y4243190D1*
Y4255403D1*
X5887767Y4267476D1*
X5869517Y4273513D1*
X5845230D1*
X4030215Y5059453D2*
X4084824D1*
X4103074Y5065630D1*
X4109251Y5071667D1*
X4115288Y5083740D1*
Y5095953D1*
X4109251Y5108026D1*
X4103074Y5114203D1*
X4084824Y5120240D1*
X4030215D1*
Y4992630D1*
X4072751Y5059453D2*
X4115288Y4992630D1*
X4215290D2*
Y5120100D1*
X4154503Y5035167D1*
X4245613D1*
X4363865Y5077703D2*
X4357688Y5059453D1*
X4345615Y5047240D1*
X4327365Y5041203D1*
X4321329D1*
X4303079Y5047240D1*
X4291006Y5059453D1*
X4284829Y5077703D1*
Y5083740D1*
X4291006Y5101990D1*
X4303079Y5114063D1*
X4321329Y5120100D1*
X4327365D1*
X4345615Y5114063D1*
X4357688Y5101990D1*
X4363865Y5077703D1*
Y5047240D1*
X4357688Y5016917D1*
X4345615Y4998667D1*
X4327365Y4992630D1*
X4315292D1*
X4297042Y4998667D1*
X4291006Y5010880D1*
X8063527Y2859194D2*
X8051313Y2847121D1*
X8045277Y2828871D1*
Y2804585D1*
X8051313Y2786335D1*
X8063527Y2774121D1*
X8075600D1*
X8087813Y2780298D1*
X8093850Y2786335D1*
X8099886Y2798408D1*
X8112100Y2834908D1*
X8118136Y2847121D1*
X8124313Y2853158D1*
X8136387Y2859194D1*
X8154636D1*
X8166710Y2847121D1*
X8172887Y2828871D1*
X8172886Y2804585D1*
X8166709Y2786335D1*
X8154636Y2774121D1*
X8045277Y2898410D2*
X8172886D1*
X8087813Y2959196D2*
X8148600Y2898410D1*
X8124313Y2922696D2*
X8172886Y2965233D1*
X8124313Y3004449D2*
Y3077308D1*
X8112100D1*
X8099886Y3071272D1*
X8093850Y3065235D1*
X8087813Y3053022D1*
Y3034772D1*
X8093850Y3022699D1*
X8106063Y3010485D1*
X8124313Y3004449D1*
X8136386D1*
X8154636Y3010485D1*
X8166709Y3022699D1*
X8172886Y3034772D1*
Y3053022D1*
X8166709Y3065235D1*
X8154636Y3077308D1*
X8045277Y3189383D2*
X8172886D1*
X8106063D2*
X8093850Y3177310D1*
X8087813Y3165097D1*
Y3146847D1*
X8093850Y3134774D1*
X8106063Y3122560D1*
X8124313Y3116524D1*
X8136386D1*
X8154636Y3122560D1*
X8166709Y3134774D1*
X8172886Y3146847D1*
Y3165097D1*
X8166709Y3177310D1*
X8154636Y3189383D1*
X8045277Y3301459D2*
X8172886D1*
X8106063D2*
X8093850Y3289386D1*
X8087813Y3277172D1*
Y3258922D1*
X8093850Y3246849D1*
X8106063Y3234636D1*
X8124313Y3228599D1*
X8136386D1*
X8154636Y3234636D1*
X8166709Y3246849D1*
X8172886Y3258922D1*
Y3277172D1*
X8166709Y3289386D1*
X8154636Y3301459D1*
X8069704Y3340674D2*
X8063527Y3352888D1*
X8045417Y3371138D1*
X8172886D1*
X8166850Y3422567D2*
X8172886Y3416390D1*
X8166850Y3410354D1*
X8160673Y3416390D1*
X8166850Y3422567D1*
X8178923D1*
X8191136Y3416390D1*
X8197173Y3410354D1*
X8172886Y3522569D2*
X8045417D1*
X8130350Y3461783D1*
Y3552892D1*
X9598107Y2788598D2*
X9585893Y2776525D1*
X9579857Y2758275D1*
Y2733989D1*
X9585893Y2715739D1*
X9598107Y2703525D1*
X9610180D1*
X9622393Y2709702D1*
X9628430Y2715739D1*
X9634466Y2727812D1*
X9646680Y2764312D1*
X9652716Y2776525D1*
X9658893Y2782562D1*
X9670967Y2788598D1*
X9689216D1*
X9701290Y2776525D1*
X9707467Y2758275D1*
X9707466Y2733989D1*
X9701289Y2715739D1*
X9689216Y2703525D1*
X9579857Y2827814D2*
X9707466D1*
X9622393Y2888600D2*
X9683180Y2827814D1*
X9658893Y2852100D2*
X9707466Y2894637D1*
X9658893Y2933852D2*
Y3006712D1*
X9646680D1*
X9634466Y3000676D1*
X9628430Y2994639D1*
X9622393Y2982426D1*
Y2964176D1*
X9628430Y2952102D1*
X9640643Y2939889D1*
X9658893Y2933852D1*
X9670966D1*
X9689216Y2939889D1*
X9701289Y2952102D1*
X9707466Y2964175D1*
Y2982425D1*
X9701289Y2994639D1*
X9689216Y3006712D1*
X9579857Y3118787D2*
X9707466D1*
X9640643D2*
X9628430Y3106714D1*
X9622393Y3094501D1*
Y3076251D1*
X9628430Y3064178D1*
X9640643Y3051964D1*
X9658893Y3045928D1*
X9670966D1*
X9689216Y3051964D1*
X9701289Y3064178D1*
X9707466Y3076251D1*
Y3094501D1*
X9701289Y3106714D1*
X9689216Y3118787D1*
X9579857Y3230863D2*
X9707466D1*
X9640643D2*
X9628430Y3218790D1*
X9622393Y3206576D1*
Y3188326D1*
X9628430Y3176253D1*
X9640643Y3164040D1*
X9658893Y3158003D1*
X9670966D1*
X9689216Y3164040D1*
X9701289Y3176253D1*
X9707466Y3188326D1*
Y3206576D1*
X9701289Y3218790D1*
X9689216Y3230863D1*
X9604284Y3270078D2*
X9598107Y3282292D1*
X9579997Y3300542D1*
X9707466D1*
X9701430Y3351971D2*
X9707466Y3345794D1*
X9701430Y3339757D1*
X9695253Y3345794D1*
X9701430Y3351971D1*
X9713503D1*
X9725716Y3345794D1*
X9731753Y3339757D1*
X9579997Y3464046D2*
Y3403400D1*
X9634607Y3397364D1*
X9628570Y3403400D1*
X9622393Y3421650D1*
Y3439760D1*
X9628570Y3458010D1*
X9640643Y3470223D1*
X9658893Y3476260D1*
X9670966D1*
X9689216Y3470223D1*
X9701430Y3458010D1*
X9707466Y3439760D1*
Y3421650D1*
X9701430Y3403400D1*
X9695253Y3397364D1*
X9683180Y3391187D1*
X9579997Y3588335D2*
Y3527689D1*
X9634607Y3521652D1*
X9628570Y3527689D1*
X9622393Y3545939D1*
Y3564048D1*
X9628570Y3582298D1*
X9640643Y3594512D1*
X9658893Y3600548D1*
X9670966D1*
X9689216Y3594512D1*
X9701430Y3582298D1*
X9707466Y3564048D1*
Y3545939D1*
X9701430Y3527689D1*
X9695253Y3521652D1*
X9683180Y3515475D1*
X6579120Y4354512D2*
X6567047Y4366725D1*
X6548797Y4372762D1*
X6524511D1*
X6506261Y4366725D1*
X6494047Y4354512D1*
Y4342439D1*
X6500224Y4330225D1*
X6506261Y4324189D1*
X6518334Y4318152D1*
X6554834Y4305939D1*
X6567047Y4299902D1*
X6573084Y4293725D1*
X6579120Y4281652D1*
Y4263402D1*
X6567047Y4251329D1*
X6548797Y4245152D1*
X6524511D1*
X6506261Y4251329D1*
X6494047Y4263402D1*
X6703409Y4372762D2*
Y4245152D1*
X6618336Y4372762D1*
Y4245152D1*
X6815484Y4354512D2*
X6809448Y4366585D1*
X6791198Y4372621D1*
X6779125D1*
X6760875Y4366585D1*
X6748661Y4348335D1*
X6742625Y4318012D1*
Y4287689D1*
X6748661Y4263402D1*
X6760875Y4251189D1*
X6779125Y4245152D1*
X6785161D1*
X6803271Y4251189D1*
X6815484Y4263402D1*
X6821521Y4281652D1*
Y4287689D1*
X6815484Y4305939D1*
X6803271Y4318012D1*
X6785161Y4324048D1*
X6779125D1*
X6760875Y4318012D1*
X6748661Y4305939D1*
X6742625Y4287689D1*
X6933596Y4372621D2*
X6872950D1*
X6866913Y4318012D1*
X6872950Y4324048D1*
X6891200Y4330225D1*
X6909310D1*
X6927560Y4324048D1*
X6939773Y4311975D1*
X6945810Y4293725D1*
Y4281652D1*
X6939773Y4263402D1*
X6927560Y4251189D1*
X6909310Y4245152D1*
X6891200D1*
X6872950Y4251189D1*
X6866913Y4257365D1*
X6860737Y4269439D1*
X6985025Y4372762D2*
Y4245152D1*
X7070098Y4372762D2*
Y4245152D1*
X6985025Y4311975D2*
X7070098D1*
X7109314Y4372762D2*
X7157887Y4245152D1*
X7206460Y4372762D1*
X7245676D2*
Y4245152D1*
X7288212D1*
X7306462Y4251329D1*
X7318676Y4263402D1*
X7324712Y4275615D1*
X7330749Y4293725D1*
Y4324189D1*
X7324712Y4342439D1*
X7318676Y4354512D1*
X7306462Y4366725D1*
X7288212Y4372762D1*
X7245676D1*
X7400288Y4372621D2*
X7382178Y4366585D1*
X7376001Y4354512D1*
Y4342298D1*
X7382178Y4330225D1*
X7394251Y4324048D1*
X7418538Y4318012D1*
X7436788Y4311975D1*
X7448861Y4299762D1*
X7454897Y4287689D1*
Y4269439D1*
X7448861Y4257365D1*
X7442824Y4251189D1*
X7424574Y4245152D1*
X7400288D1*
X7382178Y4251189D1*
X7376001Y4257365D1*
X7369965Y4269439D1*
Y4287689D1*
X7376001Y4299762D1*
X7388215Y4311975D1*
X7406324Y4318012D1*
X7430611Y4324048D1*
X7442824Y4330225D1*
X7448861Y4342298D1*
Y4354512D1*
X7442824Y4366585D1*
X7424574Y4372621D1*
X7400288D1*
X7500290Y4342298D2*
Y4348335D1*
X7506327Y4360548D1*
X7512363Y4366585D1*
X7524577Y4372621D1*
X7548863D1*
X7560936Y4366585D1*
X7566973Y4360548D1*
X7573150Y4348335D1*
Y4336262D1*
X7566973Y4324048D1*
X7554900Y4305939D1*
X7494113Y4245152D1*
X7579186D1*
X4792071Y3863167D2*
Y3772057D1*
X4798107Y3753807D1*
X4810321Y3741734D1*
X4828571Y3735557D1*
X4840644D1*
X4858894Y3741734D1*
X4871107Y3753807D1*
X4877144Y3772057D1*
Y3863167D1*
X4916359Y3838740D2*
X4928573Y3844917D1*
X4946823Y3863026D1*
Y3735557D1*
X3156532Y3672473D2*
Y3581364D1*
X3162569Y3563114D1*
X3174782Y3551041D1*
X3193032Y3544864D1*
X3205105D1*
X3223355Y3551041D1*
X3235569Y3563114D1*
X3241605Y3581364D1*
Y3672473D1*
X3286998Y3642010D2*
Y3648046D1*
X3293035Y3660260D1*
X3299071Y3666296D1*
X3311285Y3672333D1*
X3335571D1*
X3347644Y3666296D1*
X3353681Y3660260D1*
X3359858Y3648046D1*
Y3635973D1*
X3353681Y3623760D1*
X3341608Y3605650D1*
X3280821Y3544864D1*
X3365894D1*
X8041710Y4396141D2*
X8132820D1*
X8151070Y4402178D1*
X8163143Y4414391D1*
X8169320Y4432641D1*
Y4444714D1*
X8163143Y4462964D1*
X8151070Y4475177D1*
X8132820Y4481214D1*
X8041710D1*
X8169320Y4581216D2*
X8041851D1*
X8126783Y4520430D1*
Y4611539D1*
X4758139Y5118748D2*
Y5027639D1*
X4764176Y5009389D1*
X4776389Y4997316D1*
X4794639Y4991139D1*
X4806712D1*
X4824962Y4997316D1*
X4837176Y5009389D1*
X4843212Y5027639D1*
Y5118748D1*
X4912751Y5118608D2*
X4894641Y5112571D1*
X4888465Y5100498D1*
Y5088285D1*
X4894641Y5076212D1*
X4906715Y5070035D1*
X4931001Y5063998D1*
X4949251Y5057962D1*
X4961324Y5045748D1*
X4967361Y5033675D1*
Y5015425D1*
X4961324Y5003352D1*
X4955288Y4997175D1*
X4937038Y4991139D1*
X4912751D1*
X4894641Y4997175D1*
X4888465Y5003352D1*
X4882428Y5015425D1*
Y5033675D1*
X4888465Y5045748D1*
X4900678Y5057962D1*
X4918788Y5063998D1*
X4943074Y5070035D1*
X4955288Y5076212D1*
X4961324Y5088285D1*
Y5100498D1*
X4955288Y5112571D1*
X4937038Y5118608D1*
X4912751D1*
X6279287Y1398035D2*
Y1270425D1*
X6364360Y1398035D2*
X6279287Y1312962D1*
X6309610Y1343425D2*
X6364360Y1270425D1*
X6446113Y1398035D2*
Y1270425D1*
X6403576Y1398035D2*
X6488649D1*
X6527865D2*
Y1270425D1*
X6612938Y1398035D2*
Y1270425D1*
X6527865Y1337248D2*
X6612938D1*
X6775600D2*
X6830210D1*
X6848460Y1343425D1*
X6854637Y1349462D1*
X6860673Y1361535D1*
Y1373748D1*
X6854637Y1385821D1*
X6848460Y1391998D1*
X6830210Y1398035D1*
X6775600D1*
Y1270425D1*
X6818137Y1337248D2*
X6860673Y1270425D1*
X6984962Y1379785D2*
X6972889Y1391998D1*
X6954639Y1398035D1*
X6930352D1*
X6912102Y1391998D1*
X6899889Y1379785D1*
Y1367712D1*
X6906066Y1355498D1*
X6912102Y1349462D1*
X6924175Y1343425D1*
X6960675Y1331212D1*
X6972889Y1325175D1*
X6978925Y1318998D1*
X6984962Y1306925D1*
Y1288675D1*
X6972889Y1276602D1*
X6954639Y1270425D1*
X6930352D1*
X6912102Y1276602D1*
X6899889Y1288675D1*
X7084964Y1270425D2*
Y1397895D1*
X7024178Y1312962D1*
X7115287D1*
X7184826Y1397895D2*
X7166716Y1391858D1*
X7160539Y1379785D1*
Y1367571D1*
X7166716Y1355498D1*
X7178789Y1349321D1*
X7203076Y1343285D1*
X7221326Y1337248D1*
X7233399Y1325035D1*
X7239436Y1312962D1*
Y1294712D1*
X7233399Y1282639D1*
X7227362Y1276462D1*
X7209112Y1270425D1*
X7184826D1*
X7166716Y1276462D1*
X7160539Y1282639D1*
X7154503Y1294712D1*
Y1312962D1*
X7160539Y1325035D1*
X7172753Y1337248D1*
X7190862Y1343285D1*
X7215149Y1349321D1*
X7227362Y1355498D1*
X7233399Y1367571D1*
Y1379785D1*
X7227362Y1391858D1*
X7209112Y1397895D1*
X7184826D1*
X7351511D2*
X7290865D1*
X7284828Y1343285D1*
X7290865Y1349321D1*
X7309115Y1355498D1*
X7327224D1*
X7345474Y1349321D1*
X7357688Y1337248D1*
X7363724Y1318998D1*
Y1306925D1*
X7357688Y1288675D1*
X7345474Y1276462D1*
X7327224Y1270425D1*
X7309115D1*
X7290865Y1276462D1*
X7284828Y1282639D1*
X7278651Y1294712D1*
X7402940Y1334160D2*
X7473132D1*
X7512348Y1331212D2*
X7567098D1*
X7585208Y1337248D1*
X7591385Y1343425D1*
X7597421Y1355498D1*
Y1373748D1*
X7591385Y1385821D1*
X7585208Y1391998D1*
X7567098Y1398035D1*
X7512348D1*
Y1270425D1*
X7727746Y1367712D2*
X7721710Y1379785D1*
X7709496Y1391998D1*
X7697423Y1398035D1*
X7673137D1*
X7660923Y1391998D1*
X7648850Y1379785D1*
X7642673Y1367712D1*
X7636637Y1349462D1*
Y1318998D1*
X7642673Y1300889D1*
X7648850Y1288675D1*
X7660923Y1276602D1*
X7673137Y1270425D1*
X7697423D1*
X7709496Y1276602D1*
X7721710Y1288675D1*
X7727746Y1300889D1*
X7766962Y1398035D2*
Y1270425D1*
X7821712D1*
X7839962Y1276602D1*
X7845999Y1282639D1*
X7852035Y1294712D1*
Y1312962D1*
X7845999Y1325175D1*
X7839962Y1331212D1*
X7821712Y1337248D1*
X7839962Y1343425D1*
X7845999Y1349462D1*
X7852035Y1361535D1*
Y1373748D1*
X7845999Y1385821D1*
X7839962Y1391998D1*
X7821712Y1398035D1*
X7766962D1*
Y1337248D2*
X7821712D1*
X7903464Y1276462D2*
X7897287Y1270425D1*
X7891251Y1276462D1*
X7897287Y1282639D1*
X7903464Y1276462D1*
Y1264389D1*
X7897287Y1252175D1*
X7891251Y1246139D1*
X8102626Y1397895D2*
X8084376Y1391858D1*
X8072163Y1373608D1*
X8066126Y1343285D1*
Y1325035D1*
X8072163Y1294712D1*
X8084376Y1276462D1*
X8102626Y1270425D1*
X8114699D1*
X8132949Y1276462D1*
X8145023Y1294712D1*
X8151199Y1325035D1*
Y1343285D1*
X8145023Y1373608D1*
X8132949Y1391858D1*
X8114699Y1397895D1*
X8102626D1*
X8145023Y1373608D2*
X8072163Y1294712D1*
X8251202Y1270425D2*
Y1397895D1*
X8190415Y1312962D1*
X8281525D1*
X8320740Y1334160D2*
X8390933D1*
X8466648Y1397895D2*
X8448398Y1391858D1*
X8436185Y1373608D1*
X8430148Y1343285D1*
Y1325035D1*
X8436185Y1294712D1*
X8448398Y1276462D1*
X8466648Y1270425D1*
X8478722D1*
X8496972Y1276462D1*
X8509045Y1294712D1*
X8515222Y1325035D1*
Y1343285D1*
X8509045Y1373608D1*
X8496972Y1391858D1*
X8478722Y1397895D1*
X8466648D1*
X8509045Y1373608D2*
X8436185Y1294712D1*
X8566651Y1397895D2*
X8633333D1*
X8596974Y1349321D1*
X8615224D1*
X8627297Y1343285D1*
X8633333Y1337248D1*
X8639510Y1318998D1*
Y1306925D1*
X8633333Y1288675D1*
X8621260Y1276462D1*
X8603010Y1270425D1*
X8584760D1*
X8566651Y1276462D1*
X8560614Y1282639D1*
X8554437Y1294712D1*
X8678726Y1334160D2*
X8748918D1*
X8788134Y1373608D2*
X8800347Y1379785D1*
X8818597Y1397895D1*
Y1270425D1*
X8888136Y1397895D2*
X8870027Y1391858D1*
X8863850Y1379785D1*
Y1367571D1*
X8870027Y1355498D1*
X8882100Y1349321D1*
X8906386Y1343285D1*
X8924636Y1337248D1*
X8936709Y1325035D1*
X8942746Y1312962D1*
Y1294712D1*
X8936709Y1282639D1*
X8930673Y1276462D1*
X8912423Y1270425D1*
X8888136D1*
X8870027Y1276462D1*
X8863850Y1282639D1*
X8857813Y1294712D1*
Y1312962D1*
X8863850Y1325035D1*
X8876063Y1337248D1*
X8894173Y1343285D1*
X8918459Y1349321D1*
X8930673Y1355498D1*
X8936709Y1367571D1*
Y1379785D1*
X8930673Y1391858D1*
X8912423Y1397895D1*
X8888136D1*
X8994175Y1276462D2*
X8987998Y1270425D1*
X8981962Y1276462D1*
X8987998Y1282639D1*
X8994175Y1276462D1*
Y1264389D1*
X8987998Y1252175D1*
X8981962Y1246139D1*
X9156837Y1398035D2*
Y1270425D1*
X9241910Y1398035D2*
Y1270425D1*
X9156837Y1337248D2*
X9241910D1*
X9281126Y1355498D2*
Y1294712D1*
X9287162Y1276602D1*
X9299376Y1270425D1*
X9317626D1*
X9329699Y1276602D1*
X9347949Y1294712D1*
Y1355498D2*
Y1270425D1*
X9453988Y1337248D2*
X9447951Y1349462D1*
X9429701Y1355498D1*
X9411451D1*
X9393201Y1349462D1*
X9387165Y1337248D1*
X9393201Y1325175D1*
X9405415Y1318998D1*
X9435738Y1312962D1*
X9447951Y1306925D1*
X9453988Y1294712D1*
Y1288675D1*
X9447951Y1276602D1*
X9429701Y1270425D1*
X9411451D1*
X9393201Y1276602D1*
X9387165Y1288675D1*
X9560026Y1337248D2*
X9553990Y1349462D1*
X9535740Y1355498D1*
X9517490D1*
X9499240Y1349462D1*
X9493203Y1337248D1*
X9499240Y1325175D1*
X9511453Y1318998D1*
X9541776Y1312962D1*
X9553990Y1306925D1*
X9560026Y1294712D1*
Y1288675D1*
X9553990Y1276602D1*
X9535740Y1270425D1*
X9517490D1*
X9499240Y1276602D1*
X9493203Y1288675D1*
X9599242Y1318998D2*
X9672102D1*
Y1331212D1*
X9666065Y1343425D1*
X9660029Y1349462D1*
X9647815Y1355498D1*
X9629565D1*
X9617492Y1349462D1*
X9605279Y1337248D1*
X9599242Y1318998D1*
Y1306925D1*
X9605279Y1288675D1*
X9617492Y1276602D1*
X9629565Y1270425D1*
X9647815D1*
X9660029Y1276602D1*
X9672102Y1288675D1*
X9711317Y1398035D2*
X9717354Y1391998D1*
X9723531Y1398035D1*
X9717354Y1404212D1*
X9711317Y1398035D1*
X9717354Y1355498D2*
Y1270425D1*
X9762747Y1355498D2*
Y1270425D1*
Y1331212D2*
X9780997Y1349462D1*
X9793210Y1355498D1*
X9811320D1*
X9823533Y1349462D1*
X9829570Y1331212D1*
Y1270425D1*
X9868785Y1398035D2*
Y1270425D1*
X9953858Y1398035D2*
Y1270425D1*
X9868785Y1337248D2*
X9953858D1*
M02*
