M48
METRIC,0000.00
T01C0.25
T02C0.5
T03C0.9
T04C1.4
T05C1.55
T06C2.1
T07C2.5
T08C5.0
%
T01
X+003466Y+003809
X+003404Y+004137
X+003758Y+003559
X+003983Y+003592
X+004213Y+003437
X+004329Y+003446
X+004126Y+003262
X+004271Y+002888
X+003893Y+002929
X+003951Y+002658
X+004206Y+002361
X+004516Y+002418
X+004817Y+002470
X+004978Y+002470
X+005093Y+002494
X+004922Y+002323
X+005700Y+002585
X+006289Y+002735
X+006661Y+002930
X+006415Y+003136
X+006155Y+003407
X+005697Y+003566
X+005538Y+003872
X+005652Y+003960
X+005516Y+004100
X+005456Y+004360
X+005458Y+004554
X+005695Y+004463
X+005319Y+004844
X+005275Y+004964
X+005387Y+005614
X+004533Y+006058
X+004296Y+006355
X+003801Y+006186
X+003523Y+006334
X+003592Y+006699
X+003346Y+006699
X+003090Y+006709
X+002839Y+006709
X+003831Y+005382
X+003831Y+005114
X+004270Y+004502
X+004670Y+004008
X+004847Y+003939
X+004722Y+003723
X+005001Y+003700
X+005263Y+003791
X+004890Y+004217
X+005542Y+003237
X+006409Y+004618
X+006215Y+004727
X+006853Y+005732
X+007815Y+005058
X+008066Y+005091
X+007403Y+004653
X+008526Y+004252
X+008293Y+003853
X+008094Y+003603
X+008039Y+003077
X+007854Y+002589
X+007224Y+002932
X+007205Y+003212
X+008903Y+003243
X+009039Y+003390
X+009003Y+002852
X+009503Y+003106
X+009633Y+003817
X+008788Y+005933
X+008575Y+006053
X+008342Y+006694
X+008163Y+006694
X+007903Y+006694
X+007918Y+006324
X+005277Y+006704
X+005012Y+006704
X+004762Y+006710
X+002719Y+003541
X+003484Y+002743
X+003425Y+002354
X+003421Y+002059
T02
X+003715Y+006492
X+003590Y+006492
X+003465Y+006492
X+003340Y+006492
X+003215Y+006492
X+003090Y+006492
X+002965Y+006492
X+002840Y+006492
X+002715Y+006492
X+004637Y+006484
X+004762Y+006484
X+004887Y+006484
X+005012Y+006484
X+005137Y+006484
X+005262Y+006484
X+005387Y+006484
X+007800Y+006482
X+007925Y+006482
X+008050Y+006482
X+008175Y+006482
X+008300Y+006482
X+008425Y+006482
X+008550Y+006482
T03
X+006847Y+002673
X+006847Y+002927
X+006847Y+003181
X+006847Y+003435
T04
X+008641Y+003239
X+008641Y+002985
X+008387Y+003108
X+008387Y+003362
T05
X+010176Y+003227
X+010176Y+002973
X+009922Y+003096
X+009922Y+003350
T06
X+008641Y+003489
X+010176Y+003477
T07
X+008387Y+002862
X+009922Y+002850
T08
X+010421Y+006416
T00
M30
